<?xml version="1.0" standalone="no"?>
<!DOCTYPE svg PUBLIC "-//W3C//DTD SVG 1.1//EN" "http://www.w3.org/Graphics/SVG/1.1/DTD/svg11.dtd" >
<svg xmlns="http://www.w3.org/2000/svg">
<metadata>
This is a custom SVG webfont generated by Font Squirrel.
Copyright   : Copyright Hans Reichel 1996 Published by FontShop International FontFont release 17
</metadata>
<defs>
<font id="DaxBlack" horiz-adv-x="1228" >
<font-face units-per-em="2048" ascent="1638" descent="-410" />
<missing-glyph horiz-adv-x="532" />
<glyph unicode=" "  horiz-adv-x="532" />
<glyph unicode="&#x09;" horiz-adv-x="532" />
<glyph unicode="&#xa0;" horiz-adv-x="532" />
<glyph unicode="!" horiz-adv-x="763" d="M123 1409h549l-99 -860h-352zM152 221.5q0 102.5 71.5 175t174 72.5t174 -72.5t71.5 -175t-71.5 -174.5t-174 -72t-174 72t-71.5 174.5z" />
<glyph unicode="&#x22;" horiz-adv-x="1024" d="M92 1346q66 88 187 88q123 0 188 -88l-72 -633h-231zM555 1346q68 88 190 88q119 0 187 -88l-72 -633h-233z" />
<glyph unicode="#" d="M90 410v215h178l35 192h-145v217h178l65 375h246l-63 -375h164l63 375h248l-64 -373h144v-217h-178l-35 -194h143v-213h-178l-68 -412h-248l70 412h-164l-69 -412h-250l71 410h-143zM514 625h164l35 194h-162z" />
<glyph unicode="$" d="M143 70l101 315q98 -59 210.5 -59t112.5 90q0 45 -34.5 78.5t-118.5 76.5q-258 131 -258 387q0 168 100 292t274 159l-24 262h239l-26 -256q166 -14 272 -76l-84 -260q-102 51 -190 51q-49 0 -85 -24.5t-36 -63.5q0 -47 35 -83.5t123 -88.5q139 -80 213.5 -175t74.5 -251 q0 -160 -99 -279.5t-271 -160.5l28 -285h-245l26 273q-227 8 -338 78z" />
<glyph unicode="%" horiz-adv-x="1888" d="M92 936q0 90 15.5 169t51.5 155.5t108.5 123t173 46.5t173 -46.5t108.5 -123t51 -155.5t15 -169q0 -88 -15 -167t-51 -154.5t-108.5 -120.5t-173 -45t-173 45t-108.5 120.5t-51.5 154.5t-15.5 167zM377 948q0 -150 13 -217t50 -67q63 0 64 284q0 289 -64 289 q-37 0 -50 -68.5t-13 -220.5zM594 27l483 1407l217 -54l-483 -1405zM1100 467q0 90 15 169t51 155.5t109 123t173 46.5t173 -46.5t108.5 -123t51 -155.5t15.5 -169q0 -88 -15.5 -166t-51 -153.5t-108.5 -120.5t-173 -45t-173 45t-109 120.5t-51 153.5t-15 166zM1384 481.5 q0 -149.5 13.5 -218t50.5 -68.5t50 68.5t13 217.5q0 287 -63 287q-37 0 -50.5 -68.5t-13.5 -218z" />
<glyph unicode="&#x26;" horiz-adv-x="1388" d="M61 401q0 248 258 367v4q-174 104 -174 287q0 166 133.5 268.5t352.5 102.5q266 0 407 -91l-133 -264q-82 37 -170 37q-131 0 -131 -104q0 -47 40 -73t108 -26q203 0 530 158l137 -264q-113 -53 -215 -74v-661q-170 -88 -524 -88q-297 0 -458 105t-161 316zM549 436 q0 -94 34.5 -134t125.5 -40q29 0 45 8v385q-205 -45 -205 -219z" />
<glyph unicode="'" horiz-adv-x="561" d="M92 1346q66 88 188.5 88t188.5 -88l-72 -633h-233z" />
<glyph unicode="(" horiz-adv-x="888" d="M82 586q0 276 134 525t441 529l211 -112q-315 -442 -315 -942q0 -502 315 -944l-211 -113q-307 281 -441 529.5t-134 527.5z" />
<glyph unicode=")" horiz-adv-x="888" d="M20 -358q315 442 316 944q0 500 -316 942l211 112q307 -281 441.5 -529.5t134.5 -524.5q0 -279 -134 -527.5t-442 -529.5z" />
<glyph unicode="*" horiz-adv-x="1026" d="M82 1325q0 59 41 101t98.5 42t98 -42t40.5 -101t-42 -100t-99 -41q-55 0 -96 41t-41 100zM193 983q0 61 40.5 102t98 41t97.5 -41t40 -102q0 -59 -41 -100t-96 -41q-57 0 -98 41t-41 100zM375 1538q0 61 41 102t98 41q55 0 96 -41t41 -102q0 -59 -41 -100t-98 -41 q-55 0 -96 41t-41 100zM403 1233q0 47 33 78.5t78 31.5q43 0 76 -31.5t33 -78.5q0 -49 -33 -80t-78 -31q-43 0 -76 32t-33 79zM553 983q0 61 42 102t99 41q55 0 96 -41t41 -102t-40.5 -101t-98.5 -40q-55 0 -97 41t-42 100zM666 1325q0 61 42 102t99 41q55 0 96 -42t41 -101 q0 -61 -42 -103t-99 -40q-55 0 -96 42t-41 101z" />
<glyph unicode="+" d="M178 530v287h293v287h287v-287h293v-287h-293v-286h-287v286h-293z" />
<glyph unicode="," horiz-adv-x="704" d="M-23 -346l207 676q86 137 256 137q168 0 191 -137l-385 -676h-269z" />
<glyph unicode="-" horiz-adv-x="753" d="M74 522v326h606v-326h-606z" />
<glyph unicode="." horiz-adv-x="638" d="M74 221.5q0 102.5 71.5 175t174 72.5t174 -72.5t71.5 -173.5q0 -102 -71.5 -175t-174 -73t-174 72t-71.5 174.5z" />
<glyph unicode="/" d="M0 -352l958 1990l271 -133l-959 -1988z" />
<glyph unicode="0" d="M76 704.5q0 129.5 26.5 249t84 231t168 178.5t260 67t260 -67t168 -178.5t84 -231t26.5 -249t-26.5 -249t-84 -231t-168 -178t-260 -66.5t-260 66.5t-168 178t-84 231t-26.5 249zM510 710.5q0 -225.5 22.5 -327.5t82 -102t82 102t22.5 327.5t-22.5 329t-82 103.5 t-82 -103.5t-22.5 -329z" />
<glyph unicode="1" d="M129 1202q195 23 326 85.5t163 121.5h338v-1409h-467v965q-121 -31 -303 -35z" />
<glyph unicode="2" d="M37 0l463 682q66 96 88 152.5t22 113.5q0 152 -166 152q-150 0 -256 -49l-102 286q180 92 446 93q164 0 281 -41t172 -109t77.5 -133.5t22.5 -134.5q0 -174 -196 -406l-195 -227h391v-379h-1048z" />
<glyph unicode="3" d="M37 68l121 309q115 -59 272 -60q88 0 138 35t50 97q0 152 -288 151v236q272 29 272 170q0 102 -151 102q-135 0 -263 -53l-106 286q180 88 450 89q256 0 390.5 -100.5t134.5 -270.5q0 -84 -51.5 -152.5t-133.5 -107.5v-4q242 -102 242 -349q0 -209 -166 -337.5 t-440 -128.5q-291 0 -471 88z" />
<glyph unicode="4" d="M82 236v260l524 913h457v-934h96v-239h-96v-236h-436v236h-545zM360 475h267v303l10 213h-4q-31 -94 -96 -209z" />
<glyph unicode="5" d="M53 66l119 311q119 -59 274 -60q188 0 189 136q0 53 -38 90t-150.5 59.5t-317.5 -12.5l98 819h820v-377h-500l-17 -168q600 0 600 -418q0 -209 -165.5 -337.5t-438.5 -128.5q-295 0 -473 86z" />
<glyph unicode="6" d="M86 541q0 170 58.5 318.5t148.5 246.5t199.5 171t208 107.5t178.5 40.5l114 -301q-102 -14 -219 -76.5t-184 -164.5q20 4 76 4q86 0 163.5 -18.5t154.5 -63.5t123 -136t46 -218q0 -221 -146.5 -346t-385.5 -125q-147 0 -256 50t-167.5 135t-85 178.5t-26.5 197.5z M506 522q0 -250 119 -250q100 0 100 207q0 188 -164 189l-43 -6q-12 -56 -12 -140z" />
<glyph unicode="7" d="M88 1032v377h1110l-168 -426q-252 -633 -311 -983h-555l479 1032h-555z" />
<glyph unicode="8" d="M76 371q0 121 63.5 199.5t190.5 156.5q-217 150 -217 330q0 168 139 270.5t360 102.5q223 0 363.5 -100.5t140.5 -268.5q0 -100 -53 -173t-164 -145q254 -164 254 -368q0 -182 -146.5 -288.5t-394.5 -106.5q-242 0 -389 102.5t-147 288.5zM469 383q0 -47 39 -88t98.5 -41 t95 35t35.5 90q0 57 -24.5 98t-106.5 96q-84 -53 -110.5 -94t-26.5 -96zM500 1069q0 -49 24.5 -85t102.5 -93q76 53 101.5 91t25.5 85q0 49 -37 82t-90 33q-57 0 -92 -32t-35 -81z" />
<glyph unicode="9" d="M76 956q0 219 150.5 344t391.5 125q119 0 212.5 -33.5t150.5 -89t95 -130t52.5 -149.5t14.5 -157q0 -170 -58.5 -318.5t-148.5 -246.5t-199.5 -172t-208 -108.5t-178.5 -40.5l-114 303q102 14 218.5 76.5t184.5 164.5q-31 -6 -76 -6q-86 0 -163.5 19.5t-154.5 63.5 t-123 135t-46 220zM498 944q0 -188 164 -188q6 0 43 6q12 55 12 139q0 250 -119 250q-100 0 -100 -207z" />
<glyph unicode=":" horiz-adv-x="638" d="M74 221.5q0 102.5 71.5 175t174 72.5t174 -72.5t71.5 -175t-71.5 -174.5t-174 -72t-174 72t-71.5 174.5zM74 880.5q0 102.5 71.5 175t174 72.5t174 -72.5t71.5 -172.5q0 -102 -71.5 -175t-174 -73t-174 71.5t-71.5 174z" />
<glyph unicode=";" horiz-adv-x="704" d="M-23 -346l207 676q86 137 256 137q168 0 191 -137l-385 -676h-269zM139 880.5q0 102.5 72 175t174 72.5t174 -72.5t72 -172.5q0 -102 -72 -175t-174 -73t-174 71.5t-72 174z" />
<glyph unicode="&#x3c;" d="M178 545v256l873 354v-311l-519 -170l519 -172v-309z" />
<glyph unicode="=" d="M178 285v286h873v-286h-873zM178 776v287h873v-287h-873z" />
<glyph unicode="&#x3e;" d="M178 193v309l518 172l-518 170v311l873 -352v-258z" />
<glyph unicode="?" horiz-adv-x="1036" d="M61 1343q172 88 412 89q254 0 398.5 -101.5t144.5 -269.5q0 -137 -94.5 -223t-214.5 -127l-21 -162h-350l-37 289q115 23 173 67.5t58 100.5q0 115 -159 114q-90 0 -197 -47zM266 221.5q0 102.5 72 175t174 72.5t174 -72.5t72 -175t-72 -174.5t-174 -72t-174 72 t-72 174.5z" />
<glyph unicode="@" horiz-adv-x="1773" d="M70 477q0 254 128 474t355 351.5t498 131.5q287 0 464 -160t177 -424q0 -158 -54.5 -316.5t-175.5 -277.5t-278 -119q-82 0 -121 36t-62 112q-141 -145 -282 -146q-143 0 -217 100.5t-74 241.5q0 129 51 256t161 219.5t251 92.5q127 0 221 -115l21 78h194l-104 -465 q-25 -109 -25 -156q0 -84 39 -84q61 0 114.5 56.5t87.5 140.5t53 174t19 166q0 209 -135 329.5t-346 120.5q-221 0 -403.5 -119.5t-279.5 -307t-97 -394.5q0 -264 179 -420.5t454 -156.5q233 0 397 82.5t305 218.5l96 -119q-166 -158 -354 -242t-450 -84 q-356 0 -581.5 195.5t-225.5 529.5zM641 481q0 -86 43 -128t96 -42q80 0 143.5 74t92 163t28.5 161q0 70 -37.5 121t-107.5 51q-117 0 -187.5 -137.5t-70.5 -262.5z" />
<glyph unicode="A" horiz-adv-x="1312" d="M-20 0l438 1409h477l438 -1409h-489l-39 182h-361l-45 -182h-419zM508 449h237l-83 382q-18 88 -25 173h-4q-6 -82 -29 -170z" />
<glyph unicode="B" horiz-adv-x="1306" d="M109 66v1277q182 86 503 87q305 0 457 -111t152 -289q0 -113 -70 -187.5t-158 -103.5v-4q102 -39 179 -129t77 -211q0 -416 -626 -415q-336 0 -514 86zM563 264q20 -8 55 -8q88 0 123 39t35 129q0 96 -38 144q-34 43 -118 43q-11 0 -22 -1l-35 -2v-344zM563 836l35 -2 q12 -1 24 -1q76 0 108 35q38 41 38 136q0 84 -35 123.5t-115 39.5q-33 0 -55 -6v-325z" />
<glyph unicode="C" horiz-adv-x="1032" d="M70 705q0 139 33.5 264t101 230.5t184.5 168t268 62.5q213 0 336 -87l-94 -288q-55 31 -133 30q-113 0 -161 -107.5t-48 -268.5q0 -147 50 -255t155 -108q70 0 129 33l102 -309q-117 -90 -342 -90q-154 0 -269.5 61t-181 166.5t-98 231t-32.5 266.5z" />
<glyph unicode="D" horiz-adv-x="1312" d="M109 66v1277q207 86 450 87q193 0 330 -58.5t212 -164t108.5 -229.5t33.5 -278q0 -117 -19.5 -218t-66.5 -195t-120.5 -161t-189.5 -106.5t-265 -39.5q-291 0 -473 86zM578 307q8 -2 22 -2q61 0 95 30t52.5 120t18.5 258q0 233 -36 318t-138 85q-8 0 -14 -2v-807z" />
<glyph unicode="E" horiz-adv-x="976" d="M109 0v1409h786v-317h-309v-228h260v-309h-260v-238h309v-317h-786z" />
<glyph unicode="F" horiz-adv-x="964" d="M109 0v1409h786v-317h-309v-228h260v-309h-260v-555h-477z" />
<glyph unicode="G" horiz-adv-x="1294" d="M70 709q0 147 42 275t126 228.5t222 159t314 58.5q252 0 420 -91l-139 -292q-82 45 -221 45q-145 0 -216 -91.5t-71 -293.5q0 -209 41 -303.5t133 -94.5q20 0 35 6v271h-99v278h537v-796q-152 -88 -438 -88q-686 0 -686 729z" />
<glyph unicode="H" horiz-adv-x="1355" d="M109 0v1409h477v-545h184v545h477v-1409h-477v555h-184v-555h-477z" />
<glyph unicode="I" horiz-adv-x="694" d="M109 0v1409h477v-1409h-477z" />
<glyph unicode="J" horiz-adv-x="694" d="M-63 -123q76 0 124 51.5t48 147.5v1333h477v-1276q0 -291 -173 -437.5t-476 -146.5v328z" />
<glyph unicode="K" horiz-adv-x="1357" d="M109 0v1409h477v-618h4l254 618h481l-315 -641l346 -768h-529l-237 668h-4v-668h-477z" />
<glyph unicode="L" horiz-adv-x="933" d="M109 0v1409h477v-1092h291v-317h-768z" />
<glyph unicode="M" horiz-adv-x="1669" d="M51 0l131 1409h449l155 -557q23 -80 35 -158h4q18 76 43 156l170 559h447l133 -1409h-451l-30 567l-2 181h-5q-18 -90 -47 -181q-137 -449 -178 -567h-207l-178 567q-31 96 -47 178h-4q2 -41 2 -85.5t-2 -92.5q-23 -467 -29 -567h-389z" />
<glyph unicode="N" horiz-adv-x="1351" d="M109 0v1409h389l286 -455q39 -61 64 -123h4q-8 66 -8 127v451h399v-1409h-348l-336 555q-37 59 -57 123h-4q8 -68 8 -133v-545h-397z" />
<glyph unicode="O" horiz-adv-x="1323" d="M70 704.5q0 319.5 147.5 522.5t446.5 203q154 0 269.5 -57.5t184 -158t102 -228.5t33.5 -281.5t-33.5 -281.5t-102 -228.5t-184.5 -157.5t-269 -57q-299 0 -446.5 202.5t-147.5 522zM557 723q0 -186 20.5 -290.5t86.5 -104.5q63 0 83.5 105.5t20.5 289.5 q0 182 -20.5 288.5t-83.5 106.5q-66 0 -86.5 -104.5t-20.5 -290.5z" />
<glyph unicode="P" horiz-adv-x="1271" d="M109 0v1343q203 86 503 87q315 0 461 -132.5t146 -343.5q0 -219 -153 -349t-464 -130h-29v-475h-464zM573 743h31q92 0 127 45.5t35 167.5q0 115 -30.5 162t-119.5 47q-8 0 -23 -2t-20 -2v-418z" />
<glyph unicode="Q" horiz-adv-x="1323" d="M70 704.5q0 319.5 147.5 522.5t446.5 203q154 0 269.5 -57.5t184 -158t102 -228.5t33.5 -281q0 -418 -225 -605l199 -233l-340 -301l-156 418q-45 -4 -67 -4q-299 0 -446.5 202.5t-147.5 522zM557 723q0 -186 20.5 -290.5t86.5 -104.5q63 0 83.5 105.5t20.5 289.5 q0 182 -20.5 288.5t-83.5 106.5q-66 0 -86.5 -104.5t-20.5 -290.5z" />
<glyph unicode="R" horiz-adv-x="1310" d="M109 0v1343q205 86 495 87q322 0 478.5 -123t156.5 -338q0 -94 -69.5 -192.5t-157.5 -139.5l2 -4l289 -633h-517l-204 586h-4v-586h-469zM578 713q8 -4 22 -4q84 0 128 63.5t44 169.5v15q0 107 -29 154q-31 50 -131 50q-14 0 -34 -4v-444z" />
<glyph unicode="S" horiz-adv-x="1028" d="M39 68l104 333q33 -25 91.5 -46t115.5 -21q111 0 111 76q0 41 -32 72.5t-114 72.5q-262 133 -262 401q0 201 137.5 337.5t360.5 136.5q225 0 371 -87l-97 -288q-98 57 -198 57q-109 0 -109 -78q0 -43 32 -75.5t118 -75.5q182 -92 241.5 -193.5t59.5 -243.5 q0 -199 -145.5 -332.5t-374.5 -133.5q-277 0 -410 88z" />
<glyph unicode="T" horiz-adv-x="1030" d="M66 1092v317h899v-317h-211v-1092h-478v1092h-210z" />
<glyph unicode="U" horiz-adv-x="1298" d="M109 428v981h477v-975q0 -98 82 -98q43 0 60 22.5t17 77.5v973h445v-979q0 -215 -153.5 -335t-387.5 -120q-231 0 -385.5 120t-154.5 333z" />
<glyph unicode="V" horiz-adv-x="1243" d="M-20 1409h501l137 -645l21 -160h4q8 92 23 158l141 647h457l-435 -1409h-413z" />
<glyph unicode="W" horiz-adv-x="1769" d="M12 1409h463l92 -629l15 -157h4q6 78 22 157l129 629h330l125 -629l20 -157h5q2 78 14 157l96 629h430l-303 -1409h-422l-125 500l-22 139h-4q-4 -70 -21 -139l-119 -500h-424z" />
<glyph unicode="X" horiz-adv-x="1220" d="M-20 0l366 711l-336 698h504l104 -313h5l131 313h456l-348 -639l379 -770h-528l-119 334h-4l-123 -334h-487z" />
<glyph unicode="Y" horiz-adv-x="1150" d="M-29 1409h496l125 -428h2l135 428h451l-371 -850v-559h-475v559z" />
<glyph unicode="Z" horiz-adv-x="1044" d="M20 0l363 1092h-301v317h889l-338 -1092h340v-317h-953z" />
<glyph unicode="[" horiz-adv-x="796" d="M102 -440v2048h643v-254h-243v-1538h243v-256h-643z" />
<glyph unicode="\" d="M0 1505l270 133l959 -1990l-271 -131z" />
<glyph unicode="]" horiz-adv-x="796" d="M51 -184h244v1538h-244v254h643v-2048h-643v256z" />
<glyph unicode="^" horiz-adv-x="1327" d="M137 874l355 472q63 82 174 81q109 0 170 -81l354 -472l-189 -178l-335 369l-342 -369z" />
<glyph unicode="_" d="M-20 -229h1269v-273h-1269v273z" />
<glyph unicode="`" horiz-adv-x="614" d="M-4 1503q29 66 174 67t231 -52l136 -308h-248z" />
<glyph unicode="a" horiz-adv-x="1189" d="M49 348q0 100 49 174t140.5 116t191.5 63.5t236 33.5v33q0 80 -144 80q-152 0 -311 -68l-94 256q233 88 495 88q481 0 482 -448v-610q-168 -86 -498 -86q-547 -1 -547 368zM473 369q0 -139 141 -140q39 0 52 7v299q-90 -4 -141.5 -40t-51.5 -126z" />
<glyph unicode="b" horiz-adv-x="1257" d="M96 68v1540h459v-518q92 31 186 30q201 0 328 -144.5t127 -379.5q0 -309 -163 -462.5t-468 -153.5q-324 0 -469 88zM555 254q16 -4 43 -4q145 0 145 311q0 82 -3 127t-16 90t-42 63.5t-76 18.5q-29 0 -51 -6v-600z" />
<glyph unicode="c" horiz-adv-x="878" d="M61 559q0 270 141.5 417.5t340 147.5t297.5 -86l-88 -247q-41 35 -97 34q-131 0 -131 -264q0 -262 131 -262q59 0 97 37l92 -270q-90 -86 -293 -86q-219 0 -354.5 150t-135.5 429z" />
<glyph unicode="d" horiz-adv-x="1257" d="M61 555q0 254 137.5 408.5t352.5 154.5q109 0 151 -14v504h459v-1542q-186 -86 -497 -86q-279 0 -441 142t-162 433zM514 569q0 -305 150 -305q14 0 38 4v594q-8 4 -36 4q-78 0 -115 -69.5t-37 -227.5z" />
<glyph unicode="e" horiz-adv-x="1189" d="M61 555q0 252 140.5 410.5t410.5 158.5q272 0 403 -173q114 -152 114 -395q0 -35 -3 -71l-628 -86q20 -59 64 -85.5t132 -26.5q178 0 301 55l99 -276q-186 -86 -461 -86q-276 0 -424 163.5t-148 411.5zM465 610l240 39q0 215 -113 215q-74 0 -107 -67q-24 -49 -23 -126 q0 -29 3 -61z" />
<glyph unicode="f" horiz-adv-x="811" d="M51 803v301h113v70q0 246 167 359q123 84 302 83q65 0 137 -10v-291q-22 2 -40 2q-50 0 -75 -17q-33 -23 -32 -96v-100h147v-301h-147v-803h-459v803h-113z" />
<glyph unicode="g" horiz-adv-x="1245" d="M61 518q0 293 159 449.5t472 156.5q307 0 457 -86v-1032q0 -248 -148.5 -361.5t-394.5 -113.5q-307 0 -481 90l106 293q131 -66 291 -66q98 0 139 30t41 95v45q-57 -20 -165 -20q-205 0 -340.5 141t-135.5 379zM514 549q0 -162 34 -228.5t111 -66.5q25 0 43 6v596 q-14 6 -43 6q-80 0 -112.5 -69.5t-32.5 -243.5z" />
<glyph unicode="h" horiz-adv-x="1269" d="M96 0v1608h459v-521q104 35 221 35q197 0 297.5 -98t100.5 -262v-762h-459v752q0 96 -105 96q-39 0 -55 -6v-842h-459z" />
<glyph unicode="i" horiz-adv-x="651" d="M92 1425q0 84 68.5 142.5t165 58.5t165 -58.5t68.5 -142.5t-68.5 -142t-165 -58t-165 58t-68.5 142zM96 0v1104h459v-1104h-459z" />
<glyph unicode="j" horiz-adv-x="651" d="M-66 -164q94 27 128 81t34 200v987h459v-922q0 -301 -168 -475t-453 -174v303zM92 1425q0 84 68.5 142.5t165.5 58.5q98 0 165.5 -59.5t67.5 -141.5q0 -84 -67.5 -142t-163.5 -58q-98 0 -167 58t-69 142z" />
<glyph unicode="k" horiz-adv-x="1265" d="M98 0v1608h459v-967h2l227 463h451l-272 -473l321 -631h-510l-215 545h-4v-545h-459z" />
<glyph unicode="l" horiz-adv-x="651" d="M96 0v1608h459v-1608h-459z" />
<glyph unicode="m" horiz-adv-x="1888" d="M96 0v1038q205 88 510 88q236 0 361 -90q141 88 391 88q197 0 315.5 -99t118.5 -273v-752h-459v756q0 41 -29.5 64.5t-74.5 23.5q-27 0 -55 -8v-836h-459v752q0 90 -101 90q-10 0 -59 -6v-836h-459z" />
<glyph unicode="n" horiz-adv-x="1269" d="M96 0v1040q207 84 520 84q291 0 424.5 -92t133.5 -278v-754h-459v750q0 94 -99 94q-18 0 -61 -6v-838h-459z" />
<glyph unicode="o" horiz-adv-x="1208" d="M61 553q0 254 146.5 412.5t396.5 158.5t396.5 -158.5t146.5 -412.5q0 -256 -146.5 -414.5t-396.5 -158.5t-396.5 158.5t-146.5 414.5zM516 561q0 -141 18.5 -207.5t69.5 -66.5t69.5 67.5t18.5 206.5q0 141 -18.5 210t-69.5 69t-69.5 -69t-18.5 -210z" />
<glyph unicode="p" horiz-adv-x="1257" d="M96 -440v1478q193 86 498 86q279 0 440.5 -142t161.5 -433q0 -254 -138 -408.5t-353 -154.5q-106 0 -150 14v-440h-459zM555 258q16 -4 37 -4q82 0 116.5 70.5t34.5 226.5q0 164 -33.5 234.5t-115.5 70.5q-29 0 -39 -2v-596z" />
<glyph unicode="q" horiz-adv-x="1257" d="M61 508q0 279 149.5 447.5t481.5 168.5q303 0 469 -86v-1478h-459v454q-82 -31 -178 -30q-199 0 -331 144t-132 380zM514 551q0 -152 33 -223.5t104 -71.5q33 0 51 6v596q-16 4 -43 4q-74 0 -109.5 -72.5t-35.5 -238.5z" />
<glyph unicode="r" horiz-adv-x="811" d="M96 0v1038q181 87 507 88q95 0 202 -8l-78 -313q-63 38 -126 38l-46 -5v-838h-459z" />
<glyph unicode="s" horiz-adv-x="919" d="M33 66l114 286q84 -63 179 -63q29 0 48 14t19 37q0 59 -98 100q-236 100 -236 308q0 162 114 269t294 107q123 0 206 -18.5t169 -67.5l-109 -256q-68 55 -151 56q-35 0 -53.5 -16.5t-18.5 -41.5q0 -59 98 -106q150 -68 204 -141.5t54 -178.5q0 -170 -124 -272t-345 -102 q-225 0 -364 86z" />
<glyph unicode="t" horiz-adv-x="835" d="M51 803v301h113v215l459 113v-328h147v-301h-147v-420q0 -57 16 -78.5t51 -21.5q33 0 80 20v-280q-63 -45 -215 -46q-190 0 -290.5 99.5t-100.5 261.5v465h-113z" />
<glyph unicode="u" horiz-adv-x="1259" d="M96 387v717h459v-754q0 -68 80 -67q39 0 70 10v811h458v-1038q-180 -86 -532 -86q-272 0 -403.5 92t-131.5 315z" />
<glyph unicode="v" horiz-adv-x="1138" d="M-2 1104h485l80 -479l23 -201h6q8 98 26 201l91 479h432l-342 -1104h-457z" />
<glyph unicode="w" horiz-adv-x="1712" d="M14 1104h453l74 -479q8 -49 12 -97.5t4 -72.5v-23h2q6 84 31 191l108 481h371l100 -479q8 -43 14.5 -91.5t8.5 -74.5l2 -27h4q4 96 21 191l81 481h398l-291 -1104h-432l-94 406q-18 82 -23 178h-2q-4 -96 -22 -178l-97 -406h-432z" />
<glyph unicode="x" horiz-adv-x="1159" d="M-20 0l350 567l-316 537h480l106 -234h4l121 234h424l-326 -508l357 -596h-506l-109 258h-6l-117 -258h-462z" />
<glyph unicode="y" horiz-adv-x="1138" d="M-2 1104h483l74 -486q16 -113 20 -206h5q8 94 30 209l99 483h432l-488 -1544h-477l172 440z" />
<glyph unicode="z" horiz-adv-x="944" d="M41 0l287 803h-246v301h805l-258 -803h258v-301h-846z" />
<glyph unicode="{" horiz-adv-x="899" d="M41 575v228q201 0 201 131v258q0 416 585 416v-219q-113 0 -154.5 -38t-41.5 -128v-289q0 -104 -61.5 -165.5t-159.5 -78.5v-4q98 -16 159.5 -81.5t61.5 -174.5v-293q0 -88 43 -126t153 -38v-223q-586 0 -585 418v262q0 145 -201 145z" />
<glyph unicode="|" horiz-adv-x="552" d="M102 -440v2048h349v-2048h-349z" />
<glyph unicode="}" horiz-adv-x="899" d="M72 -27q111 0 153.5 38t42.5 126v293q0 109 62.5 174.5t161.5 81.5q0 2 -3 4q-98 16 -159.5 77.5t-61.5 166.5v289q0 90 -42 128t-154 38v219q586 0 585 -416v-258q0 -131 201 -131v-228q-201 0 -201 -145v-262q0 -418 -585 -418v223z" />
<glyph unicode="~" horiz-adv-x="1327" d="M131 813q86 172 268 186q98 8 242.5 -61.5t216.5 -63.5q88 8 140.5 45t82.5 109l115 -295q-57 -156 -268 -172q-100 -8 -248 61.5t-221 63.5q-154 -14 -213 -168z" />
<glyph unicode="&#xa1;" horiz-adv-x="763" d="M123 -440l98 860h352l99 -860h-549zM152 745.5q0 102.5 71.5 174t174 71.5t174 -71.5t71.5 -174t-71.5 -174t-174 -71.5t-174 71.5t-71.5 174z" />
<glyph unicode="&#xa2;" d="M164 719q0 193 94 314.5t244 160.5l-27 215h254l-24 -203q139 -14 206 -67l-84 -219q-43 29 -92 28q-61 0 -97 -58.5t-36 -168.5q0 -223 135 -223q53 0 92 28l86 -237q-70 -55 -215 -70l29 -219h-260l33 233q-158 39 -248 163t-90 323z" />
<glyph unicode="&#xa3;" d="M102 0q244 260 244 487q0 70 -18 125h-205v262h131q-18 82 -18 173q0 154 114.5 267t354.5 113q262 0 413 -84l-92 -276q-82 43 -192 43q-168 0 -168 -174q0 -31 6 -62h278v-262h-243q6 -31 6 -88q0 -90 -39 -145h452v-379h-1024z" />
<glyph unicode="&#xa4;" d="M92 324l135 135q-74 117 -73 250q0 131 73 247l-135 136l137 137l136 -133q117 74 250 73.5t249 -73.5l135 133l138 -137l-136 -134q74 -113 74 -250t-74 -251l136 -133l-138 -138l-135 133q-115 -72 -250 -71.5t-249 74.5l-136 -136zM430 708.5q0 -75.5 54.5 -130 t129.5 -54.5q78 0 131.5 53.5t53.5 131.5q0 76 -54.5 130t-130 54t-130 -54.5t-54.5 -130z" />
<glyph unicode="&#xa5;" d="M33 1409h461l135 -440h4l151 440h412l-235 -518l182 16v-176l-246 14l-59 -131l305 15v-176l-314 14v-467h-432v467l-311 -14v176l303 -15l-57 131l-246 -14v176l180 -16z" />
<glyph unicode="&#xa6;" horiz-adv-x="552" d="M102 385h349v-825h-349v825zM102 780v828h349v-828h-349z" />
<glyph unicode="&#xa7;" d="M111 549q0 203 206 336q-82 90 -81 209q0 137 107.5 233t293.5 96q223 0 364 -86l-90 -235q-80 51 -172 51q-94 0 -94 -72q0 -31 13.5 -52t54.5 -54l237 -199q168 -139 168 -317q0 -186 -217 -330q104 -111 105 -254q0 -137 -117 -232.5t-307 -95.5q-242 0 -379 91 l96 266q84 -63 195 -64q94 0 94 60q0 49 -53 92l-240 201q-100 84 -142 163.5t-42 192.5zM428 616q0 -78 64 -131l215 -178q66 51 65 113q0 68 -67 125l-213 180q-64 -41 -64 -109z" />
<glyph unicode="&#xa8;" horiz-adv-x="614" d="M-111 1362q0 68 55.5 114t131.5 46q78 0 134 -46t56 -114t-56 -114t-134 -46q-76 0 -131.5 46t-55.5 114zM348 1362q0 68 55.5 114t133.5 46q76 0 132 -46t56 -114t-56.5 -114t-131.5 -46q-78 0 -133.5 46t-55.5 114z" />
<glyph unicode="&#xa9;" horiz-adv-x="1597" d="M70 704.5q0 303.5 214 516.5t515 213t515 -214t214 -515q0 -303 -214 -516.5t-515 -213.5t-515 213t-214 516.5zM233 704.5q0 -235.5 164 -402.5t401.5 -167t401.5 167t164 402.5t-164 402.5t-401.5 167t-401.5 -167t-164 -402.5zM379 708.5q0 176.5 126 300.5t302 124 q186 0 319 -148l-137 -111q-86 86 -182 87q-102 0 -175 -75t-73 -177.5t73 -177t175 -74.5q96 0 184 88l142 -111q-78 -78 -153 -113.5t-173 -35.5q-176 0 -302 123.5t-126 300z" />
<glyph unicode="&#xaa;" horiz-adv-x="829" d="M61 911q0 131 107.5 187.5t292.5 70.5v19q0 51 -92 51q-96 0 -203 -41l-62 168q152 57 328 57q315 0 316 -295v-403q-111 -55 -328 -55q-359 -1 -359 241zM338 922q0 -49 21.5 -68.5t66.5 -19.5q18 0 35 4v194q-123 -12 -123 -110z" />
<glyph unicode="&#xab;" horiz-adv-x="1187" d="M41 684l299 524l252 -139l-219 -385l219 -383l-252 -139zM555 684l299 524l252 -139l-219 -385l219 -383l-252 -139z" />
<glyph unicode="&#xac;" d="M178 530v287h873v-573h-293v286h-580z" />
<glyph unicode="&#xad;" horiz-adv-x="753" d="M74 522v326h606v-326h-606z" />
<glyph unicode="&#xae;" horiz-adv-x="1597" d="M70 704.5q0 303.5 214 516.5t515 213t515 -214t214 -515q0 -303 -214 -516.5t-515 -213.5t-515 213t-214 516.5zM233 704.5q0 -235.5 164 -402.5t401.5 -167t401.5 167t164 402.5t-165 404.5t-400.5 169t-400.5 -169t-165 -404.5zM530 315v770q106 53 230 54 q162 0 239.5 -76t77.5 -172q0 -176 -178 -236l236 -340h-224l-198 320h-6v-320h-177zM707 752h26q88 0 125 29.5t37 105.5q0 106 -143 106q-27 0 -45 -6v-235z" />
<glyph unicode="&#xaf;" horiz-adv-x="614" d="M-68 1270v225h750v-225h-750z" />
<glyph unicode="&#xb0;" horiz-adv-x="839" d="M82 1100q0 139 99.5 238.5t238.5 99.5t238.5 -99.5t99.5 -238.5t-99.5 -238.5t-238.5 -99.5t-238.5 99.5t-99.5 238.5zM285 1099.5q0 -55.5 40 -95t95 -39.5t95 39.5t40 95t-40 95.5t-95 40t-95 -40t-40 -95.5z" />
<glyph unicode="&#xb1;" d="M178 129v258h873v-258h-873zM178 735v258h293v258h287v-258h293v-258h-293v-258h-287v258h-293z" />
<glyph unicode="&#xb2;" horiz-adv-x="819" d="M41 516l297 438q41 63 54.5 92t13.5 64q0 84 -111 84q-68 0 -145 -29l-72 199q115 57 289 57q106 0 181 -25.5t109.5 -69.5t48 -85t13.5 -88q0 -109 -125 -258l-105 -125h248v-254h-696z" />
<glyph unicode="&#xb3;" horiz-adv-x="819" d="M53 565l80 211q74 -37 176 -37q104 0 105 66q0 86 -176 86v166q168 16 168 88q0 25 -27 44t-78 19q-78 0 -145 -32l-74 190q123 59 291 59q162 0 249 -64.5t87 -174.5q0 -104 -105 -162q141 -68 141 -217q0 -135 -107.5 -218t-279.5 -83q-182 0 -305 59z" />
<glyph unicode="&#xb4;" horiz-adv-x="614" d="M78 1210l135 308q86 53 231.5 52t173.5 -67l-292 -293h-248z" />
<glyph unicode="&#xb5;" horiz-adv-x="1269" d="M96 -440v1544h459v-844q35 -10 72 -10q63 0 88 12v842h459v-1038q-166 -86 -390 -86q-133 0 -229 36v-456h-459z" />
<glyph unicode="&#xb6;" d="M35 965q0 225 154.5 334.5t408.5 109.5h555v-188h-76v-1661h-256v1661h-153v-1661h-260v989q-172 37 -272.5 145.5t-100.5 270.5z" />
<glyph unicode="&#xb7;" horiz-adv-x="655" d="M82 704.5q0 102.5 71.5 174t174 71.5t174 -71.5t71.5 -174t-71.5 -174t-174 -71.5t-174 71.5t-71.5 174z" />
<glyph unicode="&#xb8;" horiz-adv-x="614" d="M-4 -438l70 129q96 -10 158.5 -3t92 22.5t29.5 33.5t-17.5 27.5t-68.5 13.5t-145 -4l67 115q242 18 339 -19t97 -129q0 -117 -167.5 -166t-454.5 -20z" />
<glyph unicode="&#xb9;" horiz-adv-x="819" d="M102 1280q127 14 204 51t104 78h225v-893h-311l2 600q-82 -18 -185 -20z" />
<glyph unicode="&#xba;" horiz-adv-x="829" d="M51 1049q0 166 99.5 271t263.5 105q166 0 265 -105.5t99 -270.5q0 -168 -99 -273.5t-265 -105.5t-264.5 105.5t-98.5 273.5zM352 1055q0 -94 12.5 -138.5t49.5 -44.5t50 43t13 138q0 98 -13 141t-50 43t-49.5 -44t-12.5 -138z" />
<glyph unicode="&#xbb;" horiz-adv-x="1187" d="M82 301l219 383l-219 385l252 139l299 -524l-299 -522zM596 301l219 383l-219 385l252 139l299 -524l-299 -522z" />
<glyph unicode="&#xbc;" horiz-adv-x="1843" d="M41 1280q127 14 206 51t103 78h228v-893h-312v600q-82 -18 -186 -20zM506 14l594 1475l233 -92l-596 -1475zM1073 147v177l328 571h301l-2 -582h61v-166h-59v-147h-297v147h-332zM1237 313h166v152l4 156h-4q-39 -82 -78 -152z" />
<glyph unicode="&#xbd;" horiz-adv-x="1843" d="M41 1280q127 14 206 51t103 78h228v-893h-312v600q-82 -18 -186 -20zM473 14l594 1475l233 -92l-595 -1475zM1063 0l299 438q41 63 54.5 92t13.5 64q0 84 -111 84q-51 0 -119 -27l-74 199q119 55 265 55q106 0 181 -25.5t109.5 -69.5t48 -85t13.5 -88q0 -109 -125 -258 l-105 -125h248v-254h-698z" />
<glyph unicode="&#xbe;" horiz-adv-x="1843" d="M51 565l80 211q74 -37 176 -37q104 0 105 66q0 86 -176 86v166q168 16 167 88q0 25 -26.5 44t-77.5 19q-78 0 -145 -32l-74 190q123 59 291 59q162 0 249 -64.5t87 -174.5q0 -104 -105 -162q139 -66 139 -217q0 -135 -106.5 -218t-278.5 -83q-182 0 -305 59zM565 14 l594 1475l234 -92l-596 -1475zM1083 147v177l328 571h301l-2 -582h62v-166h-60v-147h-297v147h-332zM1245 313h168v152l4 156h-4q-35 -78 -78 -152z" />
<glyph unicode="&#xbf;" horiz-adv-x="1036" d="M61 -88q0 72 30 133t80 103t98 69t102 45l20 162h350l37 -289q-115 -23 -173 -69t-58 -101q0 -49 38 -82t122 -33q86 0 196 50l113 -273q-176 -86 -410 -86q-256 0 -400.5 100.5t-144.5 270.5zM319 749.5q0 102.5 72 174t174.5 71.5t174 -71.5t71.5 -174t-71.5 -174 t-174 -71.5t-174.5 71.5t-72 174z" />
<glyph unicode="&#xc0;" horiz-adv-x="1312" d="M-20 0l438 1409h477l438 -1409h-489l-39 182h-361l-45 -182h-419zM258 1808q29 66 174.5 66t229.5 -53l137 -308h-248zM508 449h237l-83 382q-18 88 -25 173h-4q-6 -82 -29 -170z" />
<glyph unicode="&#xc1;" horiz-adv-x="1312" d="M-20 0l438 1409h477l438 -1409h-489l-39 182h-361l-45 -182h-419zM504 1513l135 308q86 53 231.5 53t173.5 -66l-292 -295h-248zM508 449h237l-83 382q-18 88 -25 173h-4q-6 -82 -29 -170z" />
<glyph unicode="&#xc2;" horiz-adv-x="1312" d="M-20 0l438 1409h477l438 -1409h-489l-39 182h-361l-45 -182h-419zM313 1593l228 228q45 45 112.5 45t112.5 -45l227 -228l-121 -112l-219 149l-217 -149zM508 449h237l-83 382q-18 88 -25 173h-4q-6 -82 -29 -170z" />
<glyph unicode="&#xc3;" horiz-adv-x="1312" d="M-20 0l438 1409h477l438 -1409h-489l-39 182h-361l-45 -182h-419zM285 1686q55 115 184 126q66 6 164 -41t147 -42q111 10 152 104l78 -201q-39 -104 -183 -119q-68 -6 -168 42.5t-149 43.5q-102 -8 -148 -114zM508 449h237l-83 382q-18 88 -25 173h-4q-6 -82 -29 -170z " />
<glyph unicode="&#xc4;" horiz-adv-x="1312" d="M-20 0l438 1409h477l438 -1409h-489l-39 182h-361l-45 -182h-419zM238 1654.5q0 67.5 55 115t131 47.5q78 0 134 -47.5t56 -115t-56 -113.5t-134 -46q-76 0 -131 46t-55 113.5zM508 449h237l-83 382q-18 88 -25 173h-4q-6 -82 -29 -170zM698 1654.5q0 67.5 55.5 115 t131.5 47.5q78 0 134 -47.5t56 -115t-56 -113.5t-134 -46q-76 0 -131.5 46t-55.5 113.5z" />
<glyph unicode="&#xc5;" horiz-adv-x="1312" d="M-20 0l438 1409h477l438 -1409h-489l-39 182h-361l-45 -182h-419zM457 1692q0 82 57 139t139 57t140.5 -57t58.5 -139t-57.5 -139.5t-139.5 -57.5t-140 57.5t-58 139.5zM508 449h240l-86 382q-20 88 -25 173h-4q-6 -82 -29 -170zM582 1691.5q0 -30.5 21.5 -52t49.5 -21.5 q31 0 52.5 21.5t21.5 52t-21.5 52t-52.5 21.5q-29 0 -50 -21.5t-21 -52z" />
<glyph unicode="&#xc6;" horiz-adv-x="1579" d="M-51 0l594 1409h823v-317h-311l47 -228h264v-309h-201l49 -238h304v-317h-701l-20 182h-359l-65 -182h-424zM547 457h225l-43 372l-8 148h-4q-14 -76 -39 -148z" />
<glyph unicode="&#xc7;" horiz-adv-x="1032" d="M70 705q0 139 33.5 264t101 230.5t184.5 168t268 62.5q213 0 336 -87l-94 -288q-55 31 -133 30q-113 0 -161 -107.5t-48 -268.5q0 -147 50 -255t155 -108q70 0 129 33l102 -309q-117 -90 -342 -90q-154 0 -269.5 61t-181 166.5t-98 231t-32.5 266.5zM258 -438l70 129 q96 -10 158.5 -3t92 22.5t29.5 33.5q0 55 -231 37l65 115q242 18 340.5 -19t98.5 -129q0 -115 -169 -165t-454 -21z" />
<glyph unicode="&#xc8;" horiz-adv-x="970" d="M109 0v1409h786v-317h-309v-228h260v-309h-260v-238h309v-317h-786zM147 1808q29 66 174.5 66t229.5 -53l137 -308h-248z" />
<glyph unicode="&#xc9;" horiz-adv-x="970" d="M109 0v1409h786v-317h-309v-228h260v-309h-260v-238h309v-317h-786zM317 1513l136 308q86 53 231 53t174 -66l-293 -295h-248z" />
<glyph unicode="&#xca;" horiz-adv-x="970" d="M109 0v1409h786v-317h-309v-228h260v-309h-260v-238h309v-317h-786zM143 1593l228 228q45 45 112.5 45t112.5 -45l227 -228l-121 -112l-219 149l-217 -149z" />
<glyph unicode="&#xcb;" horiz-adv-x="970" d="M84 1654.5q0 67.5 55.5 115t130.5 47.5q78 0 134.5 -47.5t56.5 -115t-56.5 -113.5t-134.5 -46q-76 0 -131 46t-55 113.5zM111 0v1409h786v-317h-309v-228h260v-309h-260v-238h309v-317h-786zM543 1654.5q0 67.5 55 115t133 47.5q76 0 132.5 -47.5t56.5 -115t-56.5 -113.5 t-132.5 -46q-78 0 -133 46t-55 113.5z" />
<glyph unicode="&#xcc;" horiz-adv-x="694" d="M-10 1808q29 66 174 66t231 -53l135 -308h-247zM106 0v1409h478v-1409h-478z" />
<glyph unicode="&#xcd;" horiz-adv-x="694" d="M111 0v1409h477v-1409h-477zM164 1513l135 308q86 53 231.5 53t174.5 -66l-293 -295h-248z" />
<glyph unicode="&#xce;" horiz-adv-x="694" d="M8 1591l225 230q43 45 113 45q72 0 115 -45l225 -230l-121 -112l-219 151l-217 -151zM109 0v1409h477v-1409h-477z" />
<glyph unicode="&#xcf;" horiz-adv-x="694" d="M-72 1654.5q0 67.5 55.5 115t131.5 47.5q78 0 134 -47.5t56 -115t-56 -113.5t-134 -46q-76 0 -131.5 46t-55.5 113.5zM106 0v1409h478v-1409h-478zM389 1654.5q0 67.5 55.5 115t133.5 47.5q76 0 132 -47.5t56 -115t-56.5 -113.5t-131.5 -46q-78 0 -133.5 46t-55.5 113.5z " />
<glyph unicode="&#xd0;" horiz-adv-x="1351" d="M49 600v283h82v460q207 86 457 87q193 0 332 -58.5t215.5 -163t111.5 -229.5t35 -277q0 -150 -34 -272.5t-108.5 -227t-209.5 -163.5t-322 -59q-301 0 -477 88v532h-82zM592 301q8 -2 26 -2q100 0 146.5 85t46.5 329q0 229 -44 319t-155 90q-12 0 -20 -2v-237h90v-283 h-90v-299z" />
<glyph unicode="&#xd1;" horiz-adv-x="1351" d="M109 0v1409h389l286 -455q39 -61 64 -123h4q-8 66 -8 127v451h399v-1409h-348l-336 555q-37 59 -57 123h-4q8 -68 8 -133v-545h-397zM301 1686q55 115 184 126q66 6 164.5 -41t147.5 -42q111 10 151 104l78 -201q-39 -104 -182 -119q-68 -6 -168.5 42.5t-149.5 43.5 q-102 -8 -147 -114z" />
<glyph unicode="&#xd2;" horiz-adv-x="1323" d="M70 704.5q0 319.5 147.5 522.5t446.5 203q154 0 269.5 -57.5t184 -158t102 -228.5t33.5 -281.5t-33.5 -281.5t-102 -228.5t-184.5 -157.5t-269 -57q-299 0 -446.5 202.5t-147.5 522zM309 1808q29 66 174.5 66t229.5 -53l137 -308h-248zM557 723q0 -186 20.5 -290.5 t86.5 -104.5q63 0 83.5 105.5t20.5 289.5q0 182 -20.5 288.5t-83.5 106.5q-66 0 -86.5 -104.5t-20.5 -290.5z" />
<glyph unicode="&#xd3;" horiz-adv-x="1323" d="M70 704.5q0 319.5 147.5 522.5t446.5 203q154 0 269.5 -57.5t184 -158t102 -228.5t33.5 -281.5t-33.5 -281.5t-102 -228.5t-184.5 -157.5t-269 -57q-299 0 -446.5 202.5t-147.5 522zM475 1513l135 308q86 53 231.5 53t174.5 -66l-293 -295h-248zM557 723 q0 -186 20.5 -290.5t86.5 -104.5q63 0 83.5 105.5t20.5 289.5q0 182 -20.5 288.5t-83.5 106.5q-66 0 -86.5 -104.5t-20.5 -290.5z" />
<glyph unicode="&#xd4;" horiz-adv-x="1323" d="M70 704.5q0 319.5 147.5 522.5t446.5 203q154 0 269.5 -57.5t184 -158t102 -228.5t33.5 -281.5t-33.5 -281.5t-102 -228.5t-184.5 -157.5t-269 -57q-299 0 -446.5 202.5t-147.5 522zM324 1593l227 228q45 45 112.5 45t112.5 -45l228 -228l-121 -112l-219 149l-218 -149z M557 723q0 -186 20.5 -290.5t86.5 -104.5q63 0 83.5 105.5t20.5 289.5q0 182 -20.5 288.5t-83.5 106.5q-66 0 -86.5 -104.5t-20.5 -290.5z" />
<glyph unicode="&#xd5;" horiz-adv-x="1323" d="M70 704.5q0 319.5 147.5 522.5t446.5 203q154 0 269.5 -57.5t184 -158t102 -228.5t33.5 -281.5t-33.5 -281.5t-102 -228.5t-184.5 -157.5t-269 -57q-299 0 -446.5 202.5t-147.5 522zM305 1686q55 115 184 126q66 6 164.5 -41t147.5 -42q111 10 151 104l78 -201 q-39 -104 -182 -119q-68 -6 -168 42.5t-150 43.5q-102 -8 -147 -114zM557 723q0 -186 20.5 -290.5t86.5 -104.5q63 0 83.5 105.5t20.5 289.5q0 182 -20.5 288.5t-83.5 106.5q-66 0 -86.5 -104.5t-20.5 -290.5z" />
<glyph unicode="&#xd6;" horiz-adv-x="1323" d="M70 704.5q0 319.5 147.5 522.5t446.5 203q154 0 269.5 -57.5t184 -158t102 -228.5t33.5 -281.5t-33.5 -281.5t-102 -228.5t-184.5 -157.5t-269 -57q-299 0 -446.5 202.5t-147.5 522zM246 1654.5q0 67.5 54 115t132 47.5q76 0 132.5 -47.5t56.5 -115t-56.5 -113.5 t-132.5 -46q-78 0 -132 46t-54 113.5zM557 723q0 -186 20.5 -290.5t86.5 -104.5q63 0 83.5 105.5t20.5 289.5q0 182 -20.5 288.5t-83.5 106.5q-66 0 -86.5 -104.5t-20.5 -290.5zM707 1654.5q0 67.5 54 115t132 47.5q76 0 132 -47.5t56 -115t-56 -113.5t-132 -46 q-78 0 -132 46t-54 113.5z" />
<glyph unicode="&#xd7;" d="M166 932l190 190l258 -258l256 258l193 -192l-258 -256l258 -258l-191 -191l-258 258l-256 -258l-190 193l254 256z" />
<glyph unicode="&#xd8;" horiz-adv-x="1323" d="M70 705q0 319 147.5 522t446.5 203q180 0 313 -84l108 174l119 -74l-121 -191q170 -190 170 -550q0 -154 -33.5 -282t-102 -228.5t-184.5 -157.5t-269 -57q-195 0 -334 94l-119 -189l-119 74l135 211q-157 193 -157 535zM524 637l250 391q-33 123 -110 123 q-80 0 -110 -112.5t-30 -315.5v-86zM551 420q33 -125 113 -125q78 0 107.5 112.5t29.5 315.5q0 59 -2 88z" />
<glyph unicode="&#xd9;" horiz-adv-x="1298" d="M109 428v981h477v-975q0 -98 82 -98q43 0 60 22.5t17 77.5v973h445v-979q0 -215 -153.5 -335t-387.5 -120q-231 0 -385.5 120t-154.5 333zM315 1808q29 66 174.5 66t229.5 -53l137 -308h-248z" />
<glyph unicode="&#xda;" horiz-adv-x="1298" d="M109 428v981h477v-975q0 -98 82 -98q43 0 60 22.5t17 77.5v973h445v-979q0 -215 -153.5 -335t-387.5 -120q-231 0 -385.5 120t-154.5 333zM475 1513l135 308q86 53 231.5 53t174.5 -66l-293 -295h-248z" />
<glyph unicode="&#xdb;" horiz-adv-x="1298" d="M109 428v981h477v-975q0 -98 82 -98q43 0 60 22.5t17 77.5v973h445v-979q0 -215 -153.5 -335t-387.5 -120q-231 0 -385.5 120t-154.5 333zM326 1593l227 228q45 45 112.5 45t112.5 -45l228 -228l-121 -112l-219 149l-217 -149z" />
<glyph unicode="&#xdc;" horiz-adv-x="1298" d="M109 428v981h477v-975q0 -98 82 -98q43 0 60 22.5t17 77.5v973h445v-979q0 -215 -153.5 -335t-387.5 -120q-231 0 -385.5 120t-154.5 333zM248 1654.5q0 67.5 54 115t132 47.5q76 0 132.5 -47.5t56.5 -115t-56.5 -113.5t-132.5 -46q-78 0 -132 46t-54 113.5zM709 1654.5 q0 67.5 54 115t132 47.5q76 0 132 -47.5t56 -115t-56 -113.5t-132 -46q-78 0 -132 46t-54 113.5z" />
<glyph unicode="&#xdd;" horiz-adv-x="1150" d="M-29 1409h504l125 -428h2l135 428h443l-371 -850v-559h-475v559zM438 1513l135 308q86 53 231.5 53t174.5 -66l-293 -295h-248z" />
<glyph unicode="&#xde;" horiz-adv-x="1271" d="M109 0v1409h464v-211q18 4 64 4q582 0 582 -469q0 -227 -150.5 -362t-464.5 -115l-31 2v-258h-464zM573 535h17q100 0 138 47t38 153q0 100 -36 150.5t-122 50.5q-25 0 -35 -2v-399z" />
<glyph unicode="&#xdf;" horiz-adv-x="1339" d="M96 0v983q0 303 150.5 474t417.5 171q246 0 397 -156.5t151 -381.5q0 -113 -20 -175q-68 -16 -97.5 -45.5t-29.5 -81.5q0 -39 18.5 -67.5t67.5 -69.5q72 -63 103.5 -128.5t31.5 -157.5q0 -186 -119.5 -284.5t-294.5 -98.5q-180 0 -260 75l66 295q45 -39 92 -39 q27 0 46.5 17.5t19.5 46.5q0 57 -74 117q-121 92 -121 256q0 160 121 239q8 31 8 80q0 250 -106 250q-111 0 -111 -295v-1024h-457z" />
<glyph unicode="&#xe0;" horiz-adv-x="1189" d="M49 348q0 100 49 174t140.5 116t191.5 63.5t236 33.5v33q0 80 -144 80q-152 0 -311 -68l-94 256q233 88 495 88q481 0 482 -448v-610q-168 -86 -498 -86q-547 -1 -547 368zM264 1503q29 66 174.5 67t229.5 -52l137 -308h-248zM473 369q0 -139 141 -140q39 0 52 7v299 q-90 -4 -141.5 -40t-51.5 -126z" />
<glyph unicode="&#xe1;" horiz-adv-x="1189" d="M49 348q0 100 49 174t140.5 116t191.5 63.5t236 33.5v33q0 80 -144 80q-152 0 -311 -68l-94 256q233 88 495 88q481 0 482 -448v-610q-168 -86 -498 -86q-547 -1 -547 368zM471 1210l135 308q86 53 231.5 52t174.5 -67l-293 -293h-248zM473 369q0 -139 141 -140 q39 0 52 7v299q-90 -4 -141.5 -40t-51.5 -126z" />
<glyph unicode="&#xe2;" horiz-adv-x="1189" d="M49 348q0 100 49 174t140.5 116t191.5 63.5t236 33.5v33q0 80 -144 80q-152 0 -311 -68l-94 256q233 88 495 88q481 0 482 -448v-610q-168 -86 -498 -86q-547 -1 -547 368zM274 1288l228 228q47 47 112.5 47t112.5 -47l227 -228l-120 -112l-220 149l-219 -149zM473 369 q0 -139 141 -140q39 0 52 7v299q-90 -4 -141.5 -40t-51.5 -126z" />
<glyph unicode="&#xe3;" horiz-adv-x="1189" d="M49 348q0 100 49 174t140.5 116t191.5 63.5t236 33.5v33q0 80 -144 80q-152 0 -311 -68l-94 256q233 88 495 88q481 0 482 -448v-610q-168 -86 -498 -86q-547 -1 -547 368zM240 1380q55 115 184 127q66 6 164 -41t147 -43q109 8 152 105l78 -201q-39 -106 -183 -117 q-68 -6 -168 41t-149 43q-102 -8 -148 -112zM473 369q0 -139 141 -140q39 0 52 7v299q-90 -4 -141.5 -40t-51.5 -126z" />
<glyph unicode="&#xe4;" horiz-adv-x="1189" d="M49 348q0 100 49 174t140.5 116t191.5 63.5t236 33.5v33q0 80 -144 80q-152 0 -311 -68l-94 256q233 88 495 88q481 0 482 -448v-610q-168 -86 -498 -86q-547 -1 -547 368zM199 1362q0 68 55 114t131 46q78 0 134 -46t56 -114t-56 -114t-134 -46q-76 0 -131 46t-55 114z M473 369q0 -139 141 -140q39 0 52 7v299q-90 -4 -141.5 -40t-51.5 -126zM659 1362q0 68 55.5 114t131.5 46q78 0 134 -46t56 -114t-56 -114t-134 -46q-76 0 -131.5 46t-55.5 114z" />
<glyph unicode="&#xe5;" horiz-adv-x="1189" d="M49 348q0 100 49 174t140.5 116t191.5 63.5t236 33.5v33q0 80 -144 80q-152 0 -311 -68l-94 256q233 88 495 88q481 0 482 -448v-610q-168 -86 -498 -86q-547 -1 -547 368zM418 1386.5q0 81.5 57 140t139 58.5t139.5 -57.5t57.5 -139t-57.5 -140t-139.5 -58.5t-139 57.5 t-57 139zM473 369q0 -139 141 -140q39 0 52 4v302q-90 -4 -141.5 -40t-51.5 -126zM541 1386q0 -29 21.5 -50t52 -21t52 21.5t21.5 49.5q0 31 -21.5 52.5t-52 21.5t-52 -21.5t-21.5 -52.5z" />
<glyph unicode="&#xe6;" horiz-adv-x="1751" d="M49 348q0 98 46 171t133 115t186.5 65.5t230.5 35.5v33q0 43 -30.5 61.5t-100.5 18.5q-145 0 -309 -68l-94 256q227 88 485 88q186 0 278 -104q55 45 139.5 74.5t164.5 29.5q270 0 399 -174t111 -469l-617 -84q18 -55 57 -83.5t129 -28.5q176 0 291 53l101 -272 q-182 -86 -463 -86q-178 0 -309 122q-102 -123 -347 -122q-223 0 -352 91t-129 277zM461 367q0 -135 94 -136q90 0 90 91v213q-86 -8 -135 -44t-49 -124zM1038 618l230 33q0 215 -117 215q-125 0 -113 -248z" />
<glyph unicode="&#xe7;" horiz-adv-x="878" d="M61 559q0 270 141.5 417.5t340 147.5t297.5 -86l-88 -247q-41 35 -97 34q-131 0 -131 -264q0 -262 131 -262q59 0 97 37l92 -270q-90 -86 -293 -86q-219 0 -354.5 150t-135.5 429zM141 -438l70 129q96 -10 158.5 -3t92.5 22.5t30 33.5q0 55 -232 37l66 115 q242 18 340 -19t98 -129q0 -115 -169 -165t-454 -21z" />
<glyph unicode="&#xe8;" horiz-adv-x="1189" d="M61 555q0 252 140.5 410.5t410.5 158.5q272 0 402.5 -173t111.5 -466l-628 -86q20 -59 64 -85.5t132 -26.5q178 0 301 55l99 -276q-186 -86 -461 -86q-276 0 -424 163.5t-148 411.5zM238 1503q29 66 174 67t229 -52l137 -308h-248zM465 610l240 39q0 215 -113 215 q-74 0 -106.5 -67.5t-20.5 -186.5z" />
<glyph unicode="&#xe9;" horiz-adv-x="1189" d="M61 555q0 252 140.5 410.5t410.5 158.5q272 0 402.5 -173t111.5 -466l-628 -86q20 -59 64 -85.5t132 -26.5q178 0 301 55l99 -276q-186 -86 -461 -86q-276 0 -424 163.5t-148 411.5zM465 610l240 39q0 215 -113 215q-74 0 -106.5 -67.5t-20.5 -186.5zM465 1210l135 308 q86 53 231.5 52t174.5 -67l-293 -293h-248z" />
<glyph unicode="&#xea;" horiz-adv-x="1189" d="M61 555q0 252 140.5 410.5t410.5 158.5q272 0 402.5 -173t111.5 -466l-628 -86q20 -59 64 -85.5t132 -26.5q178 0 301 55l99 -276q-186 -86 -461 -86q-276 0 -424 163.5t-148 411.5zM266 1288l228 228q47 47 112.5 47t112.5 -47l227 -228l-121 -112l-219 149l-219 -149z M465 610l240 39q0 215 -113 215q-74 0 -106.5 -67.5t-20.5 -186.5z" />
<glyph unicode="&#xeb;" horiz-adv-x="1189" d="M61 555q0 252 140.5 410.5t410.5 158.5q272 0 402.5 -173t111.5 -466l-628 -86q20 -59 64 -85.5t132 -26.5q178 0 301 55l99 -276q-186 -86 -461 -86q-276 0 -424 163.5t-148 411.5zM190 1362q0 68 55.5 114t131.5 46q78 0 134 -46t56 -114t-56 -114t-134 -46 q-76 0 -131.5 46t-55.5 114zM465 610l240 39q0 215 -113 215q-74 0 -106.5 -67.5t-20.5 -186.5zM649 1362q0 68 55.5 114t133.5 46q76 0 132 -46t56 -114t-56.5 -114t-131.5 -46q-78 0 -133.5 46t-55.5 114z" />
<glyph unicode="&#xec;" horiz-adv-x="651" d="M-27 1503q29 66 174.5 67t231.5 -52l135 -308h-248zM96 0v1104h459v-1104h-459z" />
<glyph unicode="&#xed;" horiz-adv-x="651" d="M96 0v1104h459v-1104h-459zM137 1210l135 308q86 53 231.5 52t174.5 -67l-293 -293h-248z" />
<glyph unicode="&#xee;" horiz-adv-x="651" d="M-14 1288l227 228q47 47 112.5 47t112.5 -47l228 -228l-121 -112l-219 149l-220 -149zM96 0v1104h459v-1104h-459z" />
<glyph unicode="&#xef;" horiz-adv-x="651" d="M-92 1362q0 68 54 114t132 46t133.5 -46t55.5 -114t-55.5 -114t-133.5 -46t-132 46t-54 114zM94 0v1104h459v-1104h-459zM369 1362q0 68 54 114t132 46q76 0 132 -46t56 -114t-56 -114t-132 -46q-78 0 -132 46t-54 114z" />
<glyph unicode="&#xf0;" horiz-adv-x="1236" d="M61 553q0 252 139.5 411.5t348.5 159.5q25 0 53 -4q-27 72 -70 131l-186 -63q-49 90 -119 166l174 57q-39 45 -102 100l393 125q72 -59 101 -94l170 55q74 -82 124 -161l-169 -58q246 -381 245 -805q0 -270 -148.5 -431.5t-400.5 -161.5t-402.5 159.5t-150.5 413.5z M516 569q0 -154 21.5 -214t76.5 -60q49 0 72 64.5t23 215.5q0 172 -37 275q-18 6 -39 6q-59 0 -88 -54.5t-29 -232.5z" />
<glyph unicode="&#xf1;" horiz-adv-x="1269" d="M96 0v1040q207 84 520 84q291 0 424.5 -92t133.5 -278v-754h-459v750q0 94 -99 94q-18 0 -61 -6v-838h-459zM270 1380q55 115 185 127q66 6 164 -41t147 -43q109 8 152 105l77 -201q-39 -106 -182 -117q-68 -6 -168 41t-149 43q-102 -8 -148 -112z" />
<glyph unicode="&#xf2;" horiz-adv-x="1208" d="M61 553q0 254 146.5 412.5t396.5 158.5t396.5 -158.5t146.5 -412.5q0 -256 -146.5 -414.5t-396.5 -158.5t-396.5 158.5t-146.5 414.5zM236 1503q29 66 174 67t229 -52l137 -308h-248zM516 561q0 -141 18.5 -207.5t69.5 -66.5t69.5 67.5t18.5 206.5q0 141 -18.5 210 t-69.5 69t-69.5 -69t-18.5 -210z" />
<glyph unicode="&#xf3;" horiz-adv-x="1208" d="M61 553q0 254 146.5 412.5t396.5 158.5t396.5 -158.5t146.5 -412.5q0 -256 -146.5 -414.5t-396.5 -158.5t-396.5 158.5t-146.5 414.5zM453 1210l135 308q86 53 231.5 52t173.5 -67l-293 -293h-247zM516 561q0 -141 18.5 -207.5t69.5 -66.5t69.5 67.5t18.5 206.5 q0 141 -18.5 210t-69.5 69t-69.5 -69t-18.5 -210z" />
<glyph unicode="&#xf4;" horiz-adv-x="1208" d="M61 553q0 254 146.5 412.5t396.5 158.5t396.5 -158.5t146.5 -412.5q0 -256 -146.5 -414.5t-396.5 -158.5t-396.5 158.5t-146.5 414.5zM264 1288l228 228q47 47 112.5 47t112.5 -47l227 -228l-121 -112l-219 149l-219 -149zM516 561q0 -141 18.5 -207.5t69.5 -66.5 t69.5 67.5t18.5 206.5q0 141 -18.5 210t-69.5 69t-69.5 -69t-18.5 -210z" />
<glyph unicode="&#xf5;" horiz-adv-x="1208" d="M61 553q0 254 146.5 412.5t396.5 158.5t396.5 -158.5t146.5 -412.5q0 -256 -146.5 -414.5t-396.5 -158.5t-396.5 158.5t-146.5 414.5zM242 1380q55 115 184 127q66 6 164 -41t147 -43q109 8 152 105l78 -201q-39 -106 -183 -117q-68 -6 -168 41t-149 43 q-102 -8 -148 -112zM516 561q0 -141 18.5 -207.5t69.5 -66.5t69.5 67.5t18.5 206.5q0 141 -18.5 210t-69.5 69t-69.5 -69t-18.5 -210z" />
<glyph unicode="&#xf6;" horiz-adv-x="1208" d="M61 553q0 254 146.5 412.5t396.5 158.5t396.5 -158.5t146.5 -412.5q0 -256 -146.5 -414.5t-396.5 -158.5t-396.5 158.5t-146.5 414.5zM186 1362q0 68 54.5 114t132.5 46q76 0 132 -46t56 -114t-56 -114t-132 -46q-78 0 -132.5 46t-54.5 114zM516 561q0 -141 18.5 -207.5 t69.5 -66.5t69.5 67.5t18.5 206.5q0 141 -18.5 210t-69.5 69t-69.5 -69t-18.5 -210zM647 1362q0 68 54.5 114t132.5 46q76 0 132 -46t56 -114t-56.5 -114t-131.5 -46q-78 0 -132.5 46t-54.5 114z" />
<glyph unicode="&#xf7;" d="M178 573v201h873v-201h-873zM449 336q0 68 48 117t117.5 49t117.5 -49.5t48 -116.5q0 -70 -48 -118t-117.5 -48t-117.5 48t-48 118zM449 1011.5q0 69.5 48 118t117.5 48.5t117.5 -48.5t48 -118t-48 -117.5t-117.5 -48t-117.5 48t-48 117.5z" />
<glyph unicode="&#xf8;" horiz-adv-x="1224" d="M61 553q0 252 150.5 411.5t400.5 159.5q131 0 238 -47l96 168l90 -51l-96 -166q106 -76 164.5 -198.5t58.5 -276.5q0 -254 -149.5 -413.5t-401.5 -159.5q-135 0 -250 51l-98 -174l-90 51l102 174q-215 158 -215 471zM479 563q0 -63 6 -117l213 369q-33 57 -86 57 q-66 0 -99.5 -84t-33.5 -225zM524 311q35 -57 88 -57q133 0 133 307q0 70 -8 119z" />
<glyph unicode="&#xf9;" horiz-adv-x="1259" d="M96 387v717h459v-754q0 -68 80 -67q39 0 70 10v811h458v-1038q-180 -86 -532 -86q-272 0 -403.5 92t-131.5 315zM270 1503q29 66 174.5 67t229.5 -52l137 -308h-248z" />
<glyph unicode="&#xfa;" horiz-adv-x="1259" d="M96 387v717h459v-754q0 -68 80 -67q39 0 70 10v811h458v-1038q-180 -86 -532 -86q-272 0 -403.5 92t-131.5 315zM477 1210l135 308q86 53 231.5 52t174.5 -67l-293 -293h-248z" />
<glyph unicode="&#xfb;" horiz-adv-x="1259" d="M96 387v717h459v-754q0 -68 80 -67q39 0 70 10v811h458v-1038q-180 -86 -532 -86q-272 0 -403.5 92t-131.5 315zM289 1288l227 228q47 47 113 47q68 0 114 -47l226 -228l-121 -112l-219 149l-217 -149z" />
<glyph unicode="&#xfc;" horiz-adv-x="1259" d="M96 387v717h459v-754q0 -68 80 -67q39 0 70 10v811h458v-1038q-180 -86 -532 -86q-272 0 -403.5 92t-131.5 315zM211 1362q0 68 55.5 114t130.5 46q78 0 134.5 -46t56.5 -114t-56.5 -114t-134.5 -46q-76 0 -131 46t-55 114zM672 1362q0 68 55 114t131 46q78 0 134.5 -46 t56.5 -114t-56.5 -114t-134.5 -46q-76 0 -131 46t-55 114z" />
<glyph unicode="&#xfd;" horiz-adv-x="1138" d="M-2 1104h483l107 -625h2l119 625h432l-488 -1544h-483l188 440zM430 1210l135 308q86 53 231.5 52t174.5 -67l-293 -293h-248z" />
<glyph unicode="&#xfe;" horiz-adv-x="1257" d="M96 -440v2048h459v-518q88 31 178 30q193 0 328 -135t135 -393q0 -276 -146.5 -439t-363.5 -163q-82 0 -131 12v-442h-459zM555 264q14 -6 35 -6q154 0 153 299q0 170 -33.5 232.5t-111.5 62.5q-18 0 -43 -4v-584z" />
<glyph unicode="&#xff;" horiz-adv-x="1138" d="M-2 1104h483l107 -625h2l119 625h432l-488 -1544h-483l188 440zM176 1362q0 68 55.5 114t130.5 46q78 0 134.5 -46t56.5 -114t-56.5 -114t-134.5 -46q-76 0 -131 46t-55 114zM637 1362q0 68 55.5 114t130.5 46q78 0 134.5 -46t56.5 -114t-56.5 -114t-134.5 -46 q-76 0 -131 46t-55 114z" />
<glyph unicode="&#x152;" horiz-adv-x="1597" d="M70 705q0 356 152.5 540.5t457.5 184.5q90 0 178 -21h664v-317h-310v-228h261v-309h-261v-238h310v-317h-670q-70 -20 -168 -20q-303 0 -458.5 185.5t-155.5 539.5zM553 715q0 -416 156 -416q37 0 61 8v813q-31 10 -61 10q-86 0 -121 -103t-35 -312z" />
<glyph unicode="&#x153;" horiz-adv-x="1777" d="M61 553q0 252 144.5 411.5t386.5 159.5q184 0 299 -120q47 51 134 85.5t177 34.5q272 0 401.5 -175t110.5 -472l-616 -84q18 -55 57 -81.5t123 -26.5q172 0 299 55l98 -274q-92 -45 -189 -65.5t-274 -20.5q-211 0 -317 124q-129 -125 -303 -124q-246 0 -388.5 159.5 t-142.5 413.5zM500 563.5q0 -141.5 19.5 -209t72.5 -67.5t72.5 67.5t19.5 206.5q0 143 -19.5 211t-72.5 68t-72.5 -67.5t-19.5 -209zM1065 618l231 33q0 106 -32.5 160.5t-85.5 54.5q-61 0 -94 -64.5t-19 -183.5z" />
<glyph unicode="&#x178;" horiz-adv-x="1150" d="M-29 1409h504l125 -428h2l135 428h443l-371 -850v-559h-475v559zM180 1654.5q0 67.5 55.5 115t131.5 47.5q78 0 134 -47.5t56 -115t-56.5 -113.5t-133.5 -46q-76 0 -131.5 46t-55.5 113.5zM641 1654.5q0 67.5 55.5 115t130.5 47.5q78 0 134.5 -47.5t56.5 -115 t-56.5 -113.5t-134.5 -46q-76 0 -131 46t-55 113.5z" />
<glyph unicode="&#x2c6;" horiz-adv-x="614" d="M-33 1288l228 228q47 47 112.5 47t112.5 -47l227 -228l-121 -112l-219 149l-219 -149z" />
<glyph unicode="&#x2dc;" horiz-adv-x="614" d="M-55 1380q55 115 182 127q66 6 165 -41t148 -43q109 8 152 105l78 -201q-39 -106 -183 -117q-68 -6 -168 41t-151 43q-100 -8 -145 -112z" />
<glyph unicode="&#x3bc;" horiz-adv-x="1269" d="M96 -440v1544h459v-844q35 -10 72 -10q63 0 88 12v842h459v-1038q-166 -86 -390 -86q-133 0 -229 36v-456h-459z" />
<glyph unicode="&#x2000;" horiz-adv-x="944" />
<glyph unicode="&#x2001;" horiz-adv-x="1888" />
<glyph unicode="&#x2002;" horiz-adv-x="944" />
<glyph unicode="&#x2003;" horiz-adv-x="1888" />
<glyph unicode="&#x2004;" horiz-adv-x="628" />
<glyph unicode="&#x2005;" horiz-adv-x="471" />
<glyph unicode="&#x2006;" horiz-adv-x="313" />
<glyph unicode="&#x2007;" horiz-adv-x="313" />
<glyph unicode="&#x2008;" horiz-adv-x="235" />
<glyph unicode="&#x2009;" horiz-adv-x="376" />
<glyph unicode="&#x200a;" horiz-adv-x="104" />
<glyph unicode="&#x2010;" horiz-adv-x="753" d="M74 522v326h606v-326h-606z" />
<glyph unicode="&#x2011;" horiz-adv-x="753" d="M74 522v326h606v-326h-606z" />
<glyph unicode="&#x2012;" horiz-adv-x="753" d="M74 522v326h606v-326h-606z" />
<glyph unicode="&#x2013;" horiz-adv-x="901" d="M0 559v254h901v-254h-901z" />
<glyph unicode="&#x2014;" horiz-adv-x="1802" d="M0 578v215h1802v-215h-1802z" />
<glyph unicode="&#x2018;" horiz-adv-x="727" d="M72 932l381 676h233l-203 -676q-84 -135 -241 -135q-145 0 -170 135z" />
<glyph unicode="&#x2019;" horiz-adv-x="727" d="M41 813l203 676q84 137 241 137q145 0 170 -137l-381 -676h-233z" />
<glyph unicode="&#x201a;" horiz-adv-x="727" d="M41 -346l203 676q84 137 241 137q145 0 170 -137l-381 -676h-233z" />
<glyph unicode="&#x201c;" horiz-adv-x="1255" d="M72 932l381 676h233l-203 -676q-84 -135 -241 -135q-145 0 -170 135zM600 932l381 676h233l-202 -676q-84 -135 -242 -135q-150 0 -170 135z" />
<glyph unicode="&#x201d;" horiz-adv-x="1255" d="M41 813l203 676q84 137 241 137q150 0 170 -137l-381 -676h-233zM569 813l203 676q84 137 242 137q145 0 170 -137l-381 -676h-234z" />
<glyph unicode="&#x201e;" horiz-adv-x="1255" d="M41 -346l203 676q84 137 241 137q150 0 170 -137l-381 -676h-233zM569 -346l203 676q84 137 242 137q145 0 170 -137l-381 -676h-234z" />
<glyph unicode="&#x2022;" horiz-adv-x="942" d="M82 756q0 162 113.5 275.5t275.5 113.5t275.5 -113.5t113.5 -275.5t-113.5 -275.5t-275.5 -113.5t-275.5 113.5t-113.5 275.5z" />
<glyph unicode="&#x2026;" horiz-adv-x="2088" d="M102 221.5q0 102.5 72 175t174.5 72.5t174 -72.5t71.5 -173.5q0 -102 -71.5 -175t-174 -73t-174.5 72t-72 174.5zM799 221.5q0 102.5 71.5 175t174 72.5t174 -72.5t71.5 -173.5q0 -102 -71.5 -175t-174 -73t-174 72t-71.5 174.5zM1495 221.5q0 102.5 71.5 175t174 72.5 t174.5 -72.5t72 -173.5q0 -102 -72 -175t-174.5 -73t-174 72t-71.5 174.5z" />
<glyph unicode="&#x202f;" horiz-adv-x="376" />
<glyph unicode="&#x2039;" horiz-adv-x="673" d="M41 684l299 524l252 -139l-219 -385l219 -383l-252 -139z" />
<glyph unicode="&#x203a;" horiz-adv-x="673" d="M82 301l219 383l-219 385l252 139l299 -524l-299 -522z" />
<glyph unicode="&#x205f;" horiz-adv-x="471" />
<glyph unicode="&#x2122;" horiz-adv-x="1597" d="M57 1257v152h561v-152h-178v-540h-200v540h-183zM596 717l113 692h239l119 -442l107 442h241l113 -692h-197l-55 448l-127 -448h-174l-131 444l-49 -444h-199z" />
<glyph unicode="&#xe000;" horiz-adv-x="1105" d="M0 1105h1105v-1105h-1105v1105z" />
<glyph unicode="&#xfb01;" horiz-adv-x="1404" d="M53 803v301h113v70q0 246 167 359.5t439 72.5v-291q-82 8 -114.5 -14.5t-32.5 -96.5v-100h147v-301h-147v-803h-459v803h-113zM836 1425q0 84 69.5 142.5t170 58.5t170 -58.5t69.5 -142.5t-69.5 -142t-170 -58t-170 58t-69.5 142zM850 0v1104h459v-1104h-459z" />
<glyph unicode="&#xfb02;" horiz-adv-x="1411" d="M53 803v301h113v70q0 246 167 359.5t439 72.5v-291q-82 8 -114.5 -14.5t-32.5 -96.5v-100h147v-301h-147v-803h-459v803h-113zM856 0v1608h459v-1608h-459z" />
<glyph unicode="&#xfb03;" horiz-adv-x="2273" d="M1714 1425q0 84 68.5 142.5t165 58.5t165 -58.5t68.5 -142.5t-68.5 -142t-165 -58t-165 58t-68.5 142zM1718 0v1104h459v-1104h-459zM862 803v301h113v70q0 246 167 359q123 84 302 83q65 0 137 -10v-291q-22 2 -40 2q-50 0 -75 -17q-33 -23 -32 -96v-100h147v-301h-147 v-803h-459v803h-113zM51 803v301h113v70q0 246 167 359q123 84 302 83q65 0 137 -10v-291q-22 2 -40 2q-50 0 -75 -17q-33 -23 -32 -96v-100h147v-301h-147v-803h-459v803h-113z" />
<glyph unicode="&#xfb04;" horiz-adv-x="2273" d="M1718 0v1608h459v-1608h-459zM862 803v301h113v70q0 246 167 359q123 84 302 83q65 0 137 -10v-291q-22 2 -40 2q-50 0 -75 -17q-33 -23 -32 -96v-100h147v-301h-147v-803h-459v803h-113zM51 803v301h113v70q0 246 167 359q123 84 302 83q65 0 137 -10v-291q-22 2 -40 2 q-50 0 -75 -17q-33 -23 -32 -96v-100h147v-301h-147v-803h-459v803h-113z" />
</font>
</defs>
</svg>
