<?xml version="1.0" standalone="no"?>
<!DOCTYPE svg PUBLIC "-//W3C//DTD SVG 1.1//EN" "http://www.w3.org/Graphics/SVG/1.1/DTD/svg11.dtd" >
<svg xmlns="http://www.w3.org/2000/svg">
<metadata></metadata>
<defs>
<font id="same_same_but_differentRg" horiz-adv-x="394" >
<font-face units-per-em="1000" ascent="800" descent="-200" />
<missing-glyph horiz-adv-x="356" />
<glyph unicode=" "  horiz-adv-x="356" />
<glyph unicode="&#x09;" horiz-adv-x="356" />
<glyph unicode="&#xa0;" horiz-adv-x="356" />
<glyph unicode="!" horiz-adv-x="214" d="M3 16q0 8 7.5 15t15.5 11q2 2 12 5t13 5q5 2 9 1.5t7 2.5h1q1 0 2 1l2 2l1 1v-1q1 0 1.5 -1.5t1.5 -1.5q1 -1 3 -2.5t3 -1.5q1 -1 2.5 -2t2.5 -2v-7q0 -8 -3 -12q-2 -2 -9 -8.5t-9 -8.5l-2 -4q-1 0 -4 -1.5l-5 -2.5l-4.5 -9t-5.5 -9q-3 -4 -10 -4q-10 0 -13 3.5t-8 10.5 q-1 0 -5.5 6t-4.5 8q0 1 -0.5 2.5t-0.5 3.5zM46 158q0 1 1.5 5t2.5 6v11q1 11 3.5 22t4.5 22q2 24 3 47t6 46q3 13 6 25.5t8 27.5q1 1 3 9t4.5 17.5t4.5 17.5t2 10q8 26 16 50.5t16 49.5q0 2 2.5 10.5t4.5 17.5t4.5 17t2.5 10q5 14 10 28.5t10 28.5q3 8 6.5 18t5.5 18 q0 2 -0.5 4.5t0.5 3.5q0 2 4.5 14.5t6.5 18.5q4 10 6.5 21.5t8.5 19.5h11h11q1 0 6.5 -6t8.5 -10q18 -19 18 -53q0 -22 -9.5 -37.5t-17.5 -33.5q-3 -8 -4.5 -16t-3.5 -14q-1 -2 -4 -9.5t-6.5 -16.5t-6.5 -16.5t-3 -9.5t-1.5 -6.5t-3 -10t-2.5 -10.5t-1 -6q-5 -14 -11 -25 t-11 -24q0 -1 -1.5 -5.5t-3 -10.5t-3 -11.5t-2.5 -8.5q-9 -29 -19.5 -56t-18.5 -57q-1 -2 -3 -10t-4 -18t-4 -18.5t-3 -10.5t-2.5 -4.5t-1.5 -3.5q-5 -14 -8 -28t-8 -28q0 -1 -1.5 -5t-1.5 -6q-1 -2 -5 -6t-4 -5q-2 -5 -4 -13.5t-10 -8.5q-2 0 -5 1t-4 2q-1 2 -3.5 9.5 t-2.5 9.5z" />
<glyph unicode="&#x22;" horiz-adv-x="260" d="M103 606q-3 -2 -6 -10t-3 -11q-3 -3 -3 -7v-4q-3 -3 -9 -5l2 -1q0 -2 -1.5 -3t-10.5 -2q-4 -1 -15 -1q-4 1 -13.5 1h-11.5h-3h-3q-1 0 -1 1h-3q-4 0 -10.5 1t-8.5 2q-9 2 -7 4t2 4q-2 0 -2 3q0 1 4 1.5t5 1.5q0 2 -1 2l1 1q2 0 3 0.5t2 0.5h1q0 3 2 4q1 0 2 1l2 2v1 q0 2 2 2h-1l1 1l12 19q-3 1 -2.5 2t2 1.5t3 1.5t-0.5 2l2 12l2 1q1 2 0.5 5t0.5 4q-1 0 -2 1t-1 2q-2 0 0 0.5t2 1.5q3 2 0.5 5t-4.5 6h4q2 8 -2 14v1q0 1 1 2.5t-1 1.5q2 0 4 1.5t0 1.5l-1 3l-3 3q-2 1 0 2t3 2t0 2t0 2h1v1l-4 2q-2 1 -1 3t3 3q-2 0 -3 0.5t-2 0.5 q-1 1 1 1.5t2 1.5v5q1 0 3 1q4 2 5 2q-2 1 -2 1.5t-2 0.5q1 1 3 2q4 2 4 3q3 0 7.5 0.5t6.5 1.5q1 0 2 1l2 2h4q1 0 6 -1t7 -2l1 -1q0 -3 2 -6t4 -7q2 -2 1 -4.5t-1 -4.5l3 -1q5 -3 5 -6t1 -6q1 -1 3.5 -6t3.5 -6q0 -1 0.5 -4t-0.5 -4t-2 -2.5t-3 -1.5l2 -1h1q2 -8 5 -16.5 t2 -16.5v-1v-1q-1 -2 -2.5 -7t-1.5 -6q-1 -1 -2 -4t-1 -4v-1q0 -2 1 -2zM229 610q-3 -2 -6 -10t-3 -11q-3 -3 -3 -7v-4q-3 -3 -9 -5l2 -1q0 -2 -1.5 -3t-10.5 -2q-4 -1 -15 -1q-4 1 -13.5 1h-11.5h-3h-3q-1 0 -1 1h-3q-4 0 -10.5 1t-8.5 2q-9 2 -7 4t2 4q-2 0 -2 3 q0 1 4 1.5t5 1.5q0 2 -1 2l1 1q2 0 3 0.5t2 0.5h1q0 3 2 4q1 0 2 1l2 2v1q0 2 2 2h-1l1 1l12 19q-3 1 -2.5 2t2 1.5t3 1.5t-0.5 2l2 12l2 1q1 2 0.5 5t0.5 4q-1 0 -2 1t-1 2q-2 0 0 0.5t2 1.5q3 2 0.5 5t-4.5 6h4q2 8 -2 14v1q0 1 1 2.5t-1 1.5q2 0 4 1.5t0 1.5l-1 3l-3 3 q-2 1 0 2t3 2t0 2t0 2h1v1l-4 2q-2 1 -1 3t3 3q-2 0 -3 0.5t-2 0.5q-1 1 1 1.5t2 1.5v5q1 0 3 1q4 2 5 2q-2 1 -2 1.5t-2 0.5q1 1 3 2q4 2 4 3q3 0 7.5 0.5t6.5 1.5q1 0 2 1l2 2h4q1 0 6 -1t7 -2l1 -1q0 -3 2 -6t4 -7q2 -2 1 -4.5t-1 -4.5l3 -1q5 -3 5 -6t1 -6q1 -1 3.5 -6 t3.5 -6q0 -1 0.5 -4t-0.5 -4t-2 -2.5t-3 -1.5l2 -1h1q2 -8 5 -16.5t2 -16.5v-1v-1q-1 -2 -2.5 -7t-1.5 -6q-1 -1 -2 -4t-1 -4v-1q0 -2 1 -2z" />
<glyph unicode="#" horiz-adv-x="518" d="M89 46q0 21 2.5 41t7.5 41q2 5 4.5 12t2.5 12q0 2 -2 2.5t-4 0.5q-8 0 -19 -2t-19 -8h-37q-7 0 -13.5 5.5t-12 13.5t-8.5 16t-3 14q0 11 6 14t14 3t17 -0.5t15 3.5h37q1 0 7 1t8 1q8 2 22 2.5t19 10.5q2 2 5.5 12t4.5 12q13 30 26 58.5t26 57.5q0 1 1 3t2 2v2q0 2 -4 2.5 t-6 0.5q-16 0 -31 -3.5t-30 -7.5t-30 -7.5t-31 -3.5q-17 0 -26.5 16.5t-9.5 31.5q0 5 1 10.5t6 7.5h25h1q2 0 3 1q2 1 3 2h5q22 2 42.5 5.5t41.5 6.5q2 0 10.5 1.5t18 2.5t18 2.5t10.5 1.5t7.5 0.5t7.5 3.5q0 1 1 4t1 4q6 17 12.5 33.5t14.5 32.5q1 1 3.5 6.5t5.5 11 t5.5 10.5t2.5 7q1 1 3 7t2 8q2 2 6.5 9.5t6.5 9.5q1 0 4 0.5t4 0.5q20 0 29.5 -14.5t9.5 -32.5q0 -5 -3 -9t-5 -9q-8 -18 -19.5 -34t-19.5 -35q-1 0 0 -2t1 -3h50q1 0 3.5 3t4.5 5q6 10 6.5 20.5t5.5 21.5q0 1 2.5 4.5t2.5 4.5t1.5 6t3.5 10.5t3.5 10t1.5 5.5l10 20 q0 2 2 10t3 10q2 7 4.5 15.5t9.5 11.5q2 1 7.5 2t7.5 0l2.5 -2.5t2.5 -1.5q1 -1 5 -3t5 -2q4 -4 8.5 -12.5t6.5 -12.5v-5q0 -1 1 -2v-2q0 -1 1 -1v-1q0 -6 -2.5 -11t-4.5 -10q-1 -1 -3 -6t-2 -6t-2 -3q-1 -1 -1 -2t0.5 -4t-0.5 -4l-5 -5q-10 -14 -17.5 -30t-9.5 -34 q3 -4 8 -5q1 0 5 -0.5t8.5 -1.5t8.5 -1.5t5 -0.5q2 -1 9.5 -2.5t10.5 -2.5q4 -2 12 -4.5t15.5 -6t13 -9t5.5 -11.5v-1q0 -1 -2.5 -4.5t-4.5 -5.5l-3 -3h-108l-1 -1q-1 0 -1 -1q-6 -10 -9.5 -19.5t-8.5 -20.5q-4 -11 -8.5 -20.5t-8.5 -20.5q0 -1 -1 -5t-1 -5 q-4 -12 -8.5 -23.5t-9.5 -23.5v-1q0 -1 1 -2h172q2 -1 7.5 -2.5t7.5 -2.5q1 0 8 -1t9 -1q1 0 4 -2t3 -3l1 -2q0 -12 -8 -11.5t-15 -3.5q-5 -3 -8 -6t-9 -4q-26 -4 -53 -6t-53 -4q-12 -1 -23.5 -3t-23.5 -4h-10q-1 -1 -5 -1.5t-5 -1.5q-8 -1 -14.5 -1.5t-9.5 -10.5 q-1 -3 -3 -11.5t-4.5 -18t-4.5 -18t-3 -11.5q-6 -23 -11 -46.5t-11 -47.5q-3 -5 -4.5 -11t-5.5 -11q-2 -2 -5.5 -6t-4.5 -4h-24q-3 0 -4 10t-1 12q-1 1 -2 4t-1 4t2.5 5t2.5 5q1 2 3 7t2 7q1 3 2.5 9t3 12.5t3 12.5t1.5 8v5l10 42l10 42l-1 2q-12 0 -24.5 -1t-24.5 -4 q-1 0 -7.5 -1.5t-9.5 -2.5q-8 -3 -16.5 -4t-15.5 -6q-8 -22 -13.5 -41.5t-11.5 -42.5q-2 -8 -2 -12t-3 -10v-62q0 -2 -5 -2h-6q-13 0 -20.5 11.5t-12.5 22.5v17zM326 399q-6 0 -11 -2.5t-9 -2.5h-20q-4 0 -13 -1.5t-11 -6.5q-1 -1 -3 -7t-2 -7q-2 -6 -5 -10.5t-5 -9.5 q-4 -7 -6.5 -14.5t-6.5 -15.5q-2 -5 -4.5 -9t-4.5 -10q-1 -1 -1.5 -5t-1.5 -5q-6 -14 -12.5 -28.5t-14.5 -28.5h9q18 0 36.5 3t35.5 7l2 1q1 0 1 1q8 20 13.5 41t13.5 41q0 1 3.5 7t3.5 8q1 1 1.5 4.5t1.5 4.5q0 2 2 7.5t3 7.5t5 12.5t5 12.5v1q0 4 -5 4z" />
<glyph unicode="$" horiz-adv-x="354" d="M50 106q0 32 10.5 59.5t21.5 53.5h1h1l2 -2q1 -1 2 -1q5 5 11 11.5t11 6.5q6 0 10.5 -8t2.5 -18q0 -1 -2 -8.5t-2 -9.5v-12q0 -1 -2.5 -6.5t-2.5 -7.5q-2 -6 -4 -16.5t-4.5 -22t-4 -22.5t-1.5 -18q0 -27 16.5 -41.5t31.5 -14.5q6 0 15.5 4.5t14.5 6.5q16 8 30 22.5 t28 28.5q5 6 14 19t17.5 28.5t14.5 30.5t6 26q0 13 -5 22t-12 15t-14.5 11t-13.5 10q-3 0 -9 1.5t-13 3.5t-13.5 3.5t-9.5 1.5h-1q-8 -1 -21.5 -2t-14.5 -1q-2 0 -12.5 -3.5t-12.5 -3.5q-2 -2 -6.5 -1t-6.5 1q-2 -1 -3 -2t-2 -1t-1 -1q-18 -6 -36 -11t-35 -5q-2 0 -9 0.5 t-9 0.5q-17 10 -28.5 32t-11.5 51q0 17 5 31q1 2 2.5 6t1.5 5q35 63 72 116.5t79 103.5q9 11 18 24.5t19.5 25.5t21.5 20t24 8q2 0 6.5 -0.5t5.5 -0.5q1 -2 4 -6t6 -8.5t5.5 -8.5t3.5 -6q2 -5 2.5 -9.5t0.5 -11.5q0 -22 -10.5 -36.5t-23.5 -20.5q-2 0 -5 -1l-6 -2 q-5 -3 -3.5 -11.5t-3.5 -10.5q-3 -2 -8 -2t-7 -1q-1 -2 -3 -4.5t-3 -3.5q-2 -2 -8 -6t-6 -6q-1 0 -4 -3.5t-6 -8t-6 -8t-3 -4.5q-1 -2 -4.5 -5.5t-4.5 -5.5q-1 0 -3 -2t-3 -2q-1 -1 -4 -5.5t-6.5 -9.5t-6.5 -9.5t-4 -5.5l-2 -2q-1 -1 -2 -1q-3 -3 -4 -8t-3 -7q-1 0 -2 -1 t-2 -1t-1 -1t-0.5 -2t-0.5 -2q-1 -2 -1 -3q-1 -1 -5 -4t-5 -4l-1 -7q-1 -1 -1.5 -2.5t-1.5 -1.5q-11 -14 -23 -29t-17 -37q0 -1 1 -3t2 -2q1 1 3 2t2.5 2t1.5 1h4h4q2 0 4.5 3t2.5 4q32 -3 65 8q2 3 5 3h5q35 0 71 -8.5t66 -39.5q22 -22 38 -49.5t16 -71.5q0 -27 -9.5 -47 t-18.5 -40q-8 -17 -17 -29t-18 -23q-2 -2 -8 -9.5t-7 -8.5q-17 -21 -37 -32.5t-40 -23.5l-8 -4q-4 -2 -8 -3q-2 0 -6.5 1.5t-5.5 1.5l-7 -3q-12 0 -24 7t-23.5 18.5t-21.5 25t-18 26.5q-8 14 -11.5 39t-3.5 42zM133 483q1 7 2.5 23t2.5 33.5t1.5 33.5t0.5 23q2 8 2.5 18 t0.5 18q0 6 -0.5 12.5t0.5 11.5q1 2 3 12.5t4 11.5q0 1 -0.5 5t-0.5 5q0 6 1 14t9 12q2 3 4.5 2t7.5 -1q3 -1 11 -1.5t10 -1.5q0 -1 2.5 -2.5t3.5 -1.5l2 -1q3 -2 8.5 -7t7.5 -7q8 -11 6 -21.5t-2 -21.5q1 -2 1.5 -8t0.5 -8q0 -7 -3.5 -11t-4.5 -8v-5t1 -5l-1 -3 q-1 -1 -2 -3t-2 -2q1 -1 0 -2t-1 -2v-8t-1 -9q0 -1 -1.5 -7.5t-2.5 -8.5v-9.5t-1 -8.5v-5l-10 -100q4 -8 -0.5 -19t-1.5 -19l-2 -67q-1 0 -1 -1v-2q0 -4 -0.5 -11t-0.5 -14v-13v-8q0 -1 1 -8t1 -8q2 -1 0.5 -5t-1.5 -6q-3 -15 -1 -29.5t4 -28.5l-3 -4q-1 -17 -1 -36.5 t2 -37.5v-5q0 -4 -0.5 -11.5t0.5 -8.5q-1 -1 -3 -8t0 -8q-1 -1 -0.5 -6t1 -11t1.5 -11t1 -7q2 -1 0.5 -8t-2.5 -9q-1 -6 0 -11.5t0 -9.5q0 -2 -1.5 -4.5t0.5 -4.5q0 -3 1 -5q0 -1 0.5 -1.5t0.5 -1.5t1 -2t1 -5.5t-0.5 -9.5l-1 -10t-0.5 -6q1 -1 2 -4t2 -4t-1 -5.5t-2 -6.5 v-26q0 -2 -2.5 -10.5t-3.5 -9.5q1 -1 1 -4t2 -4q0 -2 -3 -12t-3 -15q-2 -1 -6 -4.5t-5 -6.5q0 -1 -2 -6.5t-2 -7.5l-3 -2q-1 1 -5 7t-6 8q-1 1 -1 2v5q0 16 -1.5 32.5t-3.5 33.5q-1 12 -0.5 24t0.5 26l-2 7q-4 16 -4 30.5t-1 30.5q0 2 -1 11.5t-2 20.5t-2 21t-1 13v8.5v13.5 v13v9q1 2 1.5 10t2.5 10q-2 1 -2 5q-2 43 -4.5 87.5t-1.5 86.5q0 1 0.5 6t-0.5 6q0 3 0.5 14t1 23t1 22t0.5 12q0 1 0.5 7t1 13t1 13t0.5 8v6.5t-1 7.5z" />
<glyph unicode="%" horiz-adv-x="524" d="M339 523q4 5 13.5 17t19.5 26t19 26.5t12 17.5q5 7 10.5 14t10.5 14l6 10t6 9q2 2 8.5 9t8.5 8q1 1 2.5 4t2.5 4q2 5 8 11t13 6q3 0 4.5 -1.5t4.5 -3.5q2 -2 6.5 -6t5.5 -6q0 -1 1 -3t1 -3l2 -2q1 -2 2 -9.5t1 -9.5q0 -11 -7 -19t-12 -16q-1 -2 -3.5 -8t-3.5 -7 q-3 -5 -8 -7t-9 -5q0 -1 -2 -4t-2 -4l-2 -2q-1 0 -2.5 -1t-2.5 -1q0 -1 -1.5 -1.5t-1.5 -1.5q-1 -1 -4.5 -6t-4.5 -6t-5.5 -6t-6.5 -6q-1 -1 -4.5 -7t-4.5 -7l-3 -3l-59 -76q-2 -9 -10.5 -15t-10.5 -14l-37 -54l-1 -1q-1 0 -1 -1q-2 -3 -5.5 -8t-7.5 -11t-7 -11t-4 -6 t-3.5 -7t-3.5 -7q0 -1 -3 -4l-4 -4q-9 -11 -15 -23.5t-13 -24.5l-3 -2q-11 -14 -21 -29.5t-18 -30.5l-2 -4q-2 -3 -6 -8.5t-4 -6.5l-6 -6t-5 -6q-1 -1 -3 -5l-4.5 -9t-4.5 -9.5t-3 -5.5q0 -1 -4.5 -6.5t-7.5 -7.5q-4 -4 -6 -8.5t-5 -8.5q-1 -1 -3 -2.5t-2 -3.5q-1 -2 -1 -4 q-1 -1 -1 -3v-2q-1 -2 -8 -12t-9 -12q0 -1 -1 -4.5t-1 -4.5q0 -2 -3.5 -4.5t-4.5 -3.5q-1 -2 -6.5 -10.5t-6.5 -10.5l-7 -7t-8 -7q0 -1 -1 -3t-1 -3l-9.5 -9.5l-9.5 -9.5q-2 0 -6.5 -1t-6.5 -3l-10 -10l-3 -1v9t1 9q1 1 1 2q0 2 1 3q8 14 15.5 27.5t15.5 27.5 q6 11 12.5 20.5t13.5 20.5l2 6q6 14 13.5 26.5t14.5 25.5q1 2 5.5 10t9.5 17t9.5 17.5t5.5 10.5q3 4 11.5 17.5t11.5 18.5q2 1 6.5 7t6.5 7q0 1 1 2.5t1 2.5q20 35 42 71t45 71q0 1 3 4.5t3 4.5q2 2 7.5 10.5t12 18t12 17t6.5 9.5q1 1 4.5 6t7.5 10t7.5 10t4.5 6t3.5 5.5 t2.5 6.5zM45 529q0 21 10.5 40.5t24.5 37.5q1 1 3.5 4t4.5 4q3 4 11 11t9 9q2 2 10.5 8t10.5 8q2 0 8 3.5t9 5.5t8 4t8 5q-5 5 -12.5 5.5t-12.5 2.5q-2 2 -2 4q-1 0 -3.5 1.5t-2.5 2.5v1v1q0 1 2 2.5t2 2.5v2v3q3 3 4 3h8q34 0 60.5 -9.5t44.5 -26t27 -38t9 -45.5 q0 -28 -7 -52q-2 0 -2 -3q-1 -1 -2 -4t-2 -5q-6 -16 -19.5 -29t-31.5 -24q-5 -3 -11.5 -5.5t-11.5 -4.5l-5 -3q-7 -2 -18.5 -4t-19.5 -2h-2q-6 1 -17.5 1.5t-12.5 0.5q-2 0 -6 0.5t-5 1.5q-2 0 -7 1t-7 3q-2 1 -9.5 3.5t-9.5 3.5q-2 0 -3 1q-1 0 -2 1q-17 15 -23.5 31 t-6.5 36zM76 523q0 -23 16 -32t43 -13h3q51 0 81 23t41 59q2 6 2 13.5v13.5v13q0 2 -1.5 7.5t-2.5 7.5l-2 4t-2 2h-4h-3q-1 0 -2 1q-3 1 -3.5 3.5t-2 5.5t-5.5 5t-14 2h-2l-3 -2q-2 0 -3 1q-1 0 -3 1h-4q-5 0 -14 -2t-13 -4l-1 -1q-1 0 -1.5 -0.5t-1.5 -0.5h-3 q-2 -1 -7.5 -3t-7.5 -3q-2 -2 -7.5 -6t-11.5 -8.5t-11.5 -8.5t-7.5 -5q-11 -9 -17.5 -19.5t-12.5 -20.5q-5 -8 -8.5 -16.5t-3.5 -16.5zM257 85q0 21 10.5 40.5t24.5 37.5q1 1 3.5 4t4.5 4q3 4 11 11t9 9q2 2 10.5 8t10.5 8q2 0 8 3.5t9 5.5t8 4t8 5q-5 5 -12.5 5.5 t-12.5 2.5q-2 2 -2 4q-1 0 -3.5 1.5t-2.5 2.5v1v1q0 1 2 2.5t2 2.5v2v3q3 3 4 3h8q34 0 60.5 -9.5t44.5 -26t27 -38t9 -45.5q0 -28 -7 -52q-2 0 -2 -3q-1 -1 -2 -4t-2 -5q-6 -16 -19.5 -29t-31.5 -24q-5 -3 -11.5 -5.5t-11.5 -4.5l-5 -3q-7 -2 -18.5 -4t-19.5 -2h-2 q-6 1 -17.5 1.5t-12.5 0.5q-2 0 -6 0.5t-5 1.5q-2 0 -7 1t-7 3q-2 1 -9.5 3.5t-9.5 3.5q-2 0 -3 1q-1 0 -2 1q-17 15 -23.5 31t-6.5 36zM288 79q0 -23 16 -32t43 -13h3q51 0 81 23t41 59q2 6 2 13.5v13.5v13q0 2 -1.5 7.5t-2.5 7.5l-2 4t-2 2h-4h-3q-1 0 -2 1q-3 1 -3.5 3.5 t-2 5.5t-5.5 5t-14 2h-2l-3 -2q-2 0 -3 1q-1 0 -3 1h-4q-5 0 -14 -2t-13 -4l-1 -1q-1 0 -1.5 -0.5t-1.5 -0.5h-3q-2 -1 -7.5 -3t-7.5 -3q-2 -2 -7.5 -6t-11.5 -8.5t-11.5 -8.5t-7.5 -5q-11 -9 -17.5 -19.5t-12.5 -20.5q-5 -8 -8.5 -16.5t-3.5 -16.5z" />
<glyph unicode="&#x26;" horiz-adv-x="456" d="M372 -31q-4 -6 -15 -10.5t-24 -7.5t-26 -5.5t-21 -3.5q-21 -4 -42.5 2t-36.5 11q-37 13 -68.5 30.5t-56.5 43.5q-6 6 -14 10.5t-13 12.5l-2 7q-7 8 -14 13.5t-9 13.5q-1 2 -3.5 7.5t-5 12.5t-5.5 13t-4 9q-2 10 1 23.5t6 24.5v1q30 51 85 85.5t115 46.5q6 1 9.5 4.5 t9.5 4.5q1 0 5 -0.5t5 -1.5q4 0 7 1t5 2q5 2 7 4.5t5 6.5q4 7 0 16t-10.5 17.5t-14 16t-10.5 12.5q-11 23 -23.5 46t-24.5 48q-2 2 -5 7t-4 9q1 2 0.5 5.5t-0.5 5.5t-3 3.5t-4 2.5q-1 2 -2.5 6.5t-2.5 5.5q0 2 2.5 6.5t1.5 6.5q3 11 3.5 22t6.5 21q16 28 37.5 43t55.5 22 q28 5 49.5 4.5t44.5 -8.5q30 -10 45.5 -29.5t20.5 -48.5q2 -6 2 -14t-4 -14q0 -1 -4 -8t-6 -10q-10 -18 -16.5 -26t-20.5 -22q-16 -12 -29 -24t-34 -13q0 -4 3 -8.5t5 -6.5q3 -5 9 -12.5l12 -15t11 -14t6 -8.5q2 -2 8 -9t12.5 -14.5t13 -14l9.5 -9.5q8 -2 13.5 -11.5 t3.5 -14.5q-2 -3 -4 -5t-4 -3.5t-3 -2.5q-11 -11 -26 -24t-34 -11q-3 -1 -8 -1h-10.5t-10 0.5t-5.5 0.5q-5 0 -8 3q-1 -1 -6 -2t-6 -1q-18 -1 -36 1t-35 -1q-2 -1 -6 -1.5t-5 -0.5q-2 0 -7.5 -1t-12 -2.5t-12 -2.5t-7.5 -1l-3 -1q-9 -5 -17.5 -11t-17.5 -9q-1 -1 -5 -1h-4 q-8 -5 -16.5 -12.5t-11.5 -14.5q-7 -11 -4 -25.5t10 -29t16 -27t15 -19.5q28 -35 67.5 -58.5t84.5 -39.5q18 -6 33.5 -10.5t35.5 -2.5h1l2 -1q2 -2 3.5 -6.5t1.5 -6.5l-1 -1zM338 507q2 2 2.5 3.5t2.5 3.5l-1 1l-2 2q1 2 3.5 10.5t2.5 10.5q-1 12 -10 20t-15 17l-41 14 q-4 2 -8 -0.5t-6 -7.5q-3 -5 0.5 -21.5t10 -35t15 -34t15.5 -18.5h1q7 8 16 17t14 18z" />
<glyph unicode="'" horiz-adv-x="156" d="M133 606q-3 -2 -6 -10t-3 -11q-3 -3 -3 -7v-4q-3 -3 -9 -5l2 -1q0 -2 -1.5 -3t-10.5 -2q-4 -1 -15 -1q-4 1 -13.5 1h-11.5h-3h-3q-1 0 -1 1h-3q-4 0 -10.5 1t-8.5 2q-9 2 -7 4t2 4q-2 0 -2 3q0 1 4 1.5t5 1.5q0 2 -1 2l1 1q2 0 3 0.5t2 0.5h1q0 3 2 4q1 0 2 1l2 2v1 q0 2 2 2h-1l1 1l12 19q-3 1 -2.5 2t2 1.5t3 1.5t-0.5 2l2 12l2 1q1 2 0.5 5t0.5 4q-1 0 -2 1t-1 2q-2 0 0 0.5t2 1.5q3 2 0.5 5t-4.5 6h4q2 8 -2 14v1q0 1 1 2.5t-1 1.5q2 0 4 1.5t0 1.5l-1 3l-3 3q-2 1 0 2t3 2t0 2t0 2h1v1l-4 2q-2 1 -1 3t3 3q-2 0 -3 0.5t-2 0.5 q-1 1 1 1.5t2 1.5v5q1 0 3 1q4 2 5 2q-2 1 -2 1.5t-2 0.5q1 1 3 2q4 2 4 3q3 0 7.5 0.5t6.5 1.5q1 0 2 1l2 2h4q1 0 6 -1t7 -2l1 -1q0 -3 2 -6t4 -7q2 -2 1 -4.5t-1 -4.5l3 -1q5 -3 5 -6t1 -6q1 -1 3.5 -6t3.5 -6q0 -1 0.5 -4t-0.5 -4t-2 -2.5t-3 -1.5l2 -1h1q2 -8 5 -16.5 t2 -16.5v-1v-1q-1 -2 -2.5 -7t-1.5 -6q-1 -1 -2 -4t-1 -4v-1q0 -2 1 -2z" />
<glyph unicode="(" horiz-adv-x="367" d="M4 263q0 35 10 70t23 66q14 35 30.5 69.5t36.5 64.5q22 32 44.5 63.5t47 59.5t51 51.5t56.5 40.5q12 7 24.5 8.5t24.5 6.5q1 0 2 1q1 0 1.5 0.5t1.5 0.5t3 1q2 0 3 0.5t2 0.5t1.5 -0.5t2.5 -0.5q1 -1 3 -1q1 0 4 -2.5t4 -4.5q1 0 2 -1l3 -3l2 -1l1 -1q0 -2 -2 -4 q-1 -2 -1 -3v-3v-1q0 -2 1.5 -6t1.5 -5v-26v-25q-5 -17 -16.5 -21.5t-22.5 -0.5q-2 -5 -6 -6.5t-6 -1.5q-4 0 -6 2t-5 2h-3l-4 -4q-2 -2 -3 -2l-1 -1q0 -1 -2 -0.5t-3 0.5q-7 -3 -14.5 -9t-13.5 -12q0 -1 -2 -3q-1 -1 -1 -2q-1 0 -4.5 -1t-4.5 -3q-12 -7 -24 -20.5 t-21 -25.5q0 -1 -2 -6t-3 -5q-1 -1 -4 -2t-4 -2q-2 -2 -7.5 -7t-7.5 -7q-1 -2 -5 -8t-9 -12.5t-9 -13t-5 -7.5q-2 -1 -9.5 -10.5t-9.5 -11.5q-15 -20 -27 -43t-24 -47l-7 -14t-10 -21t-10 -20.5t-7 -13.5q0 -2 -2 -9t-3 -9q-5 -17 -8.5 -35t-3.5 -36q0 -24 6 -47t17 -42 q15 -26 34.5 -44.5t42 -33t46 -25.5t45.5 -20q1 -2 4.5 -7.5t4.5 -7.5l1 -3q0 -7 -5 -11t-8 -4q-2 -1 -14 -2t-14 -2q-1 0 -3 -2t-3 -2h-7q-10 0 -25 3t-22 8q-1 1 -7.5 6t-7.5 5q-6 4 -10.5 6t-10.5 5l-1 2q-1 1 -1 2q-2 1 -8 7t-13 12.5t-13.5 12.5t-7.5 8q-2 1 -5 5.5 t-7 10t-7 10t-4 6.5t-8 17t-10 23q-1 1 -2 4t-1 4t-1 6.5t-2 7.5q0 2 -3 11t-4 11q-10 43 -10 93z" />
<glyph unicode=")" horiz-adv-x="416" d="M408 481q0 -35 -10 -70t-23 -66q-14 -35 -30.5 -69.5t-36.5 -64.5q-22 -32 -44.5 -63.5t-47 -59.5t-51 -52t-56.5 -40q-12 -7 -24.5 -8.5t-24.5 -6.5q-1 -1 -2 -1q-1 -1 -2 -1h-1q-1 -1 -3 -1q-2 -1 -5 -1t-4 1q-2 0 -3 1q-1 0 -4 2.5t-4 4.5q-2 0 -3 1q-2 2 -2 3 q-1 0 -2 1q-1 0 -1 1q0 2 1 4q1 1 2 3v3v1q0 2 -1.5 6t-1.5 5v26v25q5 17 16.5 21.5t22.5 0.5q2 5 6 6.5t6 1.5q4 0 6 -2t5 -2h3q2 1 4 3l4 4q0 1 2 0.5t3 -0.5q7 3 14.5 9t13.5 12q0 2 1 3l2 2q1 0 4.5 1t4.5 3q12 7 24 20.5t21 25.5q0 1 2 6t3 5q1 1 4 2t4 2q2 2 7.5 7 t7.5 7q1 1 5 7.5t9 13t9 12.5t5 8q2 1 9.5 10.5t9.5 11.5q15 20 27 43t24 47l7 14t10 21t10 20.5t7 13.5q0 2 2 9t3 9q5 17 8.5 35t3.5 36q0 24 -6 47t-17 42q-15 25 -34.5 44t-42 33.5t-46 25.5t-45.5 20q-1 2 -4.5 7.5t-4.5 7.5l-1 3q0 7 5 11t8 4q2 1 14 2t14 2q1 0 3 2 t3 2h7q10 0 25 -3t22 -8q1 -1 7.5 -6t7.5 -5q6 -4 10.5 -6t10.5 -5q0 -1 1 -2q0 -1 1 -2q2 -2 8 -7.5t13 -12t13 -12.5l8 -8q1 -2 4.5 -6t7.5 -9.5t7 -10t4 -6.5t8 -17t10 -23q1 -1 2 -4t1 -4t1 -6.5t2 -7.5q0 -2 3 -11t4 -11q10 -43 10 -93z" />
<glyph unicode="*" horiz-adv-x="490" d="M223 80q0 1 2 6t2 6v4q2 2 3 10.5t1 9.5v26v26q0 5 -1 19.5t-3 19.5q-2 2 -2 8.5t-1 13.5t-2.5 12.5t-5.5 5.5l-2 -1q-6 -3 -7.5 -6t-6.5 -8q-1 -2 -9 -7t-9 -5q-1 -1 -3.5 -4.5t-2.5 -4.5q-1 -1 -6 -5t-6 -5q0 -2 -3.5 -5.5l-4.5 -4.5q-2 -4 -5.5 -5t-7.5 -3l-3 -3 q-5 -5 -9.5 -9t-9.5 -9q-3 -3 -10 -11t-14.5 -16.5t-14.5 -16.5t-10 -11q-5 -5 -11.5 -7t-8.5 -10q-1 2 -3 6.5t-5 5.5h-3q-1 0 -2 1t-3 2t-3 3t-4 8.5t-4 8.5v3q0 6 5 14q3 3 11.5 12.5t18.5 20t18.5 19.5t12.5 13q1 2 5 5.5t5 4.5q2 2 7.5 6t6.5 4q2 2 8.5 9.5t7.5 9.5 q4 4 12 10.5t16 13.5t13.5 14t5.5 13q-3 0 -9.5 -0.5t-14 -0.5h-14h-9.5q-1 0 -6 0.5t-6 0.5t-2 -0.5t-3 -0.5h-4q-1 0 -4 -0.5t-5 -0.5q-1 0 -4 0.5t-4 0.5l-5 1h-16q-8 1 -14.5 3.5t-13.5 1.5q-3 1 -14 5t-13 4q-2 2 -4 3q-5 8 -10.5 16t-5.5 17q0 4 0.5 5.5t5.5 4.5h17 h18q2 0 10 -1t17 -2t16.5 -2t9.5 -1h14q1 0 5 -2t5 -3q5 0 19.5 -0.5t19.5 -0.5h7.5t6.5 -2h32l5 4l-2 160q5 3 3.5 4.5t-0.5 5.5l1 2l2 2v14q1 2 3.5 4.5t4.5 2.5h8q9 0 18 -1.5t15 -6.5q1 -1 4 -5t6 -4q4 0 4.5 7.5t1.5 16.5t4 16.5t13 7.5q14 0 23 -4.5t19 -12.5 q6 -5 7 -10.5t1 -12.5q0 -11 -3 -19.5t-5 -19.5q-3 -11 -5.5 -23.5t-6.5 -25.5q0 -1 -1 -5t-2.5 -9t-3 -9.5t-1.5 -5.5v-1h3q3 3 7 6q3 2 5.5 5t4.5 5l4 6q10 10 22 17.5t20 17.5v2q13 20 31 35.5t35 32.5q2 3 5 6.5t10 3.5q17 0 32.5 -10.5t15.5 -24.5q0 -5 -6 -11.5 t-10 -11.5q-2 -1 -7 -4.5t-7 -4.5q0 -1 -2.5 -1.5t-3.5 -1.5q-5 -3 -10 -8t-9 -10q-1 -1 -3 -4.5t-3 -3.5q0 -1 -2 -1.5t-2 -1.5q-9 -5 -14.5 -10.5t-11.5 -13.5q-5 -1 -12 -8.5t-9 -10.5q-10 -9 -20.5 -17t-21.5 -18q-9 -8 -16.5 -16t-16.5 -16l3 -3q4 0 15.5 -0.5 t14.5 -0.5q58 -6 113 -15q2 -1 4 -1q2 -1 4 -1q4 -1 16.5 -3t16.5 -3v-5q0 -6 -1.5 -7.5t-3.5 -2t-4.5 -1t-4.5 -3.5q-7 1 -15 1t-15 -2h-85q-7 -3 -15 -3h-14h-13l-4 3h-39q-1 0 -3 -2l-3 -3q-2 -6 -2 -12.5v-14.5q0 -2 -0.5 -10.5t-1 -18.5t-1.5 -19t-1 -11v-9v-7l2 -2 l2 -2q1 -9 0 -18t5 -17q1 -1 3 -2.5t2 -2.5q3 -2 4.5 -7.5t1.5 -9.5q0 -11 -5 -12.5t-15 -7.5q-1 -1 -1 -2q-1 -1 -1 -2q-3 -8 -4 -15.5t-4 -13.5t-9 -11t-18 -9h-4h-2q-2 2 -6 8.5t-6 8.5q-1 2 -2 3q-2 2 -2 3v1v1z" />
<glyph unicode="+" horiz-adv-x="400" d="M148 294q1 3 2.5 10t2 15t1.5 15.5t1 10.5q2 3 2.5 7.5t0.5 8.5q0 3 -0.5 6t0.5 4q1 2 3.5 6.5t4.5 5.5l-0.5 2l-0.5 2q0 2 1 6t10 6q2 1 4.5 0.5t8.5 -0.5q3 0 11.5 -0.5t10.5 -0.5l3 -1t4 -1h2q4 -2 9.5 -4t7.5 -3q9 -5 7 -9.5t-2 -9.5q1 -1 1.5 -3.5t0.5 -4.5t-4 -3.5 t-5 -4.5v-2t1 -2l-1 -2q-1 0 -2 -1l-1 -1l-1 -0.5t-1 -1.5v-3.5t-1 -3.5q0 -1 -1.5 -4t-2.5 -3v-4.5t-1 -4.5v-1l-12 -46q5 -4 0 -8.5t-2 -8.5l-2 -30q-1 0 -1 -1v-1q0 -1 -0.5 -4.5t-0.5 -6.5v-5.5v-3.5t1 -4l1 -3q2 -1 0.5 -3l-1.5 -2q-3 -8 -1 -14t4 -13l-3 -1 q-1 -8 -1 -16.5t2 -17.5v-1q0 -3 -0.5 -6.5t0.5 -3.5q-1 0 -3 -3.5t1 -3.5q-2 -1 -1 -3t1 -4.5t1 -5l1 -2.5q2 -1 0.5 -4.5t-2.5 -4.5q0 -2 0.5 -4.5t-0.5 -4.5l-1.5 -1.5t1.5 -2.5v-2l0.5 -0.5l0.5 -0.5q0 -1 1 -2q1 0 1 -2t-0.5 -4.5t-1 -4.5t-0.5 -3q1 0 2 -1l2 -2 q1 0 -1 -2t-2 -4v-11q0 -1 -2.5 -4.5t-3.5 -4.5q1 -1 1 -2t3 -1q0 -1 -3.5 -5.5t-3.5 -7.5q-3 0 -7.5 -2t-5.5 -3l-2 -2.5t-2 -3.5l-3 -1q-1 1 -5.5 3.5t-6.5 3.5q-1 0 -1 1v2q0 7 -1.5 14.5t-4.5 15.5q-1 5 -0.5 11t0.5 11l-2 4q-5 6 -5 13v14q0 1 -1 5t-2 9t-2 9t-1 6 q0 3 -0.5 10.5t0.5 10.5q1 0 1.5 3.5t2.5 5.5q-2 0 -2 2q-2 19 -5 39t-2 39l0.5 2.5t-0.5 3.5q0 1 0.5 5.5t1 10t1.5 10t1 5.5t0.5 3.5t1 5.5l1 6t0.5 4v2.5t-1 3.5zM-19 209q0 6 1.5 10t6.5 8q9 5 19.5 4t20.5 0q11 2 22.5 4t23.5 3q1 0 6.5 0.5t11.5 1t11.5 1t7.5 0.5 q1 0 9 0.5t17.5 2t17.5 3t10 1.5h4h6.5h6.5h3q2 0 10 1t9 1h8h13.5h14.5h8t5.5 1l4.5 1h6h8q2 0 8 -0.5t12.5 -0.5t12 -0.5t7.5 -0.5q0 -5 5 -5q4 0 5.5 1.5t5.5 1.5h6l2 -3q5 -1 16 -1.5t15 -2.5h34q2 0 2 -2.5v-3.5q0 -5 -3.5 -6t-8.5 -2l5 -9q-1 0 -4 -0.5t-4 -1.5 q-72 -9 -145 -14q-18 -1 -34 -2t-34 -2q-7 -1 -15 -3t-15 -4q-9 -2 -16 -2.5t-16 -1.5q-11 -2 -22 -5t-22 -5q-1 0 -7.5 -0.5t-8.5 -0.5q-4 -2 -7.5 -3.5t-6 -3t-6 -2t-9.5 -0.5q-7 0 -14.5 1t-13.5 2q-3 1 -5.5 6.5t-5 12t-4 12.5t-1.5 8zM373 224h10q-3 4 -7 4 q-1 0 -1 -0.5v-0.5h-2v-3z" />
<glyph unicode="," horiz-adv-x="206" d="M97 40q0 -1 7 -1h7l4 -2q2 -1 5 -1q1 0 4 -2t4 -2q2 0 4.5 -4t4.5 -8t5 -6.5t5 -6.5q2 -5 1 -7t0 -4q0 -2 -1 -7t-2 -6q0 -1 -1 -2.5t-2 -3.5q-2 -3 -3 -6l-1 -15q-5 -6 -9.5 -15t-7.5 -14q-4 -6 -8 -10q-3 -3 -5 -6l-14 -12q-3 -4 -8 -5t-8 1t-10.5 8.5t-6.5 14.5 t-0.5 14t0.5 14t3 15t1 12q1 6 -3 11t-6 10q-3 5 0.5 8t5.5 5q0 1 1 2t2 3l2 4l7 16q1 2 4 2.5t3 1.5q1 2 9 3.5t7 0.5z" />
<glyph unicode="-" horiz-adv-x="590" d="M21 262q0 6 1.5 10.5t8.5 8.5q11 6 24.5 5t25.5 0q14 2 29 4t30 3q2 0 9 0.5t14.5 1t14.5 1t9 0.5t12 1t22 2.5t22 3t13 1.5h5h8.5h8h4.5q2 0 12 1t12 1h10h17.5h18h10.5q1 0 6.5 1t6.5 1h7h10q3 0 10.5 -0.5t16 -0.5t15.5 -0.5t10 -0.5q0 -5 6 -5q5 0 7 1.5t7 1.5h7 l3 -3q6 -1 20 -1.5t19 -3.5h44q3 0 3 -2.5v-3.5q0 -5 -4.5 -6.5t-11.5 -2.5l6 -10q-1 0 -4.5 -0.5t-5.5 -1.5q-91 -10 -185 -15q-22 -1 -42.5 -2t-43.5 -3q-9 -1 -19.5 -3t-19.5 -4q-11 -2 -20 -2.5t-20 -2.5q-14 -2 -28 -5t-28 -5q-2 0 -10 -1t-10 -1q-6 -2 -10 -3.5 t-7.5 -3t-8 -2.5t-12.5 -1t-18 1.5t-17 2.5q-4 1 -7.5 7t-6.5 13t-4.5 13.5t-1.5 9.5zM520 278h13q-4 4 -9 4q-1 0 -1 -0.5t-1 -0.5h-2v-3z" />
<glyph unicode="." horiz-adv-x="206" d="M93 82q-1 -1 7 -1h8q2 -1 5 -2t7 -1q1 0 4 -2t5 -2t5 -3.5t6 -7.5q2 -3 5 -6t5 -6q3 -5 1.5 -6.5t-0.5 -3.5q0 -2 -1 -6t-2 -6q-2 -2 -3 -6q-1 -3 -3 -6l-5 -8q-2 -3 -3 -6.5t-3 -5.5q-2 -4 -4 -5t-3 -2l-9 -4q-2 -2 -6.5 -1.5t-9.5 1.5q-4 1 -14.5 5t-13.5 8 q-2 3 -5.5 6.5t-6.5 7.5l-3.5 7t-3.5 5t-3 6t-4 9q-4 5 0.5 7t5.5 4q0 1 4 5q2 1 3 3l9 15q1 2 4 3t4 1q1 1 10 3t8 1z" />
<glyph unicode="/" horiz-adv-x="524" d="M339 523q4 5 13.5 17t19.5 26t19 26.5t12 17.5q5 7 10.5 14t10.5 14l6 10t6 9q2 2 8.5 9t8.5 8q1 1 2.5 4t2.5 4q2 5 8 11t13 6q3 0 4.5 -1.5t4.5 -3.5q2 -2 6.5 -6t5.5 -6q0 -1 1 -3t1 -3l2 -2q1 -2 2 -9.5t1 -9.5q0 -11 -7 -19t-12 -16q-1 -2 -3.5 -8t-3.5 -7 q-3 -5 -8 -7t-9 -5q0 -1 -2 -4t-2 -4l-2 -2q-1 0 -2.5 -1t-2.5 -1q0 -1 -1.5 -1.5t-1.5 -1.5q-1 -1 -4.5 -6t-4.5 -6t-5.5 -6t-6.5 -6q-1 -1 -4.5 -7t-4.5 -7l-3 -3l-59 -76q-2 -9 -10.5 -15t-10.5 -14l-37 -54l-1 -1q-1 0 -1 -1q-2 -3 -5.5 -8t-7.5 -11t-7 -11t-4 -6 t-3.5 -7t-3.5 -7q0 -1 -3 -4l-4 -4q-9 -11 -15 -23.5t-13 -24.5l-3 -2q-11 -14 -21 -29.5t-18 -30.5l-2 -4q-2 -3 -6 -8.5t-4 -6.5l-6 -6t-5 -6q-1 -1 -3 -5l-4.5 -9t-4.5 -9.5t-3 -5.5q0 -1 -4.5 -6.5t-7.5 -7.5q-4 -4 -6 -8.5t-5 -8.5q-1 -1 -3 -2.5t-2 -3.5q-1 -2 -1 -4 q-1 -1 -1 -3v-2q-1 -2 -8 -12t-9 -12q0 -1 -1 -4.5t-1 -4.5q0 -2 -3.5 -4.5t-4.5 -3.5q-1 -2 -6.5 -10.5t-6.5 -10.5l-7 -7t-8 -7q0 -1 -1 -3t-1 -3l-9.5 -9.5l-9.5 -9.5q-2 0 -6.5 -1t-6.5 -3l-10 -10l-3 -1v9t1 9q1 1 1 2q0 2 1 3q8 14 15.5 27.5t15.5 27.5 q6 11 12.5 20.5t13.5 20.5l2 6q6 14 13.5 26.5t14.5 25.5q1 2 5.5 10t9.5 17t9.5 17.5t5.5 10.5q3 4 11.5 17.5t11.5 18.5q2 1 6.5 7t6.5 7q0 1 1 2.5t1 2.5q20 35 42 71t45 71q0 1 3 4.5t3 4.5q2 2 7.5 10.5t12 18t12 17t6.5 9.5q1 1 4.5 6t7.5 10t7.5 10t4.5 6t3.5 5.5 t2.5 6.5z" />
<glyph unicode="0" horiz-adv-x="432" d="M11 234q0 58 18.5 111.5t41.5 104.5q1 2 6 11.5t7 12.5q3 4 8 12.5t11 17.5t10.5 15.5t5.5 8.5q1 3 6 9t11 13t11.5 13t7.5 9l4.5 4.5t8 7.5t9 8.5t7.5 6.5q5 5 13 10.5t13 13.5q-8 13 -21 15t-21 8q-1 1 -2.5 4t-1.5 5q-1 1 -5 5.5t-4 5.5v4v4q0 2 3 6t3 6q1 1 0.5 7.5 t-0.5 7.5q1 2 3.5 5t3.5 4h14q59 0 104 -27t76 -73t46.5 -105.5t15.5 -125.5q0 -36 -3 -73t-10 -72q-1 -1 -2 -4t-1 -5q-2 -2 -4 -11t-3 -13q-11 -45 -34 -82.5t-53 -66.5q-9 -8 -19.5 -14t-20.5 -13q0 -1 -4 -4t-5 -4q-11 -5 -31.5 -10.5t-32.5 -5.5h-4q-5 0 -13 1 t-16.5 1.5t-14.5 1t-7 0.5q-4 0 -11 1.5t-9 3.5q-2 0 -10.5 4.5t-12.5 6.5q-2 1 -7 4l-10 6t-9.5 6t-5.5 4q-2 0 -6 4q-2 2 -4 3q-29 41 -39.5 86.5t-10.5 99.5zM64 216q0 -32 7 -53.5t20 -35.5t31.5 -22t41.5 -13h5q44 0 78.5 17t60.5 47.5t43.5 72.5t26.5 92q4 16 4 36.5 v37.5v35q0 2 -1 8t-2 13t-2 13.5t-2 9.5q-1 2 -3 8t-3 8q-1 0 -8 1.5t-8 1.5q-5 2 -6.5 9t-4 15t-9 14t-22.5 6h-4l-6 -5q-1 0 -5 2.5t-5 2.5h-6q-4 0 -11 -1.5t-13.5 -4t-12.5 -5.5t-9 -5l-3 -4q-2 0 -5.5 -1.5t-4.5 -2.5q-2 -2 -12.5 -8t-12.5 -8q-4 -4 -13.5 -15t-20 -24 t-20 -24t-12.5 -15q-17 -24 -28.5 -53t-22.5 -58q-9 -23 -14.5 -45.5t-5.5 -46.5z" />
<glyph unicode="1" horiz-adv-x="268" d="M6 -19q0 2 -0.5 11.5t-0.5 11.5q0 29 5.5 55.5t13.5 55.5q2 4 5 16t5 15q0 3 3 6l47 131q-3 3 0 3q14 33 25 66.5t21 67.5q1 2 2 8t1 8q10 38 20.5 76t20.5 76q1 5 3.5 15.5t2.5 12.5v10l3 9t4.5 12.5t5.5 11t6 4.5h25q4 -5 10 -8t12 -7q0 -1 1.5 -2t1.5 -2t1 -6t2 -6 q0 -1 3 -6t3 -6v-19q0 -3 3 -3q-8 -5 -10 -16t-5 -19q-4 0 -4 -3q0 -2 -1 -10.5t-2 -10.5q-2 -8 -4 -11t-5 -11q-9 -23 -15 -45.5t-13 -45.5q-5 -17 -11.5 -35.5t-13.5 -35.5q0 -1 -3 -5t-3 -5t-1 -6t-2 -10.5l-2 -11t-1 -6.5q-6 -22 -15 -42.5t-17 -41.5q0 -1 -1 -6t-2 -6 q0 -2 -2.5 -8t-3.5 -8q-5 -13 -10 -24.5t-9 -25.5q-7 -28 -18 -54.5t-19 -54.5q-3 -10 -4 -21.5t-3 -22.5t-6 -21.5t-12 -18.5q-1 -1 -1.5 -1t-1.5 -1t-3 -1q-2 -1 -5 -3t-5 -3q-3 2 -11 15t-10 19z" />
<glyph unicode="2" horiz-adv-x="442" d="M9 30q0 15 6.5 21t12.5 17q5 4 17.5 16t26.5 25t27 25t18 17q6 6 13.5 10t11.5 14q84 87 154 189q1 1 5 7t8.5 13t8.5 14t6 11q2 2 5.5 8.5t4.5 9.5q2 3 5.5 11t3.5 9q1 1 0.5 5t-0.5 5l3.5 3.5t2.5 3.5q2 3 7 16t7 18q0 2 1.5 7.5t1.5 6.5v5v8.5v8.5v5q0 2 1.5 7.5 t1.5 6.5v10q0 21 -17.5 30t-33.5 9q-12 0 -24 -1t-23 -6q-2 -1 -7.5 -4t-11.5 -6t-11 -6t-7 -4q-8 -5 -13.5 -12.5t-13.5 -9.5q-7 -11 -13.5 -19t-11 -17t-7 -19t-2.5 -25v-9q1 -3 3 -11t3 -9l33 -35q0 -1 1 -6t2 -8q0 -2 1 -9.5t2 -11.5v-1v-2q-2 -2 -6 -5.5t-5 -5.5h-8 q-7 0 -12 1t-11 6q0 1 -1 4t-2 3q-11 14 -21.5 27t-19.5 29v3q0 2 -1 6t-2 5q-7 16 -11.5 32t-4.5 34v12q0 6 1.5 18t2.5 13q0 2 6 14l9 18q19 34 47.5 55t63.5 34q8 3 23 6.5t26 3.5h1q14 -2 25 -5.5t25 -8.5q19 -6 35 -20.5t29 -30.5q14 -19 21 -42.5t7 -47.5 q0 -20 -4 -46.5t-12 -45.5q-1 -2 -3.5 -7.5t-5.5 -12t-5.5 -12t-3.5 -6.5q-3 -4 -7.5 -15t-5.5 -13q-8 -20 -21.5 -36t-26.5 -33q-23 -32 -46.5 -65t-47.5 -66q-7 -2 -10.5 -8.5t-11.5 -8.5q-22 -28 -46.5 -51.5t-48.5 -48.5q-4 -3 -10 -9.5t-6 -7.5v-6q29 0 58 11t56 19 q29 11 57.5 19.5t58.5 8.5h20q3 -4 3 -12q0 -2 -1.5 -7t-4 -10.5t-4.5 -10t-3 -5.5q-27 -17 -54 -30t-56 -25q-11 -5 -21 -11t-21 -9q-1 0 -5 -1.5t-9 -3t-9.5 -3.5t-7.5 -3q-9 -3 -19.5 -3.5t-18.5 -6.5q-2 0 -11.5 -0.5t-12.5 -0.5q-4 0 -13 0.5t-10 0.5q-14 1 -27.5 8.5 t-24 19t-17.5 25.5t-7 29z" />
<glyph unicode="3" horiz-adv-x="339" d="M-88 -37q1 2 4 6t5 5h2h1q15 -9 29 -10.5t31 -1.5q42 0 84 9.5t80 35.5q8 5 21 14.5t25 21t20.5 25t8.5 27.5q0 8 -2.5 19t-7.5 18q-2 1 -3 2q-3 1 -3 3q-6 6 -10 15t-9 17l-2 3q-1 1 -5 3.5t-8.5 6t-8.5 6t-5 3.5t-4 3t-4 4q-12 9 -27 13t-29 12q-1 0 -4 3l-4 4 q-1 0 -3.5 -0.5t-3.5 0.5q-2 0 -12.5 4t-14.5 7q-16 5 -21.5 23.5t-9.5 33.5q-1 1 -1 4t-1 5q-1 3 -1 6q0 7 8.5 15t15.5 6q4 1 12 6t17 10t16.5 9.5t10.5 6.5q1 1 8 5.5t15 10.5t16 11.5t13 8.5q3 2 7 5t6 7q-16 9 -20.5 26t-11.5 34q-5 19 -6.5 29.5t-1.5 31.5v22 q1 8 4.5 15.5t7.5 13.5q17 27 38 41t49 14q23 0 39.5 -7t35.5 -23q24 -19 34 -41.5t10 -55.5q0 -13 -4.5 -24t-7.5 -24q-1 -1 -1.5 -6.5t-1.5 -7.5q-1 0 -4 -4t-5 -6q-1 0 -4 -1t-4 -3t-3 -5.5t-2 -5.5q-2 -4 -7 -7.5t-8 -5.5q-20 -20 -40 -39t-39 -38q-5 -4 -14.5 -9 t-18.5 -11.5t-16 -14t-7 -16.5q0 -4 0.5 -7t3.5 -7q0 -1 3 -3.5t5 -3.5q1 0 4.5 -1t4.5 -1q5 -3 5 -8t5 -8q42 -34 69.5 -88t27.5 -115v-1q-2 -13 -6.5 -27.5t-10.5 -23.5q-2 -2 -7 -7.5t-10 -11.5t-9.5 -11t-5.5 -6q-6 -8 -14 -10.5t-17 -7.5l-5 -7q-7 -6 -15 -8t-16 -6 q-31 -17 -63.5 -23.5t-67.5 -6.5q-15 0 -34.5 2t-33.5 13q-6 4 -15.5 11t-18.5 15t-15.5 16t-6.5 15v4zM183 488q0 -11 3 -23t5 -23h1q6 0 20 12.5t27.5 29t24 32t10.5 21.5q0 5 -2 9t-6 4h-38q-9 -7 -20 -11.5t-17 -17.5q-1 -1 -3 -10.5t-2 -11.5q-1 0 -1 -0.5t-1 -0.5 l-1 -1v-9z" />
<glyph unicode="4" horiz-adv-x="331" d="M168 -44q0 40 4.5 78.5t11.5 76.5q3 20 7 41.5t4 41.5q-14 0 -27.5 -5t-28.5 -5q-11 0 -31 4t-32 10q-1 1 -2 3q-3 3 -4 3q-12 13 -24 25.5t-21 27.5q-3 4 -6 14.5t-6 21.5t-5 21.5t-2 15.5q0 52 16 100t33 93q14 36 26.5 71.5t28.5 70.5q5 5 7 6t7 1q10 0 18 -6t14 -15 t9 -20t3 -21q0 -5 -0.5 -7.5t-2.5 -7.5q-1 -2 -4 -8.5t-7 -15t-7 -15.5t-3 -8q-1 -2 -1.5 -6t-1.5 -5q-2 -1 -5.5 -5.5t-4.5 -5.5q0 -1 -2.5 -7.5t-3.5 -9.5q-7 -23 -17.5 -46.5t-20 -47.5t-16.5 -48.5t-7 -49.5v-15q0 -2 2.5 -7l3.5 -7q3 -5 7.5 -7t8.5 -6q2 -2 12.5 -4.5 t14.5 -3.5h19q22 0 35.5 4.5t33.5 16.5q2 0 8.5 3t7.5 4q10 7 13 17t8 21q8 18 14.5 36t13.5 37q8 23 15 45.5t18 43.5q6 11 17 11q4 0 5.5 -0.5t5.5 -3.5q3 -3 11.5 -11t9.5 -10q5 -6 5.5 -19.5t0.5 -20.5q0 -13 -3.5 -22.5t-8 -18.5t-10 -17.5t-9.5 -18.5q-8 -20 -15 -41 t-15 -42q-1 -2 -3.5 -8t-5.5 -12.5t-5.5 -13t-3.5 -7.5q-1 -2 -3.5 -10t-3.5 -11q0 -2 -2.5 -11.5t-4.5 -20t-4.5 -19.5t-2.5 -11q-1 -2 -3.5 -9t-2.5 -8q-1 -3 -3.5 -15t-3.5 -16q-8 -48 -16 -94t-8 -94v-14q1 -2 2 -3l2 -4q0 -1 -1 -6.5t1 -6.5q0 -1 1 -5.5t2.5 -10t3 -10 t1.5 -5.5v-1v-3q-1 -2 -5.5 -6t-6.5 -4q-2 -1 -4 -1h-6h-5q-2 0 -3 1q-1 0 -3.5 5t-3.5 5q-9 15 -16 31.5t-8 34.5v38v0z" />
<glyph unicode="5" horiz-adv-x="380" d="M54 -25q3 -1 15 -1t16 1q11 1 25.5 8.5t28.5 17.5t26.5 21.5t19.5 20.5q3 5 3 9.5v10.5q0 19 -4 32.5t-11 28.5q0 1 -1 5.5t-3 5.5q-3 7 -9.5 15.5t-14.5 16t-16 14.5t-13 12q-25 24 -45 51.5t-38 57.5q-2 10 -7.5 18.5t-7.5 18.5q-2 4 -4 16.5t-3 16.5v18q0 16 1.5 36 t10.5 33q2 2 6 7t8.5 10t8 9.5t5.5 6.5q26 24 57.5 38t60.5 31q2 1 7.5 4t11.5 7t11.5 7t7.5 3q8 5 17.5 6.5t18.5 1.5h3q15 -7 26 -18.5t11 -32.5q0 -3 -1 -14t-3 -15q0 -6 -5 -11q-2 -1 -5.5 -2t-4.5 -1q-1 -2 -6 -1t-6 1l-6 -4q-31 -11 -57.5 -21.5t-55.5 -30.5 q-8 -5 -17 -7.5t-16 -10.5q-13 -14 -22 -26.5t-9 -34.5q0 -5 0.5 -4.5t3.5 -6.5q11 -32 27 -52t36 -43q2 -1 5 -4l4 -4q23 -20 41 -44.5t33 -52.5q1 -2 2.5 -7.5t2.5 -7.5q2 -1 2.5 -5.5t1.5 -5.5q2 -2 3 -4q1 -3 3 -3q8 -19 11.5 -41t3.5 -43q0 -33 -12.5 -56t-32 -37.5 t-43.5 -21t-48 -6.5q-8 0 -17.5 2.5t-17.5 5.5q-1 0 -4.5 3t-4.5 5l-9 4.5t-9 9.5q-1 5 -2.5 14.5t-0.5 10.5zM267 620q0 11 5.5 19.5t14.5 8.5q10 0 17.5 -3.5t14 -9t12 -12.5t12.5 -14q1 -2 3.5 -3t3.5 -1q12 -14 27.5 -33.5t27.5 -36.5q0 -1 2 -5l3 -6q3 -2 8.5 -7.5 t7.5 -6.5q1 -1 7.5 -2t7.5 -2q2 0 3.5 -5t3 -10.5t2 -11t0.5 -7.5q0 -8 -1.5 -14.5t-1.5 -14.5q-5 0 -12.5 1t-12.5 4q-21 14 -38 33t-37 36q-3 3 -10 8t-9 6q-1 1 -6 4t-6 4t-4.5 5t-4.5 5q-1 2 -3.5 3t-3.5 1q-3 3 -11 10t-10 9q-5 5 -8.5 22.5t-3.5 25.5z" />
<glyph unicode="6" horiz-adv-x="356" d="M59 4q-51 48 -51 115v23q0 2 1 8t2 9q0 1 1.5 6t3 10.5t3 10.5t1.5 6v2q0 3 -1.5 5.5t-1.5 6.5q0 11 3.5 27.5t10.5 23.5q2 2 11 10t11 10l2 1q1 0 1 1q25 48 54 92t61 88q1 2 7 9.5t13 16t12.5 16t7.5 9.5q1 1 2.5 4t2.5 4q36 45 75.5 87t82.5 82q2 1 8 3t8 2q1 0 3 0.5 t4 0.5q20 0 28 -16.5t8 -33.5v-12q-2 -2 -4.5 -5t-4.5 -4q-1 -1 -5.5 -3t-5.5 -2q-1 -1 -5.5 -6t-5.5 -6q-1 0 -3 -1t-3 -1q-1 -1 -1.5 -3.5t-1.5 -2.5q-1 -1 -4 -2t-4 -1q-20 -8 -33 -26.5t-29 -32.5q-1 0 -4.5 -2.5t-3.5 -3.5q-3 -2 -9.5 -8.5l-7.5 -7.5l-4.5 -9t-4.5 -8 q-1 -2 -7.5 -8.5t-9.5 -8.5q0 -1 -3.5 -3t-4.5 -3q-1 0 -1.5 -2.5t-1.5 -2.5q0 1 -3 -2q-1 -1 -2 -1q-7 -5 -11 -12t-9 -13q-1 -1 -4.5 -5l-7 -8l-7 -8t-4.5 -5q-10 -14 -16 -28q-1 -1 -3 -7t-3 -7t-5.5 -6t-9 -10.5t-8.5 -11t-5 -6.5q-5 -7 -14 -19.5t-9 -13.5v-6 q39 -4 63.5 -18t49.5 -41q-2 -5 0.5 -7.5t4.5 -6.5q11 -20 13 -33t2 -35q0 -17 -4.5 -31.5t-10.5 -29.5q0 -2 -2.5 -8.5t-2.5 -8.5q-4 -8 -10.5 -16.5t-12.5 -14.5q-11 -11 -25.5 -25t-30.5 -20q-16 -5 -32 -9.5t-33 -4.5q-15 0 -25.5 5.5t-24.5 8.5zM56 86q1 -2 4 -8.5 t5 -8.5q8 -11 16 -13t20 -2q25 0 48 12.5t40.5 32.5t28 44.5t10.5 47.5q0 17 -11.5 22t-25.5 13q-10 5 -17 7t-20 2q-8 0 -18.5 -2t-21 -6t-19 -10t-11.5 -13q0 -1 -2 -5.5t-3.5 -9t-3.5 -8.5t-2 -5q-8 -19 -12.5 -35.5t-4.5 -36.5v-18z" />
<glyph unicode="7" horiz-adv-x="344" d="M48 -16q0 7 5 12t10 11l9 15t8 12l53 112l1 1q0 3 -3.5 5t-5.5 2h-14q-1 0 -5 1.5t-6 2.5q-12 3 -24.5 5.5t-24.5 6.5q-1 0 -7 1t-7 1t-5 2q-2 1 -3 1q-5 2 -13.5 9.5t-9.5 8.5l-2 4t-4.5 8.5l-5 9t-3.5 7.5q-2 6 -2 9v10q0 8 3 14.5t11 6.5t13 -4.5t13 -9.5l6 -2l4 -2 t4 -1q1 0 4 -1t4 -2q1 0 4 -3t5 -3h8q2 -1 4.5 -2.5t3.5 -2.5q20 -6 37.5 -9.5t36.5 -3.5h7q3 0 5 1l8 9l5 9.5t11 22.5t12.5 27t11.5 23q38 80 65 165q0 3 3 6q1 3 3.5 10t2.5 8t1 6t2 11t1.5 11.5t0.5 6.5q1 1 2 4.5t1 4.5t2 7q1 3 1 5v71q-2 2 -4 5q-2 2 -4 3.5t-3 3.5 q-8 7 -23.5 8t-26.5 1h-21q-1 -1 -4 -2.5t-4 -1.5q-11 -2 -27.5 -7.5t-24.5 -12.5q-2 -2 -10 -10.5t-10 -10.5q-1 0 -4 -3t-4 -3q-1 -1 -4.5 -4t-4.5 -4q-2 -2 -6.5 -6t-5.5 -4l-1 1q-32 21 -32 60q0 11 4.5 14.5t12.5 10.5q29 26 63 41t73 15q47 0 76.5 -24.5t43.5 -69.5 q0 -2 1 -6.5t1 -5.5t1 -8t1.5 -15.5t1.5 -17t2 -13.5v-1v-1q0 -1 -1.5 -3t-1.5 -4q0 -1 -0.5 -4.5t-1 -8t-1 -8.5t-0.5 -5q-2 -10 -5 -17.5t-1 -17.5q-1 -4 -4 -12.5t-6 -18.5t-6 -18.5t-4 -12.5q-1 -2 -4 -11.5t-4 -11.5q-5 -17 -13 -33t-12 -33l-52 -106q0 -1 -1 -4.5 t-1 -4.5q1 0 -2 -3q-1 -1 -1 -2q0 -4 3 -4q1 0 6.5 -1t7.5 -2q13 -1 26.5 -0.5t24.5 -8.5v-6v-8l-6 -6q0 -2 -1 -3t-1 -2t-1 -1q-1 -1 -6.5 -3t-7.5 -2q-2 -1 -9 -1.5t-8 -2.5q-2 -1 -10 -4.5t-10 -3.5q-4 -2 -18 -5t-18 -4l-9 -9q0 -1 -1 -2.5t-2 -3.5q-3 -8 -8.5 -14.5 t-8.5 -15.5q-1 -1 -1.5 -5.5t-1.5 -5.5q0 -1 -0.5 -1t-0.5 -1l-1 -1q-5 -7 -6.5 -14.5t-5.5 -15.5q-3 -5 -7 -11.5t-7 -12.5q0 -1 -4 -8t-5 -9l-6 -12t-5 -9q0 -1 -3 -4.5t-7 -8.5t-7.5 -9.5t-4.5 -7.5q-8 -8 -16.5 -11t-19.5 -3h-5.5t-4.5 3q-2 5 -4 13t-2 14z" />
<glyph unicode="8" horiz-adv-x="376" d="M5 21q-2 4 -4 16.5t-2 16.5v23v23q7 8 7.5 19.5t3.5 21.5q6 19 16.5 37t21.5 34q2 2 8.5 11.5t8.5 13.5q0 1 1 2q0 1 0.5 1.5t0.5 1.5l8.5 8.5t8.5 7.5q9 11 17.5 21t25.5 10h5.5t3.5 -1q1 0 6.5 -4.5t6.5 -5.5l2 -1l1 1q1 1 2 6t1 7q0 3 1 15t2 26t1.5 26t0.5 15 q1 2 2 12.5t1 12.5v35q0 2 1.5 12.5t1.5 12.5q0 4 0.5 13t1 19t1 19t0.5 12v13.5v23v23v13.5q0 16 2 33t8 31t17.5 23t32.5 9q9 0 13.5 -1.5t8 -3t7.5 -3.5t12 -3q52 -49 75 -103.5t23 -126.5q0 -16 -1 -32.5t-7 -32.5l-4 -8l-4 -8q-8 -14 -14 -30.5t-16 -29.5l-11 -11 q-1 -1 -4.5 -5.5t-4.5 -5.5q-5 -7 -15 -16.5t-21 -18.5t-22.5 -15.5t-20.5 -7.5h-30l-3 -5q1 -13 0.5 -31t-2.5 -32q-1 -2 -3 -12.5t-3 -12.5q0 -1 0.5 -6.5t-0.5 -6.5q0 -2 -1 -7t-2.5 -12t-2.5 -13t-2 -9l-2 -4q-1 -2 -1 -4t0.5 -7.5t-0.5 -6.5q0 -1 -0.5 -1.5t-0.5 -1.5 q-1 -1 -1 -2l-11.5 -34.5t-16 -36t-23.5 -28t-34 -11.5q-28 0 -46 20t-28 43q-1 2 -1.5 7t-3.5 7zM45 64q0 -5 0.5 -14.5t3 -19t7.5 -16.5t14 -7h3l6 3t5 3q20 15 30.5 39t15.5 48q1 4 3 14t4.5 21.5t4 21.5t2.5 14q-2 13 2 25t4 24h-3q-5 0 -8 -3q-33 -31 -57.5 -66.5 t-35.5 -80.5q-1 -1 -1 -2v-4zM201 349q-1 -2 -3 -11t-2 -11q0 -3 -0.5 -11.5t-1 -18t-0.5 -17.5v-11q5 0 6.5 2t6.5 7q1 1 6.5 5t6.5 5q42 40 72 86.5t30 105.5v16q-7 9 -7.5 20t-3.5 21q-1 1 -3.5 3t-2.5 3l-8 16v8q0 3 -3 6q-1 1 -5.5 7.5t-5.5 8.5q-8 13 -20 21.5 t-28 8.5q-14 0 -18 -14t-5 -24q0 -2 0.5 -11t-0.5 -11q-2 -26 -6 -50.5t-5 -50.5v-10v-17.5v-17.5v-10q0 -1 -1 -8t-1 -8q0 -2 -0.5 -9t-0.5 -11q0 -2 0.5 -7t0.5 -6z" />
<glyph unicode="9" horiz-adv-x="387" d="M120 -255q0 26 5.5 50t11.5 50q8 29 16.5 56t16.5 54q3 11 10.5 37.5t16 56.5t15.5 56t10 37q5 8 4 16.5t2 16.5q0 1 2.5 5t2.5 6q1 6 3.5 15.5t5 18.5t4 16.5t1.5 8.5v7q-16 0 -30.5 -10t-30.5 -15q-6 -3 -15.5 -5t-17.5 -6h-25q-14 0 -22.5 -0.5t-21.5 4.5 q-28 8 -48.5 36t-28.5 66v14q0 2 -1.5 13t-1.5 13v19q0 37 13 70.5t33 61.5t43.5 51t45.5 40q13 8 26.5 14.5t27.5 11.5q23 8 43.5 13t44.5 5q17 0 32.5 -5t30.5 -13q0 -5 3 -5q17 -19 33 -43.5t16 -56.5v-1l-4 -8t-5 -8q-1 -1 -5 -7t-5 -7v-1v-3q4 -10 5 -15.5t1 -17.5 q0 -13 -2 -24.5t-7 -23.5q0 -1 -2.5 -6t-5 -10.5t-5 -10t-3.5 -5.5q-1 -2 -4 -10t-5 -13q-7 -21 -16.5 -41t-16.5 -42q0 -2 -1 -9.5t-1 -9.5q-3 -3 -3 -7q-1 -1 -3.5 -5.5t-2.5 -5.5q-10 -25 -14 -43.5t-11 -41.5q0 -2 -2.5 -9.5t-5.5 -17.5l-6 -20t-5 -15q-5 -13 -7 -27 t-7 -28q-1 -3 -2 -5l-2 -4l-1 -1q-8 -18 -12.5 -38t-10.5 -40q-2 -7 -8 -26.5t-14.5 -44.5t-18.5 -52.5t-18.5 -50t-15.5 -37.5t-9 -15h-1q-2 0 -7 3.5t-7 6.5v17zM51 351q0 -13 8 -22t19.5 -15t23 -8.5t19.5 -2.5q16 0 32 2t31 9q26 12 55 29.5t47 47.5v1q0 2 1 3q0 2 1 3 t3.5 4.5t5.5 7t5 6.5t3 4q0 2 1.5 7.5t1.5 7.5q8 24 19 43q1 2 4 7.5t6 11.5t6 11t4 7t2.5 2.5t2.5 1.5v2q0 6 -7.5 10.5t-9.5 6.5q-3 1 -9 3.5t-13 5t-12.5 4t-6.5 1.5q0 1 -6.5 1h-9.5q-14 0 -24 -4.5t-23 -6.5q-2 -1 -12.5 -2.5t-13.5 -1.5q-2 -1 -5 -3q-6 -4 -7 -4 q-8 -5 -15.5 -8t-12.5 -8q-18 -13 -34 -29.5t-33 -32.5q-2 -1 -4 -3l-4 -4q-6 -6 -13 -17.5t-12.5 -25t-9.5 -27.5t-4 -25z" />
<glyph unicode=":" horiz-adv-x="206" d="M93 82q-1 -1 7 -1h8q2 -1 5 -2t7 -1q1 0 4 -2t5 -2t5 -3.5t6 -7.5q2 -3 5 -6t5 -6q3 -5 1.5 -6.5t-0.5 -3.5q0 -2 -1 -6t-2 -6q-2 -2 -3 -6q-1 -3 -3 -6l-5 -8q-2 -3 -3 -6.5t-3 -5.5q-2 -4 -4 -5t-3 -2l-9 -4q-2 -2 -6.5 -1.5t-9.5 1.5q-4 1 -14.5 5t-13.5 8 q-2 3 -5.5 6.5t-6.5 7.5l-3.5 7t-3.5 5t-3 6t-4 9q-4 5 0.5 7t5.5 4q0 1 4 5q2 1 3 3l9 15q1 2 4 3t4 1q1 1 10 3t8 1zM99 399q-1 -1 7 -1h8q2 -1 5 -2t7 -1q1 0 4 -2t5 -2t5 -3.5t6 -7.5q2 -3 5 -6t5 -6q3 -5 1.5 -6.5t-0.5 -3.5q0 -2 -1 -6t-2 -6q-2 -2 -3 -6q-1 -3 -3 -6 l-5 -8q-2 -3 -3 -6.5t-3 -5.5q-2 -4 -4 -5t-3 -2l-9 -4q-2 -2 -6.5 -1.5t-9.5 1.5q-4 1 -14.5 5t-13.5 8q-2 3 -5.5 6.5t-6.5 7.5l-3.5 7t-3.5 5t-3 6t-4 9q-4 5 0.5 7t5.5 4q0 1 4 5q2 1 3 3l9 15q1 2 4 3t4 1q1 1 10 3t8 1z" />
<glyph unicode=";" horiz-adv-x="206" d="M97 40q0 -1 7 -1h7l4 -2q2 -1 5 -1q1 0 4 -2t4 -2q2 0 4.5 -4t4.5 -8t5 -6.5t5 -6.5q2 -5 1 -7t0 -4q0 -2 -1 -7t-2 -6q0 -1 -1 -2.5t-2 -3.5q-2 -3 -3 -6l-1 -15q-5 -6 -9.5 -15t-7.5 -14q-4 -6 -8 -10q-3 -3 -5 -6l-14 -12q-3 -4 -8 -5t-8 1t-10.5 8.5t-6.5 14.5 t-0.5 14t0.5 14t3 15t1 12q1 6 -3 11t-6 10q-3 5 0.5 8t5.5 5q0 1 1 2t2 3l2 4l7 16q1 2 4 2.5t3 1.5q1 2 9 3.5t7 0.5zM97 398q-1 -1 7 -1h8q2 -1 5 -2t7 -1q1 0 4 -2t5 -2t5 -3.5t6 -7.5q2 -3 5 -6t5 -6q3 -5 1.5 -6.5t-0.5 -3.5q0 -2 -1 -6t-2 -6q-2 -2 -3 -6 q-1 -3 -3 -6l-5 -8q-2 -3 -3 -6.5t-3 -5.5q-2 -4 -4 -5t-3 -2l-9 -4q-2 -2 -6.5 -1.5t-9.5 1.5q-4 1 -14.5 5t-13.5 8q-2 3 -5.5 6.5t-6.5 7.5l-3.5 7t-3.5 5t-3 6t-4 9q-4 5 0.5 7t5.5 4q0 1 4 5q2 1 3 3l9 15q1 2 4 3t4 1q1 1 10 3t8 1z" />
<glyph unicode="&#x3c;" horiz-adv-x="358" d="M18 185q-5 11 -9.5 18.5t-4.5 20.5v11q6 7 13 11.5t12 13.5q0 1 1 5t2 6q85 93 91.5 102.5t16.5 21.5q25 35 47 71t38 76q1 2 3 10t3 10q1 1 4.5 5.5t3.5 5.5q1 0 4 8.5t5 13.5q2 7 4 17.5t10 12.5q2 1 6 2t5 1q4 -1 8 -3q8 -4 11 -5q9 -5 17 -11.5t8 -17.5 q0 -15 -4.5 -23.5t-9.5 -19.5q-1 -2 -3 -8.5t-2 -8.5q-2 -2 -7.5 -9.5t-6.5 -9.5l-2 -4q-1 -2 -1 -4l-3 -6l-3 -6l-5 -5q-11 -18 -20.5 -35.5t-21.5 -36.5q3 -3 0 -6q-2 -2 -5 -4l-6 -4q-5 -7 -8 -14t-8 -14q-1 -1 -6.5 -7t-7.5 -9q-1 -1 -3.5 -3t-2.5 -3q-1 -2 -1.5 -8.5 t-6.5 -5.5q-2 -2 -6 -7.5t-8.5 -11.5t-8.5 -11.5t-5 -7.5q-5 -7 -11.5 -14t-10.5 -14q-1 -1 -1.5 -4.5t-1.5 -3.5q-1 -2 -8 -8.5t-8 -8.5q-4 -5 -10.5 -14.5t-6.5 -14.5v-2q1 0 3 -1t3 -1q1 -2 6.5 -7.5l6.5 -6.5t6 -3t5 -3q11 -9 21 -19t21 -19q8 -7 15.5 -12t14.5 -11 q13 -10 24 -21.5t24 -22.5q1 -1 6.5 -4t6.5 -4q6 -5 15.5 -12t19 -13.5t19 -11.5t17.5 -5q5 0 6.5 0.5t6.5 2.5l5 3q2 -1 5 -4t3 -5q1 -1 0.5 -5.5t-0.5 -5.5t1.5 -4t1.5 -4v-3q0 -5 -6 -9.5t-10 -4.5h-3q-2 1 -7.5 3.5t-6.5 2.5q-2 0 -10 1t-9 2q-15 2 -29 8.5t-27 13.5 l-24 12t-23 16l-6.5 6.5t-7.5 6.5q-5 5 -11 7t-8 10q-4 2 -15.5 11t-15.5 11l-2 3q-2 1 -10 4t-10 4q-8 4 -15 13.5t-15 9.5q-1 0 -1 -0.5t-1 -0.5h-1z" />
<glyph unicode="=" horiz-adv-x="464" d="M21 162q0 5 1 9.5t7 7.5q9 6 20 5t21 0q12 2 24 3.5t25 2.5q1 0 7 0.5l12 1l12 1t7 0.5q2 0 10.5 1t18 2.5t18 2.5t10.5 1h4.5h7h6.5h4t9.5 1t9.5 1h8.5h14.5h15h8t5.5 1t5.5 1h6h8q2 0 8.5 -0.5t13.5 -0.5t12.5 -0.5t8.5 -0.5q0 -4 5 -4q4 0 5.5 1t5.5 1h6l2 -2 q5 -1 16.5 -1.5t15.5 -3.5h37q2 0 2 -2.5v-2.5q0 -5 -3.5 -6.5t-9.5 -2.5l5 -9q-1 0 -4 -0.5t-4 -1.5q-75 -9 -152 -13q-19 -1 -35.5 -2t-35.5 -3q-8 -1 -16.5 -2.5t-15.5 -3.5q-9 -2 -16.5 -2.5t-16.5 -2.5q-12 -2 -23.5 -4.5t-22.5 -4.5q-2 0 -8.5 -1t-8.5 -1 q-4 -2 -7.5 -3t-6.5 -2.5t-6.5 -2.5t-10.5 -1q-6 0 -14.5 1.5t-14.5 2.5q-3 1 -6 6.5t-5.5 11.5t-3.5 12t-1 9zM431 177h11q-3 3 -8 3v-0.5t-1 -0.5h-2v-2zM15 280q0 5 1 9.5t7 7.5q9 6 20 5t21 0q12 2 24 3.5t25 2.5q1 0 7 0.5l12 1l12 1t7 0.5q2 0 10.5 1t18 2.5t18 2.5 t10.5 1h4.5h7h6.5h4t9.5 1t9.5 1h8.5h14.5h15h8t5.5 1t5.5 1h6h8q2 0 8.5 -0.5t13.5 -0.5t12.5 -0.5t8.5 -0.5q0 -4 5 -4q4 0 5.5 1t5.5 1h6l2 -2q5 -1 16.5 -1.5t15.5 -3.5h37q2 0 2 -2.5v-2.5q0 -5 -3.5 -6.5t-9.5 -2.5l5 -9q-1 0 -4 -0.5t-4 -1.5q-75 -9 -152 -13 q-19 -1 -35.5 -2t-35.5 -3q-8 -1 -16.5 -2.5t-15.5 -3.5q-9 -2 -16.5 -2.5t-16.5 -2.5q-12 -2 -23.5 -4.5t-22.5 -4.5q-2 0 -8.5 -1t-8.5 -1q-4 -2 -7.5 -3t-6.5 -2.5t-6.5 -2.5t-10.5 -1q-6 0 -14.5 1.5t-14.5 2.5q-3 1 -6 6.5t-5.5 11.5t-3.5 12t-1 9zM425 295h11 q-3 3 -8 3v-0.5t-1 -0.5h-2v-2z" />
<glyph unicode="&#x3e;" horiz-adv-x="358" d="M278 143h-1q-1 0 -1 0.5t-1 0.5q-8 0 -15 -9.5t-15 -13.5q-2 -1 -10 -4t-10 -4l-2 -3q-4 -2 -15.5 -11t-15.5 -11q-2 -8 -8 -10t-11 -7q-2 -1 -7.5 -6.5l-6.5 -6.5q-9 -9 -23 -16l-24 -12q-13 -7 -27 -13.5t-29 -8.5q-1 -1 -9 -2t-10 -1q-1 0 -6.5 -2.5t-7.5 -3.5h-3 q-4 0 -10 4.5t-6 9.5v3q0 1 1.5 4t1.5 4t-0.5 5.5t0.5 5.5q0 2 3 5t5 4l5 -3q5 -2 6.5 -2.5t6.5 -0.5q8 0 17.5 5t19 11.5t19 13.5t15.5 12q1 1 6.5 4t6.5 4q13 11 24 22.5t24 21.5q7 6 14.5 11t15.5 12q11 9 21 19t21 19q0 1 5 3t6 3l6.5 6.5t6.5 7.5q1 0 3 1t3 1v2 q0 5 -6.5 14.5t-10.5 14.5q-1 2 -8 8.5t-8 8.5q-1 0 -1.5 3.5t-1.5 4.5q-4 7 -10.5 14t-11.5 14q-1 2 -5 7.5t-8.5 11.5t-8.5 11.5t-6 7.5q-6 -1 -6.5 5.5t-1.5 8.5q0 1 -2.5 3t-3.5 3q-2 3 -7.5 9t-6.5 7q-5 7 -8 14t-8 14l-6 4q-3 2 -5 4q-3 3 0 6q-12 19 -21.5 36.5 t-20.5 35.5l-5 5l-3 6l-3 6q0 2 -1 4l-2 4q-1 2 -6.5 9.5t-7.5 9.5q0 2 -2 8.5t-3 8.5q-5 11 -9.5 19.5t-4.5 23.5q0 11 8 17.5t17 11.5q3 1 11 5q4 2 8 3q1 0 5 -1t6 -2q8 -2 10 -12.5t4 -17.5q2 -5 5 -13.5t4 -8.5q0 -1 3.5 -5.5t4.5 -5.5q1 -2 3 -10t3 -10q16 -40 38 -76 t47 -71q10 -12 16.5 -21.5t91.5 -102.5q1 -2 2 -6t1 -5q5 -9 12 -13.5t13 -11.5v-11q0 -13 -4.5 -20.5t-9.5 -18.5z" />
<glyph unicode="?" horiz-adv-x="380" d="M95 33q2 5 4 10.5t8 5.5h4q13 -5 24 -13.5t11 -24.5q0 -2 -0.5 -6t-0.5 -5q-1 -2 -2 -3l-2 -2l-1 -1q0 -1 -0.5 -4t-1.5 -3q0 -1 -3.5 -1.5t-5.5 -1.5h-1h-1q-1 1 -6 1.5t-6 1.5q-1 0 -4.5 -0.5t-4.5 0.5q-1 0 -1.5 4t-0.5 5q-3 8 -6 17.5t-3 17.5v2zM101 145q-2 2 -1 7 t1 7q-1 0 -1 1v2q-1 1 -1 2q0 7 4 14.5t6 13.5l-1 1v1h-2h-2v1q-1 1 -1 2q1 0 2 3t2 3q1 2 3 9.5t4 9.5q1 2 4 9t7 15.5t8 16.5t6 13q5 11 13.5 20.5t13.5 20.5q1 0 1 1.5t1 1.5q11 24 27.5 45t31.5 43q13 18 25 36l24 36q23 35 40.5 65t29.5 69q0 1 -1 3.5t0 3.5l2 6 q0 2 -1 9.5t-1 10.5l-1 1v1q-2 2 -7.5 6.5t-7.5 6.5q-6 5 -13 7.5t-15 4.5q-10 2 -21.5 5t-22.5 1q-1 0 -6.5 -0.5t-11.5 -1.5t-11.5 -1.5t-6.5 -0.5q-7 -2 -13.5 -3.5t-14.5 -2.5q-13 -2 -25.5 -4t-25.5 -8q-14 -7 -25 -16t-24 -19l-6 -4q-2 -2 -4 -3.5t-3 -1.5 q-2 -2 -6.5 -6t-9 -9t-9 -9.5t-6.5 -5.5q0 -5 -3 -7t-6 -6q-5 -4 -7 -10.5t-2 -11.5q-2 -10 1 -20.5t7 -18.5t9 -15.5t10 -13.5q1 -1 3 -2.5t2 -2.5l2 -2q2 -5 0.5 -13t-7.5 -11q-12 -6 -21.5 4.5t-15.5 18.5q-5 8 -10 16.5t-11 16.5q-1 0 -2 1q-2 2 -3 2q-5 11 -10 25 t-7 28t0.5 27.5t12.5 24.5q1 1 3.5 3t3.5 3q11 10 21 19.5t21 18.5l3 3t3 2l4 4q2 1 3 3q1 0 5 2t5 3q8 5 15 11.5t16 11.5q35 17 68.5 24t71.5 9q29 2 58 -6.5t52 -24.5q2 -1 6.5 -4t6.5 -5q0 -1 2 -3t2 -3q1 1 4.5 -1t3.5 -3t1.5 -4t2.5 -4q4 -6 8.5 -11t8.5 -13 q8 -16 9.5 -35t-3.5 -36q0 -2 -1 -6.5t-3 -5.5l-5.5 -11t-6.5 -11q0 -1 -1.5 -4.5t-1.5 -4.5q-1 -2 -5 -9t-4 -8q-5 -9 -9 -18t-10 -17q0 -1 -2.5 -3t-2.5 -3q-2 -2 -5.5 -7.5t-4.5 -7.5q-1 -1 -3.5 -5t-2.5 -5l-5 -5q-2 -4 -7 -9q-8 -13 -17 -25t-19 -25q-3 -5 -5.5 -9.5 t-5.5 -9.5q-1 -1 -4.5 -5.5t-5.5 -6.5l-6 -8l-6 -8q-1 -2 -5.5 -5.5t-4.5 -5.5q-5 -5 -7 -12.5t-6 -13.5q0 -1 -4 -6t-5 -6t-2.5 -3t-1.5 -4q-4 -7 -9 -11.5t-9 -10.5q-5 -8 -8 -15.5t-8 -14.5q-9 -14 -18.5 -28.5t-19.5 -28.5q-5 -8 -9 -17t-12 -14q-2 -1 -8.5 -2.5 t-8.5 2.5z" />
<glyph unicode="@" horiz-adv-x="572" d="M11 235q0 59 24 113t54 105q2 2 8 11.5t9 12.5q3 4 10 12.5t14.5 17.5t13.5 15.5t8 8.5q2 3 8.5 9t14 13t14.5 13t10 9q1 1 6 4.5t11 7.5t12 8.5t9 6.5q7 5 17.5 11t16.5 14q-11 13 -28 15t-27 8q-1 1 -3 4t-2 5q-2 1 -7 5.5t-5 5.5v4v4q0 2 4 6t4 6q1 1 0.5 7.5 t-0.5 7.5q1 2 4.5 5t4.5 4h18q77 0 136 -27.5t99 -73t60.5 -106t20.5 -126.5q0 -36 -4 -73t-13 -73q-1 -1 -2.5 -4t-1.5 -5q-2 -2 -5 -11t-4 -13q-14 -45 -44 -82.5t-70 -67.5q-11 -8 -25 -14t-27 -13q0 -1 -5 -4t-7 -4q-7 -2 -18 -5t-23 -5.5t-23 -4t-19 -1.5h-5 q-6 0 -17 1t-21.5 1.5t-19 1t-9.5 0.5q-5 0 -14.5 1.5t-11.5 3.5q-2 0 -13.5 4.5t-16.5 6.5q-2 1 -8.5 4t-13.5 6t-13 6t-7 4q-2 0 -8 4q-3 2 -5 3q-38 42 -51.5 87.5t-13.5 99.5zM80 217q0 -32 9 -53.5t26 -35.5t41.5 -22t54.5 -13h6q57 0 102.5 17t79.5 47.5t56.5 72.5 t34.5 93q5 16 5 36.5v37.5v35q0 2 -1 8.5t-2.5 13.5t-3 13.5t-2.5 9.5q-1 2 -3.5 8t-4.5 8q-1 0 -10 1.5t-11 1.5q-7 2 -8.5 9t-4.5 15t-11.5 14t-29.5 6h-6l-8 -5q-1 0 -6 2.5t-7 2.5h-7q-6 0 -14.5 -1.5t-17.5 -4t-17 -5.5t-11 -5l-4 -4q-2 0 -7 -1.5t-6 -2.5 q-2 -1 -6.5 -3t-10 -4.5t-10.5 -5t-6 -3.5q-5 -4 -17.5 -15.5t-26 -24t-26 -24t-16.5 -15.5q-23 -24 -38 -53t-29 -58q-11 -23 -18.5 -46t-7.5 -47zM317 106q4 -10 9.5 -14t28.5 -6q0 -1 2 -1q1 0 3 -1h8h5q2 0 6.5 2t5.5 3q0 2 0.5 5t0.5 5q0 8 -2.5 14t-3.5 14v28v24 q0 4 1 10.5t1.5 12.5t1.5 10.5l1 4.5l13 11q-3 4 -2.5 7.5t-2.5 8.5q0 1 -3.5 1.5t-4.5 1.5v1q0 2 0.5 8t1 13t1 12.5t0.5 7.5v87v86q0 5 -1 17t-2 15q0 1 -1.5 6.5t-3.5 7.5q-3 4 -6 7.5t-10 5.5q-11 2 -16.5 2.5t-16.5 0.5q-2 0 -7 -0.5t-7 -0.5t-2.5 -0.5t-1.5 -0.5 q0 -1 -1 -4t-1 -5q-1 -2 -2.5 -7.5t-1.5 -7.5l-6 -2q-1 -1 -6 -7.5t-7 -9.5v-5q0 -4 -3 -7v-6h2l1 -1q0 -1 -2 -1t-3 -1q-2 -2 -5 -7.5t-4 -7.5q-1 -3 -4 -8.5t-8 -6.5l-3 -15q3 -3 3 -4t-1.5 -2t-1.5 -2v-1q0 -1 1.5 -1.5t1.5 -1.5v-1q0 -3 -4.5 -5t-8.5 -5q-1 -1 -3 -5 q-1 -2 -2 -3v-9q0 -1 -1 -3.5t-2 -2.5q0 -1 -3.5 -4.5t-3.5 -4.5q-1 -2 -1.5 -9t-1.5 -9q0 -1 -0.5 -1.5t-0.5 -1.5q-1 -1 -1 -2q-2 -2 -1 -7t1 -6l-4 -4v-6q-3 -5 -7 -9t-6 -9q-2 -10 -3.5 -19t-5.5 -19q-3 -8 -9 -15.5t-7 -16.5q-2 0 -10.5 -0.5t-12.5 -0.5q-6 -1 -12 -1 t-6 -4q0 -8 12.5 -12t19.5 -11q1 -1 2.5 -5t1.5 -6l-2 -2q-1 -1 -1 -2t-1 -1q-3 -8 -3.5 -12.5t-0.5 -12.5v-14q3 -1 13 -4.5t13 -5.5q0 -1 2.5 -1h3.5q2 -1 4.5 -1.5t4.5 -1.5q3 -1 6 -1q6 0 11 3.5t5 5.5v47q5 2 3.5 4t0.5 4q0 1 7.5 2.5t16.5 3l18 3t12 2.5q3 0 10 1t8 1 h6q0 -17 -1 -34.5t-1 -34.5v-27zM298 358q-9 -21 -16.5 -43t-15.5 -44q0 -1 -2 -4.5t-2 -4.5v-11q0 -1 -2.5 -3.5l-3.5 -3.5q0 -1 -1 -6.5t-1 -7.5v-3q6 0 12.5 0.5t13.5 0.5h3l5 -1h1h3h3q1 0 1.5 0.5t1.5 0.5q10 2 18.5 3t9.5 6v16q0 2 2 10.5t2 10.5v63q3 3 3 8q0 4 -3 6 v57l-4 12h-1h-2l-3 -2q-1 -3 -3.5 -12t-3.5 -12q-2 -5 -5 -10t-5 -11v-2q0 -1 -1 -2t-1 -2q-1 -2 0 -4.5t-3 -4.5z" />
<glyph unicode="A" horiz-adv-x="257" d="M160 4q0 27 1 54.5t1 55.5h-6q-1 0 -8 -1.5t-10 -1.5q-3 -1 -12 -3.5t-18 -5.5t-16 -5t-7 -3q-2 -4 -0.5 -7t-3.5 -6v-76q0 -3 -5 -8.5t-11 -5.5l-6 2q-2 1 -4.5 1.5t-4.5 1.5q-1 0 -3.5 0.5t-2.5 1.5q-3 2 -13 8.5t-13 8.5v22q0 13 0.5 21t3.5 20l2 4q1 2 2 3 q0 3 -1.5 9.5t-2.5 8.5q-3 5 -8.5 9l-11 8t-9 8.5t-3.5 11.5t6 7t12 2q4 0 12.5 0.5t10.5 0.5q1 14 7 26.5t9 25.5q4 16 5.5 30t3.5 30q2 9 6 15.5t7 14.5v9q1 1 2 3l2 4q0 2 -1 10t1 10q0 1 1 4t1 4q1 3 1.5 15t1.5 15q0 1 3.5 6.5t3.5 7.5q1 1 2 5t1 5v14q0 1 2 6t3 8 q4 4 8.5 7.5t4.5 8.5v1q0 1 -1.5 2.5t-1.5 2.5v1v1q0 1 1.5 3t1.5 3q0 3 -3 6l3 24q5 2 8 11t4 14l8 24q1 1 3 1.5t2 1.5q-1 0 -1 2h-2v9q1 2 2 6t1 5v9q2 5 7 15.5t6 11.5l6 3q0 3 1.5 12t2.5 12q0 3 1 8.5t1 6.5q1 0 1.5 1t2.5 1t7 0.5t7 0.5q11 0 16.5 -0.5t16.5 -4.5 q7 -2 10 -8.5t6 -11.5q2 -4 3.5 -12.5t1.5 -10.5q0 -3 0.5 -10t1 -15t1 -15.5t0.5 -11.5v-138v-140q0 -3 -0.5 -12.5t-1 -20.5t-1 -21t-0.5 -13v-1q1 -1 4.5 -2.5t3.5 -2.5q3 -7 2.5 -13t2.5 -12l-13 -18l-1 -7.5t-1.5 -17t-1.5 -20t-1 -16.5v-40v-45q1 -12 3.5 -22.5 t2.5 -22.5q0 -2 -0.5 -8t-0.5 -8q-1 -2 -5.5 -4.5t-6.5 -3.5h-5h-8q-2 0 -3 1l-2 2q-23 4 -28.5 10t-9.5 22v45zM141 366q-9 -35 -16 -70t-15 -70q0 -2 -2 -8t-2 -7v-18q0 -1 -2.5 -5.5t-3.5 -5.5q0 -1 -1 -9.5t-1 -13.5v-5q6 0 12.5 1.5t13.5 1.5h2l5 -2h1h3q2 0 3 1 q1 0 1.5 0.5t1.5 0.5q10 2 18.5 3.5t9.5 9.5v27q0 1 0.5 6t1.5 10.5t1.5 10.5t0.5 7v101q3 4 3 13q0 6 -3 9v93l-4 18h-1h-2q-1 0 -2 -1t-1 -2q-1 -5 -3.5 -19t-3.5 -19q-2 -9 -5 -16.5t-5 -17.5v-4q0 -1 -1 -2.5t-1 -2.5q-1 -3 0 -7.5t-3 -7.5z" />
<glyph unicode="B" horiz-adv-x="336" d="M4 36q8 0 11 4t8 4q7 0 10 -5q1 -2 2.5 -9t2.5 -9q4 -9 13 -19t17 -16q2 0 8.5 -1t8.5 -1h1h1q7 2 17.5 4.5t17.5 5.5q12 5 20 10t18 12q36 26 64.5 55.5t37.5 74.5q0 1 1 5t2 5v1v1q0 5 -0.5 13t-1 15.5t-1 13t-0.5 6.5q-1 10 -4 23t-9 23.5t-15 18t-22 7.5 q-26 0 -37.5 -14t-24.5 -33q-5 -7 -9 -12t-6 -13q0 -2 -1 -13.5t-2 -16.5v-7q0 -5 0.5 -8t2.5 -8q2 1 7.5 4t7.5 4h3q0 -9 -6 -15.5t-15 -7.5v-1v-1q0 -2 0.5 -10.5t1 -17.5t1 -17t0.5 -10q1 -12 3 -23.5t2 -23.5q0 -8 -5.5 -14.5t-13.5 -6.5q-11 0 -19 6.5t-13.5 15.5 t-9 19.5t-4.5 18.5q-2 8 -4 22t-4.5 28t-4.5 25t-2 13v10t-0.5 21t-0.5 24.5v19.5v9q0 3 -0.5 11.5t-0.5 18.5v18.5v11.5q0 1 0.5 6t1.5 7v1q0 2 1 3q1 2 2 3v6.5v11.5v11v6q0 12 3.5 23t3.5 23v9q-1 0 -1 1q-1 1 -1 2v1v1q0 3 1 9.5t1 8.5q2 7 4.5 20.5t3.5 13.5l5 8 q-1 4 -1 16.5t1 15.5q0 2 0.5 5.5t1.5 4.5q0 1 2.5 5.5t5 9.5t4.5 9.5t3 5.5q0 1 2 6t3 7q0 1 2 7t3 8l20 40q0 1 3 4.5t4 5.5q2 2 10 11t10 11q10 11 19 23t26 12h8q1 0 2 -1q2 -2 3 -2t6 -1t6 -1q6 -2 10.5 -4.5t9.5 -5.5q1 -1 5 -3t5 -2l3 -3q16 -20 19 -36t3 -41v-22 q0 -3 -0.5 -9t-1.5 -13.5t-2 -13.5t-1 -9q0 -1 -1 -2.5t-1 -2.5q-5 -14 -8 -29t-7 -29q-2 -5 -5 -11t-5 -11q-1 -1 -3 -6t-4 -11t-4 -11.5t-2 -6.5q-1 -1 -1 -2q-1 -1 -1 -2v-1q-1 -2 -4 -11t-4 -11l-3 -3l-2 -2q-2 -5 -3.5 -10t-3.5 -10q-1 -1 -1.5 -3t-1.5 -2 q-1 -2 -4.5 -7.5t-5.5 -7.5q1 -1 2.5 -1.5t2.5 -1.5q1 0 5.5 -1t9.5 -2t9.5 -2.5t5.5 -1.5q24 -7 39.5 -22.5t24.5 -36t12.5 -43.5t3.5 -45q0 -14 -0.5 -26t-2.5 -27q-1 -1 -1 -2q-1 -1 -1 -2v-1q-4 -9 -7 -20t-8 -20t-14.5 -21.5t-17.5 -20.5q-1 -1 -5 -3.5t-5 -3.5 t-4.5 -6t-5.5 -7q-1 0 -1.5 -2.5t-1.5 -2.5t-1.5 -0.5t-2.5 -0.5q-2 -1 -3 -1l-5 -5q-1 -1 -4 -1.5t-4 -1.5q-3 -2 -14 -8.5t-13 -8.5l-8 -8q-1 0 -4.5 -2t-5.5 -3q-8 -4 -16.5 -8.5t-18.5 -6.5q-2 0 -11 -1t-11 -1q-1 -1 -4 -2t-4 -1h-5q-8 0 -14 0.5t-15 2.5 q-18 2 -39 15.5t-29 29.5q-1 2 -1 5q-1 3 -1 7v10q0 1 -1.5 4t-1.5 4q0 2 -0.5 6t-0.5 6zM134 354q0 -5 0.5 -15t0.5 -11l2 -5l2 1q1 0 1 1q1 2 4 6.5t3 6.5q2 3 6 10.5t8.5 16.5t8 17t5.5 11q20 42 36 88.5t16 94.5v21q-3 3 -3 7.5t0.5 9t0 9t-4.5 7.5h-3q-5 0 -11 -5.5 t-9 -7.5l-17 -17q-2 -2 -5.5 -7.5t-4.5 -7.5q-3 -5 -5 -10t-5 -10q-1 -1 -4 -5t-4 -5v-5q-4 -15 -9.5 -28t-5.5 -30q0 -2 0.5 -9.5t1 -15.5t1 -15.5t0.5 -9.5q0 -1 -1.5 -6t-1.5 -6q-3 -38 -3 -76z" />
<glyph unicode="C" horiz-adv-x="312" d="M39 37q-17 30 -21.5 54.5t-4.5 59.5v35t3 35q0 2 2 13t3 16q4 17 5.5 34t5.5 34q0 3 3 16.5t7 29t7 29t4 17.5q0 2 1 9t1 9q1 2 4 11t4 13q4 9 7.5 18.5t8.5 17.5l2 4q1 2 3 4v6q0 1 1 2t1 1.5t1 1.5q1 2 4 11.5t4 11.5t4 9t7.5 15.5t8.5 16.5l6 12q4 7 11 18t15.5 21 t18 17t18.5 7t17.5 -2.5t16.5 -5.5q13 -5 21 -12.5t10 -21.5q1 -3 2 -7t2 -9l2 -10v-29q0 -49 -13 -95q-5 -14 -11.5 -25t-12.5 -25q-8 -17 -15 -33t-24 -27q-5 -3 -8 -6t-9 -3l1 4q0 1 2.5 4t2.5 4v2q-1 0 -2.5 0.5t-2.5 -0.5l-3 -2q-1 -1 -1.5 -1t-1.5 -1t-2 -1t-4 1t-4 2 q-2 0 -8 1t-8 1q1 1 1.5 3t1.5 3t5.5 6t4.5 7q1 1 2 5t1 5t2.5 6t5.5 10t5.5 10t2.5 6q1 2 4.5 10.5t7 18t7 18t4.5 10.5q11 26 15 51.5t6 53.5q0 4 -2 6h-1q-5 0 -7.5 -3.5t-4.5 -7.5q-6 -8 -14 -14.5t-13 -14.5q-3 -6 -5.5 -13t-7.5 -13l-10 -10q-1 -2 -3 -9.5t-2 -9.5 q-6 -17 -12.5 -35t-11.5 -36l-2 -2q-1 -1 -1 -2v-1q0 -1 0.5 -6.5t-0.5 -6.5q0 -3 -2 -3q-2 -3 -4.5 -14t-3.5 -15v-10q0 -1 -2.5 -5.5t-2.5 -5.5q-4 -7 -5 -15t-3 -16q-8 -42 -14.5 -84t-6.5 -84v-8q0 -3 1 -14.5t1 -14.5q1 -5 2.5 -13t4.5 -16.5t6.5 -15.5t7.5 -10 q5 -3 7.5 -3h8.5q11 0 19.5 5.5t17.5 10.5q2 1 9.5 5t8.5 6q17 11 34 24.5t32 27.5q1 2 7.5 8t8.5 8q1 0 2 1t1.5 1t1.5 1l7 7l11 11t11.5 11t7.5 7t7.5 6t7.5 5q1 0 4.5 -0.5t3.5 0.5q1 1 3 5t2 5q3 4 8 4v-3q7 0 11 6.5t12 6.5q0 -2 -0.5 -7t-1.5 -7l-2 -4q-1 -1 -1 -1.5 t-1 -1.5l-1 -1q0 -2 -3 -5q0 -1 -1 -6.5t-1 -6.5q-1 -1 -5.5 -6.5t-5.5 -6.5q0 -1 -1 -4t-1 -4q-1 -1 -5.5 -5t-5.5 -5q-2 -3 -8 -11t-8 -10l-13.5 -13.5l-20 -20t-20.5 -19.5t-14 -13q-1 -1 -6.5 -5t-6.5 -6q-1 -1 -6.5 -7.5t-6.5 -7.5l-3 -3q-11 -7 -18.5 -13t-15 -10 t-16.5 -6.5t-22 -2.5q-22 0 -39 6.5t-33 22.5q-4 4 -4.5 7t-6.5 4z" />
<glyph unicode="D" d="M-59 -121q0 9 6.5 24.5t10.5 23.5q3 4 11 17t17 27.5t17 27t11 17.5l3 3h2q1 0 1.5 -2t0.5 -4v-2v-1q-1 0 -3.5 -1.5t-3.5 -2.5q-3 -2 -2.5 -2.5t0.5 -5.5q5 0 7 1t2 -7t-3 -15.5t-4 -15.5v-14q-1 -3 -4.5 -14t-5.5 -13q-2 -7 -3 -14.5t-4 -13.5q1 -1 2 -1h2q10 0 20.5 7 t18.5 12q7 5 18 14t12 9l2 6q-2 80 4.5 155.5t17.5 152.5q0 2 2 11.5t3 14.5q4 17 6.5 33.5t5.5 33.5q1 1 2.5 9.5t2.5 13.5q3 11 3 22.5t2 24.5q5 46 12 90t7 91q0 4 -1 8.5t-6 4.5h-2q-6 -3 -11 -6t-12 -5q-2 0 -5 -1l-6 -2q-1 0 -2.5 -3t-2.5 -4q-4 -3 -9.5 -4t-10.5 -6 l-6 -8q-2 -2 -7 -4t-6 -2q-9 -7 -19 -19t-21 -12q-6 0 -11 6t-8.5 14t-5 17.5t-1.5 17.5v10q2 3 9.5 12.5t10.5 12.5q9 12 22 17t24 12q6 5 11.5 8.5t12.5 7.5h2q5 2 15.5 5.5l13.5 4.5h8.5t12 0.5t12.5 0.5h8q8 0 23 -0.5t17 -0.5q13 0 25 -6.5t24 -11.5q11 -7 23 -14.5 t23 -15.5q2 -1 7.5 -5t6.5 -6q1 0 4 -0.5t4 -0.5q1 -1 1 -4t1 -3q2 -2 5 -2q2 -4 9.5 -13.5t9.5 -13.5q1 0 1 -1q0 -2 1 -2q1 -2 1 -3q1 -1 4 -5.5l6 -9l6 -9t3 -5.5q1 -2 4.5 -10t4.5 -13q14 -33 18.5 -61t4.5 -65v-37q-4 -18 -6.5 -36.5t-6.5 -37.5q-2 -21 -7 -33.5 t-12 -33.5q-13 -35 -29 -70t-36 -65q-2 -1 -9 -10.5t-9 -11.5q-1 -1 -4.5 -9.5t-5.5 -9.5q0 -2 -4.5 -8t-6.5 -8q0 -1 -3.5 -3.5t-4.5 -3.5q-2 -2 -9.5 -12t-9.5 -12q0 -2 -1 -5t-2 -3q-1 -1 -2.5 -3t-1.5 -3q-1 0 -3 -2q-1 -1 -2 -1q-2 -2 -7.5 -8.5t-7.5 -7.5l-2 -2 q-1 -1 -2 -1t-1 -1q-2 -1 -4 -3.5t-3 -2.5q-1 -1 -7 -9.5t-8 -9.5q0 -1 -4 -4.5t-8.5 -7.5t-8.5 -7t-5 -4q-2 -1 -6 -5l-4 -4q-1 -1 -1.5 -4.5t-0.5 -5.5q0 1 -3 -2q-1 -1 -2 -1q-3 -6 -3 -11t-1 -8.5t-3.5 -5t-10.5 -1.5q-4 0 -7.5 1.5t-7.5 1.5h-1q-1 0 -3 -2.5t-2 -3.5 q-6 -4 -12 -4.5t-9 -8.5q-3 0 -11.5 -1t-11.5 -2q-1 0 -7.5 -4.5t-6.5 -5.5q-10 -4 -21 -5t-21 -1q-16 0 -31 17t-15 38zM177 440q-3 -20 -6.5 -36.5t-5.5 -34.5q-8 -52 -17 -103t-15 -102q-4 -32 -6 -66t-4 -65v-11.5t-0.5 -18.5t-0.5 -18.5v-11.5l4 2q11 10 22.5 23 t20.5 25q2 2 9 10t9 10t7 9t7 9q2 3 10.5 15t18 25.5t17.5 25t10 14.5l2 2q1 1 1 2q32 56 54.5 121t22.5 137q0 47 -9.5 80t-37.5 66l-3 2l-5.5 5.5l-4.5 4.5q-11 14 -25 22q-1 1 -5 1.5t-5 2.5q-10 5 -13.5 9t-16.5 4h-11q-4 -8 -3.5 -17t-1.5 -18q-1 -16 -4 -29.5 t-5 -29.5q0 -2 -1 -12.5t-2 -12.5q0 -1 -1 -3l-2 -4q0 -2 -1 -9t-1 -10v-13z" />
<glyph unicode="E" d="M54 153h-2q-1 0 -1 1q-1 0 -3 -2.5t-3 -3.5q-7 -5 -15.5 -13t-19.5 -8q-5 0 -11.5 4.5t-12 10.5t-9 12.5t-3.5 11.5q0 8 6 15q5 8 13.5 13.5t16.5 11.5q14 11 28.5 22t28.5 22q1 0 4.5 2t3.5 3q1 1 2 6.5t1 7.5q7 29 13.5 57t14.5 57q3 15 8 29.5t5 30.5q-7 0 -11.5 -5.5 t-12.5 -5.5q-18 0 -25.5 16.5t-7.5 30.5q0 11 8 16q1 1 7 5.5t12 10t11.5 10t7.5 5.5l2 1q1 0 1 1q8 7 18.5 14.5t17.5 15.5q3 5 3 9.5t2 9.5q2 8 5.5 15t5.5 15q1 4 2.5 13.5t5.5 11.5q2 0 6 0.5t6 0.5q3 0 7.5 -0.5t5.5 -0.5q8 -2 13 -10.5t15 -8.5q8 0 13.5 2.5t12.5 5.5 q18 8 35.5 15.5t35.5 14.5q8 3 15 4.5t15 3.5q2 1 7.5 3.5t6.5 2.5h11q1 0 6.5 2.5t7.5 2.5q1 1 6.5 0.5t6.5 -0.5q2 1 7.5 2t6.5 1h2q5 0 3.5 -6t-0.5 -8q1 0 4.5 -1t4.5 -1v-1q0 -2 -5 -5t-11 -6l-12 -6l-8 -4q-1 -1 -4 -4.5t-4 -3.5q-2 -1 -7 -4t-7 -5 q-14 -7 -29.5 -14.5t-30.5 -15.5q-32 -15 -60 -32q-6 -4 -11 -8.5t-11 -8.5q-5 -3 -10 -5.5t-9 -7.5q-14 -19 -19.5 -40t-10.5 -42t-11 -41.5t-11 -40.5q0 -2 -1 -10t-2 -10q0 -1 0.5 -5t-0.5 -5q-2 -8 -4.5 -10t-2.5 -12h16q3 2 12.5 6.5t20 10t19.5 9.5t13 6 q23 11 45 20.5t45 18.5q1 0 5.5 2.5t5.5 2.5h4h4t3 -3q0 -1 0.5 -6t0.5 -7q0 -3 -0.5 -8t-0.5 -6t-1 -3t-2 -2q-23 -25 -51 -41q-2 -1 -11.5 -6.5t-13.5 -7.5q-5 -2 -6 -2.5t-5 -5.5l-38 -19q-21 -11 -42.5 -23.5t-39.5 -28.5l-8 -8q-1 -2 -3 -11t-3 -14q-1 -4 -2 -12 t-2.5 -16t-2.5 -15t-1 -9v-9q0 -3 0.5 -14t2 -23t5.5 -21t10 -9h1q29 8 49 24q30 23 57.5 49.5t57.5 49.5l2 1q1 0 1 1q12 17 26 30t31 25q3 2 5 4t6 2q11 0 11.5 -8.5t2.5 -16.5q0 -1 1 -3t1 -3l1 -1q0 -1 -1 -1q0 -1 -3.5 -3t-4.5 -3q-7 -8 -11 -17.5t-11 -17.5 q-21 -27 -44 -52.5t-48 -49.5q-11 -10 -25 -22.5t-30 -23t-32.5 -18t-32.5 -7.5h-9q-30 6 -46 27.5t-22 49.5q-2 7 -3.5 13t-2.5 14v10.5t0.5 16t0.5 16.5v11h-3z" />
<glyph unicode="F" horiz-adv-x="338" d="M73 -167q8 4 9.5 12.5t1.5 19.5q2 68 4.5 136.5t8.5 137.5l-3 3q-8 -8 -19 -10t-19 -6q-9 -3 -17.5 -7t-18.5 -4q-22 0 -29 15.5t-12 46.5q-1 0 -1 1v4q0 14 3.5 19.5t9 7t12.5 0.5t14 -1q0 1 1 1t2 1t2 3q2 1 9 1.5t9 1.5q1 0 3 1.5t3 2.5l52 12q8 2 10 12t3 19 q3 20 6.5 48.5t7.5 59.5t8 61t7 54t5 39l2 15v11q-3 0 -12.5 -7.5t-20 -18t-20 -20.5t-13.5 -15q-5 -6 -11.5 -19t-14.5 -13q-4 0 -10 1t-8 3q-1 1 -2.5 7.5t-1.5 9.5q-1 0 -3 2.5t-3 3.5q0 2 -2 9.5t-3 10.5q0 2 -1 8t-1 8q0 3 1 10t1 9q1 3 6 10t7 10l4 2l4 2q1 1 5 6t5 6 q2 1 6.5 5.5t6.5 5.5q15 11 28 24.5t28 26.5q9 9 19 13.5t19 13.5q6 6 8 15.5t7 16.5q28 -4 56 8t55 23q22 10 44 15t46 5h22q2 -1 10 -5.5t13 -6.5q12 -8 21 -15.5t17 -23.5v-3q0 -1 -0.5 -7.5t-1.5 -14t-3.5 -13.5t-5.5 -6q-6 0 -10.5 4t-9.5 5q-2 0 -11 1.5t-12 1.5h-9 h-11q-3 0 -9.5 -0.5l-13 -1t-12 -1t-6.5 -0.5q-2 -1 -7.5 -4t-7.5 -5q-1 0 -4.5 -1t-5.5 -2q-1 0 -6 -2t-7 -2q-1 -1 -3.5 -4.5t-3.5 -3.5h-11q-2 -1 -4 -3q-4 -4 -6 -4q-7 -7 -16.5 -11t-16.5 -9q-2 -1 -6.5 -3.5t-9.5 -5.5t-9 -6.5t-4 -4.5q-5 -16 -7 -34.5t-6 -35.5 l-2 -4q-5 -25 -9 -51t-6 -50v-12q0 -5 -3 -8q0 -2 -1 -6t-2 -6q-2 -11 -4 -28.5t-3.5 -34t-3 -29t-1.5 -13.5v-18q4 0 15.5 -1t15.5 -1q3 0 16.5 2.5t29.5 5.5t29.5 5t16.5 2q1 0 9.5 0.5t13.5 0.5q2 0 11.5 -0.5t11.5 -0.5q4 0 5.5 -5.5t1.5 -10.5q0 -9 -3.5 -17.5 t-8.5 -12.5q-1 0 -6.5 -1.5t-6.5 -2.5q-3 -2 -7 -5.5t-9 -5.5q-18 -8 -36.5 -10t-37.5 -10q-2 -1 -6.5 -3.5t-10 -5t-10.5 -5t-6 -2.5q-3 -2 -12 -5t-11 -3q-1 -1 -5.5 -0.5t-5.5 0.5q-6 -3 -8.5 -9t-3 -14t-0.5 -16t-1 -15q0 -2 -2 -12t-2 -12q-3 -23 -2 -45.5t-4 -43.5 q0 -10 -1 -34.5t-1.5 -52t-1 -51.5t-0.5 -34v-32q-1 -13 -5 -30t-15 -17q-6 0 -11 6t-10 9q-1 2 -5 3.5t-5 1.5q-2 1 -4 5t-3.5 9t-3 9.5l-2.5 7.5z" />
<glyph unicode="G" horiz-adv-x="404" d="M168 -441q0 28 3 53.5t5 52.5v18l4 7v6q2 25 5.5 52t7.5 52q0 1 1.5 4t1.5 4q4 18 5.5 39.5t11.5 37.5q1 7 5 24t8.5 36t8.5 36t5 23q0 1 1 6.5l2 11t1.5 10t0.5 5.5q1 1 1 2t1 3q0 2 1 4q0 2 1.5 7t3 11t3 11t1.5 8v1h-3h-2q-1 0 -1 1q-1 -2 -2 -3q-2 -3 -4 -3l-2 -2 q-1 -1 -2 -1h-1l-5 -5t-8.5 -9t-8.5 -10t-5 -6q-18 -17 -45 -32.5t-51 -15.5q-31 0 -50.5 12.5t-30.5 33t-15 47t-4 54.5q0 1 1.5 7t1.5 8v2q2 10 5 26.5t3 19.5q1 4 4.5 16t7 25t6.5 25l4 16q6 10 8.5 20.5t6.5 18.5q0 1 2 6t4.5 10t5 9.5t3.5 5.5q1 2 4.5 12t5.5 13 q11 28 24.5 51t27.5 49q14 20 29 37.5t30 35.5q0 2 2.5 5t4.5 5l5 5q20 21 44 41t53 20q8 0 18 -0.5t16 -5.5q9 -8 18.5 -20.5t9.5 -26.5q0 -11 -7 -18t-17 -7h-7q-2 0 -4 1q-2 0 -4 1q-10 0 -22 -3t-20 -8q-16 -12 -34 -28q-2 -1 -3 -1q-3 -3 -3 -2q-1 -2 -2 -5 q-2 -6 -4 -6q-2 -3 -7.5 -5t-7.5 -6q-3 -3 -4 -7q-1 -3 -2 -5q-1 -1 -1.5 -2t-2.5 -2l-4 -2l-3 -4q-1 -1 -4.5 -5.5t-3.5 -5.5q-2 -2 -5.5 -5t-3.5 -4q-1 -1 -1 -2t-1 -3t-1 -4q-1 -1 -4.5 -3t-3.5 -3q-1 -2 -2 -5l-2 -4t-1 -4q-2 -1 -5 -9.5t-4 -10.5q-1 -1 -3.5 -5 t-5.5 -8.5t-5.5 -8.5t-3.5 -5q0 -1 -2 -5.5t-4.5 -10t-4.5 -10.5t-2 -6q-2 -7 -5.5 -12.5t-6.5 -12.5q1 -2 1 -3q0 -3 -1 -3q0 -1 -5 -5.5t-5 -5.5q-1 -2 -0.5 -6.5t0.5 -6.5q-1 0 -3 -3.5t-2 -5.5q-6 -14 -9.5 -26t-7.5 -27q-9 -33 -16 -59t-7 -61v-14q0 -2 2.5 -11 t4.5 -13q1 -5 7.5 -5h10.5q26 0 41.5 12t33.5 27q10 8 20 15t20 17q1 1 4 6t4 5q18 24 37.5 47.5t34.5 52.5q1 1 4 7.5t7 14t7 15t5 10.5v2q0 2 1 3l2 4q6 19 13 35.5t15 36.5l8 24t17 15q14 0 23.5 -9t17.5 -20q3 -3 3 -10q0 -23 -9 -38t-16 -34q-2 -5 -3.5 -14t-4.5 -14 q-1 -1 -3 -1l-4 -2q-1 -2 -1 -5q-1 -2 -1 -4t-1 -3q0 -2 -2 -8.5t-3 -8.5l-6 -16t-6 -17q-2 -1 -3 -4t-1 -4q0 -3 -2 -11t-4.5 -17.5t-4.5 -18t-2 -10.5q-2 0 -2.5 -2.5t-0.5 -4.5q-2 -5 -5.5 -18t-3.5 -16v-10q0 -1 -1 -2t-2 -3q-2 -2 -3 -4q-1 -1 -1.5 -8.5t-0.5 -8.5 q-3 -14 -7 -29t-7 -28q0 -2 -3 -9t-3 -8v-12q0 -1 -1.5 -5l-3 -8t-2.5 -7.5l-1 -3.5v-13q0 -1 -3 -8.5t-3 -9.5q0 -1 -1.5 -9.5t-1.5 -11.5q-1 -8 -3.5 -14.5t-5.5 -14.5q-1 -3 -2.5 -11t-2.5 -10q0 -1 -1.5 -7t-1.5 -8q0 -1 -2 -3q-1 -1 -1 -3v-14q-1 -2 -1 -3t-1 -2v-1 q-6 -22 -9 -41t-6 -39q-2 -18 -4.5 -35.5t-4.5 -34.5q-2 -1 -1 -7t1 -8q-1 -2 -2.5 -11.5t-3 -20.5t-2.5 -20.5t-1 -11.5q-2 -3 -1 -11.5t1 -10.5q-2 -18 -4.5 -35t-1.5 -35q-4 -5 -6 -6.5t-6 -1.5q-14 0 -22 7.5t-12.5 18.5t-5.5 23.5t-1 23.5z" />
<glyph unicode="H" horiz-adv-x="390" d="M247 136q0 38 4 76t7 75v2q-14 0 -25.5 -5.5t-25.5 -8.5q-6 -1 -15 -1.5t-18 -2t-16.5 -4.5t-11.5 -9q-6 -8 -5 -18.5t-1 -20.5q-3 -19 -3.5 -37.5t-2.5 -38.5q-2 -33 -4.5 -68t-14.5 -67q-2 -5 -10.5 -12t-13.5 -7h-2q-5 3 -16.5 9.5t-11.5 15.5q0 11 3 19t6 18 q4 16 5.5 30.5t2.5 30.5q2 22 3.5 44t2.5 43v10t-0.5 15.5t-0.5 15.5v10h-2q-2 0 -10.5 -0.5t-18 -1t-17.5 -1t-10 -0.5h-3h-3q-18 3 -23.5 10t-9.5 24l-2 4q-1 2 -1 4q0 1 -0.5 3t-0.5 3q0 10 5 15t12 6.5t15.5 1t15.5 -0.5q1 0 6 0.5l10 1t9.5 1t5.5 0.5q7 1 18 0.5 t16 8.5q4 7 4 14t2 14q9 40 21 78.5t21 78.5q4 5 3.5 12.5t1.5 12.5q1 2 3.5 7.5t2.5 6.5q11 32 18 65t24 62h3h3q17 -7 27 -16t15 -26v-3v-3q-4 -20 -11 -38.5t-14 -37.5q-9 -22 -14 -45q-3 -14 -6.5 -26.5t-7.5 -26.5q-5 -16 -11 -30.5t-9 -31.5v-14q0 -3 -3 -3 q-1 -4 -4 -18t-4 -18v-2q2 0 8.5 -0.5t8.5 -0.5t4 1l4 2q2 0 11 1t11 2q1 0 8 2t16 4.5t17 5t13 4.5q8 3 12.5 10.5t6.5 15.5q1 2 2 11t1 11q1 2 4 15t5 19q2 7 4 11t4 11q1 2 1.5 8.5t1.5 8.5q0 1 2.5 7.5t4.5 13.5t4.5 13t2.5 8q4 13 4.5 22.5t9.5 19.5q2 2 6 6.5t5 5.5h2 h1q6 -3 13 -7.5t14 -10.5t11.5 -13t4.5 -14q0 -1 -0.5 -1t-0.5 -1v-1q-5 -19 -11.5 -37t-13.5 -36q-3 -9 -7.5 -18t-4.5 -19v-2v-2q0 -1 1 -1t4 1t4 2h2q5 0 8.5 -10.5t3.5 -14.5v-4q0 -5 -1 -13t-2 -9q0 -2 -6 -7.5t-8 -6.5q0 -1 -1 -1.5t-2 -2.5l-2 -4l-26 -26q0 -1 -1 -5 t-1 -6q-1 -5 -3 -17t-3 -14q0 -2 -1 -11t-2 -14q-2 -16 -5.5 -32t-5.5 -33v-17q0 -2 -0.5 -9.5t-1 -15.5t-1 -15.5t-0.5 -9.5v-40v-39q2 -11 5.5 -19t3.5 -19v-12q-5 -9 -14 -9q-3 0 -3 3q-1 1 -4.5 5.5t-4.5 5.5q-5 6 -12 10t-10 13q-4 11 -7 26t-4.5 31.5t-2 32t-0.5 26.5 z" />
<glyph unicode="I" horiz-adv-x="206" d="M12 44q0 2 0.5 8.5t1 14.5t1 14.5t0.5 8.5v31q0 3 1.5 13.5t3 23.5t3 23.5t1.5 13.5v17q0 5 1.5 17.5t2.5 27t2.5 27t1.5 17.5q5 12 7 25t5 26q0 1 2.5 8t2.5 9q1 1 2 7t1 7q1 3 3 10.5t4 16t4 15.5t3 9q10 31 21 59.5t16 60.5q4 3 7.5 10.5t6.5 17t5 18.5t4 14q1 1 3 5 l3 6q5 8 9.5 17t14.5 9q12 0 24.5 -13t17.5 -24v-6q0 -2 1 -3v-2q0 -1 1 -1v-1v-1q0 -1 -2.5 -4.5t-2.5 -4.5q-2 -2 -4 -6t-2 -5v-6l-3 -3l-7.5 -15l-6.5 -13q-1 -1 -1.5 -6t-1.5 -6q0 -1 -2.5 -3t-3.5 -2q-1 -2 -4 -8.5t-4 -9.5q-1 -1 -2 -4t-1 -4q-3 -15 -9 -30t-11 -30 q-1 -2 -3 -11.5t-3 -11.5q-2 -9 -7 -18t-7 -19q0 -2 -2 -9t-3.5 -15t-3.5 -15t-2 -9q-1 -2 -3.5 -9t-2.5 -8q-1 -2 -1.5 -13t-1.5 -13q0 -2 -2.5 -10t-3.5 -10q-7 -35 -9.5 -69.5t-7.5 -69.5v-3q0 -7 -1 -18t-2 -21.5t-1.5 -18t-0.5 -8.5t-1.5 -6t-3 -11t-2.5 -11.5t-2 -8.5 q-1 -2 -3 -8.5t-3 -8.5t-3.5 -3.5t-4.5 -2.5q-2 0 -8.5 -2t-8.5 -3q-6 3 -9 16.5t-3 20.5v11z" />
<glyph unicode="J" horiz-adv-x="320" d="M74 -60q-6 14 -15 28t-16 29q-11 27 -19 55.5t-12 58.5q0 5 -1 14.5l-2 19t-1.5 16.5t-0.5 9q0 3 0.5 9t1.5 12.5t2 12.5t1 8q1 0 6 11t7 17q7 14 14 28.5t17 26.5q2 1 8 7.5t8 7.5v1q0 1 1 2q0 1 1 2q9 14 18.5 21t20.5 16q12 9 23.5 20t26.5 16l5 1.5t11 3t12.5 3 t9.5 2.5h2h1q1 0 2.5 -1t2.5 -1q0 -2 0.5 -7.5t0.5 -7.5q0 -8 -1 -15t-8 -12q-10 -8 -20 -15.5t-21 -15.5q-1 -1 -3.5 -2.5t-4.5 -2.5q-4 -3 -10.5 -9.5t-13 -14.5t-12 -16t-8.5 -12l-4 -8t-4 -7q0 -1 -3.5 -4t-3.5 -4q-1 -1 -3 -4t-3 -4q-11 -24 -17 -48t-6 -51 q0 -29 6.5 -56t14.5 -55q2 -8 5.5 -15.5t7.5 -15.5l1 -1q0 -1 1 -2q1 0 2 -2t1 -3t1 -4t2 -4q0 -1 5 -6.5t8 -8.5q7 -8 14 -19.5t19 -11.5q11 0 19.5 12.5t11.5 21.5q13 34 18.5 67t10.5 70q0 2 0.5 9t1.5 14.5t2 14t1 8.5q3 23 3.5 44.5t1.5 44.5q0 2 1 11.5t2 11.5 q3 40 3 80t2 80q2 56 5 111t8 110q2 14 4 27t4 27q0 2 1 5.5t1 4.5q3 3 3 6q0 2 1 10t1 10q3 5 7.5 5.5t9.5 0.5h7q1 -1 11 -6t15 -7q4 -2 7 -9t3 -12q0 -2 -1 -10t-2 -11l-2 -5q-1 -2 -2 -11.5t-1 -11.5q0 -1 -1 -4t-1 -4q-1 -1 -1 -1.5t-1 -1.5t-1 -2v-8q0 -1 -2.5 -6.5 t-2.5 -6.5q-1 -2 -3 -13t-2 -16q-1 -3 -2 -9t-1.5 -13t-1 -12.5t-0.5 -6.5v-7v-11v-11.5v-6.5q0 -2 -1.5 -8t-1.5 -8q0 -3 0.5 -10t-3.5 -11v-103q0 -2 -1 -8t-1 -8v-13v-22v-22v-13q0 -1 -1.5 -8.5t-1.5 -9.5v-8.5t-0.5 -14t-0.5 -14v-9.5v-8l-7 -70q0 -2 -1 -5.5t-1 -4.5 v-8q0 -2 -0.5 -8t-1 -12.5t-1 -12.5t-0.5 -9q-1 0 -1.5 -2t-0.5 -3q-1 -2 -0.5 -11.5t0.5 -11.5q0 -1 -2 -3q-1 -1 -1 -2q-4 -16 -5.5 -32.5t-4.5 -32.5q-1 -1 -1.5 -3.5t-1.5 -4.5q-3 -8 -5 -17t-5 -17q-5 -11 -11 -22.5t-14.5 -21t-19.5 -15.5t-24 -6q-5 0 -12.5 1 t-15.5 3.5t-15 5.5t-10 6l-42 42v0z" />
<glyph unicode="K" horiz-adv-x="358" d="M4 -64v36q0 4 0.5 17.5t1.5 29t2 30t1 20.5q2 23 5.5 45.5t3.5 45.5v25q-5 11 -9.5 18.5t-4.5 20.5v11q6 7 13 11.5t12 13.5q0 1 1 5t2 6q7 44 12 87t10 87v3q4 26 8 51.5t6 51.5v13q0 2 1 10t1.5 17t1.5 16.5t1 9.5v14q0 1 1.5 4t1.5 4v25q0 2 1 8t2 9q0 2 1.5 5.5 t3.5 5.5q2 1 7 3t7 2h1q13 0 24 -8t17 -19v-22v-23q0 -2 -1 -12.5t-2 -14.5q0 -2 -1.5 -7.5t-1.5 -6.5q-1 -5 0 -7.5t-3 -6.5q-5 -29 -8.5 -61t-7.5 -61v-3q0 -2 1 -3.5t1 -3.5v-1q-7 -21 -9 -43.5t-7 -45.5h3q3 0 5 3q8 13 14.5 22.5t16.5 21.5q25 35 47 71t38 76q1 2 3 10 t3 10q1 1 4.5 5.5t3.5 5.5q1 0 4 8.5t5 13.5q2 7 4 17.5t10 12.5q2 1 6 2t5 1q4 -1 8 -3q8 -4 11 -5q9 -5 17 -11.5t8 -17.5q0 -15 -4.5 -23.5t-9.5 -19.5q-1 -2 -3 -8.5t-2 -8.5q-2 -2 -7.5 -9.5t-6.5 -9.5l-2 -4q-1 -2 -1 -4l-3 -6l-3 -6l-5 -5q-11 -18 -20.5 -35.5 t-21.5 -36.5q3 -3 0 -6q-2 -2 -5 -4l-6 -4q-5 -7 -8 -14t-8 -14q-1 -1 -6.5 -7t-7.5 -9q-1 -1 -3.5 -3t-2.5 -3q-1 -2 -1.5 -8.5t-6.5 -5.5q-2 -2 -6 -7.5t-8.5 -11.5t-8.5 -11.5t-5 -7.5q-5 -7 -11.5 -14t-10.5 -14q-1 -1 -1.5 -4.5t-1.5 -3.5q-1 -2 -8 -8.5t-8 -8.5 q-4 -5 -10.5 -14.5t-6.5 -14.5v-2q1 0 3 -1t3 -1q1 -2 6.5 -7.5l6.5 -6.5t6 -3t5 -3q11 -9 21 -19t21 -19q8 -7 15.5 -12t14.5 -11q13 -10 24 -21.5t24 -22.5q1 -1 6.5 -4t6.5 -4q6 -5 15.5 -12t19 -13.5t19 -11.5t17.5 -5q5 0 6.5 0.5t6.5 2.5l5 3q2 -1 5 -4t3 -5 q1 -1 0.5 -5.5t-0.5 -5.5t1.5 -4t1.5 -4v-3q0 -5 -6 -9.5t-10 -4.5h-3q-2 1 -7.5 3.5t-6.5 2.5q-2 0 -10 1t-9 2q-15 2 -29 8.5t-27 13.5l-24 12t-23 16l-6.5 6.5t-7.5 6.5q-5 5 -11 7t-8 10q-4 2 -15.5 11t-15.5 11l-2 3q-2 1 -10 4t-10 4q-8 4 -15 13.5t-15 9.5 q-1 0 -1 -0.5t-1 -0.5h-1q-6 -45 -9 -90.5t-5 -91.5v-31q0 -2 -1 -12.5t-2 -12.5v-13.5t-1.5 -9t-5.5 -7t-12 -6.5h-1q-5 0 -7.5 3t-5.5 5q-8 6 -13 9t-9 14v36z" />
<glyph unicode="L" horiz-adv-x="414" d="M11 89q0 41 6.5 84t16.5 83q15 62 31 122t33 121q1 3 4 17.5t5 20.5q5 23 9.5 45t10.5 44v1q0 1 1 2t2 3q1 4 1.5 10.5t2 12.5t5 10.5t10.5 4.5q15 0 29 -9t24 -20v-12v-11q0 -1 -2.5 -6t-3.5 -6q0 -1 -1 -5.5t-2 -5.5q0 -1 -1 -4.5t-2 -4.5q0 -1 0.5 -4.5t-0.5 -4.5 q0 -1 -3.5 -8l-4.5 -9q-1 -1 -2 -4t-1 -5q-1 -2 -2 -8.5t-1 -8.5q-2 -8 -6 -14.5t-6 -14.5q0 -2 -1 -7t-2 -7q0 -1 0.5 -4.5t-0.5 -4.5q0 -1 -2 -6.5t-3 -8.5q-8 -19 -10.5 -40t-7.5 -41q-5 -3 -7 -9t-4 -11q-8 -23 -11.5 -46t-8.5 -46q-8 -29 -15 -56.5t-12 -56.5 q0 -2 -1 -9.5t-1 -10.5v-2v-1l2 -3l1 -1q0 -1 -1 -2q-5 -11 -6.5 -22.5t-1.5 -23.5q0 -41 14 -75l3 -3h81q2 1 7.5 2t7.5 1l5 -3h7h8q40 4 79.5 9.5t79.5 5.5q2 0 11 -0.5t12 -0.5q12 -5 12 -17q0 -7 -9 -12t-21 -9t-23.5 -6.5t-16.5 -4.5q-2 0 -9 -4t-8 -4q-6 -2 -11 -2 t-10 -4q-3 0 -11 -1t-17.5 -2t-17.5 -2t-11 -1q-1 0 -5.5 -1t-6.5 -2q-17 -5 -34.5 -5.5t-34.5 -5.5h-58q-8 0 -16.5 4.5t-15.5 9.5q-33 24 -42.5 61t-9.5 75z" />
<glyph unicode="M" horiz-adv-x="470" d="M372 -14q0 57 5 112t12 110v15q0 1 0.5 6l1 10l1 10t1.5 6q1 26 1 51.5t1 51.5q1 11 3 21.5t2 21.5v4q0 2 -1 9.5t-1 10.5q-7 -6 -9 -16q-9 -30 -17.5 -59t-16.5 -60q-2 -3 -3.5 -14.5t-1.5 -14.5v-12q0 -1 -1 -3.5t-3 -3.5q0 -1 -0.5 -2t-0.5 -3q-1 -2 -1 -5v-13 q0 -1 -1 -5t-2 -6l-3 -4q-1 -2 -2 -10.5t-1 -9.5q-1 -2 -3.5 -10t-2.5 -10q-1 -2 -1.5 -8.5t-1.5 -9.5q0 -2 -1 -13t-1 -13q0 -1 -2 -3q-1 -1 -1 -3q-1 -2 -3.5 -8.5t-2.5 -8.5q-1 -3 -2.5 -9t-3 -12.5t-2.5 -12t-1 -6.5q-1 -7 -0.5 -17t-1.5 -19t-8.5 -15.5t-19.5 -6.5 q-14 0 -25.5 11t-12.5 22v45q0 43 3.5 84.5t5.5 84.5q2 57 1.5 112.5t-0.5 112.5l-1 1q-3 0 -3 -3q-14 -23 -22 -45.5t-16 -46.5q0 -1 -1.5 -5t-3.5 -8.5t-4 -8.5t-2 -5q-11 -31 -19 -62t-19 -63q0 -1 -1 -3t-1 -3q-3 -3 -3 -6v-7q0 -1 -1 -2.5t-1 -2.5q-1 -1 -2 -5t-1 -5 q-2 -5 -4 -20t-2 -19q-9 -11 -14 -30t-9 -32q-4 -11 -8.5 -20.5t-6.5 -20.5q0 -1 -1 -8t-2 -9q-1 -1 -1 -2q-1 -1 -1 -2v-1q-1 0 -1.5 -4.5t-1.5 -5.5q0 -1 -1 -6t-2 -11t-2 -11.5t-1 -6.5q-2 -8 -7 -17.5t-16 -9.5q-14 0 -23 5.5t-17 15.5q-8 8 -8 19t-1 20v12 q0 51 11.5 100t23.5 98q12 52 21.5 102.5t24.5 101.5q-2 7 2.5 15.5t5.5 16.5q0 2 -0.5 10t0.5 10v1q0 1 1 2q0 1 1 2q7 13 9.5 26t5.5 27q2 8 5.5 20t16.5 12q19 0 33.5 -9t14.5 -26q0 -7 -2.5 -12.5t-4.5 -12.5q0 -2 -2.5 -12.5t-3.5 -12.5q0 -1 -2.5 -6t-2.5 -6t-1 -5 t-2 -5q0 -2 -2.5 -12.5t-3.5 -12.5q0 -2 -1 -3l-2 -2v-3q0 -3 3 -4l4 2l8 20q3 8 6 17l5 15q6 16 11.5 29.5t14.5 28.5q1 1 2 3.5t3 4.5l4 6q2 3 7 8t7 5q0 1 4 1h6q20 0 36.5 -11t21.5 -28v-9q0 -1 1 -6.5t3 -6.5v-13q0 -1 1 -6.5t1 -7.5v-78q3 -3 3 -4v-1v-2q0 -1 -1.5 -5 t-1.5 -5q0 -2 0.5 -8.5t0.5 -8.5h2q6 25 15 49t20 48q0 1 2 6.5t4.5 12t5 12t2.5 7.5q2 3 7 15t7 17q2 4 5.5 9.5t10.5 5.5q23 0 41 -15.5t22 -35.5q2 -1 1 -4.5t-1 -4.5t2 -3q1 -1 2 -3t1.5 -8.5t0.5 -8.5q0 -3 -2 -5v-97q-1 -17 -3 -35.5t-3 -35.5q-1 -3 -0.5 -14t0.5 -13 q-2 -44 -7 -87t-9.5 -86.5t-8 -87t-1.5 -87.5q-2 -8 -5.5 -12.5t-14.5 -4.5h-2q-13 7 -20 17t-10.5 21t-4 23t-0.5 24zM164 423q-4 0 -5 -3l-2 -6h2q4 0 4.5 3t0.5 6z" />
<glyph unicode="N" horiz-adv-x="420" d="M256 53q0 28 3 54.5t7 54.5v9q0 2 1.5 11t3 19t3 19t1.5 12v9q0 2 1 3q2 2 2 3t1.5 5.5t1.5 6.5q0 1 1 7t2 12.5t2 12t1 7.5q1 6 2.5 8t0.5 7q11 56 20 110.5t16 110.5q1 1 2 7t1 8q1 4 2 11.5t1 9.5q1 14 1 28.5t2 28.5q0 1 1.5 6t1.5 6v2q0 7 -1.5 13t-1.5 14t2 14 t2 13q0 10 -7 14q-8 -7 -18 -22t-15 -23q-2 -3 -2 -7t-4 -6l-33 -66v-6q-1 -1 -3.5 -4.5t-2.5 -4.5q-5 -7 -7 -14.5t-5 -15.5q-6 -14 -11 -27.5t-11 -27.5q-5 -13 -11.5 -25.5t-9.5 -25.5q0 -1 0.5 -4.5t-0.5 -4.5q0 -1 -2.5 -4.5t-3.5 -4.5q-1 -2 -3 -10.5t-3 -10.5 q0 -1 -2 -3q-1 -1 -1 -3q0 -1 0.5 -5t-0.5 -4q0 -1 -1 -3.5t-2 -2.5q-2 -5 -6 -18.5t-6 -18.5q-1 -2 -2 -6.5t-1 -5.5v-15l-3 -3q-6 -11 -8.5 -19.5t-6.5 -19.5q-1 -2 -3 -8t-3 -7q0 -2 -2 -8.5t-4 -14.5t-4 -14.5t-2 -8.5q-3 -9 -6.5 -18t-5.5 -18q-1 -1 -0.5 -4.5 t0.5 -4.5q-2 -8 -6 -16.5t-6 -16.5q-1 -1 -0.5 -4.5t0.5 -4.5q-1 -1 -3.5 -4.5t-2.5 -4.5t-1 -5.5t-2 -10t-2 -10t-1 -5.5q-1 -1 -3.5 -8.5t-2.5 -9.5q-2 -8 -3 -17.5t-2.5 -19.5t-5.5 -18.5t-11 -13.5h-10q-17 0 -29.5 11.5t-17.5 27.5v26q0 46 7.5 91.5t16.5 91.5 q1 7 4 22t6 30.5t5.5 28t2.5 15.5q0 1 0.5 5t1 8.5t1 8.5t0.5 5q1 2 3.5 12.5t2.5 12.5v6q1 1 2 6t1 6q-1 2 -2 3t-1 3q1 2 3 5t3 4q1 4 2.5 13t3.5 19t4 19t2 12q4 17 6 33.5t4 33.5q0 1 1 6t2 6q5 26 5.5 51.5t9.5 51.5q1 4 7 5t10 1h4q17 -7 29.5 -15.5t12.5 -28.5v-5 q0 -6 -1.5 -18.5t-1.5 -14.5t-1.5 -7.5t-3 -12t-3 -12.5t-1.5 -7v-3l-15 -79v-18l3 3q3 9 7 18q3 8 6 15t5 12q6 15 10.5 30.5t10.5 30.5q5 11 12 21t12 21v3q6 19 13 39t18 37q1 2 6.5 10.5t12.5 18t12.5 18t7.5 10.5q3 5 9.5 16.5t14 23.5t15 21t14.5 9q11 0 18.5 -3 t15.5 -10q5 -3 14.5 -10t10.5 -8q11 -10 12 -25.5t3 -28.5q0 -1 1.5 -4.5t1.5 -4.5q0 -2 -1 -5t-2 -4q2 -35 -1.5 -71t-7.5 -71q0 -3 -1 -9.5t-2 -14t-2 -14.5t-1 -10q-1 -2 -2 -8t-1 -8q-1 -2 -0.5 -12t0.5 -12q-2 -14 -6 -28.5t-6 -28.5l-10 -70q0 -2 -1 -9t-2 -9 q-5 -26 -10.5 -52.5t-10.5 -53.5q0 -2 -1 -4q-1 -1 -1 -3q0 -1 -1 -2q-3 -11 -3.5 -22t-2.5 -23q0 -1 -1 -4.5t-2 -4.5q-6 -26 -8 -54t-4 -55v-21q0 -2 -1 -7.5t-2 -12t-2 -12.5t-1 -7v-6q-1 -3 -3 -8.5t-3 -6.5q-2 -3 -8 -3.5t-9 -0.5q-1 0 -3.5 0.5t-3.5 0.5 q-17 20 -21 39t-4 45zM139 440l3 3l-3 3v-6z" />
<glyph unicode="O" horiz-adv-x="354" d="M9 119q0 19 3 34t8 33q1 2 3 12t2 12q3 11 6.5 22t5.5 22l39 101q8 10 12 20.5t9 21.5q0 1 1 2q0 1 0.5 1.5t0.5 1.5q5 8 8.5 16.5t6.5 18.5l41 65q8 6 8 12v1q-2 0 -3 1q-1 0 -2 1l-1 1q0 1 1 2l15 15h-1q-6 0 -13 -4t-12 -6h-1v3q4 1 8 4q4 2 7.5 4t6.5 4q2 1 8 3.5 t8 3.5v2q-16 0 -30.5 -7t-28.5 -14q-1 -1 -4 -3t-4 -3h-3q0 11 7.5 16.5t16.5 10.5q1 1 6 4t6 4h1q1 0 1 0.5t1 0.5t2 1h1q3 0 4 -1t3 -1q5 0 4 4t6 6q8 2 17 3t17 4q0 1 1 1l1 1q17 19 34.5 35.5t42.5 23.5q2 0 6 2q2 1 4 1q20 0 39 -8.5t33.5 -22.5t23.5 -32t9 -37 q0 -10 -2 -17.5t-15 -7.5q-6 0 -10 3.5t-9 8.5q-6 7 -7.5 13t-1.5 11t-1.5 10t-7.5 10q-3 3 -7 3q-1 0 -4 2t-4 2h-4q-2 0 -3.5 0.5t-2.5 0.5q-2 0 -5.5 -0.5t-5.5 -0.5l-3.5 -3.5t-4.5 -3.5q-1 -1 -9.5 -2.5t-10.5 -2.5q-2 -2 -9 -9.5t-9 -10.5q2 0 5.5 -1.5t4.5 -2.5 q29 -19 40 -49t15 -62v-6.5t0.5 -15t1 -17.5t0.5 -15v-3v-2q-2 -23 -4 -45t-6 -44q0 -1 -1.5 -6t-2.5 -11t-2.5 -11.5t-1.5 -7.5l-12 -57q-2 -8 -5.5 -10.5t-5.5 -9.5l-4 -16t-6 -16q-1 0 -2.5 -2.5t-3.5 -4.5q-8 -10 -13.5 -20t-13.5 -21q-22 -31 -49 -54t-64 -37 q-2 0 -10.5 -0.5t-10.5 -0.5q-8 0 -19 0.5t-19 5.5q-34 17 -50.5 49t-16.5 68zM64 92q0 -2 2 -10t2 -12q1 -5 4.5 -11.5t8.5 -8.5h8q24 0 46.5 13t41.5 32t34 41t23 40q1 2 4.5 9.5t3.5 9.5q1 1 3 5t4 8.5t4 8.5t2 5q1 2 4 10.5t4 12.5q3 10 4 19.5t3 19.5q8 35 13.5 71 t5.5 72v10q0 1 -1.5 4.5t-1.5 4.5q-2 16 -2 31.5t-6 30.5q-1 2 -3 5t-2 4q-3 4 -8.5 9.5t-6.5 5.5h-8q-1 -2 -3.5 -6t-4.5 -6q-2 -3 -3 -6.5t-5 -5.5q-1 -1 -5 -4t-5 -4q0 -1 -3 -4.5t-4 -5.5l-18 -28l-18 -28q0 -1 -1 -1.5t-1 -1.5q-2 -2 -5 -8.5t-7 -14t-7.5 -14.5 t-4.5 -10q-1 -1 -4 -5.5t-4 -6.5q0 -1 -0.5 -1t-0.5 -1v-2q-1 -2 -4 -11.5t-4 -11.5q-1 -1 -4 -4.5t-4 -4.5q-4 -6 -7.5 -13.5t-5.5 -13.5q-1 -1 -1.5 -6.5t-1.5 -6.5q0 -1 -2.5 -3.5t-2.5 -3.5q-2 -5 -3.5 -11t-3.5 -12v-4q0 -1 -2.5 -2.5t-2.5 -2.5q-8 -14 -11 -35 q0 -1 -1 -8t-1 -8l-3 -3q-1 -1 -1.5 -3.5t-1.5 -4.5q-6 -25 -10 -48.5t-4 -50.5v-4zM152 513h-2l2 2v-2z" />
<glyph unicode="P" horiz-adv-x="324" d="M30 -178q0 3 -0.5 10t-1 15t-1.5 15t-1 10q-5 48 -5 94v93v70q2 17 3 35t2 35q0 1 1 8.5t1 8.5v7q0 10 -8.5 20t-8.5 24q0 19 13 31h1q3 0 4 -3.5t3 -5.5q4 2 4 7q1 2 1.5 11t0.5 10q4 24 7.5 42t8.5 40q0 1 1 5l2 8t2 7.5t1 4.5q1 5 1 10v9.5t1 7.5v2q1 2 3.5 7.5 t2.5 6.5v8q0 1 1.5 5t1.5 6q2 8 2 11q1 1 3 6.5t4 7.5l2 2q0 2 -0.5 7.5t0.5 6.5q0 2 1.5 8t2.5 8l2 2q1 0 2 1q1 0 1 0.5t1 0.5v2v1l-2 2v1v2q2 11 7 22t6 23q1 3 4.5 9t7 13t7 13.5t5.5 8.5q5 9 9 17.5t10 16.5q5 6 9 8t11 6l8 8q14 8 27 12.5t29 4.5q6 0 11.5 -2t11.5 -1 q19 -8 35.5 -21.5t29.5 -30.5q1 -2 2.5 -6t1.5 -5l2 -2q0 -1 0.5 -1t0.5 -1t1 -1q5 -10 7 -19t4 -20q3 0 3 -4q0 -5 -0.5 -8t2.5 -6v-66q-2 -4 -2.5 -9t0.5 -10l-12 -53q-8 -18 -13 -36t-15 -35q-11 -23 -27.5 -45t-33.5 -39q0 -1 -1 -3.5t-1 -3.5q0 -2 -3 -2q-1 -1 -2 -1 l-2 -2q-1 -1 -1 -3q0 -1 -1 -2t-4.5 -2.5t-4.5 -3.5q-11 -8 -21 -17.5t-22 -17.5q0 -1 -3.5 -1.5t-4.5 -1.5q-11 -4 -19.5 -11t-19.5 -11q-1 0 -5.5 -0.5t-4.5 -1.5q-1 -1 -3 -4t-3 -5q-6 -23 -8.5 -47.5t-5.5 -48.5q-1 -2 -1 -4q-1 -1 -1 -3v-2q0 -2 -1 -6.5t-1 -5.5 q-5 -40 -11 -79t-4 -78q-2 -2 -2.5 -8t-1.5 -13.5t-1 -14v-8.5q0 -8 1 -15.5t1 -15.5v-3q0 -1 -1 -9t-1 -10t1 -4q0 -2 1 -3q0 -1 0.5 -4t0.5 -5q0 -18 -13 -18q-11 0 -20.5 6t-14.5 19zM105 458q0 -3 -1.5 -10.5t-3.5 -16t-3.5 -16t-1.5 -10.5q-1 -2 -2 -7.5t-2 -12 t-2 -12.5t-1 -7t-1 -4t-1 -4v-9q-1 -7 -2.5 -13.5t-1.5 -12.5q-1 -3 -1.5 -9.5t-0.5 -8.5q-2 -11 -4.5 -23.5t-2.5 -24.5h2q1 0 3 12t4 20q6 33 12.5 67t14.5 68v1q0 1 0.5 1.5t0.5 1.5q0 2 1 3v7q1 2 2.5 7.5t2.5 7.5v5v5q0 1 3 8t4 8v7q0 1 1 5.5t1 5.5t0.5 5.5t1.5 6.5 q2 6 4 11t8 5q15 0 26 -8t11 -26q0 -16 -5 -30.5t-10 -29.5q-1 -1 -2.5 -9.5t-1.5 -9.5q-2 -9 -4.5 -16t-4.5 -16q0 -1 0.5 -4t-0.5 -3l-2 -2q0 -1 -1 -6t-1 -7v-7q-1 -1 -1 -2q-1 -1 -1 -2v-1v-7q0 -2 -3 -11t-4 -11v-2q0 -2 -1.5 -8t-2.5 -12.5t-2.5 -12.5t-1.5 -9l2 -2 l2 2q1 1 2 1.5t2 1.5q0 1 1 1.5t1 1.5q1 0 6.5 4t6.5 6q1 1 5.5 4.5t5.5 4.5q8 6 16.5 12t16.5 15q3 3 8.5 10.5t12 15.5t12 15t7.5 10q9 12 19 28t16 32q11 31 19.5 61.5t8.5 62.5q0 11 -1.5 24.5t-4.5 26.5t-9 23.5t-15 16.5q-2 2 -5 2q0 1 -2 3l-3 3q-5 2 -11 2.5 t-11 0.5h-12q-3 -4 -4.5 -3t-5.5 0q-5 -2 -11 -5l-10 -5l-5.5 -5.5t-7.5 -8t-7 -8t-4 -4.5q-3 -4 -7 -10.5t-8 -13.5t-7 -14t-4 -11v-8l-2 -2q-1 -1 -2 -1t-1 -1q-1 -1 -1 -2q-1 -1 -1 -2v-1q-1 -3 -3 -8.5t-4 -11.5t-3.5 -11t-1.5 -6q-1 -2 -3 -8t-4 -13.5t-4 -14t-3 -9.5 q2 -9 -4 -17z" />
<glyph unicode="Q" d="M208 24q-2 0 -6 -2.5t-9 -6t-9.5 -7t-7.5 -4.5q-12 -6 -26 -11.5t-28 -5.5h-4q-3 0 -11.5 1t-9.5 1q-2 0 -8 2.5t-9 3.5q-4 2 -9.5 4.5t-5.5 7.5l-36 44q-3 11 -9 21.5t-8 21.5q0 4 -1 13t-1 11t-0.5 16t-0.5 22q0 52 16 104.5t36 100.5q2 3 7 14.5t7 14.5 q11 23 23.5 45.5t25.5 44.5q15 29 31.5 52.5t36.5 47.5q2 2 7 9t6 9q11 12 22.5 24t24 22.5t26.5 17t31 6.5t32 -8t26 -21.5t17.5 -30.5t6.5 -34q0 -14 -3 -29q-1 -5 -7.5 -14t-6.5 -11v-1l5 -6q10 -15 11 -32t1 -34q0 -63 -16.5 -125t-41.5 -119q0 -1 -1.5 -5t-3.5 -8.5 t-3.5 -8t-1.5 -4.5q-9 -19 -19.5 -35t-21.5 -33q-7 -9 -17 -18.5t-10 -20.5v-2q7 -28 18.5 -53.5t24.5 -51.5q1 -1 3 -6t5 -11t5 -11.5t3 -6.5l3.5 -7l5 -10t5 -9.5t2.5 -5.5q8 -14 19.5 -26t11.5 -29q0 -11 -10 -18t-18 -12h-1q-1 0 -5 1.5t-8 3.5l-7 3.5t-3 2.5 q-1 2 -1.5 11t-1.5 11q-2 9 -12 20t-15 20q0 2 -1 5t-1 4q-1 1 -4.5 7.5l-7 13t-6.5 12.5l-4 8q-2 1 -4 5t-2 6q-1 2 -4 11t-4 10q-1 2 -2.5 6t-2.5 6q-2 3 -5.5 10.5t-7.5 15.5t-8 14t-7 6zM64 129q0 -9 1 -22t4.5 -25.5t10.5 -21.5t19 -9h3q1 0 4.5 1.5t4.5 1.5h7 q18 3 35 16t31 24q2 4 2 9q0 9 -3 15.5t-5 14.5q-11 41 -21.5 81.5t-21.5 81.5q-1 5 -1.5 18.5t-1.5 16.5v9t-5 4q-6 0 -10 -9.5t-6 -14.5q-1 -2 -3 -7.5t-4 -7.5q0 -2 -3.5 -12.5t-3.5 -12.5q-1 -2 -4.5 -9.5t-3.5 -9.5q-1 -2 -4 -11.5t-5 -14.5q0 -2 -1.5 -8t-3.5 -12.5 t-3.5 -13t-1.5 -7.5l-2 -4q-1 -2 -1 -4q-2 -17 -2.5 -28.5t-0.5 -28.5zM186 320q0 -28 7.5 -53.5t14.5 -51.5q5 -16 8.5 -32t10.5 -30q0 -1 1 -1q1 -1 2 -1l1 -1q5 0 10 9.5t8 13.5q0 1 2.5 4.5t5.5 7.5t5.5 7.5t2.5 4.5q1 1 3.5 6t5 11t5 11.5t3.5 6.5q1 2 6 13t7 13 t5 10.5t4 11.5q0 1 2 8t4 14.5t4 14.5t2 9q12 36 20.5 73t8.5 75q0 2 -0.5 7.5t-0.5 7.5q-2 8 -5 9t-9 1t-15 -3.5t-14 -6.5q-7 -3 -17.5 -9.5t-21.5 -15t-20.5 -17.5t-14.5 -16q-1 -1 -5 -8.5t-5 -8.5t-3 -3.5t-4 -2.5q-2 -4 -5 -11t-5 -12q-2 -4 -4.5 -10.5t-3.5 -8.5 q-2 -5 -1.5 -11t-4.5 -11v-24zM130 364q-2 0 -2 -2.5t2 -2.5t2 2.5t-2 2.5zM238 534q-1 -1 -1 -2q-1 -1 -1 -2h1h1q3 3 3 4h-1h-2zM311 592q-4 -7 -16 -13t-18 -10q-9 -5 -18.5 -13.5t-14.5 -16.5h2q7 0 15.5 6.5t17.5 8.5q4 1 14.5 3t12.5 2h1h2q6 -1 13.5 -3t13.5 -2h2 q2 3 3 14.5t1 14.5v2v2l-3 3q-1 1 -3 2h-25z" />
<glyph unicode="R" horiz-adv-x="376" d="M39 184q-2 4 -3.5 7.5t-5.5 5.5q-1 1 -5 4t-5 4q-5 4 -9.5 14t-4.5 16q0 9 5.5 12.5t12 4.5t12 1.5t5.5 2.5q9 38 10 77t6 77q5 29 11 59t8 60v16l3 5q0 2 1 8t2 8q0 2 -0.5 9.5t0.5 9.5q0 1 1 3t1 3q4 13 2.5 26.5t3.5 27.5q1 5 3.5 6.5t5 1.5t5.5 1t5 4v1q0 1 1 2 q0 1 1 2t4 6t6 10.5t6 10.5t3 6q1 1 2.5 5t3.5 8.5t3.5 8.5t1.5 5q4 9 14.5 21t23.5 23t26.5 18.5t24.5 7.5q23 0 45 -10.5t36 -30.5q7 -10 12 -24.5t8.5 -30t5 -30.5t1.5 -27q0 -34 -4.5 -67t-11.5 -66q-1 -1 -3 -8t-3 -11t-4 -13t-4 -14v-8q-2 -11 -7 -20.5t-9 -19.5 q-37 -100 -116 -170q-1 -1 -6.5 -5t-11.5 -8.5t-11 -8.5t-6 -5l-5 -5q0 -1 2 -3l3 -3t5.5 -6.5t5.5 -6.5q4 -5 9 -6.5t10 -4.5q0 -1 2 -3t3 -2q2 -2 7 -6.5t6 -4.5q2 -1 8.5 -4t8.5 -4q1 -1 5 -4t8.5 -6.5l9 -7t6.5 -4.5q1 -1 4.5 -4t3.5 -4q1 -1 7.5 -5.5t13 -9.5 t12.5 -9.5t8 -5.5l2 -2q2 -2 9 -7.5t15.5 -11.5t15.5 -12t9 -7l6 -6t8.5 -8t8 -8t4.5 -5t5 -9t6 -13v-1q0 -7 -6 -9.5t-11 -2.5h-7t-6 3l-13 13q-11 9 -23.5 14t-22.5 13l-11 11q-1 1 -5.5 3t-5.5 2q-7 4 -12.5 9t-11.5 10q-11 8 -21.5 13.5t-21.5 13.5q-1 1 -3 4t-3 4 q-2 1 -7.5 3.5t-11.5 5.5t-11 6t-7 4q-6 3 -13 7t-14 4q-3 0 -3 -3q0 -2 -1 -6.5t-2 -6.5q0 -7 0.5 -24t0.5 -36.5t-0.5 -37t-0.5 -24.5q0 -4 -1 -18t-1 -19q-1 -8 -7.5 -13.5t-14.5 -5.5q-5 0 -11.5 3t-12.5 7t-10.5 9t-5.5 10q-13 50 -13.5 105t-2.5 106zM125 286h2 q3 0 6 3l5.5 5.5l9 9t9 8.5t6.5 6q3 3 7.5 8.5t10 11.5t9.5 11t5 7l11 22q1 1 4 6t6.5 11t6.5 11t4 7q1 0 1 1t1 2t1 2q5 14 9 27t10 27v1q0 1 1 2q0 1 1 2q12 39 20 79t8 80q0 5 -0.5 13t-0.5 9t-0.5 5t-1.5 6l-2 2q-1 1 -1 3v16q0 2 -2.5 8.5t-2.5 8.5q-3 8 -6.5 16 t-15.5 8q-9 0 -14.5 -2.5t-12.5 -8.5q-20 -17 -28 -30.5t-18 -36.5q-3 -8 -7 -15t-6 -15q-1 -3 -3 -11t-5 -17t-5 -18t-3 -13q-1 -3 -3 -13.5t-3 -13.5q-3 -20 -4.5 -41.5t-3.5 -42.5v-32q0 -1 -1.5 -4t-1.5 -4v-35l-2 -3v-89z" />
<glyph unicode="S" horiz-adv-x="354" d="M50 106q0 32 10.5 59.5t21.5 53.5h1h1l2 -2q1 -1 2 -1q5 5 11 11.5t11 6.5q6 0 10.5 -8t2.5 -18q0 -1 -2 -8.5t-2 -9.5v-12q0 -1 -2.5 -6.5t-2.5 -7.5q-2 -6 -4 -16.5t-4.5 -22t-4 -22.5t-1.5 -18q0 -27 16.5 -41.5t31.5 -14.5q6 0 15.5 4.5t14.5 6.5q16 8 30 22.5 t28 28.5q5 6 14 19t17.5 28.5t14.5 30.5t6 26q0 13 -5 22t-12 15t-14.5 11t-13.5 10q-3 0 -9 1.5t-13 3.5t-13.5 3.5t-9.5 1.5h-1q-8 -1 -21.5 -2t-14.5 -1q-2 0 -12.5 -3.5t-12.5 -3.5q-2 -2 -6.5 -1t-6.5 1q-2 -1 -3 -2t-2 -1t-1 -1q-18 -6 -36 -11t-35 -5q-2 0 -9 0.5 t-9 0.5q-17 10 -28.5 32t-11.5 51q0 17 5 31q1 2 2.5 6t1.5 5q35 63 72 116.5t79 103.5q9 11 18 24.5t19.5 25.5t21.5 20t24 8q2 0 6.5 -0.5t5.5 -0.5q1 -2 4 -6t6 -8.5t5.5 -8.5t3.5 -6q2 -5 2.5 -9.5t0.5 -11.5q0 -22 -10.5 -36.5t-23.5 -20.5q-2 0 -5 -1l-6 -2 q-5 -3 -3.5 -11.5t-3.5 -10.5q-3 -2 -8 -2t-7 -1q-1 -2 -3 -4.5t-3 -3.5q-2 -2 -8 -6t-6 -6q-1 0 -4 -3.5t-6 -8t-6 -8t-3 -4.5q-1 -2 -4.5 -5.5t-4.5 -5.5q-1 0 -3 -2t-3 -2q-1 -1 -4 -5.5t-6.5 -9.5t-6.5 -9.5t-4 -5.5l-2 -2q-1 -1 -2 -1q-3 -3 -4 -8t-3 -7q-1 0 -2 -1 t-2 -1t-1 -1t-0.5 -2t-0.5 -2q-1 -2 -1 -3q-1 -1 -5 -4t-5 -4l-1 -7q-1 -1 -1.5 -2.5t-1.5 -1.5q-11 -14 -23 -29t-17 -37q0 -1 1 -3t2 -2q1 1 3 2t2.5 2t1.5 1h4h4q2 0 4.5 3t2.5 4q32 -3 65 8q2 3 5 3h5q35 0 71 -8.5t66 -39.5q22 -22 38 -49.5t16 -71.5q0 -27 -9.5 -47 t-18.5 -40q-8 -17 -17 -29t-18 -23q-2 -2 -8 -9.5t-7 -8.5q-17 -21 -37 -32.5t-40 -23.5l-8 -4q-4 -2 -8 -3q-2 0 -6.5 1.5t-5.5 1.5l-7 -3q-12 0 -24 7t-23.5 18.5t-21.5 25t-18 26.5q-8 14 -11.5 39t-3.5 42z" />
<glyph unicode="T" horiz-adv-x="440" d="M177 65q0 27 2.5 54t7.5 54v2q2 24 5 48t8 47q0 1 1 4.5t2 5.5q0 1 1 4t1 4q0 2 1 9t2 9q1 6 3.5 19.5t5.5 29t5.5 29.5t3.5 19q6 14 7 28t3 28q0 2 2 11.5t3 11.5v8q0 4 2 15.5t3 15.5h-4h-4q-3 -1 -15.5 -4.5t-17.5 -5.5q-1 -1 -5 -3t-5 -3q-1 0 -2.5 -2t-2.5 -3 q-2 0 -8 -1t-8 -1q-26 -11 -50.5 -27t-48.5 -32q-8 -5 -16 -9t-15 -9q-5 -4 -7.5 -9t-7.5 -9q-2 -1 -5.5 -4t-5.5 -4q-1 0 -5 -2t-5 -3q-4 -3 -5.5 -9.5t-7.5 -8.5q-3 -2 -11.5 -3.5t-13.5 -1.5q-6 0 -12 5.5t-9 7.5q-5 5 -8.5 15.5t-3.5 17.5q0 4 1 8.5t4 7.5q2 1 4 3 t3.5 2.5t2.5 1.5q13 9 25 18.5t26 17.5q8 5 15.5 8t15.5 8q16 8 30 19t31 19q1 0 6.5 2t6.5 3t7 3.5t12 5.5t11.5 5.5t7.5 3.5q1 0 5.5 1.5t10 3.5t10 3.5t5.5 1.5q3 1 10.5 4t9.5 4q42 17 84 30.5t85 23.5q58 12 116 12h10q2 0 8 -0.5t12.5 -1.5t12 -2t8.5 -1q6 -2 9.5 -4 t3.5 -9q0 -1 -0.5 -2.5t-0.5 -2.5t-3 -3.5t-4 -3.5t-3.5 -1.5t-4.5 -1.5q-24 -5 -47.5 -11.5t-47.5 -11.5q-1 0 -6 -1t-10.5 -1.5t-10.5 -1.5t-6 -1q-2 0 -8.5 -2t-14 -4l-15 -4t-11.5 -3q-2 -1 -11 -3.5t-12 -4.5q-10 -4 -14 -10t-5 -13.5t-0.5 -16t-0.5 -16.5l-2 -4 q-1 -2 -2 -3.5t-1 -2.5q-1 -1 -3 -4t-2 -4q0 -2 -1 -4q-2 -4 -2 -6q-8 -45 -17 -88t-16 -88q-2 -8 -4 -14.5t-4 -14.5q0 -2 -1 -8.5t-1 -8.5v-16l-2 -2q-1 -1 -1 -2v-1q-5 -20 -8 -38t-5 -39q-1 -7 -2 -20.5t-2 -27.5t-2 -25t-1 -14q0 -4 -0.5 -13.5t-0.5 -20t0.5 -19.5 t0.5 -13q-3 -5 -8 -8h-6h-7l-9 4.5t-9 5.5q-7 6 -10 14.5t-4 18t-1 19v17.5z" />
<glyph unicode="U" horiz-adv-x="350" d="M190 99q-6 -5 -10 -12.5t-9 -14.5q0 -1 -2 -4t-3 -4t-4 -5t-4 -5q-1 -2 -4 -8.5t-4 -7.5q-1 -2 -6.5 -7t-6.5 -7q-1 -1 -3 -4t-3 -4l-2 -2q-1 -1 -4 -2t-4 -1t-3 -2.5t-3 -2.5q-2 -2 -11.5 -5t-11.5 -3q-1 0 -3 -0.5t-4 -0.5q-17 0 -36 11q-23 15 -29 40t-6 51 q0 29 7 57.5t12 56.5q1 2 1.5 12t1.5 12q3 22 9.5 44t11.5 44q7 29 14 56.5t15 54.5q1 1 2.5 6.5t3.5 7.5l2 5q2 4 5.5 16t5.5 16q0 1 1 5.5t2 5.5q0 1 3.5 6.5t3.5 6.5v2v3q3 8 8.5 13.5t13.5 5.5h8q1 -1 11 -6t15 -7q6 -3 7.5 -8.5t1.5 -11.5q0 -5 -0.5 -10t-2.5 -10 q-1 -2 -5.5 -9.5t-5.5 -9.5q-1 -1 -1.5 -5t-1.5 -6q0 -1 -3.5 -7.5t-4.5 -8.5t-4 -9t-4 -9q-7 -19 -14 -37t-12 -38q0 -1 -1.5 -7.5t-1.5 -8.5q0 -1 -2.5 -8.5t-2.5 -9.5q-2 -9 -2.5 -19t-2.5 -18q-1 -2 -4.5 -12t-3.5 -12q-5 -16 -7 -29.5t-4 -29.5q-1 -7 -4 -13t-4 -13 q-2 -10 -1.5 -19t-1.5 -19q-1 -1 -1 -2q-1 -1 -1 -2v-1q-2 -11 -2.5 -17t-0.5 -16v-15q0 -2 3 -5h1h1q10 6 22 18t23.5 27t21.5 30t16 26l40 80q0 2 3.5 9l4.5 9q5 11 6.5 22t3.5 23q1 4 3 13l4 18t4 17t3 11q5 23 13 44.5t16 43.5q0 1 2.5 7.5t2.5 8.5q1 1 3 6.5t2 6.5 q1 2 3 8t3 8q2 7 8 18.5t14 11.5q16 0 30 -11.5t14 -28.5q0 -13 -5 -30q0 -2 -3 -5q-8 -11 -10.5 -25.5t-7.5 -27.5q-12 -33 -23 -66t-20 -67q0 -2 -1 -7t-2 -7v-2v-3q0 -1 -2.5 -5.5t-2.5 -5.5v-5q-5 -33 -9 -66t-4 -67q0 -23 1 -45t4 -45q1 -8 5 -12t6 -10q0 -1 -0.5 -5 t0.5 -5q0 -1 1 -4t1 -4t0.5 -3t0.5 -3q0 -10 -10 -10q-5 0 -8.5 3t-8.5 5t-14 6t-13 10q-8 12 -10.5 27t-5.5 29q0 1 -1.5 6t-2.5 11t-2.5 11t-1.5 6q-1 5 -0.5 15t-4.5 12z" />
<glyph unicode="V" horiz-adv-x="330" d="M12 163v11t0.5 14t0.5 12.5v6.5t1 7.5t1.5 14t1.5 13.5t1 8q2 9 3 16.5t0 16.5l18 92v3q0 1 1 5.5t1.5 9.5t1.5 9.5t1 5.5q8 44 18.5 86.5t19.5 87.5q1 2 2.5 7.5t3.5 11t4 10t4 4.5h2q5 -1 13.5 -2t9.5 -1q12 -2 22 -13t10 -22q0 -13 -3.5 -27t-8.5 -25q-1 -1 -3.5 -5.5 t-2.5 -5.5v-9q-1 -8 -5 -17t-6 -18q-10 -31 -16 -62t-12 -63q-3 -11 -3.5 -24t-2.5 -25q-2 -9 -4.5 -18.5t-3.5 -19.5q-5 -30 -7.5 -60t-2.5 -61v-25q0 -3 2 -9q1 -3 1 -5h3q1 0 5 8.5t7 13.5q0 1 2.5 6.5t3.5 6.5q0 2 3.5 8.5t4.5 7.5l2 6q1 2 1 5q0 1 2.5 3t2.5 3q3 3 3 5 q9 23 19 45t18 45q1 2 3.5 11t2.5 11q1 2 4 10.5t5 10.5q0 2 3.5 8.5t4.5 8.5q0 1 1.5 6t3 10.5t3 10t1.5 6.5q1 2 2 5q2 6 3 8q3 7 4.5 13.5t4.5 14.5q1 2 5.5 13t6.5 13q0 2 2 8.5t3 8.5q6 18 14 35t14 35q1 2 3.5 10t3.5 10q11 30 24 57.5t27 56.5q0 1 1 4t1 4h2h4 q3 0 9 -1.5t8 -1.5q1 0 1.5 -0.5t1.5 -0.5q1 -1 2 -1q2 -2 5 -8.5t5 -8.5q1 -2 2 -3q2 -2 3 -2l2 -4q1 -2 1 -4q0 -21 -12 -42t-20 -40q0 -2 -3.5 -10t-7 -17t-7 -17t-4.5 -10q-4 -10 -6 -17.5t-6 -18.5q-6 -20 -15.5 -39.5t-15.5 -39.5q-4 -16 -12 -32q-4 -11 -5 -22.5 t-6 -21.5l-5.5 -11l-5.5 -11q-1 -1 -2 -7.5t-1 -8.5q-3 -11 -8 -21.5t-9 -21.5q-5 -14 -8.5 -28t-8.5 -26q0 -1 -3 -4.5t-3 -4.5q-8 -11 -11.5 -24t-8.5 -25q0 -1 -1 -2t-2 -1q-5 -9 -10.5 -20.5t-8.5 -22.5q-1 -1 -2 -5.5t-1 -5.5q-1 -2 -4.5 -7t-4.5 -7q0 -1 0.5 -4 t-0.5 -4q0 -1 -2.5 -2.5t-3.5 -2.5q-8 -9 -11.5 -14t-16.5 -5q-14 0 -22.5 7.5t-17.5 16.5q-2 2 -5 6t-3 5q-17 33 -22 66t-5 70z" />
<glyph unicode="W" horiz-adv-x="572" d="M227 180q-5 -14 -11.5 -30t-13.5 -30q-1 -1 -3.5 -5t-2.5 -5q-2 -2 -4 -6.5t-3 -5.5q0 -2 -1 -7t-2 -6q0 -1 -4.5 -4.5t-4.5 -4.5l-3.5 -7t-3.5 -6q0 -1 -4 -5l-5 -5t-4.5 -7.5t-5.5 -7.5q-2 -3 -9.5 -10.5t-9.5 -8.5l-3.5 -2t-8 -4l-9 -4t-7.5 -3h-2q-9 0 -22 4t-20 12 l-6.5 6.5t-9 9.5t-8.5 9.5t-5 5.5q-6 9 -10 20.5t-6 24t-2.5 24.5t-0.5 22v23q0 3 1 12.5t2 21t2 21t1 12.5q1 9 3.5 16.5t3.5 18.5q0 1 -0.5 6t0.5 6q0 1 1.5 3.5t1.5 3.5q3 12 6 25t7 25q2 10 3.5 21t5.5 20l3.5 7t2.5 6q11 30 18 60.5t20 59.5q3 7 9 19t7 13l10 6 q0 1 7 -3t12 -6q10 -6 21 -14.5t11 -22.5q0 -17 -4 -30t-9 -28q-1 -1 -2 -6.5t-1 -6.5q-1 -1 -5 -4.5t-5 -4.5q-7 -9 -7.5 -19t-5.5 -19q0 -1 -3 -5t-3 -5v-6q0 -2 -3 -8t-3 -8q-11 -38 -21.5 -77t-13.5 -78l-3 -3v-38l-3 -6q0 -1 -0.5 -8t-0.5 -10v-19.5t4 -19.5q0 -1 1 -1 h2q5 0 9 4q26 23 45.5 60t30.5 69q5 14 13 27t13 27q0 1 2 7.5l4 13t4 12.5t2 8l5 10t5 9q1 2 3 9t5 15t5 15t3 9q0 1 2.5 6l3.5 7q8 17 12.5 33.5t9.5 35.5q2 8 4 15.5t12 7.5q25 0 39.5 -18.5t14.5 -41.5q0 -16 -3.5 -30.5t-6.5 -30.5q-8 -43 -13.5 -85t-5.5 -86v-3l3 -3 q0 -1 -2 -3q-1 -1 -1 -3v-10q0 -1 -0.5 -5.5l-1 -9t-1 -8.5t-0.5 -5t1.5 -5t1.5 -5v-5.5v-10v-10.5v-6q2 -26 8.5 -48.5t17.5 -46.5q2 -4 2 -7t4 -5q2 -2 7 -4.5t6 -2.5q9 0 18 7t17 16.5t14.5 20t10.5 17.5q12 23 19 43.5t15 44.5q5 14 10.5 29t12.5 28q5 11 4.5 17.5 t1.5 17.5t6.5 22t6.5 22q0 2 1 14.5t2 14.5q0 2 1 8t2 8t3.5 11t2.5 11q3 20 3.5 42t0.5 42v32.5t-4 31.5q0 1 -3 4h-1h-2q-2 -1 -12.5 -2t-12.5 -2h-2q-9 0 -8 9.5t0 13.5q-1 2 -2 3t-1 3v11v11q13 16 32 16q11 0 20.5 -4t20.5 -12q14 -10 21.5 -25t11.5 -31.5t4.5 -34 t0.5 -32.5v-35q0 -1 -0.5 -5l-1 -8t-1 -7.5t-0.5 -4.5v-2v-2q0 -1 1.5 -4.5t1.5 -4.5l-3 -3q-1 -1 -0.5 -5t0.5 -5q-1 -3 -2 -11.5t-2 -10.5q0 -2 -3 -12.5t-3 -12.5t-0.5 -7t-1 -11t-1 -11t-0.5 -6q-2 -13 -8 -27.5t-8 -26.5v-9q-7 -47 -23.5 -91.5t-36.5 -86.5 q-1 -1 -3.5 -6.5t-6 -12t-6 -12.5t-3.5 -7l-2 -4q-1 -1 -1 -3v-2q-5 -7 -13.5 -15t-18.5 -15t-21 -12t-20 -5q-12 0 -27 7t-29.5 17.5t-26.5 22.5t-18 22q-2 2 -6.5 11.5t-6.5 13.5t-4.5 10.5l-5 13t-4.5 11.5t-2 7t0.5 9.5t-0.5 9.5q0 2 -3 11t-3 11v12q-2 18 -3 35t-3 35 h-7z" />
<glyph unicode="X" horiz-adv-x="428" d="M-54 -47q0 10 8 21.5t15 16.5q0 1 1 1t2 1t3 1q19 16 31 36.5t27 38.5l75 96q1 1 6.5 7.5t8.5 9.5l1 1l2 2q0 1 1 3l2 4l2 4q0 1 -1 6.5t-2 8.5q-4 15 -9.5 31.5t-7.5 31.5q-3 20 -3.5 40.5t-2.5 40.5q0 2 -1.5 10.5t-1.5 10.5q0 1 1 4t2 4q0 5 0.5 18.5t0.5 17.5 q0 8 -0.5 21.5t-0.5 15.5t-1 8.5t-2 8.5q5 0 7 4t3.5 9t4.5 9t9 4q18 0 30.5 -11t18.5 -27q0 -1 2.5 -7t2.5 -7t-1 -4.5t-1 -4.5q-1 -3 -2 -12t-1 -11v-6v-10v-10v-6t-1.5 -4t-1.5 -4q0 -2 -1.5 -9t-1.5 -9q-1 -5 -2 -14.5t-1 -11.5t1.5 -11.5t1.5 -11.5v-11q0 -5 1 -13 t2 -15.5t2 -13l1 -5.5l3 -3q6 5 7.5 9.5t6.5 11.5q1 2 7.5 9t13 15.5t12.5 15.5t8 9q1 1 4 7t4 7l1 2q1 1 2 1q21 27 43 58q16 21 30 42.5t28 44.5q1 1 3 4t3 4q1 2 6 7.5t6 7.5t4 8.5t4 8.5q1 1 3 5t4.5 8.5t4.5 8t3 4.5q4 8 6 14.5t12 6.5q5 0 8 -0.5t8 -2.5 q11 -10 20.5 -19t9.5 -23q0 -2 -0.5 -6t-0.5 -5t-2.5 -7t-3.5 -7v-6q-2 -8 -11 -14t-6 -15q-2 -1 -7.5 -6.5t-6.5 -7.5q-1 -1 -2 -4.5t-1 -4.5q-5 -9 -13 -16t-13 -16q-9 -14 -18 -26.5t-20 -25.5q-1 -1 -3 -4t-3 -4v-3q0 -1 -3.5 -4.5l-4.5 -4.5q-2 -2 -9 -11.5t-9 -11.5 l-5.5 -5.5t-5.5 -6.5q-1 0 -2 -3.5t-1 -4.5q-7 -14 -21 -29t-25 -26q-1 -1 -4.5 -5.5t-4.5 -6.5q-1 0 -2 -1t-1 -2q-1 -2 -5.5 -11.5t-5.5 -11.5q-3 -4 -14 -15t-15 -14q-1 -1 -1 -2v-2q0 -5 2 -9.5t4 -9.5q17 -35 42 -69.5t60 -54.5q0 1 3 -2q1 -1 2 -1q2 0 6.5 0.5 t5.5 -0.5t5.5 -6t6.5 -5q5 -5 8 -5t3 -8t-1.5 -15t-11.5 -7q-22 0 -34.5 7.5t-30.5 18.5q-2 1 -9 4t-8 5q-2 1 -7.5 5t-7.5 6l-23 23q0 3 -3 6q-5 7 -11.5 12.5t-11.5 13.5t-10.5 20t-12.5 21q-2 3 -6 3q-5 0 -5.5 -3t-2.5 -6q-1 -1 -5 -4.5t-4 -4.5q-1 -1 -1.5 -4.5 t-1.5 -4.5q-1 0 -4.5 -3.5l-4.5 -4.5q-1 -2 -5.5 -9t-5.5 -9q-12 -15 -21.5 -25t-22.5 -24q-1 -2 -1 -3q-1 -1 -1 -2v-1q-1 -1 -4.5 -5.5t-7.5 -10t-7.5 -10t-4.5 -5.5q-5 -8 -12 -19t-15 -21t-18 -17t-21 -7h-9q-4 1 -4.5 6.5t-3.5 8.5q-5 4 -13 9t-8 13z" />
<glyph unicode="Y" d="M151 -374q0 26 3 48.5t8 47.5q0 2 0.5 8t1.5 13.5t1.5 14t0.5 8.5q6 42 13.5 83.5t15.5 83.5q1 6 4 16.5t5.5 22t4.5 21.5t2 15q8 41 14.5 73.5t14.5 73.5q0 1 1 6.5t1 6.5v3v4q-8 -3 -11 -11.5t-7 -15.5l-2 -2q-1 -2 -4.5 -7.5t-7 -11.5t-6.5 -11t-4 -7 q-9 -14 -19.5 -27.5t-18.5 -27.5q-1 -1 -3.5 -5t-2.5 -6q-2 -3 -8 -10.5t-8 -8.5q-2 -2 -6.5 -6t-10 -8.5l-11 -9t-7.5 -5.5q-5 -5 -12.5 -4.5t-12.5 0.5t-12 -0.5t-12 4.5q-1 2 -2 3l-3 3q-2 0 -3 1q-1 0 -1 0.5t-1 0.5t-1 1q-17 25 -25 51t-8 59q0 32 5 57.5t13 56.5 q0 1 2.5 10t5 19.5t5 20t2.5 12.5q1 1 4.5 9t4.5 9q5 14 8.5 28.5t9.5 28.5q1 3 3.5 9.5t6 13.5t6.5 13.5t4 9.5q1 2 6.5 11t6.5 12q8 14 12.5 23.5t15.5 21.5h1h1l17 -8.5t14 -13.5q2 -5 6.5 -15.5t4.5 -12.5v-3v-3q0 -1 1 -1q0 -13 -8.5 -24.5t-13.5 -19.5 q-1 -2 -1.5 -3.5t-1.5 -2.5q0 -3 -3 -12.5t-4 -10.5t-1.5 -2t-2.5 -2q-2 -2 -4 -3q-5 -5 -7.5 -12.5t-6.5 -14.5q-7 -17 -14.5 -35t-14.5 -36q-3 -10 -4 -18.5t-4 -18.5q-6 -20 -12.5 -43t-7.5 -46v-9.5t0.5 -14t0.5 -14v-9.5q1 0 2 -0.5t2 -0.5q2 1 10 6t10 8q2 1 8 8t8 8 q28 26 50 59.5t42 68.5q1 1 5.5 9t9 17.5t9 18t5.5 10.5q20 38 40.5 75.5t37.5 77.5q1 4 2.5 8.5t2.5 5.5q0 1 -0.5 3t0.5 4q0 1 3 2.5t4 3.5q1 1 1 2q0 3 1 4q8 22 14.5 44.5t14.5 43.5q0 1 1 5t1 5q1 2 1.5 6.5t2.5 9.5q1 5 3 11q2 2 7 8.5t7 7.5q0 1 2 1h3q6 0 12.5 -5.5 t12 -13.5t9 -17.5t3.5 -17.5t-1 -16l-2 -16q0 -3 -1 -9t-1 -7q-1 -2 -3.5 -4t-2.5 -3q-1 -1 -3 -5q-1 -2 -2 -5q-1 -2 -2.5 -9.5t-2.5 -9.5q-1 -3 -5.5 -13.5t-5.5 -13.5q0 -2 -2 -10t-3 -9q0 -1 -3.5 -4.5l-4.5 -4.5q-5 -14 -7.5 -31.5t-7.5 -31.5q-1 -1 -3 -5t-2 -6 q-2 -3 -5 -10t-4 -12q0 -2 0.5 -7.5t-0.5 -6.5q0 -1 -2 -5.5t-2 -6.5q0 -1 -1 -5.5t-2 -9.5t-1.5 -9t-0.5 -5q-1 -1 -3 -7.5t-3 -8.5q0 -7 -3 -7v-7q-2 -16 -8.5 -31.5t-10.5 -30.5q-1 -5 -1 -10t-1 -10q-5 -22 -10 -43t-12 -42q1 -1 2.5 -3.5t1.5 -3.5v-1v-1 q-1 -1 -3.5 -2.5t-2.5 -2.5v-7q-4 -18 -7.5 -36.5t-8.5 -38.5q0 -1 -2 -9t-2 -9q-1 -2 -0.5 -10t0.5 -11q-1 -1 -3 -6t-2 -6q0 -2 -1.5 -7.5t-3 -11.5t-3 -11t-1.5 -6q-2 -11 -2 -18.5t-2 -17.5q-2 -11 -4.5 -21.5t-4.5 -21.5q-2 -22 -7 -43.5t-8 -44.5q0 -2 -1.5 -10 t-2.5 -17t-2.5 -16.5t-1.5 -8.5q0 -2 -1 -7t-1 -7q-2 -6 -4 -19t-4.5 -26.5t-6 -23.5t-8.5 -10h-1q-1 0 -1.5 1t-2.5 2l-4 2q-2 0 -6.5 1t-5.5 4q-1 2 -1.5 7.5t-2.5 5.5q0 2 -3.5 10t-3.5 10v8v0z" />
<glyph unicode="Z" horiz-adv-x="458" d="M426 -5q-7 0 -24.5 1t-37 1.5t-37 1.5t-24.5 1h-28q-29 0 -57.5 -1.5t-57.5 -0.5q-3 -3 -7 -3h-12q-1 -1 -2 -1q-1 -1 -2 -1h-1q-3 0 -5 2h-56q-1 -1 -4 -1q-1 0 -2 -1q-2 0 -3 1h-2q-1 0 -1 1l-4 -2q-2 0 -3 1q-1 0 -2 1q-1 0 -1.5 -0.5t-1.5 -0.5q-1 -1 -2 -1t-3 1 t-3 1t-7.5 1t-8.5 2q-39 11 -39 47v4q1 3 6.5 6.5t12 6l13 5t10.5 4.5q37 23 72.5 47t67.5 51q2 1 11 9t10 9q2 2 12 9.5t15 10.5q3 2 4.5 2t2.5 5q3 3 14.5 13t14.5 14l25 25q1 1 5 4.5t8.5 7.5t8 7.5l4.5 4.5l1 2l2 2q1 1 4 5t6.5 8.5t6.5 8.5t4 5q3 5 10.5 16t9.5 13 q1 0 2.5 3t1.5 4q2 5 6 8.5t7 8.5q2 4 3.5 9.5t3.5 9.5q8 17 14.5 34t6.5 36q0 5 -3 12t-8 10q-4 4 -11 6t-15 3t-16 1h-13q-4 0 -14.5 -1.5t-21.5 -4t-19.5 -6t-8.5 -7.5q-11 -2 -22 -6.5t-19 -12.5q-1 -1 -2.5 -3.5t-2.5 -3.5q-7 -5 -10 -4.5t-7 -5.5q-1 -2 -1 -3 q-1 -1 -1 -2v-1q-3 -5 -5.5 -5t-2.5 -8v-2q0 -1 3.5 -3.5t4.5 -3.5q0 -1 1 -2.5t1 -2.5q6 -7 18 -13.5t12 -15.5q0 -8 -7.5 -15.5t-18.5 -7.5q-8 0 -19 8t-21.5 18.5t-19 21.5t-11.5 18q-2 3 -3 5q-2 4 -2 5v1q0 10 1.5 21.5t8.5 20.5q1 0 4 3l5 5q15 11 31.5 23.5 t35.5 20.5q2 2 12.5 5.5t12.5 3.5q2 1 8.5 4t7.5 4q2 0 10.5 0.5t9.5 1.5q4 0 14.5 2t12.5 2q3 3 5 3h1h2q11 -3 21 -3t21 -1q3 -1 15 -3.5t15 -3.5q0 -3 4 -3q1 -1 5 -3.5l8 -5t7.5 -5t4.5 -2.5q2 -2 11.5 -10.5t12.5 -11.5q11 -11 13 -26.5t2 -29.5q0 -25 -9.5 -45.5 t-22.5 -41.5q-2 -5 -5 -13t-7 -14q-11 -12 -19.5 -26t-19.5 -25q-8 -10 -16 -18t-15 -18l-88 -82q-3 -1 -11 -6.5t-11 -7.5q-4 -3 -6.5 -7t-8.5 -9q-13 -10 -26.5 -19t-25.5 -20q-5 -4 -11 -9t-13 -9q-5 -4 -14.5 -10t-9.5 -11h11.5t18.5 -0.5t18.5 -0.5h12.5q2 0 14 1t14 1 h3h2q2 0 13.5 -1t13.5 -1h9h15.5h16h9.5q1 0 9.5 -1.5t10.5 -1.5q16 -1 36 -1t40 -1t39.5 -4t35.5 -10q6 -3 11 -11t7 -13v-1q0 -8 -6 -13t-14 -5q-13 0 -26 5z" />
<glyph unicode="[" horiz-adv-x="340" d="M36 -19q0 2 -3 11.5t-3 11.5q-7 29 -8 55.5t0 55.5q1 4 1 16t1 15q-1 3 2 6l15 131q-4 3 -1 3q6 33 9 66.5t5 67.5q0 2 -0.5 8t-0.5 8q0 38 1.5 76t2.5 76q0 5 -0.5 15.5t-0.5 12.5l-3 10q1 3 1.5 9t1.5 12.5t3 11t5 4.5h25q5 -5 11.5 -8t13.5 -7q0 -1 2 -2t2 -2t2.5 -6 t3.5 -6q0 -1 4.5 -6t4.5 -6l5 -19q0 -3 3 -3q-6 -5 -5.5 -16t-0.5 -19q-4 0 -3 -3q0 -2 1 -10.5t1 -10.5q0 -8 -1.5 -11t-2.5 -11q-3 -23 -3.5 -45.5t-2.5 -45.5q-1 -17 -3 -35.5t-5 -35.5q1 -1 -1 -5t-2 -5v-6t0.5 -10.5l1 -11t0.5 -6.5q-1 -22 -5 -42.5t-7 -41.5 q1 -1 1 -6t-1 -6q1 -2 0 -8t-2 -8q-2 -13 -4 -24.5t-3 -25.5q0 -28 -4.5 -54.5t-5.5 -54.5q-1 -10 1 -21.5t2.5 -22.5t-1 -21.5t-7.5 -18.5q0 -1 -0.5 -1t-1.5 -1t-3 -1q-2 -1 -4.5 -3t-4.5 -3q-3 2 -14 15t-15 19zM93 634q0 6 1 10.5t4 8.5q6 6 12.5 5t12.5 0q7 2 14.5 4 t14.5 3q1 0 4.5 0.5t7.5 1t7.5 1t4.5 0.5t6 1t10.5 2.5t10.5 3t7 1.5h2h4.5h4h2.5t6 1t6 1h4.5h8.5h9h5t3.5 1t3.5 1h3h5q2 0 5.5 -0.5t8 -0.5t7.5 -0.5t5 -0.5q0 -5 3 -5q2 0 3 1.5t4 1.5h3l2 -3q3 -1 10 -1.5t9 -3.5h22q1 0 1 -2.5v-3.5q0 -5 -2 -6.5t-6 -2.5l3 -10 l-2 -0.5t-3 -1.5q-45 -10 -91 -15q-11 -1 -21 -2t-22 -3q-4 -1 -9.5 -3t-9.5 -4q-6 -2 -10 -2.5t-10 -2.5q-7 -2 -14 -5t-14 -5q-1 0 -5 -1t-5 -1q-3 -2 -4.5 -3.5t-3.5 -3t-4 -2.5t-6 -1t-9 1.5t-9 2.5q-2 1 -3.5 7t-3 13t-2.5 13.5t-1 9.5zM341 650h6q-2 4 -4 4 q-1 0 -1 -0.5v-0.5h-1v-3zM61 2q0 6 1 10.5t4 8.5q6 6 12.5 5t12.5 0q7 2 14.5 4t14.5 3q1 0 4.5 0.5t7.5 1t7.5 1t4.5 0.5t6 1t10.5 2.5t10.5 3t7 1.5h2h4.5h4h2.5t6 1t6 1h4.5h8.5h9h5t3.5 1t3.5 1h3h5q2 0 5.5 -0.5t8 -0.5t7.5 -0.5t5 -0.5q0 -5 3 -5q2 0 3 1.5t4 1.5h3 l2 -3q3 -1 10 -1.5t9 -3.5h22q1 0 1 -2.5v-3.5q0 -5 -2 -6.5t-6 -2.5l3 -10l-2 -0.5t-3 -1.5q-45 -10 -91 -15q-11 -1 -21 -2t-22 -3q-4 -1 -9.5 -3t-9.5 -4q-6 -2 -10 -2.5t-10 -2.5q-7 -2 -14 -5t-14 -5q-1 0 -5 -1t-5 -1q-3 -2 -4.5 -3.5t-3.5 -3t-4 -2.5t-6 -1t-9 1.5 t-9 2.5q-2 1 -3.5 7t-3 13t-2.5 13.5t-1 9.5zM309 18h6q-2 4 -4 4q-1 0 -1 -0.5v-0.5h-1v-3zM36 -19q0 2 -3 11.5t-3 11.5q-7 29 -8 55.5t0 55.5q1 4 1 16t1 15q-1 3 2 6l15 131q-4 3 -1 3q6 33 9 66.5t5 67.5q0 2 -0.5 8t-0.5 8q0 38 1.5 76t2.5 76q0 5 -0.5 15.5 t-0.5 12.5l-3 10q1 3 1.5 9t1.5 12.5t3 11t5 4.5h25q5 -5 11.5 -8t13.5 -7q0 -1 2 -2t2 -2t2.5 -6t3.5 -6q0 -1 4.5 -6t4.5 -6l5 -19q0 -3 3 -3q-6 -5 -5.5 -16t-0.5 -19q-4 0 -3 -3q0 -2 1 -10.5t1 -10.5q0 -8 -1.5 -11t-2.5 -11q-3 -23 -3.5 -45.5t-2.5 -45.5 q-1 -17 -3 -35.5t-5 -35.5q1 -1 -1 -5t-2 -5v-6t0.5 -10.5l1 -11t0.5 -6.5q-1 -22 -5 -42.5t-7 -41.5q1 -1 1 -6t-1 -6q1 -2 0 -8t-2 -8q-2 -13 -4 -24.5t-3 -25.5q0 -28 -4.5 -54.5t-5.5 -54.5q-1 -10 1 -21.5t2.5 -22.5t-1 -21.5t-7.5 -18.5q0 -1 -0.5 -1t-1.5 -1t-3 -1 q-2 -1 -4.5 -3t-4.5 -3q-3 2 -14 15t-15 19zM93 634q0 6 1 10.5t4 8.5q6 6 12.5 5t12.5 0q7 2 14.5 4t14.5 3q1 0 4.5 0.5t7.5 1t7.5 1t4.5 0.5t6 1t10.5 2.5t10.5 3t7 1.5h2h4.5h4h2.5t6 1t6 1h4.5h8.5h9h5t3.5 1t3.5 1h3h5q2 0 5.5 -0.5t8 -0.5t7.5 -0.5t5 -0.5q0 -5 3 -5 q2 0 3 1.5t4 1.5h3l2 -3q3 -1 10 -1.5t9 -3.5h22q1 0 1 -2.5v-3.5q0 -5 -2 -6.5t-6 -2.5l3 -10l-2 -0.5t-3 -1.5q-45 -10 -91 -15q-11 -1 -21 -2t-22 -3q-4 -1 -9.5 -3t-9.5 -4q-6 -2 -10 -2.5t-10 -2.5q-7 -2 -14 -5t-14 -5q-1 0 -5 -1t-5 -1q-3 -2 -4.5 -3.5t-3.5 -3 t-4 -2.5t-6 -1t-9 1.5t-9 2.5q-2 1 -3.5 7t-3 13t-2.5 13.5t-1 9.5zM341 650h6q-2 4 -4 4q-1 0 -1 -0.5v-0.5h-1v-3zM61 2q0 6 1 10.5t4 8.5q6 6 12.5 5t12.5 0q7 2 14.5 4t14.5 3q1 0 4.5 0.5t7.5 1t7.5 1t4.5 0.5t6 1t10.5 2.5t10.5 3t7 1.5h2h4.5h4h2.5t6 1t6 1h4.5h8.5 h9h5t3.5 1t3.5 1h3h5q2 0 5.5 -0.5t8 -0.5t7.5 -0.5t5 -0.5q0 -5 3 -5q2 0 3 1.5t4 1.5h3l2 -3q3 -1 10 -1.5t9 -3.5h22q1 0 1 -2.5v-3.5q0 -5 -2 -6.5t-6 -2.5l3 -10l-2 -0.5t-3 -1.5q-45 -10 -91 -15q-11 -1 -21 -2t-22 -3q-4 -1 -9.5 -3t-9.5 -4q-6 -2 -10 -2.5t-10 -2.5 q-7 -2 -14 -5t-14 -5q-1 0 -5 -1t-5 -1q-3 -2 -4.5 -3.5t-3.5 -3t-4 -2.5t-6 -1t-9 1.5t-9 2.5q-2 1 -3.5 7t-3 13t-2.5 13.5t-1 9.5zM309 18h6q-2 4 -4 4q-1 0 -1 -0.5v-0.5h-1v-3z" />
<glyph unicode="\" horiz-adv-x="530" d="M339 162q0 2 -2.5 6.5t-3.5 5.5t-4.5 6t-7.5 10t-7.5 10t-4.5 6t-6.5 9t-12 17.5t-12 18t-7.5 10.5q0 1 -3 4.5t-3 4.5q-23 35 -45 71t-42 71q0 1 -1 2.5t-1 2.5q-2 1 -6.5 7t-6.5 7q-3 5 -11.5 18.5t-11.5 17.5q-1 2 -5.5 10.5t-9.5 17.5t-9.5 17t-5.5 10 q-7 13 -14.5 25.5t-13.5 26.5l-2 6q-7 11 -13.5 20.5t-12.5 20.5q-8 14 -15.5 27.5t-15.5 27.5q-1 1 -1 3q0 1 -1 2q-1 2 -1 9v9l3 -1l10 -10q2 -2 6.5 -3t6.5 -1l9.5 -9.5l9.5 -9.5q0 -1 1 -3t1 -3q2 -1 8 -7l7 -7q1 -2 6.5 -10.5t6.5 -10.5q1 -1 4.5 -3.5t3.5 -4.5 q0 -1 1 -4.5t1 -4.5q2 -2 9 -12t8 -12q0 -3 1 -5q0 -2 1 -4q0 -2 2 -3.5t3 -2.5q3 -4 5 -8.5t6 -8.5q3 -2 7.5 -7.5t4.5 -6.5q1 -1 3 -5.5t4.5 -9.5l4.5 -9t3 -5q0 -1 5 -6l6 -6q0 -1 4 -6.5t6 -8.5l2 -4q8 -15 18 -30.5t21 -29.5l3 -2q7 -12 13 -24.5t15 -23.5l4 -4t3 -4 q1 -1 3.5 -7t3.5 -7q1 -2 4 -6.5l7 -10.5t7.5 -11t5.5 -8q0 -1 1 -1l1 -1l37 -54q2 -8 10.5 -14t10.5 -15l59 -76l3 -3q1 -1 4.5 -7t4.5 -7q2 -1 6.5 -6t5.5 -6t4.5 -6t4.5 -6q0 -1 1.5 -1.5t1.5 -1.5q1 0 2.5 -1t2.5 -1l2 -2q0 -1 2 -4t2 -4q4 -3 9 -5t8 -7q1 -1 3.5 -7 t3.5 -8q5 -8 12 -16t7 -19q0 -2 -1 -9.5t-2 -9.5l-2 -2q0 -1 -1 -3t-1 -3q-1 -2 -5.5 -6t-6.5 -6q-3 -2 -4.5 -3.5t-4.5 -1.5q-7 0 -13 6t-8 11q-1 1 -2.5 4t-2.5 4q-2 1 -8.5 8t-8.5 9q-3 4 -6 9l-6 10q-5 7 -10.5 14t-10.5 14q-3 5 -12 17.5t-19 26.5t-19.5 26t-13.5 17z " />
<glyph unicode="]" horiz-adv-x="356" d="M333 -19q-4 -6 -15 -19t-14 -15q-2 1 -4.5 3t-4.5 3q-2 0 -3 1t-1.5 1t-0.5 1q-6 8 -7.5 18.5t-1 21.5t2.5 22.5t1 21.5q-1 28 -5.5 54.5t-4.5 54.5q-1 14 -3 25.5t-4 24.5q-1 2 -2 8t0 8q-1 1 -1 6t1 6q-3 21 -7 41.5t-5 42.5q0 1 0.5 6.5l1 11t0.5 10.5v6t-2 5t-1 5 q-3 17 -5 35.5t-3 35.5q-2 23 -2.5 45.5t-3.5 45.5q-1 8 -2.5 11t-1.5 11q0 2 1 10.5t1 10.5q1 3 -3 3q-1 8 -0.5 19t-5.5 16q3 0 3 3l5 19q0 1 4.5 6t4.5 6q1 1 3.5 6t2.5 6t2 2t2 2q7 4 13.5 7t11.5 8h25q3 0 5 -4.5t3 -11t1.5 -12.5t1.5 -9l-3 -10q0 -2 -0.5 -12.5 t-0.5 -15.5q1 -38 2.5 -76t1.5 -76q0 -2 -0.5 -8t-0.5 -8q2 -34 5 -67.5t9 -66.5q3 0 -1 -3l15 -131q3 -3 2 -6q1 -3 1 -15t1 -16q1 -29 0 -55.5t-8 -55.5q0 -2 -3 -11.5t-3 -11.5zM276 634q0 -3 -1 -9.5t-2.5 -13.5t-3 -13t-3.5 -7q-4 -1 -9 -2.5t-9 -1.5t-6 1t-4 2.5 t-3.5 3t-4.5 3.5q-1 0 -5 1t-5 1q-7 2 -14 5t-14 5q-6 2 -10 2.5t-10 2.5q-4 2 -9.5 4t-9.5 3q-12 2 -22 3t-21 2q-46 5 -91 15q-1 1 -3 1.5l-2 0.5l3 10q-4 1 -6 2.5t-2 6.5v3.5t1 2.5h22q2 3 9 3.5t10 1.5l2 3h3q3 0 4 -1.5t3 -1.5q3 0 3 5q2 0 5 0.5t7.5 0.5t8 0.5 t5.5 0.5h5h3q1 0 3.5 -1t3.5 -1h5h9h8.5h4.5t6 -1t6 -1h2.5h4h4.5h2q2 0 7 -1.5t10.5 -3t10.5 -2.5t6 -1t4.5 -0.5t7.5 -1t7.5 -1t4.5 -0.5q7 -1 14.5 -3t14.5 -4q6 -1 12.5 0t12.5 -5q3 -4 4 -8.5t1 -10.5zM28 650h-6q2 4 4 4q1 0 1 -0.5v-0.5h1v-3zM308 2q0 -3 -1 -9.5 t-2.5 -13.5t-3 -13t-3.5 -7q-4 -1 -9 -2.5t-9 -1.5t-6 1t-4 2.5t-3.5 3t-4.5 3.5q-1 0 -5 1t-5 1q-7 2 -14 5t-14 5q-6 2 -10 2.5t-10 2.5q-4 2 -9.5 4t-9.5 3q-12 2 -22 3t-21 2q-46 5 -91 15q-1 1 -3 1.5l-2 0.5l3 10q-4 1 -6 2.5t-2 6.5v3.5t1 2.5h22q2 3 9 3.5t10 1.5 l2 3h3q3 0 4 -1.5t3 -1.5q3 0 3 5q2 0 5 0.5t7.5 0.5t8 0.5t5.5 0.5h5h3q1 0 3.5 -1t3.5 -1h5h9h8.5h4.5t6 -1t6 -1h2.5h4h4.5h2q2 0 7 -1.5t10.5 -3t10.5 -2.5t6 -1t4.5 -0.5t7.5 -1t7.5 -1t4.5 -0.5q7 -1 14.5 -3t14.5 -4q6 -1 12.5 0t12.5 -5q3 -4 4 -8.5t1 -10.5zM60 18 h-6q2 4 4 4q1 0 1 -0.5v-0.5h1v-3zM333 -19q-4 -6 -15 -19t-14 -15q-2 1 -4.5 3t-4.5 3q-2 0 -3 1t-1.5 1t-0.5 1q-6 8 -7.5 18.5t-1 21.5t2.5 22.5t1 21.5q-1 28 -5.5 54.5t-4.5 54.5q-1 14 -3 25.5t-4 24.5q-1 2 -2 8t0 8q-1 1 -1 6t1 6q-3 21 -7 41.5t-5 42.5 q0 1 0.5 6.5l1 11t0.5 10.5v6t-2 5t-1 5q-3 17 -5 35.5t-3 35.5q-2 23 -2.5 45.5t-3.5 45.5q-1 8 -2.5 11t-1.5 11q0 2 1 10.5t1 10.5q1 3 -3 3q-1 8 -0.5 19t-5.5 16q3 0 3 3l5 19q0 1 4.5 6t4.5 6q1 1 3.5 6t2.5 6t2 2t2 2q7 4 13.5 7t11.5 8h25q3 0 5 -4.5t3 -11 t1.5 -12.5t1.5 -9l-3 -10q0 -2 -0.5 -12.5t-0.5 -15.5q1 -38 2.5 -76t1.5 -76q0 -2 -0.5 -8t-0.5 -8q2 -34 5 -67.5t9 -66.5q3 0 -1 -3l15 -131q3 -3 2 -6q1 -3 1 -15t1 -16q1 -29 0 -55.5t-8 -55.5q0 -2 -3 -11.5t-3 -11.5zM276 634q0 -3 -1 -9.5t-2.5 -13.5t-3 -13 t-3.5 -7q-4 -1 -9 -2.5t-9 -1.5t-6 1t-4 2.5t-3.5 3t-4.5 3.5q-1 0 -5 1t-5 1q-7 2 -14 5t-14 5q-6 2 -10 2.5t-10 2.5q-4 2 -9.5 4t-9.5 3q-12 2 -22 3t-21 2q-46 5 -91 15q-1 1 -3 1.5l-2 0.5l3 10q-4 1 -6 2.5t-2 6.5v3.5t1 2.5h22q2 3 9 3.5t10 1.5l2 3h3q3 0 4 -1.5 t3 -1.5q3 0 3 5q2 0 5 0.5t7.5 0.5t8 0.5t5.5 0.5h5h3q1 0 3.5 -1t3.5 -1h5h9h8.5h4.5t6 -1t6 -1h2.5h4h4.5h2q2 0 7 -1.5t10.5 -3t10.5 -2.5t6 -1t4.5 -0.5t7.5 -1t7.5 -1t4.5 -0.5q7 -1 14.5 -3t14.5 -4q6 -1 12.5 0t12.5 -5q3 -4 4 -8.5t1 -10.5zM28 650h-6q2 4 4 4 q1 0 1 -0.5v-0.5h1v-3zM308 2q0 -3 -1 -9.5t-2.5 -13.5t-3 -13t-3.5 -7q-4 -1 -9 -2.5t-9 -1.5t-6 1t-4 2.5t-3.5 3t-4.5 3.5q-1 0 -5 1t-5 1q-7 2 -14 5t-14 5q-6 2 -10 2.5t-10 2.5q-4 2 -9.5 4t-9.5 3q-12 2 -22 3t-21 2q-46 5 -91 15q-1 1 -3 1.5l-2 0.5l3 10 q-4 1 -6 2.5t-2 6.5v3.5t1 2.5h22q2 3 9 3.5t10 1.5l2 3h3q3 0 4 -1.5t3 -1.5q3 0 3 5q2 0 5 0.5t7.5 0.5t8 0.5t5.5 0.5h5h3q1 0 3.5 -1t3.5 -1h5h9h8.5h4.5t6 -1t6 -1h2.5h4h4.5h2q2 0 7 -1.5t10.5 -3t10.5 -2.5t6 -1t4.5 -0.5t7.5 -1t7.5 -1t4.5 -0.5q7 -1 14.5 -3 t14.5 -4q6 -1 12.5 0t12.5 -5q3 -4 4 -8.5t1 -10.5zM60 18h-6q2 4 4 4q1 0 1 -0.5v-0.5h1v-3z" />
<glyph unicode="_" horiz-adv-x="432" d="M-363 -124q3 23 26 35q1 0 2.5 0.5t3.5 0.5q10 0 20.5 -3t20.5 -4h19q1 0 7 -3t7 -3h5.5h9.5h9.5h5.5t6 -1t10 -1.5l10 -1t6 -0.5h45h47q2 0 11 0.5t19.5 1.5t20 1.5t11.5 0.5h12.5h21h21h11.5q5 0 20 0.5t35 1t42.5 1.5t42.5 1.5t34.5 1t19.5 0.5h80h89q8 0 27 -0.5 t40 -1t39.5 -1t25.5 -0.5q3 0 15.5 -1t17.5 -2q1 -1 7 -2.5t8 -1.5h6.5h11.5h11.5h6.5q2 0 11 -1t11 -2q5 0 16 -1.5t13 -1.5h15q1 0 2 -1.5t2 -1.5q2 -1 9 -2t9 -1q-4 -5 2.5 -7.5t16 -4.5t18 -4t8.5 -5l-1 -1q-1 -1 -5.5 -2t-5.5 -2q-1 0 -5.5 -3t-5.5 -3q-2 -1 -7.5 0.5 t-6.5 -3.5q-1 -1 -0.5 -5t0.5 -5q-3 -3 -8 -3q-3 0 -11.5 0.5t-18 0.5t-18 -0.5t-11.5 -0.5q-2 0 -7 -1t-7 -2l-121 2h-14h-17.5t-27 0.5t-27 0.5h-17.5q-2 0 -8 0.5t-13.5 1t-14 1t-8.5 0.5h-1h-2q-24 -2 -47.5 -3t-47.5 -3q-3 0 -17 -1.5t-17 -1.5h-91q-5 0 -14.5 -1 l-19 -2t-16.5 -2t-8 -1l-8 -4q-2 0 -8.5 0.5t-13.5 0.5t-13 -0.5t-9 -0.5q-2 0 -11 -1.5t-11 -1.5q-42 -3 -84 -3.5t-85 -2.5q-3 0 -10.5 -0.5l-15 -1t-13.5 -1.5t-8 -1q-1 0 -5.5 -1l-9 -2l-9 -2t-5.5 -1h-9h-10q-1 1 -3 2l-4 2q-1 0 -5.5 -0.5t-5.5 0.5q-1 0 -5.5 3 t-5.5 3h-15q-12 2 -26 13t-18 22q0 2 -1.5 11t-1.5 11q-1 1 -2.5 4.5t-1.5 4.5zM714 -117q3 0 3 -3.5t-3 -3.5t-3 3.5t3 3.5z" />
<glyph unicode="`" horiz-adv-x="177" d="M222 700q-2 -2 -6.5 -4.5t-9.5 -4.5t-9.5 -3.5t-6.5 -0.5q-4 3 -8.5 6t-8.5 7q-3 3 -4 5.5t-1 5t-1 4t-2 5.5q-1 1 -3.5 5t-3.5 5q-5 7 -8.5 14t-7.5 14q-3 6 -5.5 9.5t-6.5 10.5q-2 3 -5 8.5t-6 10.5q-8 10 -15.5 19.5t-15.5 18.5q-33 42 -62 84q-1 1 -2 3.5l-1 2.5l8 2 q-1 4 -2.5 6.5t1.5 4.5l2 1.5t3 -0.5l16 -17q5 -2 10.5 -7t8.5 -7h2l3 -3q2 -2 2 -4t2 -3q1 -3 4 0q2 -1 5 -4.5t6 -6.5t6.5 -6t4.5 -4l5 -4l2 -3l2 -2.5t2 -3.5q1 -1 4 -5.5t6.5 -7.5t7 -7l3.5 -4q1 -1 4 -5.5t4 -5.5t1.5 -2t3 -3t4 -4l1.5 -2q0 -1 4 -6t7.5 -11t6.5 -10.5 t4 -5.5t3.5 -4t5 -6.5t5 -6.5t3.5 -3q5 -7 9.5 -14t9.5 -15q3 -5 9 -9.5t6 -12.5q1 -6 -1 -9t-5 -5zM41 918h-2l0.5 0.5t-0.5 0.5q-1 2 -6 2l6 -5z" />
<glyph unicode="a" horiz-adv-x="257" d="M160 4q0 27 1 54.5t1 55.5h-6q-1 0 -8 -1.5t-10 -1.5q-3 -1 -12 -3.5t-18 -5.5t-16 -5t-7 -3q-2 -4 -0.5 -7t-3.5 -6v-76q0 -3 -5 -8.5t-11 -5.5l-6 2q-2 1 -4.5 1.5t-4.5 1.5q-1 0 -3.5 0.5t-2.5 1.5q-3 2 -13 8.5t-13 8.5v22q0 13 0.5 21t3.5 20l2 4q1 2 2 3 q0 3 -1.5 9.5t-2.5 8.5q-3 5 -8.5 9l-11 8t-9 8.5t-3.5 11.5t6 7t12 2q4 0 12.5 0.5t10.5 0.5q1 14 7 26.5t9 25.5q4 16 5.5 30t3.5 30q2 9 6 15.5t7 14.5v9q1 1 2 3l2 4q0 2 -1 10t1 10q0 1 1 4t1 4q1 3 1.5 15t1.5 15q0 1 3.5 6.5t3.5 7.5q1 1 2 5t1 5v14q0 1 2 6t3 8 q4 4 8.5 7.5t4.5 8.5v1q0 1 -1.5 2.5t-1.5 2.5v1v1q0 1 1.5 3t1.5 3q0 3 -3 6l3 24q5 2 8 11t4 14l8 24q1 1 3 1.5t2 1.5q-1 0 -1 2h-2v9q1 2 2 6t1 5v9q2 5 7 15.5t6 11.5l6 3q0 3 1.5 12t2.5 12q0 3 1 8.5t1 6.5q1 0 1.5 1t2.5 1t7 0.5t7 0.5q11 0 16.5 -0.5t16.5 -4.5 q7 -2 10 -8.5t6 -11.5q2 -4 3.5 -12.5t1.5 -10.5q0 -3 0.5 -10t1 -15t1 -15.5t0.5 -11.5v-138v-140q0 -3 -0.5 -12.5t-1 -20.5t-1 -21t-0.5 -13v-1q1 -1 4.5 -2.5t3.5 -2.5q3 -7 2.5 -13t2.5 -12l-13 -18l-1 -7.5t-1.5 -17t-1.5 -20t-1 -16.5v-40v-45q1 -12 3.5 -22.5 t2.5 -22.5q0 -2 -0.5 -8t-0.5 -8q-1 -2 -5.5 -4.5t-6.5 -3.5h-5h-8q-2 0 -3 1l-2 2q-23 4 -28.5 10t-9.5 22v45zM141 366q-9 -35 -16 -70t-15 -70q0 -2 -2 -8t-2 -7v-18q0 -1 -2.5 -5.5t-3.5 -5.5q0 -1 -1 -9.5t-1 -13.5v-5q6 0 12.5 1.5t13.5 1.5h2l5 -2h1h3q2 0 3 1 q1 0 1.5 0.5t1.5 0.5q10 2 18.5 3.5t9.5 9.5v27q0 1 0.5 6t1.5 10.5t1.5 10.5t0.5 7v101q3 4 3 13q0 6 -3 9v93l-4 18h-1h-2q-1 0 -2 -1t-1 -2q-1 -5 -3.5 -19t-3.5 -19q-2 -9 -5 -16.5t-5 -17.5v-4q0 -1 -1 -2.5t-1 -2.5q-1 -3 0 -7.5t-3 -7.5z" />
<glyph unicode="b" horiz-adv-x="336" d="M4 36q8 0 11 4t8 4q7 0 10 -5q1 -2 2.5 -9t2.5 -9q4 -9 13 -19t17 -16q2 0 8.5 -1t8.5 -1h1h1q7 2 17.5 4.5t17.5 5.5q12 5 20 10t18 12q36 26 64.5 55.5t37.5 74.5q0 1 1 5t2 5v1v1q0 5 -0.5 13t-1 15.5t-1 13t-0.5 6.5q-1 10 -4 23t-9 23.5t-15 18t-22 7.5 q-26 0 -37.5 -14t-24.5 -33q-5 -7 -9 -12t-6 -13q0 -2 -1 -13.5t-2 -16.5v-7q0 -5 0.5 -8t2.5 -8q2 1 7.5 4t7.5 4h3q0 -9 -6 -15.5t-15 -7.5v-1v-1q0 -2 0.5 -10.5t1 -17.5t1 -17t0.5 -10q1 -12 3 -23.5t2 -23.5q0 -8 -5.5 -14.5t-13.5 -6.5q-11 0 -19 6.5t-13.5 15.5 t-9 19.5t-4.5 18.5q-2 8 -4 22t-4.5 28t-4.5 25t-2 13v10t-0.5 21t-0.5 24.5v19.5v9q0 3 -0.5 11.5t-0.5 18.5v18.5v11.5q0 1 0.5 6t1.5 7v1q0 2 1 3q1 2 2 3v6.5v11.5v11v6q0 12 3.5 23t3.5 23v9q-1 0 -1 1q-1 1 -1 2v1v1q0 3 1 9.5t1 8.5q2 7 4.5 20.5t3.5 13.5l5 8 q-1 4 -1 16.5t1 15.5q0 2 0.5 5.5t1.5 4.5q0 1 2.5 5.5t5 9.5t4.5 9.5t3 5.5q0 1 2 6t3 7q0 1 2 7t3 8l20 40q0 1 3 4.5t4 5.5q2 2 10 11t10 11q10 11 19 23t26 12h8q1 0 2 -1q2 -2 3 -2t6 -1t6 -1q6 -2 10.5 -4.5t9.5 -5.5q1 -1 5 -3t5 -2l3 -3q16 -20 19 -36t3 -41v-22 q0 -3 -0.5 -9t-1.5 -13.5t-2 -13.5t-1 -9q0 -1 -1 -2.5t-1 -2.5q-5 -14 -8 -29t-7 -29q-2 -5 -5 -11t-5 -11q-1 -1 -3 -6t-4 -11t-4 -11.5t-2 -6.5q-1 -1 -1 -2q-1 -1 -1 -2v-1q-1 -2 -4 -11t-4 -11l-3 -3l-2 -2q-2 -5 -3.5 -10t-3.5 -10q-1 -1 -1.5 -3t-1.5 -2 q-1 -2 -4.5 -7.5t-5.5 -7.5q1 -1 2.5 -1.5t2.5 -1.5q1 0 5.5 -1t9.5 -2t9.5 -2.5t5.5 -1.5q24 -7 39.5 -22.5t24.5 -36t12.5 -43.5t3.5 -45q0 -14 -0.5 -26t-2.5 -27q-1 -1 -1 -2q-1 -1 -1 -2v-1q-4 -9 -7 -20t-8 -20t-14.5 -21.5t-17.5 -20.5q-1 -1 -5 -3.5t-5 -3.5 t-4.5 -6t-5.5 -7q-1 0 -1.5 -2.5t-1.5 -2.5t-1.5 -0.5t-2.5 -0.5q-2 -1 -3 -1l-5 -5q-1 -1 -4 -1.5t-4 -1.5q-3 -2 -14 -8.5t-13 -8.5l-8 -8q-1 0 -4.5 -2t-5.5 -3q-8 -4 -16.5 -8.5t-18.5 -6.5q-2 0 -11 -1t-11 -1q-1 -1 -4 -2t-4 -1h-5q-8 0 -14 0.5t-15 2.5 q-18 2 -39 15.5t-29 29.5q-1 2 -1 5q-1 3 -1 7v10q0 1 -1.5 4t-1.5 4q0 2 -0.5 6t-0.5 6zM134 354q0 -5 0.5 -15t0.5 -11l2 -5l2 1q1 0 1 1q1 2 4 6.5t3 6.5q2 3 6 10.5t8.5 16.5t8 17t5.5 11q20 42 36 88.5t16 94.5v21q-3 3 -3 7.5t0.5 9t0 9t-4.5 7.5h-3q-5 0 -11 -5.5 t-9 -7.5l-17 -17q-2 -2 -5.5 -7.5t-4.5 -7.5q-3 -5 -5 -10t-5 -10q-1 -1 -4 -5t-4 -5v-5q-4 -15 -9.5 -28t-5.5 -30q0 -2 0.5 -9.5t1 -15.5t1 -15.5t0.5 -9.5q0 -1 -1.5 -6t-1.5 -6q-3 -38 -3 -76z" />
<glyph unicode="c" horiz-adv-x="312" d="M39 37q-17 30 -21.5 54.5t-4.5 59.5v35t3 35q0 2 2 13t3 16q4 17 5.5 34t5.5 34q0 3 3 16.5t7 29t7 29t4 17.5q0 2 1 9t1 9q1 2 4 11t4 13q4 9 7.5 18.5t8.5 17.5l2 4q1 2 3 4v6q0 1 1 2t1 1.5t1 1.5q1 2 4 11.5t4 11.5t4 9t7.5 15.5t8.5 16.5l6 12q4 7 11 18t15.5 21 t18 17t18.5 7t17.5 -2.5t16.5 -5.5q13 -5 21 -12.5t10 -21.5q1 -3 2 -7t2 -9l2 -10v-29q0 -49 -13 -95q-5 -14 -11.5 -25t-12.5 -25q-8 -17 -15 -33t-24 -27q-5 -3 -8 -6t-9 -3l1 4q0 1 2.5 4t2.5 4v2q-1 0 -2.5 0.5t-2.5 -0.5l-3 -2q-1 -1 -1.5 -1t-1.5 -1t-2 -1t-4 1t-4 2 q-2 0 -8 1t-8 1q1 1 1.5 3t1.5 3t5.5 6t4.5 7q1 1 2 5t1 5t2.5 6t5.5 10t5.5 10t2.5 6q1 2 4.5 10.5t7 18t7 18t4.5 10.5q11 26 15 51.5t6 53.5q0 4 -2 6h-1q-5 0 -7.5 -3.5t-4.5 -7.5q-6 -8 -14 -14.5t-13 -14.5q-3 -6 -5.5 -13t-7.5 -13l-10 -10q-1 -2 -3 -9.5t-2 -9.5 q-6 -17 -12.5 -35t-11.5 -36l-2 -2q-1 -1 -1 -2v-1q0 -1 0.5 -6.5t-0.5 -6.5q0 -3 -2 -3q-2 -3 -4.5 -14t-3.5 -15v-10q0 -1 -2.5 -5.5t-2.5 -5.5q-4 -7 -5 -15t-3 -16q-8 -42 -14.5 -84t-6.5 -84v-8q0 -3 1 -14.5t1 -14.5q1 -5 2.5 -13t4.5 -16.5t6.5 -15.5t7.5 -10 q5 -3 7.5 -3h8.5q11 0 19.5 5.5t17.5 10.5q2 1 9.5 5t8.5 6q17 11 34 24.5t32 27.5q1 2 7.5 8t8.5 8q1 0 2 1t1.5 1t1.5 1l7 7l11 11t11.5 11t7.5 7t7.5 6t7.5 5q1 0 4.5 -0.5t3.5 0.5q1 1 3 5t2 5q3 4 8 4v-3q7 0 11 6.5t12 6.5q0 -2 -0.5 -7t-1.5 -7l-2 -4q-1 -1 -1 -1.5 t-1 -1.5l-1 -1q0 -2 -3 -5q0 -1 -1 -6.5t-1 -6.5q-1 -1 -5.5 -6.5t-5.5 -6.5q0 -1 -1 -4t-1 -4q-1 -1 -5.5 -5t-5.5 -5q-2 -3 -8 -11t-8 -10l-13.5 -13.5l-20 -20t-20.5 -19.5t-14 -13q-1 -1 -6.5 -5t-6.5 -6q-1 -1 -6.5 -7.5t-6.5 -7.5l-3 -3q-11 -7 -18.5 -13t-15 -10 t-16.5 -6.5t-22 -2.5q-22 0 -39 6.5t-33 22.5q-4 4 -4.5 7t-6.5 4z" />
<glyph unicode="d" d="M-59 -121q0 9 6.5 24.5t10.5 23.5q3 4 11 17t17 27.5t17 27t11 17.5l3 3h2q1 0 1.5 -2t0.5 -4v-2v-1q-1 0 -3.5 -1.5t-3.5 -2.5q-3 -2 -2.5 -2.5t0.5 -5.5q5 0 7 1t2 -7t-3 -15.5t-4 -15.5v-14q-1 -3 -4.5 -14t-5.5 -13q-2 -7 -3 -14.5t-4 -13.5q1 -1 2 -1h2q10 0 20.5 7 t18.5 12q7 5 18 14t12 9l2 6q-2 80 4.5 155.5t17.5 152.5q0 2 2 11.5t3 14.5q4 17 6.5 33.5t5.5 33.5q1 1 2.5 9.5t2.5 13.5q3 11 3 22.5t2 24.5q5 46 12 90t7 91q0 4 -1 8.5t-6 4.5h-2q-6 -3 -11 -6t-12 -5q-2 0 -5 -1l-6 -2q-1 0 -2.5 -3t-2.5 -4q-4 -3 -9.5 -4t-10.5 -6 l-6 -8q-2 -2 -7 -4t-6 -2q-9 -7 -19 -19t-21 -12q-6 0 -11 6t-8.5 14t-5 17.5t-1.5 17.5v10q2 3 9.5 12.5t10.5 12.5q9 12 22 17t24 12q6 5 11.5 8.5t12.5 7.5h2q5 2 15.5 5.5l13.5 4.5h8.5t12 0.5t12.5 0.5h8q8 0 23 -0.5t17 -0.5q13 0 25 -6.5t24 -11.5q11 -7 23 -14.5 t23 -15.5q2 -1 7.5 -5t6.5 -6q1 0 4 -0.5t4 -0.5q1 -1 1 -4t1 -3q2 -2 5 -2q2 -4 9.5 -13.5t9.5 -13.5q1 0 1 -1q0 -2 1 -2q1 -2 1 -3q1 -1 4 -5.5l6 -9l6 -9t3 -5.5q1 -2 4.5 -10t4.5 -13q14 -33 18.5 -61t4.5 -65v-37q-4 -18 -6.5 -36.5t-6.5 -37.5q-2 -21 -7 -33.5 t-12 -33.5q-13 -35 -29 -70t-36 -65q-2 -1 -9 -10.5t-9 -11.5q-1 -1 -4.5 -9.5t-5.5 -9.5q0 -2 -4.5 -8t-6.5 -8q0 -1 -3.5 -3.5t-4.5 -3.5q-2 -2 -9.5 -12t-9.5 -12q0 -2 -1 -5t-2 -3q-1 -1 -2.5 -3t-1.5 -3q-1 0 -3 -2q-1 -1 -2 -1q-2 -2 -7.5 -8.5t-7.5 -7.5l-2 -2 q-1 -1 -2 -1t-1 -1q-2 -1 -4 -3.5t-3 -2.5q-1 -1 -7 -9.5t-8 -9.5q0 -1 -4 -4.5t-8.5 -7.5t-8.5 -7t-5 -4q-2 -1 -6 -5l-4 -4q-1 -1 -1.5 -4.5t-0.5 -5.5q0 1 -3 -2q-1 -1 -2 -1q-3 -6 -3 -11t-1 -8.5t-3.5 -5t-10.5 -1.5q-4 0 -7.5 1.5t-7.5 1.5h-1q-1 0 -3 -2.5t-2 -3.5 q-6 -4 -12 -4.5t-9 -8.5q-3 0 -11.5 -1t-11.5 -2q-1 0 -7.5 -4.5t-6.5 -5.5q-10 -4 -21 -5t-21 -1q-16 0 -31 17t-15 38zM177 440q-3 -20 -6.5 -36.5t-5.5 -34.5q-8 -52 -17 -103t-15 -102q-4 -32 -6 -66t-4 -65v-11.5t-0.5 -18.5t-0.5 -18.5v-11.5l4 2q11 10 22.5 23 t20.5 25q2 2 9 10t9 10t7 9t7 9q2 3 10.5 15t18 25.5t17.5 25t10 14.5l2 2q1 1 1 2q32 56 54.5 121t22.5 137q0 47 -9.5 80t-37.5 66l-3 2l-5.5 5.5l-4.5 4.5q-11 14 -25 22q-1 1 -5 1.5t-5 2.5q-10 5 -13.5 9t-16.5 4h-11q-4 -8 -3.5 -17t-1.5 -18q-1 -16 -4 -29.5 t-5 -29.5q0 -2 -1 -12.5t-2 -12.5q0 -1 -1 -3l-2 -4q0 -2 -1 -9t-1 -10v-13z" />
<glyph unicode="e" d="M54 153h-2q-1 0 -1 1q-1 0 -3 -2.5t-3 -3.5q-7 -5 -15.5 -13t-19.5 -8q-5 0 -11.5 4.5t-12 10.5t-9 12.5t-3.5 11.5q0 8 6 15q5 8 13.5 13.5t16.5 11.5q14 11 28.5 22t28.5 22q1 0 4.5 2t3.5 3q1 1 2 6.5t1 7.5q7 29 13.5 57t14.5 57q3 15 8 29.5t5 30.5q-7 0 -11.5 -5.5 t-12.5 -5.5q-18 0 -25.5 16.5t-7.5 30.5q0 11 8 16q1 1 7 5.5t12 10t11.5 10t7.5 5.5l2 1q1 0 1 1q8 7 18.5 14.5t17.5 15.5q3 5 3 9.5t2 9.5q2 8 5.5 15t5.5 15q1 4 2.5 13.5t5.5 11.5q2 0 6 0.5t6 0.5q3 0 7.5 -0.5t5.5 -0.5q8 -2 13 -10.5t15 -8.5q8 0 13.5 2.5t12.5 5.5 q18 8 35.5 15.5t35.5 14.5q8 3 15 4.5t15 3.5q2 1 7.5 3.5t6.5 2.5h11q1 0 6.5 2.5t7.5 2.5q1 1 6.5 0.5t6.5 -0.5q2 1 7.5 2t6.5 1h2q5 0 3.5 -6t-0.5 -8q1 0 4.5 -1t4.5 -1v-1q0 -2 -5 -5t-11 -6l-12 -6l-8 -4q-1 -1 -4 -4.5t-4 -3.5q-2 -1 -7 -4t-7 -5 q-14 -7 -29.5 -14.5t-30.5 -15.5q-32 -15 -60 -32q-6 -4 -11 -8.5t-11 -8.5q-5 -3 -10 -5.5t-9 -7.5q-14 -19 -19.5 -40t-10.5 -42t-11 -41.5t-11 -40.5q0 -2 -1 -10t-2 -10q0 -1 0.5 -5t-0.5 -5q-2 -8 -4.5 -10t-2.5 -12h16q3 2 12.5 6.5t20 10t19.5 9.5t13 6 q23 11 45 20.5t45 18.5q1 0 5.5 2.5t5.5 2.5h4h4t3 -3q0 -1 0.5 -6t0.5 -7q0 -3 -0.5 -8t-0.5 -6t-1 -3t-2 -2q-23 -25 -51 -41q-2 -1 -11.5 -6.5t-13.5 -7.5q-5 -2 -6 -2.5t-5 -5.5l-38 -19q-21 -11 -42.5 -23.5t-39.5 -28.5l-8 -8q-1 -2 -3 -11t-3 -14q-1 -4 -2 -12 t-2.5 -16t-2.5 -15t-1 -9v-9q0 -3 0.5 -14t2 -23t5.5 -21t10 -9h1q29 8 49 24q30 23 57.5 49.5t57.5 49.5l2 1q1 0 1 1q12 17 26 30t31 25q3 2 5 4t6 2q11 0 11.5 -8.5t2.5 -16.5q0 -1 1 -3t1 -3l1 -1q0 -1 -1 -1q0 -1 -3.5 -3t-4.5 -3q-7 -8 -11 -17.5t-11 -17.5 q-21 -27 -44 -52.5t-48 -49.5q-11 -10 -25 -22.5t-30 -23t-32.5 -18t-32.5 -7.5h-9q-30 6 -46 27.5t-22 49.5q-2 7 -3.5 13t-2.5 14v10.5t0.5 16t0.5 16.5v11h-3z" />
<glyph unicode="f" horiz-adv-x="338" d="M73 -167q8 4 9.5 12.5t1.5 19.5q2 68 4.5 136.5t8.5 137.5l-3 3q-8 -8 -19 -10t-19 -6q-9 -3 -17.5 -7t-18.5 -4q-22 0 -29 15.5t-12 46.5q-1 0 -1 1v4q0 14 3.5 19.5t9 7t12.5 0.5t14 -1q0 1 1 1t2 1t2 3q2 1 9 1.5t9 1.5q1 0 3 1.5t3 2.5l52 12q8 2 10 12t3 19 q3 20 6.5 48.5t7.5 59.5t8 61t7 54t5 39l2 15v11q-3 0 -12.5 -7.5t-20 -18t-20 -20.5t-13.5 -15q-5 -6 -11.5 -19t-14.5 -13q-4 0 -10 1t-8 3q-1 1 -2.5 7.5t-1.5 9.5q-1 0 -3 2.5t-3 3.5q0 2 -2 9.5t-3 10.5q0 2 -1 8t-1 8q0 3 1 10t1 9q1 3 6 10t7 10l4 2l4 2q1 1 5 6t5 6 q2 1 6.5 5.5t6.5 5.5q15 11 28 24.5t28 26.5q9 9 19 13.5t19 13.5q6 6 8 15.5t7 16.5q28 -4 56 8t55 23q22 10 44 15t46 5h22q2 -1 10 -5.5t13 -6.5q12 -8 21 -15.5t17 -23.5v-3q0 -1 -0.5 -7.5t-1.5 -14t-3.5 -13.5t-5.5 -6q-6 0 -10.5 4t-9.5 5q-2 0 -11 1.5t-12 1.5h-9 h-11q-3 0 -9.5 -0.5l-13 -1t-12 -1t-6.5 -0.5q-2 -1 -7.5 -4t-7.5 -5q-1 0 -4.5 -1t-5.5 -2q-1 0 -6 -2t-7 -2q-1 -1 -3.5 -4.5t-3.5 -3.5h-11q-2 -1 -4 -3q-4 -4 -6 -4q-7 -7 -16.5 -11t-16.5 -9q-2 -1 -6.5 -3.5t-9.5 -5.5t-9 -6.5t-4 -4.5q-5 -16 -7 -34.5t-6 -35.5 l-2 -4q-5 -25 -9 -51t-6 -50v-12q0 -5 -3 -8q0 -2 -1 -6t-2 -6q-2 -11 -4 -28.5t-3.5 -34t-3 -29t-1.5 -13.5v-18q4 0 15.5 -1t15.5 -1q3 0 16.5 2.5t29.5 5.5t29.5 5t16.5 2q1 0 9.5 0.5t13.5 0.5q2 0 11.5 -0.5t11.5 -0.5q4 0 5.5 -5.5t1.5 -10.5q0 -9 -3.5 -17.5 t-8.5 -12.5q-1 0 -6.5 -1.5t-6.5 -2.5q-3 -2 -7 -5.5t-9 -5.5q-18 -8 -36.5 -10t-37.5 -10q-2 -1 -6.5 -3.5t-10 -5t-10.5 -5t-6 -2.5q-3 -2 -12 -5t-11 -3q-1 -1 -5.5 -0.5t-5.5 0.5q-6 -3 -8.5 -9t-3 -14t-0.5 -16t-1 -15q0 -2 -2 -12t-2 -12q-3 -23 -2 -45.5t-4 -43.5 q0 -10 -1 -34.5t-1.5 -52t-1 -51.5t-0.5 -34v-32q-1 -13 -5 -30t-15 -17q-6 0 -11 6t-10 9q-1 2 -5 3.5t-5 1.5q-2 1 -4 5t-3.5 9t-3 9.5l-2.5 7.5z" />
<glyph unicode="g" horiz-adv-x="404" d="M168 -441q0 28 3 53.5t5 52.5v18l4 7v6q2 25 5.5 52t7.5 52q0 1 1.5 4t1.5 4q4 18 5.5 39.5t11.5 37.5q1 7 5 24t8.5 36t8.5 36t5 23q0 1 1 6.5l2 11t1.5 10t0.5 5.5q1 1 1 2t1 3q0 2 1 4q0 2 1.5 7t3 11t3 11t1.5 8v1h-3h-2q-1 0 -1 1q-1 -2 -2 -3q-2 -3 -4 -3l-2 -2 q-1 -1 -2 -1h-1l-5 -5t-8.5 -9t-8.5 -10t-5 -6q-18 -17 -45 -32.5t-51 -15.5q-31 0 -50.5 12.5t-30.5 33t-15 47t-4 54.5q0 1 1.5 7t1.5 8v2q2 10 5 26.5t3 19.5q1 4 4.5 16t7 25t6.5 25l4 16q6 10 8.5 20.5t6.5 18.5q0 1 2 6t4.5 10t5 9.5t3.5 5.5q1 2 4.5 12t5.5 13 q11 28 24.5 51t27.5 49q14 20 29 37.5t30 35.5q0 2 2.5 5t4.5 5l5 5q20 21 44 41t53 20q8 0 18 -0.5t16 -5.5q9 -8 18.5 -20.5t9.5 -26.5q0 -11 -7 -18t-17 -7h-7q-2 0 -4 1q-2 0 -4 1q-10 0 -22 -3t-20 -8q-16 -12 -34 -28q-2 -1 -3 -1q-3 -3 -3 -2q-1 -2 -2 -5 q-2 -6 -4 -6q-2 -3 -7.5 -5t-7.5 -6q-3 -3 -4 -7q-1 -3 -2 -5q-1 -1 -1.5 -2t-2.5 -2l-4 -2l-3 -4q-1 -1 -4.5 -5.5t-3.5 -5.5q-2 -2 -5.5 -5t-3.5 -4q-1 -1 -1 -2t-1 -3t-1 -4q-1 -1 -4.5 -3t-3.5 -3q-1 -2 -2 -5l-2 -4t-1 -4q-2 -1 -5 -9.5t-4 -10.5q-1 -1 -3.5 -5 t-5.5 -8.5t-5.5 -8.5t-3.5 -5q0 -1 -2 -5.5t-4.5 -10t-4.5 -10.5t-2 -6q-2 -7 -5.5 -12.5t-6.5 -12.5q1 -2 1 -3q0 -3 -1 -3q0 -1 -5 -5.5t-5 -5.5q-1 -2 -0.5 -6.5t0.5 -6.5q-1 0 -3 -3.5t-2 -5.5q-6 -14 -9.5 -26t-7.5 -27q-9 -33 -16 -59t-7 -61v-14q0 -2 2.5 -11 t4.5 -13q1 -5 7.5 -5h10.5q26 0 41.5 12t33.5 27q10 8 20 15t20 17q1 1 4 6t4 5q18 24 37.5 47.5t34.5 52.5q1 1 4 7.5t7 14t7 15t5 10.5v2q0 2 1 3l2 4q6 19 13 35.5t15 36.5l8 24t17 15q14 0 23.5 -9t17.5 -20q3 -3 3 -10q0 -23 -9 -38t-16 -34q-2 -5 -3.5 -14t-4.5 -14 q-1 -1 -3 -1l-4 -2q-1 -2 -1 -5q-1 -2 -1 -4t-1 -3q0 -2 -2 -8.5t-3 -8.5l-6 -16t-6 -17q-2 -1 -3 -4t-1 -4q0 -3 -2 -11t-4.5 -17.5t-4.5 -18t-2 -10.5q-2 0 -2.5 -2.5t-0.5 -4.5q-2 -5 -5.5 -18t-3.5 -16v-10q0 -1 -1 -2t-2 -3q-2 -2 -3 -4q-1 -1 -1.5 -8.5t-0.5 -8.5 q-3 -14 -7 -29t-7 -28q0 -2 -3 -9t-3 -8v-12q0 -1 -1.5 -5l-3 -8t-2.5 -7.5l-1 -3.5v-13q0 -1 -3 -8.5t-3 -9.5q0 -1 -1.5 -9.5t-1.5 -11.5q-1 -8 -3.5 -14.5t-5.5 -14.5q-1 -3 -2.5 -11t-2.5 -10q0 -1 -1.5 -7t-1.5 -8q0 -1 -2 -3q-1 -1 -1 -3v-14q-1 -2 -1 -3t-1 -2v-1 q-6 -22 -9 -41t-6 -39q-2 -18 -4.5 -35.5t-4.5 -34.5q-2 -1 -1 -7t1 -8q-1 -2 -2.5 -11.5t-3 -20.5t-2.5 -20.5t-1 -11.5q-2 -3 -1 -11.5t1 -10.5q-2 -18 -4.5 -35t-1.5 -35q-4 -5 -6 -6.5t-6 -1.5q-14 0 -22 7.5t-12.5 18.5t-5.5 23.5t-1 23.5z" />
<glyph unicode="h" horiz-adv-x="390" d="M247 136q0 38 4 76t7 75v2q-14 0 -25.5 -5.5t-25.5 -8.5q-6 -1 -15 -1.5t-18 -2t-16.5 -4.5t-11.5 -9q-6 -8 -5 -18.5t-1 -20.5q-3 -19 -3.5 -37.5t-2.5 -38.5q-2 -33 -4.5 -68t-14.5 -67q-2 -5 -10.5 -12t-13.5 -7h-2q-5 3 -16.5 9.5t-11.5 15.5q0 11 3 19t6 18 q4 16 5.5 30.5t2.5 30.5q2 22 3.5 44t2.5 43v10t-0.5 15.5t-0.5 15.5v10h-2q-2 0 -10.5 -0.5t-18 -1t-17.5 -1t-10 -0.5h-3h-3q-18 3 -23.5 10t-9.5 24l-2 4q-1 2 -1 4q0 1 -0.5 3t-0.5 3q0 10 5 15t12 6.5t15.5 1t15.5 -0.5q1 0 6 0.5l10 1t9.5 1t5.5 0.5q7 1 18 0.5 t16 8.5q4 7 4 14t2 14q9 40 21 78.5t21 78.5q4 5 3.5 12.5t1.5 12.5q1 2 3.5 7.5t2.5 6.5q11 32 18 65t24 62h3h3q17 -7 27 -16t15 -26v-3v-3q-4 -20 -11 -38.5t-14 -37.5q-9 -22 -14 -45q-3 -14 -6.5 -26.5t-7.5 -26.5q-5 -16 -11 -30.5t-9 -31.5v-14q0 -3 -3 -3 q-1 -4 -4 -18t-4 -18v-2q2 0 8.5 -0.5t8.5 -0.5t4 1l4 2q2 0 11 1t11 2q1 0 8 2t16 4.5t17 5t13 4.5q8 3 12.5 10.5t6.5 15.5q1 2 2 11t1 11q1 2 4 15t5 19q2 7 4 11t4 11q1 2 1.5 8.5t1.5 8.5q0 1 2.5 7.5t4.5 13.5t4.5 13t2.5 8q4 13 4.5 22.5t9.5 19.5q2 2 6 6.5t5 5.5h2 h1q6 -3 13 -7.5t14 -10.5t11.5 -13t4.5 -14q0 -1 -0.5 -1t-0.5 -1v-1q-5 -19 -11.5 -37t-13.5 -36q-3 -9 -7.5 -18t-4.5 -19v-2v-2q0 -1 1 -1t4 1t4 2h2q5 0 8.5 -10.5t3.5 -14.5v-4q0 -5 -1 -13t-2 -9q0 -2 -6 -7.5t-8 -6.5q0 -1 -1 -1.5t-2 -2.5l-2 -4l-26 -26q0 -1 -1 -5 t-1 -6q-1 -5 -3 -17t-3 -14q0 -2 -1 -11t-2 -14q-2 -16 -5.5 -32t-5.5 -33v-17q0 -2 -0.5 -9.5t-1 -15.5t-1 -15.5t-0.5 -9.5v-40v-39q2 -11 5.5 -19t3.5 -19v-12q-5 -9 -14 -9q-3 0 -3 3q-1 1 -4.5 5.5t-4.5 5.5q-5 6 -12 10t-10 13q-4 11 -7 26t-4.5 31.5t-2 32t-0.5 26.5 z" />
<glyph unicode="i" horiz-adv-x="206" d="M12 44q0 2 0.5 8.5t1 14.5t1 14.5t0.5 8.5v31q0 3 1.5 13.5t3 23.5t3 23.5t1.5 13.5v17q0 5 1.5 17.5t2.5 27t2.5 27t1.5 17.5q5 12 7 25t5 26q0 1 2.5 8t2.5 9q1 1 2 7t1 7q1 3 3 10.5t4 16t4 15.5t3 9q10 31 21 59.5t16 60.5q4 3 7.5 10.5t6.5 17t5 18.5t4 14q1 1 3 5 l3 6q5 8 9.5 17t14.5 9q12 0 24.5 -13t17.5 -24v-6q0 -2 1 -3v-2q0 -1 1 -1v-1v-1q0 -1 -2.5 -4.5t-2.5 -4.5q-2 -2 -4 -6t-2 -5v-6l-3 -3l-7.5 -15l-6.5 -13q-1 -1 -1.5 -6t-1.5 -6q0 -1 -2.5 -3t-3.5 -2q-1 -2 -4 -8.5t-4 -9.5q-1 -1 -2 -4t-1 -4q-3 -15 -9 -30t-11 -30 q-1 -2 -3 -11.5t-3 -11.5q-2 -9 -7 -18t-7 -19q0 -2 -2 -9t-3.5 -15t-3.5 -15t-2 -9q-1 -2 -3.5 -9t-2.5 -8q-1 -2 -1.5 -13t-1.5 -13q0 -2 -2.5 -10t-3.5 -10q-7 -35 -9.5 -69.5t-7.5 -69.5v-3q0 -7 -1 -18t-2 -21.5t-1.5 -18t-0.5 -8.5t-1.5 -6t-3 -11t-2.5 -11.5t-2 -8.5 q-1 -2 -3 -8.5t-3 -8.5t-3.5 -3.5t-4.5 -2.5q-2 0 -8.5 -2t-8.5 -3q-6 3 -9 16.5t-3 20.5v11z" />
<glyph unicode="j" horiz-adv-x="320" d="M74 -60q-6 14 -15 28t-16 29q-11 27 -19 55.5t-12 58.5q0 5 -1 14.5l-2 19t-1.5 16.5t-0.5 9q0 3 0.5 9t1.5 12.5t2 12.5t1 8q1 0 6 11t7 17q7 14 14 28.5t17 26.5q2 1 8 7.5t8 7.5v1q0 1 1 2q0 1 1 2q9 14 18.5 21t20.5 16q12 9 23.5 20t26.5 16l5 1.5t11 3t12.5 3 t9.5 2.5h2h1q1 0 2.5 -1t2.5 -1q0 -2 0.5 -7.5t0.5 -7.5q0 -8 -1 -15t-8 -12q-10 -8 -20 -15.5t-21 -15.5q-1 -1 -3.5 -2.5t-4.5 -2.5q-4 -3 -10.5 -9.5t-13 -14.5t-12 -16t-8.5 -12l-4 -8t-4 -7q0 -1 -3.5 -4t-3.5 -4q-1 -1 -3 -4t-3 -4q-11 -24 -17 -48t-6 -51 q0 -29 6.5 -56t14.5 -55q2 -8 5.5 -15.5t7.5 -15.5l1 -1q0 -1 1 -2q1 0 2 -2t1 -3t1 -4t2 -4q0 -1 5 -6.5t8 -8.5q7 -8 14 -19.5t19 -11.5q11 0 19.5 12.5t11.5 21.5q13 34 18.5 67t10.5 70q0 2 0.5 9t1.5 14.5t2 14t1 8.5q3 23 3.5 44.5t1.5 44.5q0 2 1 11.5t2 11.5 q3 40 3 80t2 80q2 56 5 111t8 110q2 14 4 27t4 27q0 2 1 5.5t1 4.5q3 3 3 6q0 2 1 10t1 10q3 5 7.5 5.5t9.5 0.5h7q1 -1 11 -6t15 -7q4 -2 7 -9t3 -12q0 -2 -1 -10t-2 -11l-2 -5q-1 -2 -2 -11.5t-1 -11.5q0 -1 -1 -4t-1 -4q-1 -1 -1 -1.5t-1 -1.5t-1 -2v-8q0 -1 -2.5 -6.5 t-2.5 -6.5q-1 -2 -3 -13t-2 -16q-1 -3 -2 -9t-1.5 -13t-1 -12.5t-0.5 -6.5v-7v-11v-11.5v-6.5q0 -2 -1.5 -8t-1.5 -8q0 -3 0.5 -10t-3.5 -11v-103q0 -2 -1 -8t-1 -8v-13v-22v-22v-13q0 -1 -1.5 -8.5t-1.5 -9.5v-8.5t-0.5 -14t-0.5 -14v-9.5v-8l-7 -70q0 -2 -1 -5.5t-1 -4.5 v-8q0 -2 -0.5 -8t-1 -12.5t-1 -12.5t-0.5 -9q-1 0 -1.5 -2t-0.5 -3q-1 -2 -0.5 -11.5t0.5 -11.5q0 -1 -2 -3q-1 -1 -1 -2q-4 -16 -5.5 -32.5t-4.5 -32.5q-1 -1 -1.5 -3.5t-1.5 -4.5q-3 -8 -5 -17t-5 -17q-5 -11 -11 -22.5t-14.5 -21t-19.5 -15.5t-24 -6q-5 0 -12.5 1 t-15.5 3.5t-15 5.5t-10 6l-42 42v0z" />
<glyph unicode="k" horiz-adv-x="358" d="M4 -64v36q0 4 0.5 17.5t1.5 29t2 30t1 20.5q2 23 5.5 45.5t3.5 45.5v25q-5 11 -9.5 18.5t-4.5 20.5v11q6 7 13 11.5t12 13.5q0 1 1 5t2 6q7 44 12 87t10 87v3q4 26 8 51.5t6 51.5v13q0 2 1 10t1.5 17t1.5 16.5t1 9.5v14q0 1 1.5 4t1.5 4v25q0 2 1 8t2 9q0 2 1.5 5.5 t3.5 5.5q2 1 7 3t7 2h1q13 0 24 -8t17 -19v-22v-23q0 -2 -1 -12.5t-2 -14.5q0 -2 -1.5 -7.5t-1.5 -6.5q-1 -5 0 -7.5t-3 -6.5q-5 -29 -8.5 -61t-7.5 -61v-3q0 -2 1 -3.5t1 -3.5v-1q-7 -21 -9 -43.5t-7 -45.5h3q3 0 5 3q8 13 14.5 22.5t16.5 21.5q25 35 47 71t38 76q1 2 3 10 t3 10q1 1 4.5 5.5t3.5 5.5q1 0 4 8.5t5 13.5q2 7 4 17.5t10 12.5q2 1 6 2t5 1q4 -1 8 -3q8 -4 11 -5q9 -5 17 -11.5t8 -17.5q0 -15 -4.5 -23.5t-9.5 -19.5q-1 -2 -3 -8.5t-2 -8.5q-2 -2 -7.5 -9.5t-6.5 -9.5l-2 -4q-1 -2 -1 -4l-3 -6l-3 -6l-5 -5q-11 -18 -20.5 -35.5 t-21.5 -36.5q3 -3 0 -6q-2 -2 -5 -4l-6 -4q-5 -7 -8 -14t-8 -14q-1 -1 -6.5 -7t-7.5 -9q-1 -1 -3.5 -3t-2.5 -3q-1 -2 -1.5 -8.5t-6.5 -5.5q-2 -2 -6 -7.5t-8.5 -11.5t-8.5 -11.5t-5 -7.5q-5 -7 -11.5 -14t-10.5 -14q-1 -1 -1.5 -4.5t-1.5 -3.5q-1 -2 -8 -8.5t-8 -8.5 q-4 -5 -10.5 -14.5t-6.5 -14.5v-2q1 0 3 -1t3 -1q1 -2 6.5 -7.5l6.5 -6.5t6 -3t5 -3q11 -9 21 -19t21 -19q8 -7 15.5 -12t14.5 -11q13 -10 24 -21.5t24 -22.5q1 -1 6.5 -4t6.5 -4q6 -5 15.5 -12t19 -13.5t19 -11.5t17.5 -5q5 0 6.5 0.5t6.5 2.5l5 3q2 -1 5 -4t3 -5 q1 -1 0.5 -5.5t-0.5 -5.5t1.5 -4t1.5 -4v-3q0 -5 -6 -9.5t-10 -4.5h-3q-2 1 -7.5 3.5t-6.5 2.5q-2 0 -10 1t-9 2q-15 2 -29 8.5t-27 13.5l-24 12t-23 16l-6.5 6.5t-7.5 6.5q-5 5 -11 7t-8 10q-4 2 -15.5 11t-15.5 11l-2 3q-2 1 -10 4t-10 4q-8 4 -15 13.5t-15 9.5 q-1 0 -1 -0.5t-1 -0.5h-1q-6 -45 -9 -90.5t-5 -91.5v-31q0 -2 -1 -12.5t-2 -12.5v-13.5t-1.5 -9t-5.5 -7t-12 -6.5h-1q-5 0 -7.5 3t-5.5 5q-8 6 -13 9t-9 14v36z" />
<glyph unicode="l" horiz-adv-x="414" d="M11 89q0 41 6.5 84t16.5 83q15 62 31 122t33 121q1 3 4 17.5t5 20.5q5 23 9.5 45t10.5 44v1q0 1 1 2t2 3q1 4 1.5 10.5t2 12.5t5 10.5t10.5 4.5q15 0 29 -9t24 -20v-12v-11q0 -1 -2.5 -6t-3.5 -6q0 -1 -1 -5.5t-2 -5.5q0 -1 -1 -4.5t-2 -4.5q0 -1 0.5 -4.5t-0.5 -4.5 q0 -1 -3.5 -8l-4.5 -9q-1 -1 -2 -4t-1 -5q-1 -2 -2 -8.5t-1 -8.5q-2 -8 -6 -14.5t-6 -14.5q0 -2 -1 -7t-2 -7q0 -1 0.5 -4.5t-0.5 -4.5q0 -1 -2 -6.5t-3 -8.5q-8 -19 -10.5 -40t-7.5 -41q-5 -3 -7 -9t-4 -11q-8 -23 -11.5 -46t-8.5 -46q-8 -29 -15 -56.5t-12 -56.5 q0 -2 -1 -9.5t-1 -10.5v-2v-1l2 -3l1 -1q0 -1 -1 -2q-5 -11 -6.5 -22.5t-1.5 -23.5q0 -41 14 -75l3 -3h81q2 1 7.5 2t7.5 1l5 -3h7h8q40 4 79.5 9.5t79.5 5.5q2 0 11 -0.5t12 -0.5q12 -5 12 -17q0 -7 -9 -12t-21 -9t-23.5 -6.5t-16.5 -4.5q-2 0 -9 -4t-8 -4q-6 -2 -11 -2 t-10 -4q-3 0 -11 -1t-17.5 -2t-17.5 -2t-11 -1q-1 0 -5.5 -1t-6.5 -2q-17 -5 -34.5 -5.5t-34.5 -5.5h-58q-8 0 -16.5 4.5t-15.5 9.5q-33 24 -42.5 61t-9.5 75z" />
<glyph unicode="m" horiz-adv-x="470" d="M372 -14q0 57 5 112t12 110v15q0 1 0.5 6l1 10l1 10t1.5 6q1 26 1 51.5t1 51.5q1 11 3 21.5t2 21.5v4q0 2 -1 9.5t-1 10.5q-7 -6 -9 -16q-9 -30 -17.5 -59t-16.5 -60q-2 -3 -3.5 -14.5t-1.5 -14.5v-12q0 -1 -1 -3.5t-3 -3.5q0 -1 -0.5 -2t-0.5 -3q-1 -2 -1 -5v-13 q0 -1 -1 -5t-2 -6l-3 -4q-1 -2 -2 -10.5t-1 -9.5q-1 -2 -3.5 -10t-2.5 -10q-1 -2 -1.5 -8.5t-1.5 -9.5q0 -2 -1 -13t-1 -13q0 -1 -2 -3q-1 -1 -1 -3q-1 -2 -3.5 -8.5t-2.5 -8.5q-1 -3 -2.5 -9t-3 -12.5t-2.5 -12t-1 -6.5q-1 -7 -0.5 -17t-1.5 -19t-8.5 -15.5t-19.5 -6.5 q-14 0 -25.5 11t-12.5 22v45q0 43 3.5 84.5t5.5 84.5q2 57 1.5 112.5t-0.5 112.5l-1 1q-3 0 -3 -3q-14 -23 -22 -45.5t-16 -46.5q0 -1 -1.5 -5t-3.5 -8.5t-4 -8.5t-2 -5q-11 -31 -19 -62t-19 -63q0 -1 -1 -3t-1 -3q-3 -3 -3 -6v-7q0 -1 -1 -2.5t-1 -2.5q-1 -1 -2 -5t-1 -5 q-2 -5 -4 -20t-2 -19q-9 -11 -14 -30t-9 -32q-4 -11 -8.5 -20.5t-6.5 -20.5q0 -1 -1 -8t-2 -9q-1 -1 -1 -2q-1 -1 -1 -2v-1q-1 0 -1.5 -4.5t-1.5 -5.5q0 -1 -1 -6t-2 -11t-2 -11.5t-1 -6.5q-2 -8 -7 -17.5t-16 -9.5q-14 0 -23 5.5t-17 15.5q-8 8 -8 19t-1 20v12 q0 51 11.5 100t23.5 98q12 52 21.5 102.5t24.5 101.5q-2 7 2.5 15.5t5.5 16.5q0 2 -0.5 10t0.5 10v1q0 1 1 2q0 1 1 2q7 13 9.5 26t5.5 27q2 8 5.5 20t16.5 12q19 0 33.5 -9t14.5 -26q0 -7 -2.5 -12.5t-4.5 -12.5q0 -2 -2.5 -12.5t-3.5 -12.5q0 -1 -2.5 -6t-2.5 -6t-1 -5 t-2 -5q0 -2 -2.5 -12.5t-3.5 -12.5q0 -2 -1 -3l-2 -2v-3q0 -3 3 -4l4 2l8 20q3 8 6 17l5 15q6 16 11.5 29.5t14.5 28.5q1 1 2 3.5t3 4.5l4 6q2 3 7 8t7 5q0 1 4 1h6q20 0 36.5 -11t21.5 -28v-9q0 -1 1 -6.5t3 -6.5v-13q0 -1 1 -6.5t1 -7.5v-78q3 -3 3 -4v-1v-2q0 -1 -1.5 -5 t-1.5 -5q0 -2 0.5 -8.5t0.5 -8.5h2q6 25 15 49t20 48q0 1 2 6.5t4.5 12t5 12t2.5 7.5q2 3 7 15t7 17q2 4 5.5 9.5t10.5 5.5q23 0 41 -15.5t22 -35.5q2 -1 1 -4.5t-1 -4.5t2 -3q1 -1 2 -3t1.5 -8.5t0.5 -8.5q0 -3 -2 -5v-97q-1 -17 -3 -35.5t-3 -35.5q-1 -3 -0.5 -14t0.5 -13 q-2 -44 -7 -87t-9.5 -86.5t-8 -87t-1.5 -87.5q-2 -8 -5.5 -12.5t-14.5 -4.5h-2q-13 7 -20 17t-10.5 21t-4 23t-0.5 24zM164 423q-4 0 -5 -3l-2 -6h2q4 0 4.5 3t0.5 6z" />
<glyph unicode="n" horiz-adv-x="420" d="M256 53q0 28 3 54.5t7 54.5v9q0 2 1.5 11t3 19t3 19t1.5 12v9q0 2 1 3q2 2 2 3t1.5 5.5t1.5 6.5q0 1 1 7t2 12.5t2 12t1 7.5q1 6 2.5 8t0.5 7q11 56 20 110.5t16 110.5q1 1 2 7t1 8q1 4 2 11.5t1 9.5q1 14 1 28.5t2 28.5q0 1 1.5 6t1.5 6v2q0 7 -1.5 13t-1.5 14t2 14 t2 13q0 10 -7 14q-8 -7 -18 -22t-15 -23q-2 -3 -2 -7t-4 -6l-33 -66v-6q-1 -1 -3.5 -4.5t-2.5 -4.5q-5 -7 -7 -14.5t-5 -15.5q-6 -14 -11 -27.5t-11 -27.5q-5 -13 -11.5 -25.5t-9.5 -25.5q0 -1 0.5 -4.5t-0.5 -4.5q0 -1 -2.5 -4.5t-3.5 -4.5q-1 -2 -3 -10.5t-3 -10.5 q0 -1 -2 -3q-1 -1 -1 -3q0 -1 0.5 -5t-0.5 -4q0 -1 -1 -3.5t-2 -2.5q-2 -5 -6 -18.5t-6 -18.5q-1 -2 -2 -6.5t-1 -5.5v-15l-3 -3q-6 -11 -8.5 -19.5t-6.5 -19.5q-1 -2 -3 -8t-3 -7q0 -2 -2 -8.5t-4 -14.5t-4 -14.5t-2 -8.5q-3 -9 -6.5 -18t-5.5 -18q-1 -1 -0.5 -4.5 t0.5 -4.5q-2 -8 -6 -16.5t-6 -16.5q-1 -1 -0.5 -4.5t0.5 -4.5q-1 -1 -3.5 -4.5t-2.5 -4.5t-1 -5.5t-2 -10t-2 -10t-1 -5.5q-1 -1 -3.5 -8.5t-2.5 -9.5q-2 -8 -3 -17.5t-2.5 -19.5t-5.5 -18.5t-11 -13.5h-10q-17 0 -29.5 11.5t-17.5 27.5v26q0 46 7.5 91.5t16.5 91.5 q1 7 4 22t6 30.5t5.5 28t2.5 15.5q0 1 0.5 5t1 8.5t1 8.5t0.5 5q1 2 3.5 12.5t2.5 12.5v6q1 1 2 6t1 6q-1 2 -2 3t-1 3q1 2 3 5t3 4q1 4 2.5 13t3.5 19t4 19t2 12q4 17 6 33.5t4 33.5q0 1 1 6t2 6q5 26 5.5 51.5t9.5 51.5q1 4 7 5t10 1h4q17 -7 29.5 -15.5t12.5 -28.5v-5 q0 -6 -1.5 -18.5t-1.5 -14.5t-1.5 -7.5t-3 -12t-3 -12.5t-1.5 -7v-3l-15 -79v-18l3 3q3 9 7 18q3 8 6 15t5 12q6 15 10.5 30.5t10.5 30.5q5 11 12 21t12 21v3q6 19 13 39t18 37q1 2 6.5 10.5t12.5 18t12.5 18t7.5 10.5q3 5 9.5 16.5t14 23.5t15 21t14.5 9q11 0 18.5 -3 t15.5 -10q5 -3 14.5 -10t10.5 -8q11 -10 12 -25.5t3 -28.5q0 -1 1.5 -4.5t1.5 -4.5q0 -2 -1 -5t-2 -4q2 -35 -1.5 -71t-7.5 -71q0 -3 -1 -9.5t-2 -14t-2 -14.5t-1 -10q-1 -2 -2 -8t-1 -8q-1 -2 -0.5 -12t0.5 -12q-2 -14 -6 -28.5t-6 -28.5l-10 -70q0 -2 -1 -9t-2 -9 q-5 -26 -10.5 -52.5t-10.5 -53.5q0 -2 -1 -4q-1 -1 -1 -3q0 -1 -1 -2q-3 -11 -3.5 -22t-2.5 -23q0 -1 -1 -4.5t-2 -4.5q-6 -26 -8 -54t-4 -55v-21q0 -2 -1 -7.5t-2 -12t-2 -12.5t-1 -7v-6q-1 -3 -3 -8.5t-3 -6.5q-2 -3 -8 -3.5t-9 -0.5q-1 0 -3.5 0.5t-3.5 0.5 q-17 20 -21 39t-4 45zM139 440l3 3l-3 3v-6z" />
<glyph unicode="o" horiz-adv-x="354" d="M9 119q0 19 3 34t8 33q1 2 3 12t2 12q3 11 6.5 22t5.5 22l39 101q8 10 12 20.5t9 21.5q0 1 1 2q0 1 0.5 1.5t0.5 1.5q5 8 8.5 16.5t6.5 18.5l41 65q8 6 8 12v1q-2 0 -3 1q-1 0 -2 1l-1 1q0 1 1 2l15 15h-1q-6 0 -13 -4t-12 -6h-1v3q4 1 8 4q4 2 7.5 4t6.5 4q2 1 8 3.5 t8 3.5v2q-16 0 -30.5 -7t-28.5 -14q-1 -1 -4 -3t-4 -3h-3q0 11 7.5 16.5t16.5 10.5q1 1 6 4t6 4h1q1 0 1 0.5t1 0.5t2 1h1q3 0 4 -1t3 -1q5 0 4 4t6 6q8 2 17 3t17 4q0 1 1 1l1 1q17 19 34.5 35.5t42.5 23.5q2 0 6 2q2 1 4 1q20 0 39 -8.5t33.5 -22.5t23.5 -32t9 -37 q0 -10 -2 -17.5t-15 -7.5q-6 0 -10 3.5t-9 8.5q-6 7 -7.5 13t-1.5 11t-1.5 10t-7.5 10q-3 3 -7 3q-1 0 -4 2t-4 2h-4q-2 0 -3.5 0.5t-2.5 0.5q-2 0 -5.5 -0.5t-5.5 -0.5l-3.5 -3.5t-4.5 -3.5q-1 -1 -9.5 -2.5t-10.5 -2.5q-2 -2 -9 -9.5t-9 -10.5q2 0 5.5 -1.5t4.5 -2.5 q29 -19 40 -49t15 -62v-6.5t0.5 -15t1 -17.5t0.5 -15v-3v-2q-2 -23 -4 -45t-6 -44q0 -1 -1.5 -6t-2.5 -11t-2.5 -11.5t-1.5 -7.5l-12 -57q-2 -8 -5.5 -10.5t-5.5 -9.5l-4 -16t-6 -16q-1 0 -2.5 -2.5t-3.5 -4.5q-8 -10 -13.5 -20t-13.5 -21q-22 -31 -49 -54t-64 -37 q-2 0 -10.5 -0.5t-10.5 -0.5q-8 0 -19 0.5t-19 5.5q-34 17 -50.5 49t-16.5 68zM64 92q0 -2 2 -10t2 -12q1 -5 4.5 -11.5t8.5 -8.5h8q24 0 46.5 13t41.5 32t34 41t23 40q1 2 4.5 9.5t3.5 9.5q1 1 3 5t4 8.5t4 8.5t2 5q1 2 4 10.5t4 12.5q3 10 4 19.5t3 19.5q8 35 13.5 71 t5.5 72v10q0 1 -1.5 4.5t-1.5 4.5q-2 16 -2 31.5t-6 30.5q-1 2 -3 5t-2 4q-3 4 -8.5 9.5t-6.5 5.5h-8q-1 -2 -3.5 -6t-4.5 -6q-2 -3 -3 -6.5t-5 -5.5q-1 -1 -5 -4t-5 -4q0 -1 -3 -4.5t-4 -5.5l-18 -28l-18 -28q0 -1 -1 -1.5t-1 -1.5q-2 -2 -5 -8.5t-7 -14t-7.5 -14.5 t-4.5 -10q-1 -1 -4 -5.5t-4 -6.5q0 -1 -0.5 -1t-0.5 -1v-2q-1 -2 -4 -11.5t-4 -11.5q-1 -1 -4 -4.5t-4 -4.5q-4 -6 -7.5 -13.5t-5.5 -13.5q-1 -1 -1.5 -6.5t-1.5 -6.5q0 -1 -2.5 -3.5t-2.5 -3.5q-2 -5 -3.5 -11t-3.5 -12v-4q0 -1 -2.5 -2.5t-2.5 -2.5q-8 -14 -11 -35 q0 -1 -1 -8t-1 -8l-3 -3q-1 -1 -1.5 -3.5t-1.5 -4.5q-6 -25 -10 -48.5t-4 -50.5v-4zM152 513h-2l2 2v-2z" />
<glyph unicode="p" horiz-adv-x="324" d="M30 -178q0 3 -0.5 10t-1 15t-1.5 15t-1 10q-5 48 -5 94v93v70q2 17 3 35t2 35q0 1 1 8.5t1 8.5v7q0 10 -8.5 20t-8.5 24q0 19 13 31h1q3 0 4 -3.5t3 -5.5q4 2 4 7q1 2 1.5 11t0.5 10q4 24 7.5 42t8.5 40q0 1 1 5l2 8t2 7.5t1 4.5q1 5 1 10v9.5t1 7.5v2q1 2 3.5 7.5 t2.5 6.5v8q0 1 1.5 5t1.5 6q2 8 2 11q1 1 3 6.5t4 7.5l2 2q0 2 -0.5 7.5t0.5 6.5q0 2 1.5 8t2.5 8l2 2q1 0 2 1q1 0 1 0.5t1 0.5v2v1l-2 2v1v2q2 11 7 22t6 23q1 3 4.5 9t7 13t7 13.5t5.5 8.5q5 9 9 17.5t10 16.5q5 6 9 8t11 6l8 8q14 8 27 12.5t29 4.5q6 0 11.5 -2t11.5 -1 q19 -8 35.5 -21.5t29.5 -30.5q1 -2 2.5 -6t1.5 -5l2 -2q0 -1 0.5 -1t0.5 -1t1 -1q5 -10 7 -19t4 -20q3 0 3 -4q0 -5 -0.5 -8t2.5 -6v-66q-2 -4 -2.5 -9t0.5 -10l-12 -53q-8 -18 -13 -36t-15 -35q-11 -23 -27.5 -45t-33.5 -39q0 -1 -1 -3.5t-1 -3.5q0 -2 -3 -2q-1 -1 -2 -1 l-2 -2q-1 -1 -1 -3q0 -1 -1 -2t-4.5 -2.5t-4.5 -3.5q-11 -8 -21 -17.5t-22 -17.5q0 -1 -3.5 -1.5t-4.5 -1.5q-11 -4 -19.5 -11t-19.5 -11q-1 0 -5.5 -0.5t-4.5 -1.5q-1 -1 -3 -4t-3 -5q-6 -23 -8.5 -47.5t-5.5 -48.5q-1 -2 -1 -4q-1 -1 -1 -3v-2q0 -2 -1 -6.5t-1 -5.5 q-5 -40 -11 -79t-4 -78q-2 -2 -2.5 -8t-1.5 -13.5t-1 -14v-8.5q0 -8 1 -15.5t1 -15.5v-3q0 -1 -1 -9t-1 -10t1 -4q0 -2 1 -3q0 -1 0.5 -4t0.5 -5q0 -18 -13 -18q-11 0 -20.5 6t-14.5 19zM105 458q0 -3 -1.5 -10.5t-3.5 -16t-3.5 -16t-1.5 -10.5q-1 -2 -2 -7.5t-2 -12 t-2 -12.5t-1 -7t-1 -4t-1 -4v-9q-1 -7 -2.5 -13.5t-1.5 -12.5q-1 -3 -1.5 -9.5t-0.5 -8.5q-2 -11 -4.5 -23.5t-2.5 -24.5h2q1 0 3 12t4 20q6 33 12.5 67t14.5 68v1q0 1 0.5 1.5t0.5 1.5q0 2 1 3v7q1 2 2.5 7.5t2.5 7.5v5v5q0 1 3 8t4 8v7q0 1 1 5.5t1 5.5t0.5 5.5t1.5 6.5 q2 6 4 11t8 5q15 0 26 -8t11 -26q0 -16 -5 -30.5t-10 -29.5q-1 -1 -2.5 -9.5t-1.5 -9.5q-2 -9 -4.5 -16t-4.5 -16q0 -1 0.5 -4t-0.5 -3l-2 -2q0 -1 -1 -6t-1 -7v-7q-1 -1 -1 -2q-1 -1 -1 -2v-1v-7q0 -2 -3 -11t-4 -11v-2q0 -2 -1.5 -8t-2.5 -12.5t-2.5 -12.5t-1.5 -9l2 -2 l2 2q1 1 2 1.5t2 1.5q0 1 1 1.5t1 1.5q1 0 6.5 4t6.5 6q1 1 5.5 4.5t5.5 4.5q8 6 16.5 12t16.5 15q3 3 8.5 10.5t12 15.5t12 15t7.5 10q9 12 19 28t16 32q11 31 19.5 61.5t8.5 62.5q0 11 -1.5 24.5t-4.5 26.5t-9 23.5t-15 16.5q-2 2 -5 2q0 1 -2 3l-3 3q-5 2 -11 2.5 t-11 0.5h-12q-3 -4 -4.5 -3t-5.5 0q-5 -2 -11 -5l-10 -5l-5.5 -5.5t-7.5 -8t-7 -8t-4 -4.5q-3 -4 -7 -10.5t-8 -13.5t-7 -14t-4 -11v-8l-2 -2q-1 -1 -2 -1t-1 -1q-1 -1 -1 -2q-1 -1 -1 -2v-1q-1 -3 -3 -8.5t-4 -11.5t-3.5 -11t-1.5 -6q-1 -2 -3 -8t-4 -13.5t-4 -14t-3 -9.5 q2 -9 -4 -17z" />
<glyph unicode="q" d="M208 24q-2 0 -6 -2.5t-9 -6t-9.5 -7t-7.5 -4.5q-12 -6 -26 -11.5t-28 -5.5h-4q-3 0 -11.5 1t-9.5 1q-2 0 -8 2.5t-9 3.5q-4 2 -9.5 4.5t-5.5 7.5l-36 44q-3 11 -9 21.5t-8 21.5q0 4 -1 13t-1 11t-0.5 16t-0.5 22q0 52 16 104.5t36 100.5q2 3 7 14.5t7 14.5 q11 23 23.5 45.5t25.5 44.5q15 29 31.5 52.5t36.5 47.5q2 2 7 9t6 9q11 12 22.5 24t24 22.5t26.5 17t31 6.5t32 -8t26 -21.5t17.5 -30.5t6.5 -34q0 -14 -3 -29q-1 -5 -7.5 -14t-6.5 -11v-1l5 -6q10 -15 11 -32t1 -34q0 -63 -16.5 -125t-41.5 -119q0 -1 -1.5 -5t-3.5 -8.5 t-3.5 -8t-1.5 -4.5q-9 -19 -19.5 -35t-21.5 -33q-7 -9 -17 -18.5t-10 -20.5v-2q7 -28 18.5 -53.5t24.5 -51.5q1 -1 3 -6t5 -11t5 -11.5t3 -6.5l3.5 -7l5 -10t5 -9.5t2.5 -5.5q8 -14 19.5 -26t11.5 -29q0 -11 -10 -18t-18 -12h-1q-1 0 -5 1.5t-8 3.5l-7 3.5t-3 2.5 q-1 2 -1.5 11t-1.5 11q-2 9 -12 20t-15 20q0 2 -1 5t-1 4q-1 1 -4.5 7.5l-7 13t-6.5 12.5l-4 8q-2 1 -4 5t-2 6q-1 2 -4 11t-4 10q-1 2 -2.5 6t-2.5 6q-2 3 -5.5 10.5t-7.5 15.5t-8 14t-7 6zM64 129q0 -9 1 -22t4.5 -25.5t10.5 -21.5t19 -9h3q1 0 4.5 1.5t4.5 1.5h7 q18 3 35 16t31 24q2 4 2 9q0 9 -3 15.5t-5 14.5q-11 41 -21.5 81.5t-21.5 81.5q-1 5 -1.5 18.5t-1.5 16.5v9t-5 4q-6 0 -10 -9.5t-6 -14.5q-1 -2 -3 -7.5t-4 -7.5q0 -2 -3.5 -12.5t-3.5 -12.5q-1 -2 -4.5 -9.5t-3.5 -9.5q-1 -2 -4 -11.5t-5 -14.5q0 -2 -1.5 -8t-3.5 -12.5 t-3.5 -13t-1.5 -7.5l-2 -4q-1 -2 -1 -4q-2 -17 -2.5 -28.5t-0.5 -28.5zM186 320q0 -28 7.5 -53.5t14.5 -51.5q5 -16 8.5 -32t10.5 -30q0 -1 1 -1q1 -1 2 -1l1 -1q5 0 10 9.5t8 13.5q0 1 2.5 4.5t5.5 7.5t5.5 7.5t2.5 4.5q1 1 3.5 6t5 11t5 11.5t3.5 6.5q1 2 6 13t7 13 t5 10.5t4 11.5q0 1 2 8t4 14.5t4 14.5t2 9q12 36 20.5 73t8.5 75q0 2 -0.5 7.5t-0.5 7.5q-2 8 -5 9t-9 1t-15 -3.5t-14 -6.5q-7 -3 -17.5 -9.5t-21.5 -15t-20.5 -17.5t-14.5 -16q-1 -1 -5 -8.5t-5 -8.5t-3 -3.5t-4 -2.5q-2 -4 -5 -11t-5 -12q-2 -4 -4.5 -10.5t-3.5 -8.5 q-2 -5 -1.5 -11t-4.5 -11v-24zM130 364q-2 0 -2 -2.5t2 -2.5t2 2.5t-2 2.5zM238 534q-1 -1 -1 -2q-1 -1 -1 -2h1h1q3 3 3 4h-1h-2zM311 592q-4 -7 -16 -13t-18 -10q-9 -5 -18.5 -13.5t-14.5 -16.5h2q7 0 15.5 6.5t17.5 8.5q4 1 14.5 3t12.5 2h1h2q6 -1 13.5 -3t13.5 -2h2 q2 3 3 14.5t1 14.5v2v2l-3 3q-1 1 -3 2h-25z" />
<glyph unicode="r" horiz-adv-x="376" d="M39 184q-2 4 -3.5 7.5t-5.5 5.5q-1 1 -5 4t-5 4q-5 4 -9.5 14t-4.5 16q0 9 5.5 12.5t12 4.5t12 1.5t5.5 2.5q9 38 10 77t6 77q5 29 11 59t8 60v16l3 5q0 2 1 8t2 8q0 2 -0.5 9.5t0.5 9.5q0 1 1 3t1 3q4 13 2.5 26.5t3.5 27.5q1 5 3.5 6.5t5 1.5t5.5 1t5 4v1q0 1 1 2 q0 1 1 2t4 6t6 10.5t6 10.5t3 6q1 1 2.5 5t3.5 8.5t3.5 8.5t1.5 5q4 9 14.5 21t23.5 23t26.5 18.5t24.5 7.5q23 0 45 -10.5t36 -30.5q7 -10 12 -24.5t8.5 -30t5 -30.5t1.5 -27q0 -34 -4.5 -67t-11.5 -66q-1 -1 -3 -8t-3 -11t-4 -13t-4 -14v-8q-2 -11 -7 -20.5t-9 -19.5 q-37 -100 -116 -170q-1 -1 -6.5 -5t-11.5 -8.5t-11 -8.5t-6 -5l-5 -5q0 -1 2 -3l3 -3t5.5 -6.5t5.5 -6.5q4 -5 9 -6.5t10 -4.5q0 -1 2 -3t3 -2q2 -2 7 -6.5t6 -4.5q2 -1 8.5 -4t8.5 -4q1 -1 5 -4t8.5 -6.5l9 -7t6.5 -4.5q1 -1 4.5 -4t3.5 -4q1 -1 7.5 -5.5t13 -9.5 t12.5 -9.5t8 -5.5l2 -2q2 -2 9 -7.5t15.5 -11.5t15.5 -12t9 -7l6 -6t8.5 -8t8 -8t4.5 -5t5 -9t6 -13v-1q0 -7 -6 -9.5t-11 -2.5h-7t-6 3l-13 13q-11 9 -23.5 14t-22.5 13l-11 11q-1 1 -5.5 3t-5.5 2q-7 4 -12.5 9t-11.5 10q-11 8 -21.5 13.5t-21.5 13.5q-1 1 -3 4t-3 4 q-2 1 -7.5 3.5t-11.5 5.5t-11 6t-7 4q-6 3 -13 7t-14 4q-3 0 -3 -3q0 -2 -1 -6.5t-2 -6.5q0 -7 0.5 -24t0.5 -36.5t-0.5 -37t-0.5 -24.5q0 -4 -1 -18t-1 -19q-1 -8 -7.5 -13.5t-14.5 -5.5q-5 0 -11.5 3t-12.5 7t-10.5 9t-5.5 10q-13 50 -13.5 105t-2.5 106zM125 286h2 q3 0 6 3l5.5 5.5l9 9t9 8.5t6.5 6q3 3 7.5 8.5t10 11.5t9.5 11t5 7l11 22q1 1 4 6t6.5 11t6.5 11t4 7q1 0 1 1t1 2t1 2q5 14 9 27t10 27v1q0 1 1 2q0 1 1 2q12 39 20 79t8 80q0 5 -0.5 13t-0.5 9t-0.5 5t-1.5 6l-2 2q-1 1 -1 3v16q0 2 -2.5 8.5t-2.5 8.5q-3 8 -6.5 16 t-15.5 8q-9 0 -14.5 -2.5t-12.5 -8.5q-20 -17 -28 -30.5t-18 -36.5q-3 -8 -7 -15t-6 -15q-1 -3 -3 -11t-5 -17t-5 -18t-3 -13q-1 -3 -3 -13.5t-3 -13.5q-3 -20 -4.5 -41.5t-3.5 -42.5v-32q0 -1 -1.5 -4t-1.5 -4v-35l-2 -3v-89z" />
<glyph unicode="s" horiz-adv-x="354" d="M50 106q0 32 10.5 59.5t21.5 53.5h1h1l2 -2q1 -1 2 -1q5 5 11 11.5t11 6.5q6 0 10.5 -8t2.5 -18q0 -1 -2 -8.5t-2 -9.5v-12q0 -1 -2.5 -6.5t-2.5 -7.5q-2 -6 -4 -16.5t-4.5 -22t-4 -22.5t-1.5 -18q0 -27 16.5 -41.5t31.5 -14.5q6 0 15.5 4.5t14.5 6.5q16 8 30 22.5 t28 28.5q5 6 14 19t17.5 28.5t14.5 30.5t6 26q0 13 -5 22t-12 15t-14.5 11t-13.5 10q-3 0 -9 1.5t-13 3.5t-13.5 3.5t-9.5 1.5h-1q-8 -1 -21.5 -2t-14.5 -1q-2 0 -12.5 -3.5t-12.5 -3.5q-2 -2 -6.5 -1t-6.5 1q-2 -1 -3 -2t-2 -1t-1 -1q-18 -6 -36 -11t-35 -5q-2 0 -9 0.5 t-9 0.5q-17 10 -28.5 32t-11.5 51q0 17 5 31q1 2 2.5 6t1.5 5q35 63 72 116.5t79 103.5q9 11 18 24.5t19.5 25.5t21.5 20t24 8q2 0 6.5 -0.5t5.5 -0.5q1 -2 4 -6t6 -8.5t5.5 -8.5t3.5 -6q2 -5 2.5 -9.5t0.5 -11.5q0 -22 -10.5 -36.5t-23.5 -20.5q-2 0 -5 -1l-6 -2 q-5 -3 -3.5 -11.5t-3.5 -10.5q-3 -2 -8 -2t-7 -1q-1 -2 -3 -4.5t-3 -3.5q-2 -2 -8 -6t-6 -6q-1 0 -4 -3.5t-6 -8t-6 -8t-3 -4.5q-1 -2 -4.5 -5.5t-4.5 -5.5q-1 0 -3 -2t-3 -2q-1 -1 -4 -5.5t-6.5 -9.5t-6.5 -9.5t-4 -5.5l-2 -2q-1 -1 -2 -1q-3 -3 -4 -8t-3 -7q-1 0 -2 -1 t-2 -1t-1 -1t-0.5 -2t-0.5 -2q-1 -2 -1 -3q-1 -1 -5 -4t-5 -4l-1 -7q-1 -1 -1.5 -2.5t-1.5 -1.5q-11 -14 -23 -29t-17 -37q0 -1 1 -3t2 -2q1 1 3 2t2.5 2t1.5 1h4h4q2 0 4.5 3t2.5 4q32 -3 65 8q2 3 5 3h5q35 0 71 -8.5t66 -39.5q22 -22 38 -49.5t16 -71.5q0 -27 -9.5 -47 t-18.5 -40q-8 -17 -17 -29t-18 -23q-2 -2 -8 -9.5t-7 -8.5q-17 -21 -37 -32.5t-40 -23.5l-8 -4q-4 -2 -8 -3q-2 0 -6.5 1.5t-5.5 1.5l-7 -3q-12 0 -24 7t-23.5 18.5t-21.5 25t-18 26.5q-8 14 -11.5 39t-3.5 42z" />
<glyph unicode="t" horiz-adv-x="440" d="M177 65q0 27 2.5 54t7.5 54v2q2 24 5 48t8 47q0 1 1 4.5t2 5.5q0 1 1 4t1 4q0 2 1 9t2 9q1 6 3.5 19.5t5.5 29t5.5 29.5t3.5 19q6 14 7 28t3 28q0 2 2 11.5t3 11.5v8q0 4 2 15.5t3 15.5h-4h-4q-3 -1 -15.5 -4.5t-17.5 -5.5q-1 -1 -5 -3t-5 -3q-1 0 -2.5 -2t-2.5 -3 q-2 0 -8 -1t-8 -1q-26 -11 -50.5 -27t-48.5 -32q-8 -5 -16 -9t-15 -9q-5 -4 -7.5 -9t-7.5 -9q-2 -1 -5.5 -4t-5.5 -4q-1 0 -5 -2t-5 -3q-4 -3 -5.5 -9.5t-7.5 -8.5q-3 -2 -11.5 -3.5t-13.5 -1.5q-6 0 -12 5.5t-9 7.5q-5 5 -8.5 15.5t-3.5 17.5q0 4 1 8.5t4 7.5q2 1 4 3 t3.5 2.5t2.5 1.5q13 9 25 18.5t26 17.5q8 5 15.5 8t15.5 8q16 8 30 19t31 19q1 0 6.5 2t6.5 3t7 3.5t12 5.5t11.5 5.5t7.5 3.5q1 0 5.5 1.5t10 3.5t10 3.5t5.5 1.5q3 1 10.5 4t9.5 4q42 17 84 30.5t85 23.5q58 12 116 12h10q2 0 8 -0.5t12.5 -1.5t12 -2t8.5 -1q6 -2 9.5 -4 t3.5 -9q0 -1 -0.5 -2.5t-0.5 -2.5t-3 -3.5t-4 -3.5t-3.5 -1.5t-4.5 -1.5q-24 -5 -47.5 -11.5t-47.5 -11.5q-1 0 -6 -1t-10.5 -1.5t-10.5 -1.5t-6 -1q-2 0 -8.5 -2t-14 -4l-15 -4t-11.5 -3q-2 -1 -11 -3.5t-12 -4.5q-10 -4 -14 -10t-5 -13.5t-0.5 -16t-0.5 -16.5l-2 -4 q-1 -2 -2 -3.5t-1 -2.5q-1 -1 -3 -4t-2 -4q0 -2 -1 -4q-2 -4 -2 -6q-8 -45 -17 -88t-16 -88q-2 -8 -4 -14.5t-4 -14.5q0 -2 -1 -8.5t-1 -8.5v-16l-2 -2q-1 -1 -1 -2v-1q-5 -20 -8 -38t-5 -39q-1 -7 -2 -20.5t-2 -27.5t-2 -25t-1 -14q0 -4 -0.5 -13.5t-0.5 -20t0.5 -19.5 t0.5 -13q-3 -5 -8 -8h-6h-7l-9 4.5t-9 5.5q-7 6 -10 14.5t-4 18t-1 19v17.5z" />
<glyph unicode="u" horiz-adv-x="350" d="M190 99q-6 -5 -10 -12.5t-9 -14.5q0 -1 -2 -4t-3 -4t-4 -5t-4 -5q-1 -2 -4 -8.5t-4 -7.5q-1 -2 -6.5 -7t-6.5 -7q-1 -1 -3 -4t-3 -4l-2 -2q-1 -1 -4 -2t-4 -1t-3 -2.5t-3 -2.5q-2 -2 -11.5 -5t-11.5 -3q-1 0 -3 -0.5t-4 -0.5q-17 0 -36 11q-23 15 -29 40t-6 51 q0 29 7 57.5t12 56.5q1 2 1.5 12t1.5 12q3 22 9.5 44t11.5 44q7 29 14 56.5t15 54.5q1 1 2.5 6.5t3.5 7.5l2 5q2 4 5.5 16t5.5 16q0 1 1 5.5t2 5.5q0 1 3.5 6.5t3.5 6.5v2v3q3 8 8.5 13.5t13.5 5.5h8q1 -1 11 -6t15 -7q6 -3 7.5 -8.5t1.5 -11.5q0 -5 -0.5 -10t-2.5 -10 q-1 -2 -5.5 -9.5t-5.5 -9.5q-1 -1 -1.5 -5t-1.5 -6q0 -1 -3.5 -7.5t-4.5 -8.5t-4 -9t-4 -9q-7 -19 -14 -37t-12 -38q0 -1 -1.5 -7.5t-1.5 -8.5q0 -1 -2.5 -8.5t-2.5 -9.5q-2 -9 -2.5 -19t-2.5 -18q-1 -2 -4.5 -12t-3.5 -12q-5 -16 -7 -29.5t-4 -29.5q-1 -7 -4 -13t-4 -13 q-2 -10 -1.5 -19t-1.5 -19q-1 -1 -1 -2q-1 -1 -1 -2v-1q-2 -11 -2.5 -17t-0.5 -16v-15q0 -2 3 -5h1h1q10 6 22 18t23.5 27t21.5 30t16 26l40 80q0 2 3.5 9l4.5 9q5 11 6.5 22t3.5 23q1 4 3 13l4 18t4 17t3 11q5 23 13 44.5t16 43.5q0 1 2.5 7.5t2.5 8.5q1 1 3 6.5t2 6.5 q1 2 3 8t3 8q2 7 8 18.5t14 11.5q16 0 30 -11.5t14 -28.5q0 -13 -5 -30q0 -2 -3 -5q-8 -11 -10.5 -25.5t-7.5 -27.5q-12 -33 -23 -66t-20 -67q0 -2 -1 -7t-2 -7v-2v-3q0 -1 -2.5 -5.5t-2.5 -5.5v-5q-5 -33 -9 -66t-4 -67q0 -23 1 -45t4 -45q1 -8 5 -12t6 -10q0 -1 -0.5 -5 t0.5 -5q0 -1 1 -4t1 -4t0.5 -3t0.5 -3q0 -10 -10 -10q-5 0 -8.5 3t-8.5 5t-14 6t-13 10q-8 12 -10.5 27t-5.5 29q0 1 -1.5 6t-2.5 11t-2.5 11t-1.5 6q-1 5 -0.5 15t-4.5 12z" />
<glyph unicode="v" horiz-adv-x="330" d="M12 163v11t0.5 14t0.5 12.5v6.5t1 7.5t1.5 14t1.5 13.5t1 8q2 9 3 16.5t0 16.5l18 92v3q0 1 1 5.5t1.5 9.5t1.5 9.5t1 5.5q8 44 18.5 86.5t19.5 87.5q1 2 2.5 7.5t3.5 11t4 10t4 4.5h2q5 -1 13.5 -2t9.5 -1q12 -2 22 -13t10 -22q0 -13 -3.5 -27t-8.5 -25q-1 -1 -3.5 -5.5 t-2.5 -5.5v-9q-1 -8 -5 -17t-6 -18q-10 -31 -16 -62t-12 -63q-3 -11 -3.5 -24t-2.5 -25q-2 -9 -4.5 -18.5t-3.5 -19.5q-5 -30 -7.5 -60t-2.5 -61v-25q0 -3 2 -9q1 -3 1 -5h3q1 0 5 8.5t7 13.5q0 1 2.5 6.5t3.5 6.5q0 2 3.5 8.5t4.5 7.5l2 6q1 2 1 5q0 1 2.5 3t2.5 3q3 3 3 5 q9 23 19 45t18 45q1 2 3.5 11t2.5 11q1 2 4 10.5t5 10.5q0 2 3.5 8.5t4.5 8.5q0 1 1.5 6t3 10.5t3 10t1.5 6.5q1 2 2 5q2 6 3 8q3 7 4.5 13.5t4.5 14.5q1 2 5.5 13t6.5 13q0 2 2 8.5t3 8.5q6 18 14 35t14 35q1 2 3.5 10t3.5 10q11 30 24 57.5t27 56.5q0 1 1 4t1 4h2h4 q3 0 9 -1.5t8 -1.5q1 0 1.5 -0.5t1.5 -0.5q1 -1 2 -1q2 -2 5 -8.5t5 -8.5q1 -2 2 -3q2 -2 3 -2l2 -4q1 -2 1 -4q0 -21 -12 -42t-20 -40q0 -2 -3.5 -10t-7 -17t-7 -17t-4.5 -10q-4 -10 -6 -17.5t-6 -18.5q-6 -20 -15.5 -39.5t-15.5 -39.5q-4 -16 -12 -32q-4 -11 -5 -22.5 t-6 -21.5l-5.5 -11l-5.5 -11q-1 -1 -2 -7.5t-1 -8.5q-3 -11 -8 -21.5t-9 -21.5q-5 -14 -8.5 -28t-8.5 -26q0 -1 -3 -4.5t-3 -4.5q-8 -11 -11.5 -24t-8.5 -25q0 -1 -1 -2t-2 -1q-5 -9 -10.5 -20.5t-8.5 -22.5q-1 -1 -2 -5.5t-1 -5.5q-1 -2 -4.5 -7t-4.5 -7q0 -1 0.5 -4 t-0.5 -4q0 -1 -2.5 -2.5t-3.5 -2.5q-8 -9 -11.5 -14t-16.5 -5q-14 0 -22.5 7.5t-17.5 16.5q-2 2 -5 6t-3 5q-17 33 -22 66t-5 70z" />
<glyph unicode="w" horiz-adv-x="572" d="M227 180q-5 -14 -11.5 -30t-13.5 -30q-1 -1 -3.5 -5t-2.5 -5q-2 -2 -4 -6.5t-3 -5.5q0 -2 -1 -7t-2 -6q0 -1 -4.5 -4.5t-4.5 -4.5l-3.5 -7t-3.5 -6q0 -1 -4 -5l-5 -5t-4.5 -7.5t-5.5 -7.5q-2 -3 -9.5 -10.5t-9.5 -8.5l-3.5 -2t-8 -4l-9 -4t-7.5 -3h-2q-9 0 -22 4t-20 12 l-6.5 6.5t-9 9.5t-8.5 9.5t-5 5.5q-6 9 -10 20.5t-6 24t-2.5 24.5t-0.5 22v23q0 3 1 12.5t2 21t2 21t1 12.5q1 9 3.5 16.5t3.5 18.5q0 1 -0.5 6t0.5 6q0 1 1.5 3.5t1.5 3.5q3 12 6 25t7 25q2 10 3.5 21t5.5 20l3.5 7t2.5 6q11 30 18 60.5t20 59.5q3 7 9 19t7 13l10 6 q0 1 7 -3t12 -6q10 -6 21 -14.5t11 -22.5q0 -17 -4 -30t-9 -28q-1 -1 -2 -6.5t-1 -6.5q-1 -1 -5 -4.5t-5 -4.5q-7 -9 -7.5 -19t-5.5 -19q0 -1 -3 -5t-3 -5v-6q0 -2 -3 -8t-3 -8q-11 -38 -21.5 -77t-13.5 -78l-3 -3v-38l-3 -6q0 -1 -0.5 -8t-0.5 -10v-19.5t4 -19.5q0 -1 1 -1 h2q5 0 9 4q26 23 45.5 60t30.5 69q5 14 13 27t13 27q0 1 2 7.5l4 13t4 12.5t2 8l5 10t5 9q1 2 3 9t5 15t5 15t3 9q0 1 2.5 6l3.5 7q8 17 12.5 33.5t9.5 35.5q2 8 4 15.5t12 7.5q25 0 39.5 -18.5t14.5 -41.5q0 -16 -3.5 -30.5t-6.5 -30.5q-8 -43 -13.5 -85t-5.5 -86v-3l3 -3 q0 -1 -2 -3q-1 -1 -1 -3v-10q0 -1 -0.5 -5.5l-1 -9t-1 -8.5t-0.5 -5t1.5 -5t1.5 -5v-5.5v-10v-10.5v-6q2 -26 8.5 -48.5t17.5 -46.5q2 -4 2 -7t4 -5q2 -2 7 -4.5t6 -2.5q9 0 18 7t17 16.5t14.5 20t10.5 17.5q12 23 19 43.5t15 44.5q5 14 10.5 29t12.5 28q5 11 4.5 17.5 t1.5 17.5t6.5 22t6.5 22q0 2 1 14.5t2 14.5q0 2 1 8t2 8t3.5 11t2.5 11q3 20 3.5 42t0.5 42v32.5t-4 31.5q0 1 -3 4h-1h-2q-2 -1 -12.5 -2t-12.5 -2h-2q-9 0 -8 9.5t0 13.5q-1 2 -2 3t-1 3v11v11q13 16 32 16q11 0 20.5 -4t20.5 -12q14 -10 21.5 -25t11.5 -31.5t4.5 -34 t0.5 -32.5v-35q0 -1 -0.5 -5l-1 -8t-1 -7.5t-0.5 -4.5v-2v-2q0 -1 1.5 -4.5t1.5 -4.5l-3 -3q-1 -1 -0.5 -5t0.5 -5q-1 -3 -2 -11.5t-2 -10.5q0 -2 -3 -12.5t-3 -12.5t-0.5 -7t-1 -11t-1 -11t-0.5 -6q-2 -13 -8 -27.5t-8 -26.5v-9q-7 -47 -23.5 -91.5t-36.5 -86.5 q-1 -1 -3.5 -6.5t-6 -12t-6 -12.5t-3.5 -7l-2 -4q-1 -1 -1 -3v-2q-5 -7 -13.5 -15t-18.5 -15t-21 -12t-20 -5q-12 0 -27 7t-29.5 17.5t-26.5 22.5t-18 22q-2 2 -6.5 11.5t-6.5 13.5t-4.5 10.5l-5 13t-4.5 11.5t-2 7t0.5 9.5t-0.5 9.5q0 2 -3 11t-3 11v12q-2 18 -3 35t-3 35 h-7z" />
<glyph unicode="x" horiz-adv-x="428" d="M-54 -47q0 10 8 21.5t15 16.5q0 1 1 1t2 1t3 1q19 16 31 36.5t27 38.5l75 96q1 1 6.5 7.5t8.5 9.5l1 1l2 2q0 1 1 3l2 4l2 4q0 1 -1 6.5t-2 8.5q-4 15 -9.5 31.5t-7.5 31.5q-3 20 -3.5 40.5t-2.5 40.5q0 2 -1.5 10.5t-1.5 10.5q0 1 1 4t2 4q0 5 0.5 18.5t0.5 17.5 q0 8 -0.5 21.5t-0.5 15.5t-1 8.5t-2 8.5q5 0 7 4t3.5 9t4.5 9t9 4q18 0 30.5 -11t18.5 -27q0 -1 2.5 -7t2.5 -7t-1 -4.5t-1 -4.5q-1 -3 -2 -12t-1 -11v-6v-10v-10v-6t-1.5 -4t-1.5 -4q0 -2 -1.5 -9t-1.5 -9q-1 -5 -2 -14.5t-1 -11.5t1.5 -11.5t1.5 -11.5v-11q0 -5 1 -13 t2 -15.5t2 -13l1 -5.5l3 -3q6 5 7.5 9.5t6.5 11.5q1 2 7.5 9t13 15.5t12.5 15.5t8 9q1 1 4 7t4 7l1 2q1 1 2 1q21 27 43 58q16 21 30 42.5t28 44.5q1 1 3 4t3 4q1 2 6 7.5t6 7.5t4 8.5t4 8.5q1 1 3 5t4.5 8.5t4.5 8t3 4.5q4 8 6 14.5t12 6.5q5 0 8 -0.5t8 -2.5 q11 -10 20.5 -19t9.5 -23q0 -2 -0.5 -6t-0.5 -5t-2.5 -7t-3.5 -7v-6q-2 -8 -11 -14t-6 -15q-2 -1 -7.5 -6.5t-6.5 -7.5q-1 -1 -2 -4.5t-1 -4.5q-5 -9 -13 -16t-13 -16q-9 -14 -18 -26.5t-20 -25.5q-1 -1 -3 -4t-3 -4v-3q0 -1 -3.5 -4.5l-4.5 -4.5q-2 -2 -9 -11.5t-9 -11.5 l-5.5 -5.5t-5.5 -6.5q-1 0 -2 -3.5t-1 -4.5q-7 -14 -21 -29t-25 -26q-1 -1 -4.5 -5.5t-4.5 -6.5q-1 0 -2 -1t-1 -2q-1 -2 -5.5 -11.5t-5.5 -11.5q-3 -4 -14 -15t-15 -14q-1 -1 -1 -2v-2q0 -5 2 -9.5t4 -9.5q17 -35 42 -69.5t60 -54.5q0 1 3 -2q1 -1 2 -1q2 0 6.5 0.5 t5.5 -0.5t5.5 -6t6.5 -5q5 -5 8 -5t3 -8t-1.5 -15t-11.5 -7q-22 0 -34.5 7.5t-30.5 18.5q-2 1 -9 4t-8 5q-2 1 -7.5 5t-7.5 6l-23 23q0 3 -3 6q-5 7 -11.5 12.5t-11.5 13.5t-10.5 20t-12.5 21q-2 3 -6 3q-5 0 -5.5 -3t-2.5 -6q-1 -1 -5 -4.5t-4 -4.5q-1 -1 -1.5 -4.5 t-1.5 -4.5q-1 0 -4.5 -3.5l-4.5 -4.5q-1 -2 -5.5 -9t-5.5 -9q-12 -15 -21.5 -25t-22.5 -24q-1 -2 -1 -3q-1 -1 -1 -2v-1q-1 -1 -4.5 -5.5t-7.5 -10t-7.5 -10t-4.5 -5.5q-5 -8 -12 -19t-15 -21t-18 -17t-21 -7h-9q-4 1 -4.5 6.5t-3.5 8.5q-5 4 -13 9t-8 13z" />
<glyph unicode="y" d="M151 -374q0 26 3 48.5t8 47.5q0 2 0.5 8t1.5 13.5t1.5 14t0.5 8.5q6 42 13.5 83.5t15.5 83.5q1 6 4 16.5t5.5 22t4.5 21.5t2 15q8 41 14.5 73.5t14.5 73.5q0 1 1 6.5t1 6.5v3v4q-8 -3 -11 -11.5t-7 -15.5l-2 -2q-1 -2 -4.5 -7.5t-7 -11.5t-6.5 -11t-4 -7 q-9 -14 -19.5 -27.5t-18.5 -27.5q-1 -1 -3.5 -5t-2.5 -6q-2 -3 -8 -10.5t-8 -8.5q-2 -2 -6.5 -6t-10 -8.5l-11 -9t-7.5 -5.5q-5 -5 -12.5 -4.5t-12.5 0.5t-12 -0.5t-12 4.5q-1 2 -2 3l-3 3q-2 0 -3 1q-1 0 -1 0.5t-1 0.5t-1 1q-17 25 -25 51t-8 59q0 32 5 57.5t13 56.5 q0 1 2.5 10t5 19.5t5 20t2.5 12.5q1 1 4.5 9t4.5 9q5 14 8.5 28.5t9.5 28.5q1 3 3.5 9.5t6 13.5t6.5 13.5t4 9.5q1 2 6.5 11t6.5 12q8 14 12.5 23.5t15.5 21.5h1h1l17 -8.5t14 -13.5q2 -5 6.5 -15.5t4.5 -12.5v-3v-3q0 -1 1 -1q0 -13 -8.5 -24.5t-13.5 -19.5 q-1 -2 -1.5 -3.5t-1.5 -2.5q0 -3 -3 -12.5t-4 -10.5t-1.5 -2t-2.5 -2q-2 -2 -4 -3q-5 -5 -7.5 -12.5t-6.5 -14.5q-7 -17 -14.5 -35t-14.5 -36q-3 -10 -4 -18.5t-4 -18.5q-6 -20 -12.5 -43t-7.5 -46v-9.5t0.5 -14t0.5 -14v-9.5q1 0 2 -0.5t2 -0.5q2 1 10 6t10 8q2 1 8 8t8 8 q28 26 50 59.5t42 68.5q1 1 5.5 9t9 17.5t9 18t5.5 10.5q20 38 40.5 75.5t37.5 77.5q1 4 2.5 8.5t2.5 5.5q0 1 -0.5 3t0.5 4q0 1 3 2.5t4 3.5q1 1 1 2q0 3 1 4q8 22 14.5 44.5t14.5 43.5q0 1 1 5t1 5q1 2 1.5 6.5t2.5 9.5q1 5 3 11q2 2 7 8.5t7 7.5q0 1 2 1h3q6 0 12.5 -5.5 t12 -13.5t9 -17.5t3.5 -17.5t-1 -16l-2 -16q0 -3 -1 -9t-1 -7q-1 -2 -3.5 -4t-2.5 -3q-1 -1 -3 -5q-1 -2 -2 -5q-1 -2 -2.5 -9.5t-2.5 -9.5q-1 -3 -5.5 -13.5t-5.5 -13.5q0 -2 -2 -10t-3 -9q0 -1 -3.5 -4.5l-4.5 -4.5q-5 -14 -7.5 -31.5t-7.5 -31.5q-1 -1 -3 -5t-2 -6 q-2 -3 -5 -10t-4 -12q0 -2 0.5 -7.5t-0.5 -6.5q0 -1 -2 -5.5t-2 -6.5q0 -1 -1 -5.5t-2 -9.5t-1.5 -9t-0.5 -5q-1 -1 -3 -7.5t-3 -8.5q0 -7 -3 -7v-7q-2 -16 -8.5 -31.5t-10.5 -30.5q-1 -5 -1 -10t-1 -10q-5 -22 -10 -43t-12 -42q1 -1 2.5 -3.5t1.5 -3.5v-1v-1 q-1 -1 -3.5 -2.5t-2.5 -2.5v-7q-4 -18 -7.5 -36.5t-8.5 -38.5q0 -1 -2 -9t-2 -9q-1 -2 -0.5 -10t0.5 -11q-1 -1 -3 -6t-2 -6q0 -2 -1.5 -7.5t-3 -11.5t-3 -11t-1.5 -6q-2 -11 -2 -18.5t-2 -17.5q-2 -11 -4.5 -21.5t-4.5 -21.5q-2 -22 -7 -43.5t-8 -44.5q0 -2 -1.5 -10 t-2.5 -17t-2.5 -16.5t-1.5 -8.5q0 -2 -1 -7t-1 -7q-2 -6 -4 -19t-4.5 -26.5t-6 -23.5t-8.5 -10h-1q-1 0 -1.5 1t-2.5 2l-4 2q-2 0 -6.5 1t-5.5 4q-1 2 -1.5 7.5t-2.5 5.5q0 2 -3.5 10t-3.5 10v8v0z" />
<glyph unicode="z" horiz-adv-x="458" d="M426 -5q-7 0 -24.5 1t-37 1.5t-37 1.5t-24.5 1h-28q-29 0 -57.5 -1.5t-57.5 -0.5q-3 -3 -7 -3h-12q-1 -1 -2 -1q-1 -1 -2 -1h-1q-3 0 -5 2h-56q-1 -1 -4 -1q-1 0 -2 -1q-2 0 -3 1h-2q-1 0 -1 1l-4 -2q-2 0 -3 1q-1 0 -2 1q-1 0 -1.5 -0.5t-1.5 -0.5q-1 -1 -2 -1t-3 1 t-3 1t-7.5 1t-8.5 2q-39 11 -39 47v4q1 3 6.5 6.5t12 6l13 5t10.5 4.5q37 23 72.5 47t67.5 51q2 1 11 9t10 9q2 2 12 9.5t15 10.5q3 2 4.5 2t2.5 5q3 3 14.5 13t14.5 14l25 25q1 1 5 4.5t8.5 7.5t8 7.5l4.5 4.5l1 2l2 2q1 1 4 5t6.5 8.5t6.5 8.5t4 5q3 5 10.5 16t9.5 13 q1 0 2.5 3t1.5 4q2 5 6 8.5t7 8.5q2 4 3.5 9.5t3.5 9.5q8 17 14.5 34t6.5 36q0 5 -3 12t-8 10q-4 4 -11 6t-15 3t-16 1h-13q-4 0 -14.5 -1.5t-21.5 -4t-19.5 -6t-8.5 -7.5q-11 -2 -22 -6.5t-19 -12.5q-1 -1 -2.5 -3.5t-2.5 -3.5q-7 -5 -10 -4.5t-7 -5.5q-1 -2 -1 -3 q-1 -1 -1 -2v-1q-3 -5 -5.5 -5t-2.5 -8v-2q0 -1 3.5 -3.5t4.5 -3.5q0 -1 1 -2.5t1 -2.5q6 -7 18 -13.5t12 -15.5q0 -8 -7.5 -15.5t-18.5 -7.5q-8 0 -19 8t-21.5 18.5t-19 21.5t-11.5 18q-2 3 -3 5q-2 4 -2 5v1q0 10 1.5 21.5t8.5 20.5q1 0 4 3l5 5q15 11 31.5 23.5 t35.5 20.5q2 2 12.5 5.5t12.5 3.5q2 1 8.5 4t7.5 4q2 0 10.5 0.5t9.5 1.5q4 0 14.5 2t12.5 2q3 3 5 3h1h2q11 -3 21 -3t21 -1q3 -1 15 -3.5t15 -3.5q0 -3 4 -3q1 -1 5 -3.5l8 -5t7.5 -5t4.5 -2.5q2 -2 11.5 -10.5t12.5 -11.5q11 -11 13 -26.5t2 -29.5q0 -25 -9.5 -45.5 t-22.5 -41.5q-2 -5 -5 -13t-7 -14q-11 -12 -19.5 -26t-19.5 -25q-8 -10 -16 -18t-15 -18l-88 -82q-3 -1 -11 -6.5t-11 -7.5q-4 -3 -6.5 -7t-8.5 -9q-13 -10 -26.5 -19t-25.5 -20q-5 -4 -11 -9t-13 -9q-5 -4 -14.5 -10t-9.5 -11h11.5t18.5 -0.5t18.5 -0.5h12.5q2 0 14 1t14 1 h3h2q2 0 13.5 -1t13.5 -1h9h15.5h16h9.5q1 0 9.5 -1.5t10.5 -1.5q16 -1 36 -1t40 -1t39.5 -4t35.5 -10q6 -3 11 -11t7 -13v-1q0 -8 -6 -13t-14 -5q-13 0 -26 5z" />
<glyph unicode="|" horiz-adv-x="140" d="M31 503q1 6 2.5 20.5t2.5 30.5t1.5 30.5t0.5 20.5q2 8 2.5 16.5t0.5 16.5q0 5 -0.5 11t0.5 10q1 2 3 11.5t4 10.5q0 1 -0.5 4.5t-0.5 4.5q0 5 1 12.5t9 11.5q2 2 4.5 1.5t7.5 -0.5q3 -1 11 -1.5t10 -1.5q0 -1 2.5 -2.5t3.5 -1.5l2 -1q3 -2 8.5 -6t7.5 -6q8 -10 6 -20 t-2 -19q1 -2 1.5 -7.5t0.5 -7.5q0 -6 -3.5 -9.5t-4.5 -7.5v-4.5t1 -4.5l-1 -3q-1 -1 -2 -2.5t-2 -1.5q1 -1 0 -2t-1 -2v-7t-1 -8q0 -1 -1.5 -7t-2.5 -8v-8.5t-1 -7.5v-4l-10 -91q4 -8 -0.5 -17.5t-1.5 -16.5l-2 -61q-1 0 -1 -1v-2q0 -3 -0.5 -9.5t-0.5 -13v-12v-6.5t1 -7.5 t1 -7.5q2 -1 0.5 -4.5t-1.5 -5.5q-3 -14 -1 -26.5t4 -25.5l-3 -4q-1 -15 -1 -32.5t2 -34.5v-4q0 -4 -0.5 -10.5t0.5 -7.5q-1 -1 -3 -7.5t0 -7.5q-1 -1 -0.5 -5.5t1 -9.5t1.5 -10t1 -6q2 -1 0.5 -7.5t-2.5 -8.5q-1 -5 0 -10t0 -9q0 -2 -1.5 -4t0.5 -4q0 -2 1 -4 q0 -1 0.5 -1.5t0.5 -1.5t1 -2t1 -5t-0.5 -8.5l-1 -9t-0.5 -5.5q1 -1 2 -3.5t2 -3.5t-1 -5t-2 -6v-24q0 -1 -2.5 -9t-3.5 -9q1 -1 1 -3.5t2 -3.5q0 -2 -3 -11t-3 -13q-2 -1 -6 -4.5t-5 -5.5q0 -1 -2 -6t-2 -7l-3 -2q-1 1 -5 6.5t-6 7.5q-1 1 -1 2v4q0 14 -1.5 29.5t-3.5 30.5 q-1 11 -0.5 22t0.5 23l-2 6q-4 14 -4 28t-1 28q0 2 -1 10.5t-2 18.5t-2 18.5t-1 11.5q0 5 -0.5 20t0.5 20q1 2 1.5 9t2.5 9q-2 1 -2 5q-2 38 -4.5 78.5t-1.5 78.5q0 1 0.5 5.5t-0.5 5.5q0 3 0.5 12.5t1 20.5t1 20t0.5 11q0 1 0.5 6.5t1 11.5t1 11.5t0.5 7.5v6t-1 7z" />
<glyph unicode="&#xa1;" horiz-adv-x="206" d="M254 720q0 -8 -7.5 -15t-15.5 -11q-2 -2 -12 -5t-13 -5q-5 -2 -9 -1.5t-7 -2.5h-1q-1 0 -2 -1l-2 -2l-1 -1v1q-1 0 -1.5 1.5t-1.5 1.5q-1 1 -3 2.5t-3 1.5q-1 1 -2.5 2t-2.5 2v7q0 8 3 12q2 2 9 8.5t9 8.5l2 4q1 0 4 1.5l5 2.5l4.5 9t5.5 9q3 4 10 4q10 0 13 -3.5 t8 -10.5q1 0 5.5 -6t4.5 -8q0 -1 0.5 -2.5t0.5 -3.5zM211 578q0 -1 -1.5 -5t-2.5 -6v-11q-1 -11 -3.5 -22t-4.5 -22q-2 -24 -3 -47t-6 -46q-3 -13 -6 -25.5t-8 -27.5q-1 -1 -3 -9t-4.5 -17.5t-4.5 -17.5t-2 -10q-8 -26 -16 -50.5t-16 -49.5q0 -2 -2.5 -10.5t-4.5 -17.5 t-4.5 -17t-2.5 -10q-5 -14 -10 -28.5t-10 -28.5q-3 -8 -6.5 -18t-5.5 -18q0 -2 0.5 -4.5t-0.5 -3.5q0 -2 -4.5 -14.5t-6.5 -18.5q-4 -10 -6.5 -21.5t-8.5 -19.5h-11h-11q-1 0 -6.5 6t-8.5 10q-18 19 -18 53q0 22 9.5 37.5t17.5 33.5q3 8 4.5 16t3.5 14q1 2 4 9.5t6.5 16.5 t6.5 16.5t3 9.5t1.5 6.5t3 10t2.5 10.5t1 6q5 14 11 25t11 24q0 1 1.5 5.5t3 10.5t3 11.5t2.5 8.5q9 29 19.5 56t18.5 57q1 2 3 10t4 18t4 18.5t3 10.5t2.5 4.5t1.5 3.5q5 14 8 28t8 28q0 1 1.5 5t1.5 6q1 2 5 6t4 5q2 5 4 13.5t10 8.5q2 0 5 -1t4 -2q1 -2 3.5 -9.5 t2.5 -9.5z" />
<glyph unicode="&#xa2;" horiz-adv-x="312" d="M39 37q-17 30 -21.5 54.5t-4.5 59.5v35t3 35q0 2 2 13t3 16q4 17 5.5 34t5.5 34q0 3 3 16.5t7 29t7 29t4 17.5q0 2 1 9t1 9q1 2 4 11t4 13q4 9 7.5 18.5t8.5 17.5l2 4q1 2 3 4v6q0 1 1 2t1 1.5t1 1.5q1 2 4 11.5t4 11.5t4 9t7.5 15.5t8.5 16.5l6 12q4 7 11 18t15.5 21 t18 17t18.5 7t17.5 -2.5t16.5 -5.5q13 -5 21 -12.5t10 -21.5q1 -3 2 -7t2 -9l2 -10v-29q0 -49 -13 -95q-5 -14 -11.5 -25t-12.5 -25q-8 -17 -15 -33t-24 -27q-5 -3 -8 -6t-9 -3l1 4q0 1 2.5 4t2.5 4v2q-1 0 -2.5 0.5t-2.5 -0.5l-3 -2q-1 -1 -1.5 -1t-1.5 -1t-2 -1t-4 1t-4 2 q-2 0 -8 1t-8 1q1 1 1.5 3t1.5 3t5.5 6t4.5 7q1 1 2 5t1 5t2.5 6t5.5 10t5.5 10t2.5 6q1 2 4.5 10.5t7 18t7 18t4.5 10.5q11 26 15 51.5t6 53.5q0 4 -2 6h-1q-5 0 -7.5 -3.5t-4.5 -7.5q-6 -8 -14 -14.5t-13 -14.5q-3 -6 -5.5 -13t-7.5 -13l-10 -10q-1 -2 -3 -9.5t-2 -9.5 q-6 -17 -12.5 -35t-11.5 -36l-2 -2q-1 -1 -1 -2v-1q0 -1 0.5 -6.5t-0.5 -6.5q0 -3 -2 -3q-2 -3 -4.5 -14t-3.5 -15v-10q0 -1 -2.5 -5.5t-2.5 -5.5q-4 -7 -5 -15t-3 -16q-8 -42 -14.5 -84t-6.5 -84v-8q0 -3 1 -14.5t1 -14.5q1 -5 2.5 -13t4.5 -16.5t6.5 -15.5t7.5 -10 q5 -3 7.5 -3h8.5q11 0 19.5 5.5t17.5 10.5q2 1 9.5 5t8.5 6q17 11 34 24.5t32 27.5q1 2 7.5 8t8.5 8q1 0 2 1t1.5 1t1.5 1l7 7l11 11t11.5 11t7.5 7t7.5 6t7.5 5q1 0 4.5 -0.5t3.5 0.5q1 1 3 5t2 5q3 4 8 4v-3q7 0 11 6.5t12 6.5q0 -2 -0.5 -7t-1.5 -7l-2 -4q-1 -1 -1 -1.5 t-1 -1.5l-1 -1q0 -2 -3 -5q0 -1 -1 -6.5t-1 -6.5q-1 -1 -5.5 -6.5t-5.5 -6.5q0 -1 -1 -4t-1 -4q-1 -1 -5.5 -5t-5.5 -5q-2 -3 -8 -11t-8 -10l-13.5 -13.5l-20 -20t-20.5 -19.5t-14 -13q-1 -1 -6.5 -5t-6.5 -6q-1 -1 -6.5 -7.5t-6.5 -7.5l-3 -3q-11 -7 -18.5 -13t-15 -10 t-16.5 -6.5t-22 -2.5q-22 0 -39 6.5t-33 22.5q-4 4 -4.5 7t-6.5 4zM174 520q1 6 4.5 19.5t7 29t6.5 29.5t4 19l4 16t3 15q1 6 2 11.5t2 10.5q1 2 3.5 9.5t2.5 9.5q1 1 1.5 4t0.5 4q1 6 3 12.5t4 6.5q1 0 1.5 -1.5t1.5 -3.5t2.5 -6.5t1.5 -7.5q0 -1 0.5 -3t0.5 -3l1 -2 q0 -3 0.5 -11t0.5 -11q0 -12 -2.5 -21t-4.5 -18q0 -2 -1 -8.5t-1 -7.5q-1 -6 -3 -8t-3 -6q0 -1 -0.5 -4t-0.5 -5l-1 -2l-0.5 -1t-1.5 -1q0 -1 -0.5 -1.5t-0.5 -1.5t-1.5 -7t-1.5 -7t-1.5 -6.5t-2.5 -6.5q0 -1 -1.5 -8t-1.5 -8l-1 -3l-21 -85q0 -10 -3 -16.5t-4 -15.5 l-13 -60v-1v-1q-1 -4 -2 -9.5t-2.5 -12t-2.5 -12t-1 -6.5q-1 -1 -2 -8t-1 -8t-1 -4.5t-1 -4.5q-3 -12 -5.5 -26t-4.5 -27l-1 -3q-4 -15 -7.5 -32.5t-5.5 -33.5l-1 -5q-1 -3 -2.5 -9t-1.5 -8q0 -1 -1.5 -6.5t-1.5 -6.5q-1 -1 -1.5 -5.5t-1.5 -10t-1.5 -10.5t-1.5 -6 q0 -1 -1.5 -7.5t-2.5 -8.5q-1 -4 -1.5 -9t-1.5 -10q-1 -1 -1.5 -2.5t-0.5 -3.5q-1 -3 -1 -5v-3v-2q0 -3 -2.5 -14t-3.5 -13v-5v-5q0 -2 -1.5 -5t-1.5 -4q-1 -2 -2.5 -11.5t-2.5 -11.5q0 -2 -2 -8.5t-3 -7.5q0 -1 -0.5 -3.5t-0.5 -3.5q0 -2 -2.5 -10.5t-3.5 -10.5 q-1 0 -2.5 -1t-2.5 -3l-3 -11l-1 -2v10.5v9.5q1 2 1 3v3q3 16 5.5 31t5.5 30q2 13 4 23.5t5 22.5v7q2 15 5 29t5 29q0 2 1.5 11t3.5 19t3.5 19.5t1.5 11.5q1 4 4 19t4 21q1 1 2.5 7.5t2.5 7.5v3.5v2.5q7 39 14.5 79t15.5 79q0 1 1 5t1 5q1 2 3 11.5t4 20t4 19t3 10.5 q0 2 1 7.5t2.5 11l3 11t1.5 6.5t1 6t1 7z" />
<glyph unicode="&#xa3;" horiz-adv-x="410" d="M155 258q-4 -1 0 0h1h6h10.5h10.5h6t4 1t4 1h4h6q2 0 6.5 -0.5t9.5 -0.5t9 -0.5t6 -0.5q0 -5 3 -5t4.5 1.5t4.5 1.5h4l2 -3q3 -1 11.5 -1.5t11.5 -2.5h26q1 0 1 -2.5v-3.5q0 -5 -2.5 -6t-6.5 -2l4 -9q-1 0 -3 -0.5t-3 -1.5q-54 -9 -110 -14l-19.5 -1.5t-7.5 -0.5 q-34 -4 -37 -44q-2 -12 -2.5 -17.5t-0.5 -6.5q-1 -1 -2 -4.5t-1 -4.5t-2 -7q-1 -3 -1 -5v-71q2 -2 4 -5q2 -2 4 -3.5t3 -3.5q8 -7 23.5 -8t26.5 -1h21q1 1 4 2.5t4 1.5q11 2 27.5 7.5t24.5 12.5q2 2 10 10.5t10 10.5q1 0 4 3t4 3q1 1 4.5 4t4.5 4q2 2 6.5 6t5.5 4l1 -1 q32 -21 32 -60q0 -11 -4.5 -14.5t-12.5 -10.5q-29 -26 -63 -41t-73 -15q-47 0 -123 9t3 85q0 2 -1 6.5t-1 5.5t-1 8t-1.5 15.5t-1.5 17t-2 13.5v1v1q0 1 1.5 3t1.5 4q0 1 0.5 4.5t1 8t1 8.5t0.5 5q0 2 4 4q8 30 -13.5 26.5t-24 -4t-7.5 -0.5t-11 1t-10 2q-2 1 -4 6.5t-4 12 t-3 12.5t-1 8q0 6 1 10t5 8q7 5 15 4t15 0q8 2 17 4q2 0 33.5 7t57.5 84l41 107q0 1 1 4.5t1 4.5q-1 0 2 3q1 1 1 2q0 4 -3 4q-1 0 20.5 38.5t22.5 40.5q3 8 8.5 14.5t8.5 15.5q1 1 1.5 5.5t1.5 5.5q0 1 0.5 1t0.5 1l1 1q5 7 6.5 14.5t5.5 15.5q3 5 7 11.5t7 12.5q0 1 4 8 t5 9l6 12t5 9q0 1 2.5 4t7 12.5t20.5 20.5q9 5 15 9q2 2 6 2.5t5 0.5q2 1 14.5 3t11.5 1q-2 -1 9 -1h11q3 -1 7 -2q5 -1 10 -1q2 0 6 -1.5t7 -1.5q2 0 6.5 -3.5t8.5 -6.5q3 -3 7 -6t7 -6q4 -4 2 -5.5t-1 -3.5q0 -2 -1 -5.5t-3 -5.5q-3 -2 -4 -6q-1 -2 -4 -5l-7 -8 q-3 -2 -4.5 -5.5t-4.5 -5.5q-2 -4 -5 -4q-3 -1 -4 -2l-13 -4q-3 -2 -9 -1.5t-13 1.5q-6 1 -7 2.5t-13.5 8t-27.5 -10.5l-90 -192l-5 -9.5t-11 -22.5t-12.5 -27t-11.5 -23q-37 -102 -45 -108zM283 232h7q-2 4 -5 4v-0.5t-1 -0.5l-1 -3v0z" />
<glyph unicode="&#xa5;" horiz-adv-x="415" d="M151 -348q0 26 3 48.5t8 47.5q0 2 0.5 8t1.5 13.5t1.5 14t0.5 8.5q6 42 13.5 83.5t15.5 83.5q1 6 4 16.5t5.5 22t4.5 21.5t2 15q8 41 14.5 73.5t14.5 73.5q0 1 1 6.5t1 6.5v3v4q-8 -3 -11 -11.5t-7 -15.5l-2 -2q-1 -2 -4.5 -7.5t-7 -11.5t-6.5 -11t-4 -7 q-9 -14 -19.5 -27.5t-18.5 -27.5q-1 -1 -3.5 -5t-2.5 -6q-2 -3 -8 -10.5t-8 -8.5q-2 -2 -6.5 -6t-10 -8.5l-11 -9t-7.5 -5.5q-5 -5 -12.5 -4.5t-12.5 0.5t-12 -0.5t-12 4.5q-1 2 -2 3l-3 3q-2 0 -3 1q-1 0 -1 0.5t-1 0.5t-1 1q-17 25 -25 51t-8 59q0 32 5 57.5t13 56.5 q0 1 2.5 10t5 19.5t5 20t2.5 12.5q1 1 4.5 9t4.5 9q5 14 8.5 28.5t9.5 28.5q1 3 3.5 9.5t6 13.5t6.5 13.5t4 9.5q1 2 6.5 11t6.5 12q8 14 12.5 23.5t15.5 21.5h1h1l17 -8.5t14 -13.5q2 -5 6.5 -15.5t4.5 -12.5v-3v-3q0 -1 1 -1q0 -13 -8.5 -24.5t-13.5 -19.5 q-1 -2 -1.5 -3.5t-1.5 -2.5q0 -3 -3 -12.5t-4 -10.5t-1.5 -2t-2.5 -2q-2 -2 -4 -3q-5 -5 -7.5 -12.5t-6.5 -14.5q-7 -17 -14.5 -35t-14.5 -36q-3 -10 -4 -18.5t-4 -18.5q-6 -20 -12.5 -43t-7.5 -46v-9.5t0.5 -14t0.5 -14v-9.5q1 0 2 -0.5t2 -0.5q2 1 10 6t10 8q2 1 8 8t8 8 q28 26 50 59.5t42 68.5q1 1 5.5 9t9 17.5t9 18t5.5 10.5q20 38 40.5 75.5t37.5 77.5q1 4 2.5 8.5t2.5 5.5q0 1 -0.5 3t0.5 4q0 1 3 2.5t4 3.5q1 1 1 2q0 3 1 4q8 22 14.5 44.5t14.5 43.5q0 1 1 5t1 5q1 2 1.5 6.5t2.5 9.5q1 5 3 11q2 2 7 8.5t7 7.5q0 1 2 1h3q6 0 12.5 -5.5 t12 -13.5t9 -17.5t3.5 -17.5t-1 -16l-2 -16q0 -3 -1 -9t-1 -7q-1 -2 -3.5 -4t-2.5 -3q-1 -1 -3 -5q-1 -2 -2 -5q-1 -2 -2.5 -9.5t-2.5 -9.5q-1 -3 -5.5 -13.5t-5.5 -13.5q0 -2 -2 -10t-3 -9q0 -1 -3.5 -4.5l-4.5 -4.5q-5 -14 -7.5 -31.5t-7.5 -31.5q-1 -1 -3 -5t-2 -6 q-2 -3 -5 -10t-4 -12q0 -2 0.5 -7.5t-0.5 -6.5q0 -1 -2 -5.5t-2 -6.5q0 -1 -1 -5.5t-2 -9.5t-1.5 -9t-0.5 -5q-1 -1 -3 -7.5t-3 -8.5q0 -7 -3 -7v-7q-2 -16 -8.5 -31.5t-10.5 -30.5q-1 -5 -1 -10t-1 -10q-5 -22 -10 -43t-12 -42q1 -1 2.5 -3.5t1.5 -3.5v-1v-1 q-1 -1 -3.5 -2.5t-2.5 -2.5v-7q-4 -18 -7.5 -36.5t-8.5 -38.5q0 -1 -2 -9t-2 -9q-1 -2 -0.5 -10t0.5 -11q-1 -1 -3 -6t-2 -6q0 -2 -1.5 -7.5t-3 -11.5t-3 -11t-1.5 -6q-2 -11 -2 -18.5t-2 -17.5q-2 -11 -4.5 -21.5t-4.5 -21.5q-2 -22 -7 -43.5t-8 -44.5q0 -2 -1.5 -10 t-2.5 -17t-2.5 -16.5t-1.5 -8.5q0 -2 -1 -7t-1 -7q-2 -6 -4 -19t-4.5 -26.5t-6 -23.5t-8.5 -10h-1q-1 0 -1.5 1t-2.5 2l-4 2q-2 0 -6.5 1t-5.5 4q-1 2 -1.5 7.5t-2.5 5.5q0 2 -3.5 10t-3.5 10v8zM0 -42q0 5 1 8.5t8 7.5q9 4 21 3.5t23 0.5q13 1 26 2.5t27 2.5q1 0 7.5 0.5 l13 1l13 1t8.5 0.5q1 0 10 0.5t19.5 2t19.5 2.5t12 1h4.5h7.5h7h4q2 0 11 1t11 1h8.5h15.5h16h9t6 0.5t6 0.5h6h9h9.5h14t14 -0.5t8.5 -0.5q0 -4 6 -4q4 0 6 1t6 1h6l3 -2q5 -1 17.5 -1.5t17.5 -2.5h39q3 0 3 -2v-3q0 -4 -4 -5.5t-11 -1.5l6 -8q-1 0 -4 -0.5t-5 -1.5 q-81 -8 -165 -12q-19 -1 -37.5 -2t-38.5 -2q-8 -1 -17.5 -2.5t-17.5 -3.5q-10 -1 -18 -1.5t-18 -2.5q-12 -1 -24.5 -3.5t-25.5 -4.5q-1 0 -8.5 -1t-8.5 -1q-6 -1 -9.5 -2.5t-6.5 -2.5t-7 -2t-11 -1t-16 1.5l-15 2.5q-4 0 -7 5t-6 10.5t-4 11t-1 7.5zM444 -29h12q-4 3 -8 3 h-1h-1h-2v-3zM-8 -126q0 5 1 8.5t8 7.5q9 4 21 3.5t23 0.5q13 1 26 2.5t27 2.5q1 0 7.5 0.5l13 1l13 1t8.5 0.5q1 0 10 0.5t19.5 2t19.5 2.5t12 1h4.5h7.5h7h4q2 0 11 1t11 1h8.5h15.5h16h9t6 0.5t6 0.5h6h9h9.5h14t14 -0.5t8.5 -0.5q0 -4 6 -4q4 0 6 1t6 1h6l3 -2 q5 -1 17.5 -1.5t17.5 -2.5h39q3 0 3 -2v-3q0 -4 -4 -5.5t-11 -1.5l6 -8q-1 0 -4 -0.5t-5 -1.5q-81 -8 -165 -12q-19 -1 -37.5 -2t-38.5 -2q-8 -1 -17.5 -2.5t-17.5 -3.5q-10 -1 -18 -1.5t-18 -2.5q-12 -1 -24.5 -3.5t-25.5 -4.5q-1 0 -8.5 -1t-8.5 -1q-6 -1 -9.5 -2.5 t-6.5 -2.5t-7 -2t-11 -1t-16 1.5l-15 2.5q-4 0 -7 5t-6 10.5t-4 11t-1 7.5zM436 -113h12q-4 3 -8 3h-1h-1h-2v-3z" />
<glyph unicode="&#xa8;" horiz-adv-x="456" d="M153 778q-1 -1 7 -1h8q2 -1 5 -2t7 -1q1 0 4 -2t5 -2t5 -3.5t6 -7.5q2 -3 5 -6t5 -6q3 -5 1.5 -6.5t-0.5 -3.5q0 -2 -1 -6t-2 -6q-2 -2 -3 -6q-1 -3 -3 -6l-5 -8q-2 -3 -3 -6.5t-3 -5.5q-2 -4 -4 -5t-3 -2l-9 -4q-2 -2 -6.5 -1.5t-9.5 1.5q-4 1 -14.5 5t-13.5 8 q-2 3 -5.5 6.5t-6.5 7.5l-3.5 7t-3.5 5t-3 6t-4 9q-4 5 0.5 7t5.5 4q0 1 4 5q2 1 3 3l9 15q1 2 4 3t4 1q1 1 10 3t8 1zM287 775q-1 -1 7 -1h8q2 -1 5 -2t7 -1q1 0 4 -2t5 -2t5 -3.5t6 -7.5q2 -3 5 -6t5 -6q3 -5 1.5 -6.5t-0.5 -3.5q0 -2 -1 -6t-2 -6q-2 -2 -3 -6 q-1 -3 -3 -6l-5 -8q-2 -3 -3 -6.5t-3 -5.5q-2 -4 -4 -5t-3 -2l-9 -4q-2 -2 -6.5 -1.5t-9.5 1.5q-4 1 -14.5 5t-13.5 8q-2 3 -5.5 6.5t-6.5 7.5l-3.5 7t-3.5 5t-3 6t-4 9q-4 5 0.5 7t5.5 4q0 1 4 5q2 1 3 3l9 15q1 2 4 3t4 1q1 1 10 3t8 1z" />
<glyph unicode="&#xa9;" horiz-adv-x="436" d="M11 450q0 30 19 58t42 54l6 6l7 7q3 2 8.5 6.5t11.5 9t10.5 8t5.5 4.5q1 2 6 5t11 6.5t12 6.5t7 5q2 0 5.5 2t8 4t9 4.5t7.5 3.5q6 3 14 6t13 7q-8 6 -21.5 7t-21.5 5q-1 0 -2.5 1.5t-1.5 2.5q-1 1 -5.5 3.5l-4.5 2.5v2v2q0 2 3.5 3.5t3.5 2.5q1 1 0.5 4.5l-0.5 3.5 q1 1 3.5 2.5t3.5 2.5h14q60 0 106 -14t77.5 -38t47.5 -55t16 -65q0 -19 -3 -38.5t-10 -37.5q-2 -1 -2.5 -2.5t-0.5 -2.5q-2 -1 -4 -5.5t-3 -6.5q-11 -24 -35 -43.5t-54 -34.5q-9 -4 -20 -7.5t-21 -6.5l-4 -1.5t-5 -2.5q-11 -3 -32 -5.5t-33 -2.5h-5q-5 0 -13 0.5t-16.5 0.5 t-14.5 0.5t-7 0.5q-5 0 -11.5 0.5t-9.5 1.5q-2 0 -10.5 2.5t-12.5 3.5q-2 1 -7 2.5t-10.5 2.5t-10 3t-5.5 2q-2 0 -6 2l-4 2q-29 22 -40 45.5t-11 51.5zM65 440q0 -16 7 -27t20.5 -18.5t32.5 -12t42 -6.5h5q45 0 80 9t61.5 25t44.5 37.5t28 48.5q3 7 3 18v20v18q0 1 -1 4.5 t-1.5 7t-2 6.5l-2.5 5q-1 1 -3 4t-3 5q-1 0 -8 0.5t-8 0.5q-5 1 -7 4.5t-4 8t-9 7.5t-23 3h-5l-6 -3q-1 0 -4.5 1.5t-4.5 1.5h-7q-3 0 -10.5 -1t-14 -2t-12.5 -3t-10 -3l-3 -2q-2 0 -5.5 -0.5t-3.5 -1.5q-3 -1 -14 -4t-12 -4q-5 -2 -14.5 -8t-20 -12.5t-20.5 -12t-12 -8.5 q-18 -12 -30 -27.5t-23 -29.5q-9 -13 -14.5 -24.5t-5.5 -24.5zM150 413q-12 8 -14.5 14.5t-2.5 15.5v9.5t2 9.5l1.5 3t1.5 4q3 5 4 9.5t3 8.5q0 1 2 4.5t4.5 7.5t4.5 7.5t3 4.5q0 1 0.5 3l0.5 2q1 1 2.5 3t2.5 4q3 2 5 4.5t5 4.5l2 1q0 1 2 1v2h1v0.5t1 0.5l2 3t3 3l2.5 2.5 t4.5 4t5.5 4.5t4.5 3q3 2 7 5t9.5 5.5t11.5 4.5t12 2t11.5 -1t10.5 -1q9 -2 14 -3.5t6 -5.5q1 -1 1.5 -2t0.5 -2q1 -2 2 -3v-8q0 -13 -9 -25q-3 -4 -7 -6.5t-8 -6.5q-5 -4 -9.5 -8.5t-15.5 -7.5q-3 -1 -5 -1.5t-6 -0.5l1 1l1.5 0.5t1.5 1.5v1h-1.5h-1.5l-2 -1q-1 -1 -1.5 -1 h-0.5h-1h-3t-3 1q-1 0 -4.5 0.5t-5.5 0.5q1 0 1.5 0.5l0.5 0.5q1 0 4 1.5l3 1.5q0 1 0.5 2l0.5 1l2 1.5t3.5 3t3.5 2.5l2 1q1 1 3 3.5t4 4.5t4 4.5t3 2.5q7 7 9.5 14t4.5 14q0 1 -2 2v0q-3 0 -5 -1t-2 -2l-10 -4t-8 -4q-2 -1 -3.5 -3t-4.5 -4l-7 -2q0 -1 -1.5 -3t-1.5 -3 l-8.5 -8.5t-6.5 -9.5l-2 -1h-1v0q0 -1 0.5 -2t-0.5 -2h-1q-1 -1 -2.5 -4t-2.5 -4v-3l-1.5 -1.5l-1.5 -1.5q-3 -2 -3.5 -4t-1.5 -4q-6 -11 -10 -22t-4 -22v-2q0 -1 1 -4t1 -4t1 -3t3 -4.5t4.5 -4.5t4.5 -2q3 -2 4.5 -2h6.5q7 0 12.5 2t10.5 3q2 0 6.5 1t5.5 2q10 3 21.5 6.5 t20.5 7.5q1 0 5.5 1.5t4.5 2.5h2h0.5h1.5q1 1 4.5 2.5l7 3t7 2.5t5.5 2q1 1 4.5 2t4.5 1h3.5h2.5q1 0 2 1t1 2q2 1 5 1v-1q5 0 7.5 2t7.5 2q0 -1 -0.5 -2.5t-1.5 -1.5l-1 -1l-1 -1v0h-1q0 -1 -2 -2l-0.5 -1.5l-0.5 -1.5q-1 -1 -4 -2t-3 -2l-0.5 -0.5t-0.5 -1.5q-1 0 -3.5 -1 t-3.5 -2q-2 0 -6 -2t-5 -3q-2 -1 -8 -3.5t-13 -5.5t-13.5 -5t-9.5 -3q0 -1 -3.5 -2t-4.5 -2q-1 0 -4.5 -1.5t-4.5 -1.5l-2 -1q-6 -2 -11 -3.5t-9.5 -2.5t-10.5 -1.5t-15 -0.5q-14 0 -25 1.5t-22 5.5q-2 1 -2 2t-4 1z" />
<glyph unicode="&#xaa;" horiz-adv-x="212" d="M133 476q0 10 0.5 19.5t0.5 19.5h-5l-6 -0.5t-9 -0.5q-2 -1 -9.5 -1.5t-15 -2t-13.5 -2l-6 -0.5q-2 -2 -0.5 -3t-3.5 -2v-27q0 -1 -4 -2.5t-9 -1.5h-5q-2 1 -4 1h-4l-2.5 0.5l-2.5 0.5q-2 1 -10.5 3t-10.5 3v8v7t3 7l2 1q0 1 1 2q0 1 -1 3t-2 3q-3 2 -7.5 3t-9 2.5 t-7.5 3t-3 4.5q0 2 5 2t10 1h10.5h8.5q1 5 6 9.5t8 9.5t4.5 10t2.5 11q2 3 5.5 5t5.5 5v3q1 1 2 1l2 2q0 1 -1 3.5t1 3.5l0.5 1t0.5 2q1 1 1.5 5t1.5 5q0 1 3 2.5t3 2.5q1 0 1.5 1.5t0.5 2.5v5l2 1.5t3 2.5q3 2 6.5 3t3.5 3v0q0 1 -1 1.5l-1 0.5v1v0l1 1l1 1q0 1 -2 2l2 9 q5 0 7.5 3.5t3.5 4.5l6 9h2.5t1.5 1v1h-2v3q1 0 1.5 1.5t0.5 2.5v3q2 1 6.5 5l4.5 4l5 1q0 1 1.5 4.5t2.5 4.5q0 1 0.5 3l0.5 2q1 0 1.5 0.5t2.5 0.5h5.5h6.5h13.5t13.5 -2q6 0 8.5 -2.5t5.5 -4.5q1 -1 2.5 -4t1.5 -4t0.5 -3.5l1 -5t0.5 -5.5v-4v-49v-49v-4t-0.5 -7t-1 -7.5 t-0.5 -4.5v-1q1 0 4 -0.5l3 -0.5q2 -3 1.5 -5t2.5 -4l-11 -6l-1 -3t-1.5 -6t-1 -7t-0.5 -6v-14v-16q1 -4 3 -7.5t2 -8.5l-0.5 -2t-0.5 -3q-1 -1 -4.5 -2t-5.5 -1h-4h-7h-3l-1 1q-20 1 -24.5 3.5t-7.5 7.5v16zM117 603q-8 -12 -13.5 -24.5t-12.5 -24.5q0 -1 -2 -3l-2 -2v-7 l-2 -1.5t-3 -1.5q0 -1 -0.5 -4t-0.5 -4v-2q5 0 10.5 0.5t11.5 0.5h1l4 -1h1h3h2t1.5 0.5t1.5 0.5q8 1 15.5 1.5t7.5 2.5v10l0.5 2t1.5 4t1.5 3.5t0.5 2.5v35q2 2 2 5q0 2 -2 3v33l-4 6v0h-2h-2l-1 -1q-1 -2 -3 -7t-3 -6q-1 -4 -3.5 -6.5t-4.5 -5.5v-2l-1 -0.5t-1 -1.5 t0.5 -2.5t-2.5 -2.5z" />
<glyph unicode="&#xae;" horiz-adv-x="408" d="M11 455q0 30 17.5 57t38.5 53l6 6t6 7q4 2 8.5 6.5t10 8.5t10 7.5t5.5 4.5q1 2 5.5 5t10 6.5t11 6.5t6.5 4q2 1 5 3t7.5 4t8.5 4t7 3q5 3 12.5 6t12.5 7q-8 6 -20.5 7t-19.5 4l-2.5 2.5t-1.5 2.5q-1 1 -5 3t-4 3v2v2q0 1 3.5 3t3.5 3v3.5v3.5q0 1 2.5 2.5t3.5 2.5h13 q55 0 97.5 -13.5t72 -37.5t44 -54t14.5 -64q0 -18 -3 -37t-9 -37q-2 0 -2.5 -1.5t-0.5 -2.5q-2 -1 -4 -5.5t-2 -6.5q-11 -24 -33 -43t-49 -34q-9 -4 -19 -7l-20 -6q0 -1 -3.5 -2.5t-4.5 -1.5q-10 -3 -29.5 -5.5t-30.5 -2.5h-4q-5 0 -12.5 0.5t-15.5 0.5t-13.5 0.5t-6.5 0.5 q-4 0 -10 0.5t-9 1.5q-1 0 -9 2.5t-12 3.5q-2 0 -6.5 2t-9.5 3t-9.5 2.5t-5.5 2.5q-1 0 -5 2q-2 1 -4 1q-27 22 -37 45t-10 50zM61 446q0 -16 6.5 -27t19 -18t30 -11.5t38.5 -6.5h5q41 0 73.5 8.5t57 24t41 37t25.5 47.5q3 8 3 18.5v18.5v18q0 1 -0.5 4.5t-1.5 6.5t-2 6.5 t-2 5.5q-1 1 -3 4t-3 4q-1 0 -7.5 1t-7.5 1q-5 1 -6.5 4t-3.5 7.5t-8 7.5t-22 3h-4l-5 -3q-1 0 -4.5 1.5t-4.5 1.5h-6q-3 0 -10 -1t-13 -2t-11.5 -2.5t-8.5 -2.5l-3 -3q-2 0 -5 -0.5t-4 -1.5q-3 -1 -12.5 -3.5t-11.5 -3.5q-4 -2 -12.5 -8t-18.5 -12.5t-19.5 -12t-11.5 -7.5 q-16 -13 -27 -27.5t-22 -29.5q-8 -12 -13 -23.5t-5 -23.5zM11 455q0 30 17.5 57t38.5 53l6 6t6 7q4 2 8.5 6.5t10 8.5t10 7.5t5.5 4.5q1 2 5.5 5t10 6.5t11 6.5t6.5 4q2 1 5 3t7.5 4t8.5 4t7 3q5 3 12.5 6t12.5 7q-8 6 -20.5 7t-19.5 4l-2.5 2.5t-1.5 2.5q-1 1 -5 3t-4 3v2 v2q0 1 3.5 3t3.5 3v3.5v3.5q0 1 2.5 2.5t3.5 2.5h13q55 0 97.5 -13.5t72 -37.5t44 -54t14.5 -64q0 -18 -3 -37t-9 -37q-2 0 -2.5 -1.5t-0.5 -2.5q-2 -1 -4 -5.5t-2 -6.5q-11 -24 -33 -43t-49 -34q-9 -4 -19 -7l-20 -6q0 -1 -3.5 -2.5t-4.5 -1.5q-10 -3 -29.5 -5.5 t-30.5 -2.5h-4q-5 0 -12.5 0.5t-15.5 0.5t-13.5 0.5t-6.5 0.5q-4 0 -10 0.5t-9 1.5q-1 0 -9 2.5t-12 3.5q-2 0 -6.5 2t-9.5 3t-9.5 2.5t-5.5 2.5q-1 0 -5 2q-2 1 -4 1q-27 22 -37 45t-10 50zM61 446q0 -16 6.5 -27t19 -18t30 -11.5t38.5 -6.5h5q41 0 73.5 8.5t57 24t41 37 t25.5 47.5q3 8 3 18.5v18.5v18q0 1 -0.5 4.5t-1.5 6.5t-2 6.5t-2 5.5q-1 1 -3 4t-3 4q-1 0 -7.5 1t-7.5 1q-5 1 -6.5 4t-3.5 7.5t-8 7.5t-22 3h-4l-5 -3q-1 0 -4.5 1.5t-4.5 1.5h-6q-3 0 -10 -1t-13 -2t-11.5 -2.5t-8.5 -2.5l-3 -3q-2 0 -5 -0.5t-4 -1.5q-3 -1 -12.5 -3.5 t-11.5 -3.5q-4 -2 -12.5 -8t-18.5 -12.5t-19.5 -12t-11.5 -7.5q-16 -13 -27 -27.5t-22 -29.5q-8 -12 -13 -23.5t-5 -23.5zM127 456q-1 1 -2 1.5t-3 0.5q0 1 -2.5 1.5l-2.5 0.5q-3 1 -5.5 3t-2.5 3q0 2 3 2.5t6.5 1t6.5 0.5h3q5 8 5.5 15.5t3.5 14.5q2 7 5 12.5t5 11.5v3l2 1 v2t1 2l-0.5 1.5t0.5 1.5q0 1 0.5 1t0.5 1q2 2 1.5 4.5t1.5 5.5q1 1 2 1.5t3 0.5h3.5t2.5 1v0v0q0 1 1 1l1.5 1l3 2t3.5 2l2 1l1 1l2 2l2 2l1 1q2 1 8 3.5t13 5t14 4t14 1.5q11 0 23 -2.5t20 -6.5q4 -2 6.5 -4.5t4.5 -6t3 -6t1 -5.5q0 -7 -2.5 -13.5t-6.5 -12.5l-1.5 -1.5 t-1.5 -2.5t-2 -2.5t-2 -2.5v-2q-2 -2 -4.5 -4t-4.5 -4q-20 -20 -63 -33q-1 -1 -3.5 -1.5t-6 -1.5t-6 -1.5t-3.5 -1.5h-2q0 -1 0.5 -1.5t1.5 -0.5t3.5 -1t2.5 -2q2 -1 5 -1t5 -1l1 -0.5t2 -0.5t3.5 -1t3.5 -1t4.5 -0.5t4.5 -0.5t3 -1t4.5 -1.5t5 -1.5t3.5 -1t3 -0.5t2 -1.5 l3.5 -0.5t7 -1.5t6.5 -2t4 -1l2 -1q1 0 5 -1l8 -2t8 -2.5t5 -1.5q2 -1 4 -1.5t4 -1.5t4 -1.5t3 -1.5l2.5 -1.5t3.5 -2.5v0q0 -2 -3.5 -2.5t-5.5 -0.5h-4t-3 1l-7 3q-7 2 -13.5 2.5t-12.5 2.5l-5 2q-1 0 -3.5 0.5t-3.5 0.5l-6 2l-6 2q-6 2 -12 3l-12 2q0 1 -1.5 1.5l-1.5 0.5 q-1 0 -4 0.5l-6 1l-6 1t-4 0.5q-4 1 -7.5 2t-7.5 1q-1 0 -1 -1l-0.5 -1t-1.5 -1q0 -2 0.5 -5t0.5 -7t-0.5 -7.5t-0.5 -5.5q0 -1 -0.5 -3.5t-0.5 -3.5t-4 -2t-8 -1q-3 0 -6.5 0.5t-6.5 1t-5.5 1.5t-3.5 2q-6 10 -6.5 21t-1.5 21zM173 476h2q1 0 3 1l2.5 1l5 2t5 1.5t3.5 0.5 l4 2t5.5 2t5.5 2.5l2 1.5l6 4q1 1 2.5 1.5t3.5 2t3.5 2.5t2.5 1v0l1 1h1q2 3 4.5 5.5l5.5 5.5v0v0q0 1 1 1q6 8 10.5 15.5t4.5 16.5q0 1 -0.5 2.5l-0.5 1.5v1t-1 1h-1v1v3l-1.5 1.5t-1.5 2.5q-1 1 -3 2.5t-9 1.5q-5 0 -8 -0.5t-7 -1.5q-10 -4 -14.5 -6.5t-9.5 -6.5 q-2 -2 -4.5 -3.5t-3.5 -2.5q0 -1 -1 -2.5t-3 -3t-3 -3.5t-1 -3q-1 -1 -2 -3t-2 -2q-1 -4 -2 -8.5t-2 -8.5v-6q0 -1 -0.5 -1.5l-0.5 -0.5v-7h-2v-18z" />
<glyph unicode="&#xb1;" horiz-adv-x="400" d="M148 292q1 3 2.5 10t2 15t1.5 15.5t1 10.5q2 3 2.5 7.5t0.5 8.5q0 3 -0.5 6t0.5 4q1 2 3.5 6.5t4.5 5.5l-0.5 2l-0.5 2q0 2 1 6t10 6q2 1 4.5 0.5t8.5 -0.5q3 0 11.5 -0.5t10.5 -0.5l3 -1t4 -1h2q4 -2 9.5 -4t7.5 -3q9 -5 7 -9.5t-2 -9.5q1 -1 1.5 -3.5t0.5 -4.5t-4 -3.5 t-5 -4.5v-2t1 -2l-1 -2q-1 0 -2 -1l-1 -1l-1 -0.5t-1 -1.5v-3.5t-1 -3.5q0 -1 -1.5 -4t-2.5 -3v-4.5t-1 -4.5v-1l-12 -46q5 -4 0 -8.5t-2 -8.5l-2 -30q-1 0 -1 -1v-1q0 -1 -0.5 -4.5t-0.5 -6.5v-5.5v-3.5t1 -4l1 -3q2 -1 0.5 -3l-1.5 -2q-3 -8 -1 -14t4 -13l-3 -1 q-1 -8 -1 -16.5t2 -17.5v-1q0 -3 -0.5 -6.5t0.5 -3.5q-1 0 -3 -3.5t1 -3.5q-2 -1 -1 -3t1 -4.5t1 -5l1 -2.5q2 -1 0.5 -4.5t-2.5 -4.5q0 -2 0.5 -4.5t-0.5 -4.5l-1.5 -1.5t1.5 -2.5v-2l0.5 -0.5l0.5 -0.5q0 -1 1 -2q1 0 1 -2t-0.5 -4.5t-1 -4.5t-0.5 -3q1 0 2 -1l2 -2 q1 0 -1 -2t-2 -4v-11q0 -1 -2.5 -4.5t-3.5 -4.5q1 -1 1 -2t3 -1q0 -1 -3.5 -5.5t-3.5 -7.5q-3 0 -7.5 -2t-5.5 -3l-2 -2.5t-2 -3.5l-3 -1q-1 1 -5.5 3.5t-6.5 3.5q-1 0 -1 1v2q0 7 -1.5 14.5t-4.5 15.5q-1 5 -0.5 11t0.5 11l-2 4q-5 6 -5 13v14q0 1 -1 5t-2 9t-2 9t-1 6 q0 3 -0.5 10.5t0.5 10.5q1 0 1.5 3.5t2.5 5.5q-2 0 -2 2q-2 19 -5 39t-2 39l0.5 2.5t-0.5 3.5q0 1 0.5 5.5t1 10t1.5 10t1 5.5t0.5 3.5t1 5.5l1 6t0.5 4v2.5t-1 3.5zM-19 207q0 6 1.5 10t6.5 8q9 5 19.5 4t20.5 0q11 2 22.5 4t23.5 3q1 0 6.5 0.5t11.5 1t11.5 1t7.5 0.5 q1 0 9 0.5t17.5 2t17.5 3t10 1.5h4h6.5h6.5h3q2 0 10 1t9 1h8h13.5h14.5h8t5.5 1l4.5 1h6h8q2 0 8 -0.5t12.5 -0.5t12 -0.5t7.5 -0.5q0 -5 5 -5q4 0 5.5 1.5t5.5 1.5h6l2 -3q5 -1 16 -1.5t15 -2.5h34q2 0 2 -2.5v-3.5q0 -5 -3.5 -6t-8.5 -2l5 -9q-1 0 -4 -0.5t-4 -1.5 q-72 -9 -145 -14q-18 -1 -34 -2t-34 -2q-7 -1 -15 -3t-15 -4q-9 -2 -16 -2.5t-16 -1.5q-11 -2 -22 -5t-22 -5q-1 0 -7.5 -0.5t-8.5 -0.5q-4 -2 -7.5 -3.5t-6 -3t-6 -2t-9.5 -0.5q-7 0 -14.5 1t-13.5 2q-3 1 -5.5 6.5t-5 12t-4 12.5t-1.5 8zM373 222h10q-3 4 -7 4 q-1 0 -1 -0.5v-0.5h-2v-3zM-11 15q0 6 1.5 10t6.5 8q9 5 19.5 4t20.5 0q11 2 22.5 4t23.5 3q1 0 6.5 0.5t11.5 1t11.5 1t7.5 0.5q1 0 9 0.5t17.5 2t17.5 3t10 1.5h4h6.5h6.5h3q2 0 10 1t9 1h8h13.5h14.5h8t5.5 1l4.5 1h6h8q2 0 8 -0.5t12.5 -0.5t12 -0.5t7.5 -0.5q0 -5 5 -5 q4 0 5.5 1.5t5.5 1.5h6l2 -3q5 -1 16 -1.5t15 -2.5h34q2 0 2 -2.5v-3.5q0 -5 -3.5 -6t-8.5 -2l5 -9q-1 0 -4 -0.5t-4 -1.5q-72 -9 -145 -14q-18 -1 -34 -2t-34 -2q-7 -1 -15 -3t-15 -4q-9 -2 -16 -2.5t-16 -1.5q-11 -2 -22 -5t-22 -5q-1 0 -7.5 -0.5t-8.5 -0.5 q-4 -2 -7.5 -3.5t-6 -3t-6 -2t-9.5 -0.5q-7 0 -14.5 1t-13.5 2q-3 1 -5.5 6.5t-5 12t-4 12.5t-1.5 8zM381 30h10q-3 4 -7 4q-1 0 -1 -0.5v-0.5h-2v-3z" />
<glyph unicode="&#xb4;" horiz-adv-x="504" d="M170 717q-3 2 -5.5 5t-0.5 9q0 7 6.5 11.5t8.5 9.5q6 8 10.5 14.5t11.5 13.5l3 3t5.5 6.5t5 6t3.5 4.5q1 1 4 5.5t7 10t8 10t5 5.5l1.5 2t4 4t3 3t1.5 2t4 5t5 6l3.5 3.5t7 6.5t7 7.5t4.5 4.5q-1 1 1.5 3.5l2.5 2.5l2 3l5 4q1 1 4.5 4t7 5.5t6.5 6t5 4.5q3 -3 4 0 q2 1 2.5 3t1.5 3l3 4l2 -1q4 3 9.5 7.5t10.5 6.5l17 16q1 2 2.5 0l1.5 -2q3 -2 2 -4.5t-3 -6.5l8 -2l-1.5 -2t-1.5 -3q-31 -41 -66 -82q-9 -8 -17 -17t-16 -20q-2 -4 -5.5 -9.5t-5.5 -7.5q-4 -7 -7 -11t-6 -9q-5 -7 -8.5 -14t-9.5 -13q0 -1 -3 -5t-4 -5q-1 -3 -2 -4.5 t-1 -4.5t-1.5 -5.5t-4.5 -4.5q-4 -5 -9 -7.5t-8 -4.5q-3 -1 -7 0.5t-9 3.5t-9.5 5t-5.5 5zM362 924l6 5q-5 0 -6 -2q-1 0 -0.5 -0.5l0.5 -0.5h-2z" />
<glyph unicode="&#xb8;" horiz-adv-x="244" d="M125 2q2 2 5.5 0.5t5.5 -2.5q3 -2 4.5 -6.5t3.5 -8.5q4 -8 7.5 -15.5t6.5 -13.5q2 -4 2.5 -7.5t2.5 -7.5q2 -3 4.5 -5.5t4.5 -6.5q-1 -1 -0.5 -2t1.5 -2l2 -2.5t2 -3.5q1 -3 1 -6.5t2 -6.5q0 -1 2.5 -3l2.5 -2q1 -2 2 -4.5t3 -4.5q0 -1 2 -3t2 -3q1 -3 2 -5l2 -4 q4 -7 7.5 -13.5t6.5 -12.5q3 -3 3 -5l2 -3l1 -2t2 -3q0 -1 1.5 -4t2.5 -4l1 -1t1 -2q2 -4 3.5 -8.5t2.5 -8.5q0 -1 1.5 -4.5l1.5 -3.5q0 -1 0.5 -3l0.5 -2q0 -1 1.5 -5.5t1.5 -5.5q2 0 2 -2.5t-1 -2.5q1 -8 -3 -16.5t-11 -14.5q-4 -3 -7.5 -4.5t-6.5 -4.5q-1 0 -2 -1t-1 -2 q-1 0 -3 -0.5t-3 -0.5l-1.5 -0.5t-1.5 -1.5q-2 0 -5 -1t-5 -2q-16 -4 -35 -4.5t-36 3.5q-24 5 -43 11.5t-38 17.5q-5 4 -8.5 7.5l-6.5 6.5q-1 0 -3 1.5t-3 1.5q0 1 -1 2l-2 2q-1 0 -2 1t-1 2l-10 10t-10 11q0 1 -1.5 2l-1.5 1q-5 6 -4.5 12.5t4 12.5t8.5 11.5t10 9.5h2l1 1 q5 3 9.5 6t8.5 6q5 3 12 6.5t14 -0.5q4 -2 3.5 -5.5t-2.5 -5.5l-2 -1l-1.5 -0.5t-2.5 -1.5q-3 -1 -7.5 -4t-7.5 -6q-4 -3 -7.5 -7.5t-3.5 -8.5q-1 -3 -1 -6t3 -5q1 -2 2.5 -3.5t1.5 -3.5q1 0 3 -2.5t4 -5.5t4 -5l3 -3q1 0 2 -1l2 -2l2 -3q7 -5 12.5 -10.5t12.5 -9.5t14.5 -6 t14.5 -5q5 -1 9 -2.5t8 -3.5l3.5 -0.5t7 -2t6.5 -2t4 -0.5q6 -2 13.5 -2h14.5h9.5t9.5 2q1 0 5.5 1.5t5.5 2.5v0l1 1q0 1 2 4.5t2 4.5v2q-1 1 0 1.5t1 1.5q-1 18 -7.5 33.5t-14.5 32.5l-9.5 19t-9.5 18q-7 12 -13.5 22.5t-10.5 22.5v1.5v0.5q-1 5 -5 10t-5 11q-1 2 -2 6 t-2.5 8t-2 7.5t-1.5 4.5v4.5t-1 4.5q-1 0 -1 1.5v1.5v1v1h2l1 -1v1h1q-1 3 -2 6.5t0 6.5q0 1 1 1v1h1q0 1 0.5 3.5t1.5 2.5z" />
<glyph unicode="&#xba;" horiz-adv-x="212" d="M5 498q0 7 2 12.5t5 11.5q0 1 1.5 5l1.5 4q1 4 3.5 8.5t3.5 8.5l23 37q5 4 7.5 8t5.5 8v0q0 1 0.5 1t0.5 1q3 2 5 5.5t4 6.5l25 25q5 2 5 4v0q-2 0 -2 1h-1l-1 1h1l9 6h-1q-4 0 -8 -1.5t-7 -2.5h-1v1q3 1 5 2q3 0 5 1l4 2q1 0 4.5 1t4.5 1v1q-9 0 -18 -2.5t-17 -5.5 q-1 0 -2.5 -1t-2.5 -1h-2q0 4 4.5 6t10.5 4l3 1.5t4 1.5v0h1h1l1 1v0q2 0 2.5 -0.5t2.5 -0.5q3 0 2 1.5t4 2.5q4 0 9.5 0.5t10.5 1.5q0 1 1 1v0q10 7 20.5 13t25.5 9q2 0 4 1h2q13 0 24 -3t20 -8.5t14.5 -12t5.5 -13.5q0 -4 -1.5 -6.5t-9.5 -2.5q-3 0 -5.5 1t-5.5 3 q-4 3 -4.5 5t-0.5 4t-1 4t-5 3q-2 2 -4 2q-1 0 -2.5 0.5t-2.5 0.5h-2h-2h-2h-3h-3t-2.5 -1t-2.5 -2q-1 0 -6 -0.5t-6 -0.5q-2 -1 -6 -4t-5 -4q1 0 3 -0.5t3 -0.5q17 -7 24 -18.5t9 -22.5v-2.5t0.5 -6t0.5 -6.5v-5v-2v0q-1 -9 -2 -17t-4 -16q0 -1 -1 -2.5t-1.5 -4t-1.5 -4.5 t-1 -3l-7 -21q-1 -3 -3 -4t-4 -3l-2 -6t-4 -6l-1 -1l-2 -2q-5 -3 -8.5 -7t-7.5 -8q-14 -11 -30 -19.5t-38 -14.5h-6.5h-6.5h-11.5t-11.5 2q-20 7 -30 18.5t-10 25.5zM38 488q0 -1 1 -4t1 -5q1 -1 3 -3.5t5 -3.5h5q15 0 28.5 5t24.5 12t20 15t14 15q1 0 3 3t2 4q1 0 2 1.5 l2 3t2.5 3t1.5 2.5t2 4t3 4q1 4 2 7.5t2 7.5q5 13 8 26t3 27v3q0 1 -1 2t-1 2q-1 6 -1 11.5t-3 11.5l-2 2l-1 1q-2 2 -5.5 4l-3.5 2h-5l-2.5 -2.5l-2.5 -2.5t-1.5 -2t-3.5 -2q0 -1 -2.5 -2t-3.5 -1q0 -1 -1.5 -2t-2.5 -2q-5 -5 -10.5 -10t-11.5 -11h-0.5t-0.5 -1 q-1 0 -3 -2.5t-4 -5.5t-4.5 -5.5t-2.5 -3.5l-2.5 -2.5l-2.5 -2.5h-0.5h-0.5v-1q0 -1 -2 -4.5t-2 -4.5q-1 0 -3 -1.5l-2 -1.5q-3 -2 -5 -5t-3 -5q-1 0 -1 -2t-1 -3l-1.5 -1l-1.5 -1q-1 -2 -2 -4.5t-2 -4.5v-1q0 -1 -1.5 -1.5l-1.5 -0.5q-5 -5 -7 -13q0 -1 -0.5 -3.5 l-0.5 -2.5l-2 -1q0 -1 -0.5 -1.5l-1.5 -1.5q-3 -9 -5.5 -18t-2.5 -19v-1zM91 644h-1h1v0z" />
<glyph unicode="&#xbf;" horiz-adv-x="425" d="M306 684q-2 -5 -4 -10.5t-8 -5.5h-4q-13 5 -24 13.5t-11 24.5q0 2 0.5 6t0.5 5q1 2 2 3l2 2l1 1q0 1 0.5 4t1.5 3q0 1 3.5 1.5t5.5 1.5h1h1q1 -1 6 -1.5t6 -1.5q1 0 4.5 0.5t4.5 -0.5q1 0 1.5 -4t0.5 -5q3 -8 6 -17.5t3 -17.5v-2zM300 572q2 -2 1 -7t-1 -7q1 0 1 -1v-2 q1 -1 1 -2q0 -7 -4 -14.5t-6 -13.5l1 -1v-1h2h2v-1q1 -1 1 -2q-1 0 -2 -3t-2 -3q-1 -2 -3 -9.5t-4 -9.5q-1 -2 -4 -9t-7 -15.5t-8 -16.5t-6 -13q-5 -11 -13.5 -20.5t-13.5 -20.5q-1 0 -1 -1.5t-1 -1.5q-11 -24 -27.5 -45t-31.5 -43q-13 -18 -25 -36l-24 -36 q-23 -35 -40.5 -65t-29.5 -69q0 -1 1 -3.5t0 -3.5l-2 -6q0 -2 1 -9.5t1 -10.5l1 -1v-1q2 -2 7.5 -6.5t7.5 -6.5q6 -5 13 -7.5t15 -4.5q10 -2 21.5 -5t22.5 -1q1 0 6.5 0.5t11.5 1.5t11.5 1.5t6.5 0.5q7 2 13.5 3.5t14.5 2.5q13 2 25.5 4t25.5 8q14 7 25 16t24 19l6 4 q2 2 4 3.5t3 1.5q2 2 6.5 6t9 9t9 9.5t6.5 5.5q0 5 3 7t6 6q5 4 7 10.5t2 11.5q2 10 -1 20.5t-7 18.5t-9 15.5t-10 13.5q-1 1 -3 2.5t-2 2.5l-2 2q-2 5 -0.5 13t7.5 11q12 6 21.5 -4.5t15.5 -18.5q5 -8 10 -16.5t11 -16.5q1 0 2 -1q2 -2 3 -2q5 -11 10 -25t7 -28t-0.5 -27.5 t-12.5 -24.5q-1 -1 -3.5 -3t-3.5 -3q-11 -10 -21 -19.5t-21 -18.5l-3 -3t-3 -2l-4 -4q-2 -1 -3 -3q-1 0 -5 -2t-5 -3q-8 -5 -15 -11.5t-16 -11.5q-35 -17 -68.5 -24t-71.5 -9q-29 -2 -58 6.5t-52 24.5q-2 1 -6.5 4t-6.5 5q0 1 -2 3t-2 3q-1 -1 -4.5 1t-3.5 3t-1.5 4t-2.5 4 q-4 6 -8.5 11t-8.5 13q-8 16 -9.5 35t3.5 36q0 2 1 6.5t3 5.5l5.5 11t6.5 11q0 1 1.5 4.5t1.5 4.5q1 2 5 9t4 8q5 9 9 18t10 17q0 1 2.5 3t2.5 3q2 2 5.5 7.5t4.5 7.5q1 1 3.5 5t2.5 5l5 5q2 4 7 9q8 13 17 25t19 25q3 5 5.5 9.5t5.5 9.5q1 1 4.5 5.5t5.5 6.5l6 8l6 8 q1 2 5.5 5.5t4.5 5.5q5 5 7 12.5t6 13.5q0 1 4 6t5 6t2.5 3t1.5 4q4 7 9 11.5t9 10.5q5 8 8 15.5t8 14.5q9 14 18.5 28.5t19.5 28.5q5 8 9 17t12 14q2 1 8.5 2.5t8.5 -2.5z" />
<glyph unicode="&#xc0;" horiz-adv-x="257" d="M160 4q0 27 1 54.5t1 55.5h-6q-1 0 -8 -1.5t-10 -1.5q-3 -1 -12 -3.5t-18 -5.5t-16 -5t-7 -3q-2 -4 -0.5 -7t-3.5 -6v-76q0 -3 -5 -8.5t-11 -5.5l-6 2q-2 1 -4.5 1.5t-4.5 1.5q-1 0 -3.5 0.5t-2.5 1.5q-3 2 -13 8.5t-13 8.5v22q0 13 0.5 21t3.5 20l2 4q1 2 2 3 q0 3 -1.5 9.5t-2.5 8.5q-3 5 -8.5 9l-11 8t-9 8.5t-3.5 11.5t6 7t12 2q4 0 12.5 0.5t10.5 0.5q1 14 7 26.5t9 25.5q4 16 5.5 30t3.5 30q2 9 6 15.5t7 14.5v9q1 1 2 3l2 4q0 2 -1 10t1 10q0 1 1 4t1 4q1 3 1.5 15t1.5 15q0 1 3.5 6.5t3.5 7.5q1 1 2 5t1 5v14q0 1 2 6t3 8 q4 4 8.5 7.5t4.5 8.5v1q0 1 -1.5 2.5t-1.5 2.5v1v1q0 1 1.5 3t1.5 3q0 3 -3 6l3 24q5 2 8 11t4 14l8 24q1 1 3 1.5t2 1.5q-1 0 -1 2h-2v9q1 2 2 6t1 5v9q2 5 7 15.5t6 11.5l6 3q0 3 1.5 12t2.5 12q0 3 1 8.5t1 6.5q1 0 1.5 1t2.5 1t7 0.5t7 0.5q11 0 16.5 -0.5t16.5 -4.5 q7 -2 10 -8.5t6 -11.5q2 -4 3.5 -12.5t1.5 -10.5q0 -3 0.5 -10t1 -15t1 -15.5t0.5 -11.5v-138v-140q0 -3 -0.5 -12.5t-1 -20.5t-1 -21t-0.5 -13v-1q1 -1 4.5 -2.5t3.5 -2.5q3 -7 2.5 -13t2.5 -12l-13 -18l-1 -7.5t-1.5 -17t-1.5 -20t-1 -16.5v-40v-45q1 -12 3.5 -22.5 t2.5 -22.5q0 -2 -0.5 -8t-0.5 -8q-1 -2 -5.5 -4.5t-6.5 -3.5h-5h-8q-2 0 -3 1l-2 2q-23 4 -28.5 10t-9.5 22v45zM141 366q-9 -35 -16 -70t-15 -70q0 -2 -2 -8t-2 -7v-18q0 -1 -2.5 -5.5t-3.5 -5.5q0 -1 -1 -9.5t-1 -13.5v-5q6 0 12.5 1.5t13.5 1.5h2l5 -2h1h3q2 0 3 1 q1 0 1.5 0.5t1.5 0.5q10 2 18.5 3.5t9.5 9.5v27q0 1 0.5 6t1.5 10.5t1.5 10.5t0.5 7v101q3 4 3 13q0 6 -3 9v93l-4 18h-1h-2q-1 0 -2 -1t-1 -2q-1 -5 -3.5 -19t-3.5 -19q-2 -9 -5 -16.5t-5 -17.5v-4q0 -1 -1 -2.5t-1 -2.5q-1 -3 0 -7.5t-3 -7.5zM222 700q-2 -2 -6.5 -4.5 t-9.5 -4.5t-9.5 -3.5t-6.5 -0.5q-4 3 -8.5 6t-8.5 7q-3 3 -4 5.5t-1 5t-1 4t-2 5.5q-1 1 -3.5 5t-3.5 5q-5 7 -8.5 14t-7.5 14q-3 6 -5.5 9.5t-6.5 10.5q-2 3 -5 8.5t-6 10.5q-8 10 -15.5 19.5t-15.5 18.5q-33 42 -62 84q-1 1 -2 3.5l-1 2.5l8 2q-1 4 -2.5 6.5t1.5 4.5 l2 1.5t3 -0.5l16 -17q5 -2 10.5 -7t8.5 -7h2l3 -3q2 -2 2 -4t2 -3q1 -3 4 0q2 -1 5 -4.5t6 -6.5t6.5 -6t4.5 -4l5 -4l2 -3l2 -2.5t2 -3.5q1 -1 4 -5.5t6.5 -7.5t7 -7l3.5 -4q1 -1 4 -5.5t4 -5.5t1.5 -2t3 -3t4 -4l1.5 -2q0 -1 4 -6t7.5 -11t6.5 -10.5t4 -5.5t3.5 -4t5 -6.5 t5 -6.5t3.5 -3q5 -7 9.5 -14t9.5 -15q3 -5 9 -9.5t6 -12.5q1 -6 -1 -9t-5 -5zM41 918h-2l0.5 0.5t-0.5 0.5q-1 2 -6 2l6 -5z" />
<glyph unicode="&#xc1;" horiz-adv-x="257" d="M160 4q0 27 1 54.5t1 55.5h-6q-1 0 -8 -1.5t-10 -1.5q-3 -1 -12 -3.5t-18 -5.5t-16 -5t-7 -3q-2 -4 -0.5 -7t-3.5 -6v-76q0 -3 -5 -8.5t-11 -5.5l-6 2q-2 1 -4.5 1.5t-4.5 1.5q-1 0 -3.5 0.5t-2.5 1.5q-3 2 -13 8.5t-13 8.5v22q0 13 0.5 21t3.5 20l2 4q1 2 2 3 q0 3 -1.5 9.5t-2.5 8.5q-3 5 -8.5 9l-11 8t-9 8.5t-3.5 11.5t6 7t12 2q4 0 12.5 0.5t10.5 0.5q1 14 7 26.5t9 25.5q4 16 5.5 30t3.5 30q2 9 6 15.5t7 14.5v9q1 1 2 3l2 4q0 2 -1 10t1 10q0 1 1 4t1 4q1 3 1.5 15t1.5 15q0 1 3.5 6.5t3.5 7.5q1 1 2 5t1 5v14q0 1 2 6t3 8 q4 4 8.5 7.5t4.5 8.5v1q0 1 -1.5 2.5t-1.5 2.5v1v1q0 1 1.5 3t1.5 3q0 3 -3 6l3 24q5 2 8 11t4 14l8 24q1 1 3 1.5t2 1.5q-1 0 -1 2h-2v9q1 2 2 6t1 5v9q2 5 7 15.5t6 11.5l6 3q0 3 1.5 12t2.5 12q0 3 1 8.5t1 6.5q1 0 1.5 1t2.5 1t7 0.5t7 0.5q11 0 16.5 -0.5t16.5 -4.5 q7 -2 10 -8.5t6 -11.5q2 -4 3.5 -12.5t1.5 -10.5q0 -3 0.5 -10t1 -15t1 -15.5t0.5 -11.5v-138v-140q0 -3 -0.5 -12.5t-1 -20.5t-1 -21t-0.5 -13v-1q1 -1 4.5 -2.5t3.5 -2.5q3 -7 2.5 -13t2.5 -12l-13 -18l-1 -7.5t-1.5 -17t-1.5 -20t-1 -16.5v-40v-45q1 -12 3.5 -22.5 t2.5 -22.5q0 -2 -0.5 -8t-0.5 -8q-1 -2 -5.5 -4.5t-6.5 -3.5h-5h-8q-2 0 -3 1l-2 2q-23 4 -28.5 10t-9.5 22v45zM141 366q-9 -35 -16 -70t-15 -70q0 -2 -2 -8t-2 -7v-18q0 -1 -2.5 -5.5t-3.5 -5.5q0 -1 -1 -9.5t-1 -13.5v-5q6 0 12.5 1.5t13.5 1.5h2l5 -2h1h3q2 0 3 1 q1 0 1.5 0.5t1.5 0.5q10 2 18.5 3.5t9.5 9.5v27q0 1 0.5 6t1.5 10.5t1.5 10.5t0.5 7v101q3 4 3 13q0 6 -3 9v93l-4 18h-1h-2q-1 0 -2 -1t-1 -2q-1 -5 -3.5 -19t-3.5 -19q-2 -9 -5 -16.5t-5 -17.5v-4q0 -1 -1 -2.5t-1 -2.5q-1 -3 0 -7.5t-3 -7.5zM170 717q-3 2 -5.5 5t-0.5 9 q0 7 6.5 11.5t8.5 9.5q6 8 10.5 14.5t11.5 13.5l3 3t5.5 6.5t5 6t3.5 4.5q1 1 4 5.5t7 10t8 10t5 5.5l1.5 2t4 4t3 3t1.5 2t4 5t5 6l3.5 3.5t7 6.5t7 7.5t4.5 4.5q-1 1 1.5 3.5l2.5 2.5l2 3l5 4q1 1 4.5 4t7 5.5t6.5 6t5 4.5q3 -3 4 0q2 1 2.5 3t1.5 3l3 4l2 -1q4 3 9.5 7.5 t10.5 6.5l17 16q1 2 2.5 0l1.5 -2q3 -2 2 -4.5t-3 -6.5l8 -2l-1.5 -2t-1.5 -3q-31 -41 -66 -82q-9 -8 -17 -17t-16 -20q-2 -4 -5.5 -9.5t-5.5 -7.5q-4 -7 -7 -11t-6 -9q-5 -7 -8.5 -14t-9.5 -13q0 -1 -3 -5t-4 -5q-1 -3 -2 -4.5t-1 -4.5t-1.5 -5.5t-4.5 -4.5q-4 -5 -9 -7.5 t-8 -4.5q-3 -1 -7 0.5t-9 3.5t-9.5 5t-5.5 5zM362 924l6 5q-5 0 -6 -2q-1 0 -0.5 -0.5l0.5 -0.5h-2z" />
<glyph unicode="&#xc2;" horiz-adv-x="257" d="M160 4q0 27 1 54.5t1 55.5h-6q-1 0 -8 -1.5t-10 -1.5q-3 -1 -12 -3.5t-18 -5.5t-16 -5t-7 -3q-2 -4 -0.5 -7t-3.5 -6v-76q0 -3 -5 -8.5t-11 -5.5l-6 2q-2 1 -4.5 1.5t-4.5 1.5q-1 0 -3.5 0.5t-2.5 1.5q-3 2 -13 8.5t-13 8.5v22q0 13 0.5 21t3.5 20l2 4q1 2 2 3 q0 3 -1.5 9.5t-2.5 8.5q-3 5 -8.5 9l-11 8t-9 8.5t-3.5 11.5t6 7t12 2q4 0 12.5 0.5t10.5 0.5q1 14 7 26.5t9 25.5q4 16 5.5 30t3.5 30q2 9 6 15.5t7 14.5v9q1 1 2 3l2 4q0 2 -1 10t1 10q0 1 1 4t1 4q1 3 1.5 15t1.5 15q0 1 3.5 6.5t3.5 7.5q1 1 2 5t1 5v14q0 1 2 6t3 8 q4 4 8.5 7.5t4.5 8.5v1q0 1 -1.5 2.5t-1.5 2.5v1v1q0 1 1.5 3t1.5 3q0 3 -3 6l3 24q5 2 8 11t4 14l8 24q1 1 3 1.5t2 1.5q-1 0 -1 2h-2v9q1 2 2 6t1 5v9q2 5 7 15.5t6 11.5l6 3q0 3 1.5 12t2.5 12q0 3 1 8.5t1 6.5q1 0 1.5 1t2.5 1t7 0.5t7 0.5q11 0 16.5 -0.5t16.5 -4.5 q7 -2 10 -8.5t6 -11.5q2 -4 3.5 -12.5t1.5 -10.5q0 -3 0.5 -10t1 -15t1 -15.5t0.5 -11.5v-138v-140q0 -3 -0.5 -12.5t-1 -20.5t-1 -21t-0.5 -13v-1q1 -1 4.5 -2.5t3.5 -2.5q3 -7 2.5 -13t2.5 -12l-13 -18l-1 -7.5t-1.5 -17t-1.5 -20t-1 -16.5v-40v-45q1 -12 3.5 -22.5 t2.5 -22.5q0 -2 -0.5 -8t-0.5 -8q-1 -2 -5.5 -4.5t-6.5 -3.5h-5h-8q-2 0 -3 1l-2 2q-23 4 -28.5 10t-9.5 22v45zM141 366q-9 -35 -16 -70t-15 -70q0 -2 -2 -8t-2 -7v-18q0 -1 -2.5 -5.5t-3.5 -5.5q0 -1 -1 -9.5t-1 -13.5v-5q6 0 12.5 1.5t13.5 1.5h2l5 -2h1h3q2 0 3 1 q1 0 1.5 0.5t1.5 0.5q10 2 18.5 3.5t9.5 9.5v27q0 1 0.5 6t1.5 10.5t1.5 10.5t0.5 7v101q3 4 3 13q0 6 -3 9v93l-4 18h-1h-2q-1 0 -2 -1t-1 -2q-1 -5 -3.5 -19t-3.5 -19q-2 -9 -5 -16.5t-5 -17.5v-4q0 -1 -1 -2.5t-1 -2.5q-1 -3 0 -7.5t-3 -7.5zM261 919q20 -1 36 -10 q0 -1 3 -3t4 -2t3.5 -1l2.5 -1l1 -1l2 -2q3 -1 8.5 -6t6.5 -6l1.5 -2t3.5 -4.5t3.5 -4.5t2.5 -3t3 -4.5t4 -8t4 -8t3 -4.5q1 0 1 -1v-2q0 -2 1 -4.5t3 -6.5q0 -1 1.5 -4.5t1.5 -4.5q1 -5 2 -13t1 -14l-1 -4q0 -1 -0.5 -2t-0.5 -2q-1 -1 -1.5 -7.5l-0.5 -6.5q0 -2 -2 -5 t-4 -2l-1 1q-2 0 -3.5 2t-2.5 3q-3 13 -6.5 27t-8 27t-11 25t-15.5 21q-8 8 -16.5 12.5t-17.5 5.5q-7 0 -13.5 -0.5t-12.5 -3.5q-2 0 -4.5 -1l-2.5 -1q-2 0 -6 -2.5l-8 -5t-8 -4.5t-7 -3q-9 -5 -18 -11t-17 -13l-5 -5t-4 -5q-1 0 -3.5 -2t-5 -5t-5 -4.5l-2.5 -1.5 q-1 -2 -3.5 -4.5t-2.5 -3.5q-1 -1 -1.5 -2.5t-0.5 -2.5t-2 -1.5t-3 -0.5q-5 -4 -10 -10.5t-8 -12.5q-1 0 -1.5 -2t-0.5 -3h-1l-1 -2q-3 -3 -5.5 -6.5t-3.5 -7.5v-2v-1l-2 -2q-1 -1 -1 -2v-1q0 -2 0.5 -3.5t0.5 -2.5t-0.5 -3.5t-3.5 -4.5q2 -5 0 -11.5t-9 -9.5l-10 2l-9 1 q-1 0 -2.5 1l-1.5 1h-1h-1q-1 -1 -2 -1h-1h-1v2q-1 0 -1 1v3q-1 0 -1.5 2l-0.5 2q-1 1 -1 2v2t1 3q0 1 1 2v0v0v1q2 8 3 15t5 13q6 15 16 29.5t21.5 26.5t24.5 23l26 22q11 10 25 17.5t28 13.5q12 6 25.5 10t26.5 2z" />
<glyph unicode="&#xc3;" horiz-adv-x="257" d="M160 4q0 27 1 54.5t1 55.5h-6q-1 0 -8 -1.5t-10 -1.5q-3 -1 -12 -3.5t-18 -5.5t-16 -5t-7 -3q-2 -4 -0.5 -7t-3.5 -6v-76q0 -3 -5 -8.5t-11 -5.5l-6 2q-2 1 -4.5 1.5t-4.5 1.5q-1 0 -3.5 0.5t-2.5 1.5q-3 2 -13 8.5t-13 8.5v22q0 13 0.5 21t3.5 20l2 4q1 2 2 3 q0 3 -1.5 9.5t-2.5 8.5q-3 5 -8.5 9l-11 8t-9 8.5t-3.5 11.5t6 7t12 2q4 0 12.5 0.5t10.5 0.5q1 14 7 26.5t9 25.5q4 16 5.5 30t3.5 30q2 9 6 15.5t7 14.5v9q1 1 2 3l2 4q0 2 -1 10t1 10q0 1 1 4t1 4q1 3 1.5 15t1.5 15q0 1 3.5 6.5t3.5 7.5q1 1 2 5t1 5v14q0 1 2 6t3 8 q4 4 8.5 7.5t4.5 8.5v1q0 1 -1.5 2.5t-1.5 2.5v1v1q0 1 1.5 3t1.5 3q0 3 -3 6l3 24q5 2 8 11t4 14l8 24q1 1 3 1.5t2 1.5q-1 0 -1 2h-2v9q1 2 2 6t1 5v9q2 5 7 15.5t6 11.5l6 3q0 3 1.5 12t2.5 12q0 3 1 8.5t1 6.5q1 0 1.5 1t2.5 1t7 0.5t7 0.5q11 0 16.5 -0.5t16.5 -4.5 q7 -2 10 -8.5t6 -11.5q2 -4 3.5 -12.5t1.5 -10.5q0 -3 0.5 -10t1 -15t1 -15.5t0.5 -11.5v-138v-140q0 -3 -0.5 -12.5t-1 -20.5t-1 -21t-0.5 -13v-1q1 -1 4.5 -2.5t3.5 -2.5q3 -7 2.5 -13t2.5 -12l-13 -18l-1 -7.5t-1.5 -17t-1.5 -20t-1 -16.5v-40v-45q1 -12 3.5 -22.5 t2.5 -22.5q0 -2 -0.5 -8t-0.5 -8q-1 -2 -5.5 -4.5t-6.5 -3.5h-5h-8q-2 0 -3 1l-2 2q-23 4 -28.5 10t-9.5 22v45zM141 366q-9 -35 -16 -70t-15 -70q0 -2 -2 -8t-2 -7v-18q0 -1 -2.5 -5.5t-3.5 -5.5q0 -1 -1 -9.5t-1 -13.5v-5q6 0 12.5 1.5t13.5 1.5h2l5 -2h1h3q2 0 3 1 q1 0 1.5 0.5t1.5 0.5q10 2 18.5 3.5t9.5 9.5v27q0 1 0.5 6t1.5 10.5t1.5 10.5t0.5 7v101q3 4 3 13q0 6 -3 9v93l-4 18h-1h-2q-1 0 -2 -1t-1 -2q-1 -5 -3.5 -19t-3.5 -19q-2 -9 -5 -16.5t-5 -17.5v-4q0 -1 -1 -2.5t-1 -2.5q-1 -3 0 -7.5t-3 -7.5zM5 718q0 5 1 9.5t6 7.5 q7 6 16 5t17 0q9 2 19 3.5t20 2.5q2 0 6.5 0.5t9.5 1t9.5 1t6.5 0.5q1 0 7.5 1t14.5 2.5t15 2.5t9 1h3h6h5h3t7.5 1t8.5 1h6.5h11.5h12h7t4.5 1t4.5 1h4h7q2 0 7 -0.5t10.5 -0.5t10.5 -0.5t7 -0.5q0 -4 4 -4q3 0 4.5 1t4.5 1h5l2 -2q4 -1 13 -1.5t13 -3.5h29q2 0 2 -2.5 v-2.5q0 -5 -3 -6.5t-8 -2.5l4 -9l-2.5 -0.5t-3.5 -1.5q-61 -9 -124 -13l-28 -2t-29 -3q-6 -1 -13 -2.5t-13 -3.5q-7 -2 -13 -2.5t-13 -2.5q-10 -2 -19 -4.5t-19 -4.5q-1 0 -6.5 -1t-6.5 -1q-4 -2 -6.5 -3t-5 -2.5t-5.5 -2.5t-8 -1q-6 0 -12.5 1.5t-11.5 2.5q-2 1 -4.5 6.5 t-4.5 11.5t-3 12t-1 9zM337 733h9q-3 3 -6 3q-1 0 -1 -0.5v-0.5h-2v-2z" />
<glyph unicode="&#xc4;" horiz-adv-x="257" d="M160 4q0 27 1 54.5t1 55.5h-6q-1 0 -8 -1.5t-10 -1.5q-3 -1 -12 -3.5t-18 -5.5t-16 -5t-7 -3q-2 -4 -0.5 -7t-3.5 -6v-76q0 -3 -5 -8.5t-11 -5.5l-6 2q-2 1 -4.5 1.5t-4.5 1.5q-1 0 -3.5 0.5t-2.5 1.5q-3 2 -13 8.5t-13 8.5v22q0 13 0.5 21t3.5 20l2 4q1 2 2 3 q0 3 -1.5 9.5t-2.5 8.5q-3 5 -8.5 9l-11 8t-9 8.5t-3.5 11.5t6 7t12 2q4 0 12.5 0.5t10.5 0.5q1 14 7 26.5t9 25.5q4 16 5.5 30t3.5 30q2 9 6 15.5t7 14.5v9q1 1 2 3l2 4q0 2 -1 10t1 10q0 1 1 4t1 4q1 3 1.5 15t1.5 15q0 1 3.5 6.5t3.5 7.5q1 1 2 5t1 5v14q0 1 2 6t3 8 q4 4 8.5 7.5t4.5 8.5v1q0 1 -1.5 2.5t-1.5 2.5v1v1q0 1 1.5 3t1.5 3q0 3 -3 6l3 24q5 2 8 11t4 14l8 24q1 1 3 1.5t2 1.5q-1 0 -1 2h-2v9q1 2 2 6t1 5v9q2 5 7 15.5t6 11.5l6 3q0 3 1.5 12t2.5 12q0 3 1 8.5t1 6.5q1 0 1.5 1t2.5 1t7 0.5t7 0.5q11 0 16.5 -0.5t16.5 -4.5 q7 -2 10 -8.5t6 -11.5q2 -4 3.5 -12.5t1.5 -10.5q0 -3 0.5 -10t1 -15t1 -15.5t0.5 -11.5v-138v-140q0 -3 -0.5 -12.5t-1 -20.5t-1 -21t-0.5 -13v-1q1 -1 4.5 -2.5t3.5 -2.5q3 -7 2.5 -13t2.5 -12l-13 -18l-1 -7.5t-1.5 -17t-1.5 -20t-1 -16.5v-40v-45q1 -12 3.5 -22.5 t2.5 -22.5q0 -2 -0.5 -8t-0.5 -8q-1 -2 -5.5 -4.5t-6.5 -3.5h-5h-8q-2 0 -3 1l-2 2q-23 4 -28.5 10t-9.5 22v45zM141 366q-9 -35 -16 -70t-15 -70q0 -2 -2 -8t-2 -7v-18q0 -1 -2.5 -5.5t-3.5 -5.5q0 -1 -1 -9.5t-1 -13.5v-5q6 0 12.5 1.5t13.5 1.5h2l5 -2h1h3q2 0 3 1 q1 0 1.5 0.5t1.5 0.5q10 2 18.5 3.5t9.5 9.5v27q0 1 0.5 6t1.5 10.5t1.5 10.5t0.5 7v101q3 4 3 13q0 6 -3 9v93l-4 18h-1h-2q-1 0 -2 -1t-1 -2q-1 -5 -3.5 -19t-3.5 -19q-2 -9 -5 -16.5t-5 -17.5v-4q0 -1 -1 -2.5t-1 -2.5q-1 -3 0 -7.5t-3 -7.5zM113 830q-1 -1 7 -1h8 q2 -1 5 -2t7 -1q1 0 4 -2t5 -2t5 -3.5t6 -7.5q2 -3 5 -6t5 -6q3 -5 1.5 -6.5t-0.5 -3.5q0 -2 -1 -6t-2 -6q-2 -2 -3 -6q-1 -3 -3 -6l-5 -8q-2 -3 -3 -6.5t-3 -5.5q-2 -4 -4 -5t-3 -2l-9 -4q-2 -2 -6.5 -1.5t-9.5 1.5q-4 1 -14.5 5t-13.5 8q-2 3 -5.5 6.5t-6.5 7.5l-3.5 7 t-3.5 5t-3 6t-4 9q-4 5 0.5 7t5.5 4q0 1 4 5q2 1 3 3l9 15q1 2 4 3t4 1q1 1 10 3t8 1zM247 827q-1 -1 7 -1h8q2 -1 5 -2t7 -1q1 0 4 -2t5 -2t5 -3.5t6 -7.5q2 -3 5 -6t5 -6q3 -5 1.5 -6.5t-0.5 -3.5q0 -2 -1 -6t-2 -6q-2 -2 -3 -6q-1 -3 -3 -6l-5 -8q-2 -3 -3 -6.5t-3 -5.5 q-2 -4 -4 -5t-3 -2l-9 -4q-2 -2 -6.5 -1.5t-9.5 1.5q-4 1 -14.5 5t-13.5 8q-2 3 -5.5 6.5t-6.5 7.5l-3.5 7t-3.5 5t-3 6t-4 9q-4 5 0.5 7t5.5 4q0 1 4 5q2 1 3 3l9 15q1 2 4 3t4 1q1 1 10 3t8 1z" />
<glyph unicode="&#xc5;" horiz-adv-x="257" d="M160 4q0 27 1 54.5t1 55.5h-6q-1 0 -8 -1.5t-10 -1.5q-3 -1 -12 -3.5t-18 -5.5t-16 -5t-7 -3q-2 -4 -0.5 -7t-3.5 -6v-76q0 -3 -5 -8.5t-11 -5.5l-6 2q-2 1 -4.5 1.5t-4.5 1.5q-1 0 -3.5 0.5t-2.5 1.5q-3 2 -13 8.5t-13 8.5v22q0 13 0.5 21t3.5 20l2 4q1 2 2 3 q0 3 -1.5 9.5t-2.5 8.5q-3 5 -8.5 9l-11 8t-9 8.5t-3.5 11.5t6 7t12 2q4 0 12.5 0.5t10.5 0.5q1 14 7 26.5t9 25.5q4 16 5.5 30t3.5 30q2 9 6 15.5t7 14.5v9q1 1 2 3l2 4q0 2 -1 10t1 10q0 1 1 4t1 4q1 3 1.5 15t1.5 15q0 1 3.5 6.5t3.5 7.5q1 1 2 5t1 5v14q0 1 2 6t3 8 q4 4 8.5 7.5t4.5 8.5v1q0 1 -1.5 2.5t-1.5 2.5v1v1q0 1 1.5 3t1.5 3q0 3 -3 6l3 24q5 2 8 11t4 14l8 24q1 1 3 1.5t2 1.5q-1 0 -1 2h-2v9q1 2 2 6t1 5v9q2 5 7 15.5t6 11.5l6 3q0 3 1.5 12t2.5 12q0 3 1 8.5t1 6.5q1 0 1.5 1t2.5 1t7 0.5t7 0.5q11 0 16.5 -0.5t16.5 -4.5 q7 -2 10 -8.5t6 -11.5q2 -4 3.5 -12.5t1.5 -10.5q0 -3 0.5 -10t1 -15t1 -15.5t0.5 -11.5v-138v-140q0 -3 -0.5 -12.5t-1 -20.5t-1 -21t-0.5 -13v-1q1 -1 4.5 -2.5t3.5 -2.5q3 -7 2.5 -13t2.5 -12l-13 -18l-1 -7.5t-1.5 -17t-1.5 -20t-1 -16.5v-40v-45q1 -12 3.5 -22.5 t2.5 -22.5q0 -2 -0.5 -8t-0.5 -8q-1 -2 -5.5 -4.5t-6.5 -3.5h-5h-8q-2 0 -3 1l-2 2q-23 4 -28.5 10t-9.5 22v45zM141 366q-9 -35 -16 -70t-15 -70q0 -2 -2 -8t-2 -7v-18q0 -1 -2.5 -5.5t-3.5 -5.5q0 -1 -1 -9.5t-1 -13.5v-5q6 0 12.5 1.5t13.5 1.5h2l5 -2h1h3q2 0 3 1 q1 0 1.5 0.5t1.5 0.5q10 2 18.5 3.5t9.5 9.5v27q0 1 0.5 6t1.5 10.5t1.5 10.5t0.5 7v101q3 4 3 13q0 6 -3 9v93l-4 18h-1h-2q-1 0 -2 -1t-1 -2q-1 -5 -3.5 -19t-3.5 -19q-2 -9 -5 -16.5t-5 -17.5v-4q0 -1 -1 -2.5t-1 -2.5q-1 -3 0 -7.5t-3 -7.5zM119 863q13 9 28 8.5 t31 -2.5q1 0 3.5 -0.5t3.5 -1.5q3 -1 5.5 -1.5t6 -2.5t5.5 -2.5t3 -0.5l2.5 -1.5t5.5 -3t5.5 -3t3.5 -0.5q0 -1 1.5 -2t4 -2.5t4 -2.5t3.5 -3l4.5 -4.5t5.5 -2.5q1 4 -1.5 10.5t-2.5 10.5q-1 1 -0.5 2.5t1.5 1.5v2.5v2.5v0v1q0 1 2.5 -0.5t2.5 -0.5l1 1.5l1 1.5q1 0 2 -1.5 l1 -1.5l4 -5q15 -27 20 -50.5t3.5 -44t-10.5 -35.5t-23 -26q-8 -5 -15.5 -9t-17.5 -7q0 1 -0.5 1h-1.5t-3.5 -0.5l-2.5 -0.5q-13 -2 -25.5 2t-25.5 14q-3 3 -7.5 6.5t-7.5 7.5q0 -1 -1.5 0.5l-1.5 1.5q-4 4 -9.5 11.5t-9.5 13.5l-1 2q0 3 -2 6t-4 7t-3 6.5t-1 3.5 q-2 2 -3.5 4.5t-1.5 4.5q0 1 -1 5.5t-1 6.5q-1 0 -2 3.5t-1 5.5v4.5v2.5q-2 2 -2 5q1 1 0 2q2 18 8.5 29.5t16.5 19.5zM128 837q-6 -4 -9 -10.5t-2.5 -14t3 -17t6.5 -20.5l2 -3q10 -19 22 -31t24 -19t24.5 -8.5t25.5 2.5q4 0 8.5 3.5t7.5 5.5l7 5l0.5 1.5t2.5 3.5l3 3l2 2 q0 1 0.5 3l0.5 2l-1.5 4l-1.5 4q-1 2 0 4l2 4t0.5 5.5t-3.5 10.5v2l-4 2l-0.5 2.5l-0.5 2.5l-2 3q0 2 -1.5 5t-4 5l-5 4t-3.5 4h-1q-1 0 -2 1.5t-2 2.5t-4 4.5t-3 4.5q-4 1 -8 3.5t-9.5 5.5t-9 5t-5.5 3q-9 3 -18 3.5t-17 1.5q-7 2 -13 0t-11 -5z" />
<glyph unicode="&#xc6;" horiz-adv-x="639" d="M236 -72q0 3 0.5 11t1 17.5t1 17.5t0.5 11q-3 5 -9.5 6.5t-11.5 5.5q-2 1 -5.5 8l-7.5 15t-7 15l-3 7q0 9 3.5 17.5t11.5 12.5q1 1 6.5 2t6.5 2q1 0 3 2.5t3 3.5q2 1 4 -1t3 3q0 3 0.5 11t1 17t1 16.5t0.5 10.5v29v28q-4 4 -14.5 14t-15.5 10q-11 0 -21.5 -4t-20.5 -8 q-1 -1 -5 -1.5t-5 -1.5q-1 0 -2.5 -3t-2.5 -3q-2 -2 -8.5 -2.5t-9.5 -3.5l-2 -6h-9q-3 0 -9.5 -1.5t-8.5 -2.5l-1 -1q-1 0 -1 -1q-5 -9 -11 -19t-9 -21q-1 0 -0.5 -2t0.5 -4q-2 -7 -6.5 -16t-6.5 -17v-8q-1 -2 -5 -9.5t-5 -8.5v-13q-1 -11 -3.5 -18t-4.5 -18q-1 -6 -2 -15.5 t-3 -18.5t-6.5 -15t-12.5 -6q-1 0 -2.5 0.5t-2.5 0.5t-7.5 6t-9.5 9q-4 3 -8.5 10t-4.5 12v3q5 32 13.5 63t16.5 63l8 22t9 22v3v1l-17 27q-1 2 0 10t3 10q1 2 6.5 5.5t9.5 4.5h10l1 1l2 2q1 1 2 3q1 1 4 1.5t4 1.5q8 6 13 19.5t10 22.5l6 12l6 12q2 2 5.5 13.5t4.5 13.5 q2 3 6.5 15t6.5 15q1 3 3.5 8t5 10.5t5 10t2.5 5.5q1 1 3 5t4.5 8.5t5 8.5t2.5 5q1 1 3 8.5t2 9.5q4 11 9.5 22.5t11.5 22.5l2 3q1 2 3 5t2 4q6 14 12.5 27t12.5 27q1 1 3 5.5t4 9.5t4 9.5t3 5.5q1 2 6 10.5t7 10.5q2 5 7 10.5t10 5.5q2 0 6.5 -1.5t6.5 -2.5q1 0 6 -2.5 l7 -3.5l4 -2t3 -4q1 -1 3 -7t2 -7q1 -2 4 -9.5t4 -9.5v-18q0 -5 1 -15.5t1 -12.5l4 -2l4 2q2 1 3 2t3 2q17 14 33.5 28.5t34.5 25.5q41 25 83.5 39.5t87.5 23.5q3 1 9 2t13 2t12.5 2t7.5 1h24h26q2 0 10 -1t11 -3q3 0 9 -2t13 -4.5t12 -5t5 -5.5q0 -13 -9.5 -24.5 t-19.5 -15.5q-3 0 -16 -1t-17 -1h-7h-11h-11.5h-6.5l-12 -4q-1 0 -5 -1t-5 -2q-2 0 -12 -1.5t-12 -1.5q-1 0 -4 -1t-4 -2q-2 0 -5.5 -1.5t-4.5 -1.5q-2 0 -10 -1t-10 -2q-1 0 -6 -2.5l-7 -3.5q-1 0 -5.5 -1.5t-6.5 -1.5q-7 -1 -9.5 -3t-9.5 -6q-24 -13 -45.5 -23.5 t-43.5 -27.5q-8 -7 -14 -15t-14 -15q-1 0 -4 -1.5t-4 -2.5q-6 -4 -9 -9.5t-8 -10.5q-1 -1 -5.5 -3t-4.5 -3q-2 -2 -4 -9t-2 -9l-28 -33l-0.5 -5t-1 -11.5t-1 -14t-0.5 -12.5q0 -4 0.5 -17.5t0.5 -17.5q14 0 28.5 6t27.5 11q8 4 12 4t13 2q25 6 47.5 10.5t46.5 4.5h29 q2 0 14 -3t14 -3h1h1q1 0 3 1.5t3 1.5t4 -10t3 -12v-2l-4 -6q-4 -6 -6 -8q0 -4 -3 -4q-23 -11 -47.5 -15t-48.5 -9t-47 -14.5t-45 -21.5q-14 -8 -28.5 -15t-25.5 -22q0 -3 -0.5 -11.5t-1 -18t-1 -18t-0.5 -11.5v-13.5t0.5 -20t0.5 -19.5v-13q15 0 30.5 5.5t30.5 9.5 q10 2 30 6.5t39.5 8.5t35.5 7.5t19 4.5q5 1 18 2.5t28 3.5t28 4t18 2h24h28q3 0 14.5 -1t15.5 -3q6 -1 9.5 -2.5t3.5 -9.5q0 -3 -1 -4l-4 -4q-2 -2 -7 -5.5t-6 -3.5q-2 -2 -14 -5.5t-14 -4.5q-2 -2 -4 -3l-2 -2l-1 -1q-1 0 -6 -1t-7 -1q-20 -5 -39 -8t-38 -8q-2 0 -10 -3 t-10 -3h-11q-1 0 -4 -1t-4 -1q-1 -1 -7 -2.5t-8 -1.5q-1 -1 -3 -1q-1 -1 -3 -1h-1q-7 -4 -13.5 -4.5t-14.5 -2.5q-1 0 -3.5 -1.5t-4.5 -1.5q-15 -7 -31.5 -8.5t-32.5 -9.5q-1 -1 -5 -3.5t-5 -2.5l-4 -2q-2 -1 -3 -1t-1 -0.5t-1 -0.5l-1 -1q-4 -6 -8 -6q0 -2 -3 -1t-4 1 t-3 -2l-2 -2q-3 -1 -8 -2t-8 -4q-1 -1 -4 -4.5t-4 -3.5q-3 -4 -4.5 -4t-2.5 -6q0 -1 -0.5 -5.5t-1 -9.5t-1 -9.5t-0.5 -5.5q-1 -7 -2.5 -19t-4.5 -23t-8 -19.5t-14 -8.5q-8 0 -10 8.5t-4 16.5v2v4zM141 279q0 -3 3 -4t5 -1q12 0 32 3.5t31 8.5q2 1 8.5 4.5t8.5 4.5h7 q1 0 2.5 2.5t2.5 3.5q5 8 3.5 15t-0.5 15q0 2 1 12t1 12q2 40 2.5 74.5t0.5 76.5h-3q-6 -14 -14 -27.5t-14 -27.5q-12 -28 -26 -54.5t-25 -55.5q-5 -11 -7.5 -23t-7.5 -23q-2 -5 -6.5 -7.5t-4.5 -8.5z" />
<glyph unicode="&#xc7;" horiz-adv-x="312" d="M39 37q-17 30 -21.5 54.5t-4.5 59.5v35t3 35q0 2 2 13t3 16q4 17 5.5 34t5.5 34q0 3 3 16.5t7 29t7 29t4 17.5q0 2 1 9t1 9q1 2 4 11t4 13q4 9 7.5 18.5t8.5 17.5l2 4q1 2 3 4v6q0 1 1 2t1 1.5t1 1.5q1 2 4 11.5t4 11.5t4 9t7.5 15.5t8.5 16.5l6 12q4 7 11 18t15.5 21 t18 17t18.5 7t17.5 -2.5t16.5 -5.5q13 -5 21 -12.5t10 -21.5q1 -3 2 -7t2 -9l2 -10v-29q0 -49 -13 -95q-5 -14 -11.5 -25t-12.5 -25q-8 -17 -15 -33t-24 -27q-5 -3 -8 -6t-9 -3l1 4q0 1 2.5 4t2.5 4v2q-1 0 -2.5 0.5t-2.5 -0.5l-3 -2q-1 -1 -1.5 -1t-1.5 -1t-2 -1t-4 1t-4 2 q-2 0 -8 1t-8 1q1 1 1.5 3t1.5 3t5.5 6t4.5 7q1 1 2 5t1 5t2.5 6t5.5 10t5.5 10t2.5 6q1 2 4.5 10.5t7 18t7 18t4.5 10.5q11 26 15 51.5t6 53.5q0 4 -2 6h-1q-5 0 -7.5 -3.5t-4.5 -7.5q-6 -8 -14 -14.5t-13 -14.5q-3 -6 -5.5 -13t-7.5 -13l-10 -10q-1 -2 -3 -9.5t-2 -9.5 q-6 -17 -12.5 -35t-11.5 -36l-2 -2q-1 -1 -1 -2v-1q0 -1 0.5 -6.5t-0.5 -6.5q0 -3 -2 -3q-2 -3 -4.5 -14t-3.5 -15v-10q0 -1 -2.5 -5.5t-2.5 -5.5q-4 -7 -5 -15t-3 -16q-8 -42 -14.5 -84t-6.5 -84v-8q0 -3 1 -14.5t1 -14.5q1 -5 2.5 -13t4.5 -16.5t6.5 -15.5t7.5 -10 q5 -3 7.5 -3h8.5q11 0 19.5 5.5t17.5 10.5q2 1 9.5 5t8.5 6q17 11 34 24.5t32 27.5q1 2 7.5 8t8.5 8q1 0 2 1t1.5 1t1.5 1l7 7l11 11t11.5 11t7.5 7t7.5 6t7.5 5q1 0 4.5 -0.5t3.5 0.5q1 1 3 5t2 5q3 4 8 4v-3q7 0 11 6.5t12 6.5q0 -2 -0.5 -7t-1.5 -7l-2 -4q-1 -1 -1 -1.5 t-1 -1.5l-1 -1q0 -2 -3 -5q0 -1 -1 -6.5t-1 -6.5q-1 -1 -5.5 -6.5t-5.5 -6.5q0 -1 -1 -4t-1 -4q-1 -1 -5.5 -5t-5.5 -5q-2 -3 -8 -11t-8 -10l-13.5 -13.5l-20 -20t-20.5 -19.5t-14 -13q-1 -1 -6.5 -5t-6.5 -6q-1 -1 -6.5 -7.5t-6.5 -7.5l-3 -3q-11 -7 -18.5 -13t-15 -10 t-16.5 -6.5t-22 -2.5q-22 0 -39 6.5t-33 22.5q-4 4 -4.5 7t-6.5 4zM125 2q-1 0 -1.5 -2.5t-0.5 -3.5h-1v-1q-1 0 -1 -1q-1 -3 0 -6.5t2 -6.5h-1v-1l-1 1h-2v-1v-1v-1.5t1 -1.5q1 -1 1 -4.5v-4.5q1 -1 1.5 -4.5t2 -7.5t2.5 -8t2 -6q1 -6 5 -11t5 -10v-0.5v-1.5 q4 -12 10.5 -22.5t13.5 -22.5q5 -9 9.5 -18l9.5 -19q8 -17 14.5 -32.5t7.5 -33.5q0 -1 -1 -1.5t0 -1.5v-2q0 -1 -2 -4.5t-2 -4.5l-1 -1v0q-1 -1 -5.5 -2.5t-5.5 -1.5q-5 -2 -9.5 -2h-9.5h-14.5t-13.5 2q-1 0 -4 0.5t-6.5 2t-7 2l-3.5 0.5q-4 2 -8 3.5t-9 2.5q-7 3 -14.5 5 t-14.5 6t-12.5 9.5t-12.5 10.5l-2 3l-2 2t-2 1l-3 3t-4 5t-4 5.5t-3 2.5q0 2 -1.5 3.5t-2.5 3.5q-3 2 -3 5t1 6q0 4 3.5 8.5t7.5 7.5q3 3 7.5 6t7.5 4q1 1 2.5 1.5l1.5 0.5l2 1q2 2 2.5 5.5t-3.5 5.5q-7 4 -14 0.5t-12 -6.5q-4 -3 -8.5 -6t-9.5 -6l-1 -1h-2q-5 -4 -10 -9.5 t-8.5 -11.5t-4 -12.5t4.5 -12.5l1.5 -1t1.5 -2q5 -6 10 -11l10 -10q0 -1 1 -2t2 -1l2 -2q1 -1 1 -2q1 0 3 -1.5t3 -1.5l6.5 -6.5t8.5 -7.5q19 -11 38 -17.5t43 -11.5q17 -4 36 -3.5t35 4.5q2 1 5 2t5 1q0 1 1.5 1.5l1.5 0.5q1 0 3 0.5t3 0.5q0 1 1 2t2 1q3 3 6.5 4.5 t7.5 4.5q7 6 11 14.5t3 16.5q1 0 1 2.5t-2 2.5q0 1 -1.5 5.5t-1.5 5.5l-0.5 2t-0.5 3l-1.5 3.5t-1.5 4.5q-1 4 -2.5 8.5t-3.5 8.5q0 1 -1 2l-1 1q-1 1 -2.5 4t-1.5 4q-1 1 -2 3l-1 2l-2 3q0 2 -3 5q-3 6 -6.5 12.5t-7.5 13.5l-2 4t-2 5q0 1 -2 3t-2 3q-2 2 -3 4.5t-2 4.5 l-2.5 2t-2.5 3q-2 3 -2 6.5t-1 6.5q0 1 -2 3.5l-2 2.5q-1 1 -1.5 2t0.5 2q-2 4 -4.5 6.5t-4.5 5.5q-2 4 -2.5 7.5t-2.5 7.5q-3 6 -6.5 13.5t-7.5 15.5q-2 4 -3.5 8.5t-4.5 6.5q-2 1 -5.5 2.5t-5.5 -0.5z" />
<glyph unicode="&#xc8;" d="M54 153h-2q-1 0 -1 1q-1 0 -3 -2.5t-3 -3.5q-7 -5 -15.5 -13t-19.5 -8q-5 0 -11.5 4.5t-12 10.5t-9 12.5t-3.5 11.5q0 8 6 15q5 8 13.5 13.5t16.5 11.5q14 11 28.5 22t28.5 22q1 0 4.5 2t3.5 3q1 1 2 6.5t1 7.5q7 29 13.5 57t14.5 57q3 15 8 29.5t5 30.5q-7 0 -11.5 -5.5 t-12.5 -5.5q-18 0 -25.5 16.5t-7.5 30.5q0 11 8 16q1 1 7 5.5t12 10t11.5 10t7.5 5.5l2 1q1 0 1 1q8 7 18.5 14.5t17.5 15.5q3 5 3 9.5t2 9.5q2 8 5.5 15t5.5 15q1 4 2.5 13.5t5.5 11.5q2 0 6 0.5t6 0.5q3 0 7.5 -0.5t5.5 -0.5q8 -2 13 -10.5t15 -8.5q8 0 13.5 2.5t12.5 5.5 q18 8 35.5 15.5t35.5 14.5q8 3 15 4.5t15 3.5q2 1 7.5 3.5t6.5 2.5h11q1 0 6.5 2.5t7.5 2.5q1 1 6.5 0.5t6.5 -0.5q2 1 7.5 2t6.5 1h2q5 0 3.5 -6t-0.5 -8q1 0 4.5 -1t4.5 -1v-1q0 -2 -5 -5t-11 -6l-12 -6l-8 -4q-1 -1 -4 -4.5t-4 -3.5q-2 -1 -7 -4t-7 -5 q-14 -7 -29.5 -14.5t-30.5 -15.5q-32 -15 -60 -32q-6 -4 -11 -8.5t-11 -8.5q-5 -3 -10 -5.5t-9 -7.5q-14 -19 -19.5 -40t-10.5 -42t-11 -41.5t-11 -40.5q0 -2 -1 -10t-2 -10q0 -1 0.5 -5t-0.5 -5q-2 -8 -4.5 -10t-2.5 -12h16q3 2 12.5 6.5t20 10t19.5 9.5t13 6 q23 11 45 20.5t45 18.5q1 0 5.5 2.5t5.5 2.5h4h4t3 -3q0 -1 0.5 -6t0.5 -7q0 -3 -0.5 -8t-0.5 -6t-1 -3t-2 -2q-23 -25 -51 -41q-2 -1 -11.5 -6.5t-13.5 -7.5q-5 -2 -6 -2.5t-5 -5.5l-38 -19q-21 -11 -42.5 -23.5t-39.5 -28.5l-8 -8q-1 -2 -3 -11t-3 -14q-1 -4 -2 -12 t-2.5 -16t-2.5 -15t-1 -9v-9q0 -3 0.5 -14t2 -23t5.5 -21t10 -9h1q29 8 49 24q30 23 57.5 49.5t57.5 49.5l2 1q1 0 1 1q12 17 26 30t31 25q3 2 5 4t6 2q11 0 11.5 -8.5t2.5 -16.5q0 -1 1 -3t1 -3l1 -1q0 -1 -1 -1q0 -1 -3.5 -3t-4.5 -3q-7 -8 -11 -17.5t-11 -17.5 q-21 -27 -44 -52.5t-48 -49.5q-11 -10 -25 -22.5t-30 -23t-32.5 -18t-32.5 -7.5h-9q-30 6 -46 27.5t-22 49.5q-2 7 -3.5 13t-2.5 14v10.5t0.5 16t0.5 16.5v11h-3zM222 700q-2 -2 -6.5 -4.5t-9.5 -4.5t-9.5 -3.5t-6.5 -0.5q-4 3 -8.5 6t-8.5 7q-3 3 -4 5.5t-1 5t-1 4t-2 5.5 q-1 1 -3.5 5t-3.5 5q-5 7 -8.5 14t-7.5 14q-3 6 -5.5 9.5t-6.5 10.5q-2 3 -5 8.5t-6 10.5q-8 10 -15.5 19.5t-15.5 18.5q-33 42 -62 84q-1 1 -2 3.5l-1 2.5l8 2q-1 4 -2.5 6.5t1.5 4.5l2 1.5t3 -0.5l16 -17q5 -2 10.5 -7t8.5 -7h2l3 -3q2 -2 2 -4t2 -3q1 -3 4 0q2 -1 5 -4.5 t6 -6.5t6.5 -6t4.5 -4l5 -4l2 -3l2 -2.5t2 -3.5q1 -1 4 -5.5t6.5 -7.5t7 -7l3.5 -4q1 -1 4 -5.5t4 -5.5t1.5 -2t3 -3t4 -4l1.5 -2q0 -1 4 -6t7.5 -11t6.5 -10.5t4 -5.5t3.5 -4t5 -6.5t5 -6.5t3.5 -3q5 -7 9.5 -14t9.5 -15q3 -5 9 -9.5t6 -12.5q1 -6 -1 -9t-5 -5zM41 918h-2 l0.5 0.5t-0.5 0.5q-1 2 -6 2l6 -5z" />
<glyph unicode="&#xc9;" d="M54 153h-2q-1 0 -1 1q-1 0 -3 -2.5t-3 -3.5q-7 -5 -15.5 -13t-19.5 -8q-5 0 -11.5 4.5t-12 10.5t-9 12.5t-3.5 11.5q0 8 6 15q5 8 13.5 13.5t16.5 11.5q14 11 28.5 22t28.5 22q1 0 4.5 2t3.5 3q1 1 2 6.5t1 7.5q7 29 13.5 57t14.5 57q3 15 8 29.5t5 30.5q-7 0 -11.5 -5.5 t-12.5 -5.5q-18 0 -25.5 16.5t-7.5 30.5q0 11 8 16q1 1 7 5.5t12 10t11.5 10t7.5 5.5l2 1q1 0 1 1q8 7 18.5 14.5t17.5 15.5q3 5 3 9.5t2 9.5q2 8 5.5 15t5.5 15q1 4 2.5 13.5t5.5 11.5q2 0 6 0.5t6 0.5q3 0 7.5 -0.5t5.5 -0.5q8 -2 13 -10.5t15 -8.5q8 0 13.5 2.5t12.5 5.5 q18 8 35.5 15.5t35.5 14.5q8 3 15 4.5t15 3.5q2 1 7.5 3.5t6.5 2.5h11q1 0 6.5 2.5t7.5 2.5q1 1 6.5 0.5t6.5 -0.5q2 1 7.5 2t6.5 1h2q5 0 3.5 -6t-0.5 -8q1 0 4.5 -1t4.5 -1v-1q0 -2 -5 -5t-11 -6l-12 -6l-8 -4q-1 -1 -4 -4.5t-4 -3.5q-2 -1 -7 -4t-7 -5 q-14 -7 -29.5 -14.5t-30.5 -15.5q-32 -15 -60 -32q-6 -4 -11 -8.5t-11 -8.5q-5 -3 -10 -5.5t-9 -7.5q-14 -19 -19.5 -40t-10.5 -42t-11 -41.5t-11 -40.5q0 -2 -1 -10t-2 -10q0 -1 0.5 -5t-0.5 -5q-2 -8 -4.5 -10t-2.5 -12h16q3 2 12.5 6.5t20 10t19.5 9.5t13 6 q23 11 45 20.5t45 18.5q1 0 5.5 2.5t5.5 2.5h4h4t3 -3q0 -1 0.5 -6t0.5 -7q0 -3 -0.5 -8t-0.5 -6t-1 -3t-2 -2q-23 -25 -51 -41q-2 -1 -11.5 -6.5t-13.5 -7.5q-5 -2 -6 -2.5t-5 -5.5l-38 -19q-21 -11 -42.5 -23.5t-39.5 -28.5l-8 -8q-1 -2 -3 -11t-3 -14q-1 -4 -2 -12 t-2.5 -16t-2.5 -15t-1 -9v-9q0 -3 0.5 -14t2 -23t5.5 -21t10 -9h1q29 8 49 24q30 23 57.5 49.5t57.5 49.5l2 1q1 0 1 1q12 17 26 30t31 25q3 2 5 4t6 2q11 0 11.5 -8.5t2.5 -16.5q0 -1 1 -3t1 -3l1 -1q0 -1 -1 -1q0 -1 -3.5 -3t-4.5 -3q-7 -8 -11 -17.5t-11 -17.5 q-21 -27 -44 -52.5t-48 -49.5q-11 -10 -25 -22.5t-30 -23t-32.5 -18t-32.5 -7.5h-9q-30 6 -46 27.5t-22 49.5q-2 7 -3.5 13t-2.5 14v10.5t0.5 16t0.5 16.5v11h-3zM238 717q-3 2 -5.5 5t-0.5 9q0 7 6.5 11.5t8.5 9.5q6 8 10.5 14.5t11.5 13.5l3 3t5.5 6.5t5 6t3.5 4.5 q1 1 4 5.5t7 10t8 10t5 5.5l1.5 2t4 4t3 3t1.5 2t4 5t5 6l3.5 3.5t7 6.5t7 7.5t4.5 4.5q-1 1 1.5 3.5l2.5 2.5l2 3l5 4q1 1 4.5 4t7 5.5t6.5 6t5 4.5q3 -3 4 0q2 1 2.5 3t1.5 3l3 4l2 -1q4 3 9.5 7.5t10.5 6.5l17 16q1 2 2.5 0l1.5 -2q3 -2 2 -4.5t-3 -6.5l8 -2l-1.5 -2 t-1.5 -3q-31 -41 -66 -82q-9 -8 -17 -17t-16 -20q-2 -4 -5.5 -9.5t-5.5 -7.5q-4 -7 -7 -11t-6 -9q-5 -7 -8.5 -14t-9.5 -13q0 -1 -3 -5t-4 -5q-1 -3 -2 -4.5t-1 -4.5t-1.5 -5.5t-4.5 -4.5q-4 -5 -9 -7.5t-8 -4.5q-3 -1 -7 0.5t-9 3.5t-9.5 5t-5.5 5zM430 924l6 5q-5 0 -6 -2 q-1 0 -0.5 -0.5l0.5 -0.5h-2z" />
<glyph unicode="&#xca;" d="M54 153h-2q-1 0 -1 1q-1 0 -3 -2.5t-3 -3.5q-7 -5 -15.5 -13t-19.5 -8q-5 0 -11.5 4.5t-12 10.5t-9 12.5t-3.5 11.5q0 8 6 15q5 8 13.5 13.5t16.5 11.5q14 11 28.5 22t28.5 22q1 0 4.5 2t3.5 3q1 1 2 6.5t1 7.5q7 29 13.5 57t14.5 57q3 15 8 29.5t5 30.5q-7 0 -11.5 -5.5 t-12.5 -5.5q-18 0 -25.5 16.5t-7.5 30.5q0 11 8 16q1 1 7 5.5t12 10t11.5 10t7.5 5.5l2 1q1 0 1 1q8 7 18.5 14.5t17.5 15.5q3 5 3 9.5t2 9.5q2 8 5.5 15t5.5 15q1 4 2.5 13.5t5.5 11.5q2 0 6 0.5t6 0.5q3 0 7.5 -0.5t5.5 -0.5q8 -2 13 -10.5t15 -8.5q8 0 13.5 2.5t12.5 5.5 q18 8 35.5 15.5t35.5 14.5q8 3 15 4.5t15 3.5q2 1 7.5 3.5t6.5 2.5h11q1 0 6.5 2.5t7.5 2.5q1 1 6.5 0.5t6.5 -0.5q2 1 7.5 2t6.5 1h2q5 0 3.5 -6t-0.5 -8q1 0 4.5 -1t4.5 -1v-1q0 -2 -5 -5t-11 -6l-12 -6l-8 -4q-1 -1 -4 -4.5t-4 -3.5q-2 -1 -7 -4t-7 -5 q-14 -7 -29.5 -14.5t-30.5 -15.5q-32 -15 -60 -32q-6 -4 -11 -8.5t-11 -8.5q-5 -3 -10 -5.5t-9 -7.5q-14 -19 -19.5 -40t-10.5 -42t-11 -41.5t-11 -40.5q0 -2 -1 -10t-2 -10q0 -1 0.5 -5t-0.5 -5q-2 -8 -4.5 -10t-2.5 -12h16q3 2 12.5 6.5t20 10t19.5 9.5t13 6 q23 11 45 20.5t45 18.5q1 0 5.5 2.5t5.5 2.5h4h4t3 -3q0 -1 0.5 -6t0.5 -7q0 -3 -0.5 -8t-0.5 -6t-1 -3t-2 -2q-23 -25 -51 -41q-2 -1 -11.5 -6.5t-13.5 -7.5q-5 -2 -6 -2.5t-5 -5.5l-38 -19q-21 -11 -42.5 -23.5t-39.5 -28.5l-8 -8q-1 -2 -3 -11t-3 -14q-1 -4 -2 -12 t-2.5 -16t-2.5 -15t-1 -9v-9q0 -3 0.5 -14t2 -23t5.5 -21t10 -9h1q29 8 49 24q30 23 57.5 49.5t57.5 49.5l2 1q1 0 1 1q12 17 26 30t31 25q3 2 5 4t6 2q11 0 11.5 -8.5t2.5 -16.5q0 -1 1 -3t1 -3l1 -1q0 -1 -1 -1q0 -1 -3.5 -3t-4.5 -3q-7 -8 -11 -17.5t-11 -17.5 q-21 -27 -44 -52.5t-48 -49.5q-11 -10 -25 -22.5t-30 -23t-32.5 -18t-32.5 -7.5h-9q-30 6 -46 27.5t-22 49.5q-2 7 -3.5 13t-2.5 14v10.5t0.5 16t0.5 16.5v11h-3zM301 987q20 -1 36 -10q0 -1 3 -3t4 -2t3.5 -1l2.5 -1l1 -1l2 -2q3 -1 8.5 -6t6.5 -6l1.5 -2t3.5 -4.5 t3.5 -4.5t2.5 -3t3 -4.5t4 -8t4 -8t3 -4.5q1 0 1 -1v-2q0 -2 1 -4.5t3 -6.5q0 -1 1.5 -4.5t1.5 -4.5q1 -5 2 -13t1 -14l-1 -4q0 -1 -0.5 -2t-0.5 -2q-1 -1 -1.5 -7.5l-0.5 -6.5q0 -2 -2 -5t-4 -2l-1 1q-2 0 -3.5 2t-2.5 3q-3 13 -6.5 27t-8 27t-11 25t-15.5 21 q-8 8 -16.5 12.5t-17.5 5.5q-7 0 -13.5 -0.5t-12.5 -3.5q-2 0 -4.5 -1l-2.5 -1q-2 0 -6 -2.5l-8 -5t-8 -4.5t-7 -3q-9 -5 -18 -11t-17 -13l-5 -5t-4 -5q-1 0 -3.5 -2t-5 -5t-5 -4.5l-2.5 -1.5q-1 -2 -3.5 -4.5t-2.5 -3.5q-1 -1 -1.5 -2.5t-0.5 -2.5t-2 -1.5t-3 -0.5 q-5 -4 -10 -10.5t-8 -12.5q-1 0 -1.5 -2t-0.5 -3h-1l-1 -2q-3 -3 -5.5 -6.5t-3.5 -7.5v-2v-1l-2 -2q-1 -1 -1 -2v-1q0 -2 0.5 -3.5t0.5 -2.5t-0.5 -3.5t-3.5 -4.5q2 -5 0 -11.5t-9 -9.5l-10 2l-9 1q-1 0 -2.5 1l-1.5 1h-1h-1q-1 -1 -2 -1h-1h-1v2q-1 0 -1 1v3q-1 0 -1.5 2 l-0.5 2q-1 1 -1 2v2t1 3q0 1 1 2v0v0v1q2 8 3 15t5 13q6 15 16 29.5t21.5 26.5t24.5 23l26 22q11 10 25 17.5t28 13.5q12 6 25.5 10t26.5 2z" />
</font>
</defs>
</svg>
